<svg xmlns="http://www.w3.org/2000/svg" fill="none" stroke="currentColor" stroke-linecap="round" stroke-linejoin="round" stroke-width="3" color="currentColor" viewBox="0 0 24 24"><path d="M15.205 10.718C13.795 9.601 11 7.048 11 4.75 11 3.231 12.053 2 13.5 2c.75 0 1.5.265 2.5 1.324C17 2.264 17.75 2 18.5 2 19.947 2 21 3.231 21 4.75c0 2.298-2.795 4.851-4.205 5.968a1.26 1.26 0 0 1-1.59 0M2 19v-6c0-.465 0-.697.051-.888a1.5 1.5 0 0 1 1.06-1.06C3.304 11 3.536 11 4 11s.697 0 .888.051a1.5 1.5 0 0 1 1.06 1.06C6 12.303 6 12.536 6 13v6c0 .465 0 .698-.051.888a1.5 1.5 0 0 1-1.06 1.06C4.696 21 4.464 21 4 21s-.697 0-.888-.051a1.5 1.5 0 0 1-1.06-1.06C2 19.697 2 19.464 2 19M6 12h1.768a6 6 0 0 1 2.364.485l4.725 2.025A1.89 1.89 0 0 1 16 16.243c0 .694-.563 1.257-1.257 1.257H14.1a5.7 5.7 0 0 1-2.119-.408L10.5 16.5"/><path d="M14 17.5h6.575a1.425 1.425 0 0 1 .391 2.795l-5.22 1.492a5.53 5.53 0 0 1-2.947.026L6 20"/></svg>
