<?xml version="1.0" encoding="utf-8"?>
<!-- Generator: Adobe Adobe Illustrator 24.2.0, SVG Export Plug-In . SVG Version: 6.00 Build 0)  -->
<svg version="1.1" id="Capa_1" xmlns="http://www.w3.org/2000/svg" xmlns:xlink="http://www.w3.org/1999/xlink" x="0px" y="0px"
	 width="1155.11px" height="331.21px" viewBox="0 0 1155.11 331.21" style="enable-background:new 0 0 1155.11 331.21;"
	 xml:space="preserve">
<style type="text/css">
	.st0{fill:#292975;}
	.st1{fill:#2B2B77;}
	.st2{fill:#A0F9F9;}
	.st3{fill:#00EDFF;}
	.st4{fill:#F9D0BB;}
	.st5{fill:#EDE962;}
	.st6{fill:#F9B2C2;}
	.st7{fill:#F7415B;}
	.st8{fill:#FFFFFF;}
	.st9{fill:#BF7422;}
	.st10{fill:#D8BCA4;}
	.st11{fill:#FCE8D6;}
	.st12{fill:#AA8252;}
	.st13{fill:#D8A877;}
	.st14{fill:#E2AA91;}
	.st15{fill:#FCEBE3;}
	.st16{fill:#F78686;}
	.st17{fill:#E0A58C;}
	.st18{fill:#BCB23B;}
	.st19{fill:#965B1A;}
	.st20{fill:#5BD85B;}
	.st21{fill:#268BC4;}
	.st22{fill:#D6B59D;}
	.st23{fill:none;}
	.st24{fill:#CE2949;}
	.st25{fill:#F4E0D3;}
	.st26{opacity:0.3;fill:#2B2B77;}
	.st27{opacity:0.54;fill:#FFFFFF;}
</style>
<g>
	<path class="st1" d="M372.14,163.11v-38.78h37.18v-14.94h-37.18v-23.7h42.08V70.61h-59.94v92.51H372.14z M455.31,162.32
		c3.57-1.48,6.68-3.38,9.33-5.67l0.66,6.46h16.54V95.03h-17.86v48.26c-1.85,2.01-4.08,3.69-6.68,5.03c-2.6,1.34-5.45,2.01-8.54,2.01
		c-4.06,0-7.1-1.03-9.13-3.09c-2.03-2.06-3.04-5.39-3.04-9.98V95.03h-17.86v42.66c0,8.81,2.1,15.49,6.29,20.04
		c4.19,4.55,10.03,6.82,17.53,6.82C447.48,164.55,451.73,163.81,455.31,162.32z M514.92,163.11v-48.26
		c1.85-2.01,4.17-3.69,6.95-5.03c2.78-1.34,5.53-2.01,8.27-2.01c4.67,0,7.87,0.96,9.59,2.87c1.72,1.92,2.58,5.17,2.58,9.77v42.66
		h17.86v-43.67c0-8.81-1.9-15.32-5.69-19.54c-3.79-4.21-9.84-6.32-18.13-6.32c-4.32,0-8.45,0.79-12.37,2.37
		c-3.93,1.58-7.17,3.43-9.73,5.53l-0.66-6.46h-16.54v68.09H514.92z M610.26,162.61c3.22-1.29,6.2-3.23,8.93-5.82l1.06,6.32h15.35
		V66.3h-17.86v32.46c-4.85-3.45-10.72-5.17-17.6-5.17c-5.47,0-10.5,1.44-15.09,4.31c-4.59,2.87-8.25,7.09-10.98,12.64
		c-2.74,5.56-4.1,12.4-4.1,20.54c0,8.14,1.23,14.68,3.71,19.61c2.47,4.93,5.89,8.48,10.26,10.63c4.37,2.15,9.33,3.23,14.89,3.23
		C603.22,164.55,607.04,163.9,610.26,162.61z M592.2,146.16c-2.74-2.78-4.1-7.8-4.1-15.08c0-15.51,5.56-23.27,16.67-23.27
		c4.94,0,9.26,1.77,12.97,5.31v31.03c-3.79,4.12-8.47,6.18-14.03,6.18C598.77,150.33,594.93,148.94,592.2,146.16z M683.37,162.54
		c3.62-1.34,6.66-3.21,9.13-5.6l0.93,6.18h15.48v-43.24c0-9.19-2.58-15.87-7.74-20.04c-5.16-4.17-12.46-6.25-21.9-6.25
		c-4.94,0-9.51,0.41-13.7,1.22c-4.19,0.81-7.74,1.85-10.65,3.09v13.65c6.62-2.39,13.5-3.59,20.64-3.59c6.53,0,10.87,0.86,13.03,2.59
		c2.16,1.72,3.24,4.69,3.24,8.91v1.87h-18.53c-8.56,0-15.02,2.01-19.39,6.03c-4.37,4.02-6.55,9.39-6.55,16.09
		c0,4.69,1.04,8.6,3.11,11.71c2.07,3.11,4.81,5.46,8.2,7.04c3.4,1.58,7.08,2.37,11.05,2.37
		C675.21,164.55,679.75,163.88,683.37,162.54z M663.26,142.72c0-6.22,3.48-9.34,10.45-9.34h18.13v10.77
		c-1.68,2.2-3.97,4.02-6.88,5.46c-2.91,1.44-6.35,2.15-10.32,2.15C667.05,151.77,663.26,148.75,663.26,142.72z M776.66,160.38
		v-14.36c-2.56,1.34-5.32,2.35-8.27,3.02c-2.96,0.67-5.98,1.01-9.06,1.01c-7.23,0-12.46-1.67-15.68-5.03
		c-3.22-3.35-4.83-8.67-4.83-15.94c0-7.95,1.76-13.43,5.29-16.45c3.53-3.02,8.64-4.52,15.35-4.52c3.35,0,6.48,0.34,9.4,1.01
		c2.91,0.67,5.47,1.58,7.68,2.73V97.9c-3-1.53-6.09-2.63-9.26-3.3c-3.18-0.67-6.97-1.01-11.38-1.01c-10.67,0-19.21,2.92-25.6,8.76
		c-6.4,5.84-9.59,14.75-9.59,26.72c0,11.59,2.98,20.4,8.93,26.43c5.96,6.03,14.53,9.05,25.74,9.05
		C763.65,164.55,770.75,163.16,776.66,160.38z M811.59,163.11V95.03h-25.67l-1.59,14.36h9.4v53.72H811.59z M811.73,82.53V67.3
		h-19.45v15.23H811.73z M884.11,155.29c5.47-6.18,8.2-14.91,8.2-26.21c0-11.3-2.76-20.04-8.27-26.22
		c-5.51-6.18-14.14-9.26-25.87-9.26c-11.65,0-20.23,3.09-25.74,9.26c-5.51,6.18-8.27,14.92-8.27,26.22c0,11.3,2.73,20.04,8.2,26.21
		c5.47,6.18,14.07,9.26,25.8,9.26C869.99,164.55,878.64,161.46,884.11,155.29z M846,143.79c-2.47-2.82-3.7-7.73-3.7-14.72
		c0-6.99,1.23-11.9,3.7-14.72c2.47-2.82,6.53-4.24,12.17-4.24c5.73,0,9.84,1.41,12.31,4.24c2.47,2.83,3.7,7.73,3.7,14.72
		c0,6.99-1.24,11.9-3.7,14.72c-2.47,2.83-6.57,4.24-12.31,4.24C852.53,148.03,848.47,146.62,846,143.79z M864.39,88.13l11.64-26.86
		h-15.48l-10.59,26.86H864.39z M922.61,163.11v-48.26c1.85-2.01,4.17-3.69,6.95-5.03c2.78-1.34,5.53-2.01,8.27-2.01
		c4.67,0,7.87,0.96,9.59,2.87c1.72,1.92,2.58,5.17,2.58,9.77v42.66h17.86v-43.67c0-8.81-1.9-15.32-5.69-19.54
		c-3.79-4.21-9.84-6.32-18.13-6.32c-4.32,0-8.45,0.79-12.37,2.37c-3.93,1.58-7.17,3.43-9.73,5.53l-0.66-6.46h-16.54v68.09H922.61z
		 M1054.8,136.68V70.61h-17.86v61.77c0,5.55-1.17,9.55-3.51,11.99c-2.34,2.44-6.24,3.66-11.71,3.66c-5.91,0-11.07-1.05-15.48-3.16
		v16.38c5.56,2.2,11.91,3.3,19.06,3.3C1044.97,164.55,1054.8,155.26,1054.8,136.68z M1087.09,163.11v-60.19l19.98,44.24h10.32
		l19.85-44.24v60.19h17.86V70.61h-17.86l-25.01,55.59l-25.01-55.59h-18v92.51H1087.09z M398.86,238.04l0.25-15.37
		c3.96,0,8.09-0.46,12.39-1.37c2.4-0.55,4.8-1.26,7.2-2.13c2.4-0.87,4.56-1.98,6.48-3.33c1.92-1.35,3.48-2.95,4.68-4.8
		c1.2-1.85,1.8-3.92,1.8-6.21c0-2.29-1.2-4.07-3.6-5.35c-1.05-0.59-2.68-1.22-4.87-1.89c-2.19-0.66-4.87-0.99-8.03-0.99
		c-7.33,0-12.37,0.73-15.1,2.19c-1.52,0.78-2.65,1.82-3.41,3.12c-0.76,1.3-1.31,2.92-1.64,4.84c-0.34,1.92-0.57,4.21-0.69,6.86
		c-0.13,2.65-0.3,5.69-0.51,9.12v15.98l2.84,0.14C398.12,238.87,398.86,238.59,398.86,238.04z M399.8,209.64
		c0.17-0.73,0.27-1.37,0.32-1.92c0.13-1.33,0.82-2.49,2.09-3.5c1.26-1.01,2.82-1.81,4.68-2.4c1.85-0.59,3.49-0.95,4.9-1.06
		c1.41-0.11,2.63-0.17,3.67-0.17c1.03,0,2.2,0.14,3.51,0.41c4.38,0.82,6.89,2.72,7.52,5.69c0,2.97-1.62,5.42-4.87,7.34
		c-1.43,0.82-3.04,1.51-4.83,2.06c-1.79,0.55-3.57,0.99-5.34,1.34c-1.77,0.34-3.44,0.57-5.02,0.69c-1.58,0.11-2.69,0.18-3.32,0.21
		c-0.63,0.02-1.07,0.03-1.33,0.03c-1.81,0-2.72-1.14-2.72-3.43C399.05,213.74,399.3,211.98,399.8,209.64z M459.96,232.35
		c0.08,0.82,0.17,1.71,0.25,2.67c0.08,0.96,0.21,2.06,0.38,3.29h3.73c-0.42-1.83-0.69-3.85-0.79-6.07
		c-0.11-2.22-0.21-5.37-0.32-9.47c-0.1-4.09-0.43-7.28-0.98-9.57c-0.84-3.61-2.49-5.42-4.93-5.42c-0.76-0.14-1.61-0.21-2.56-0.21
		c-0.95,0-1.99,0.14-3.13,0.41c-3.88,1.01-7.48,3.25-10.81,6.72c-1.6,1.65-2.96,3.45-4.08,5.42c-1.12,1.97-1.89,3.8-2.31,5.49
		c-0.42,1.69-0.63,3.05-0.63,4.08c0,1.03,0.08,1.96,0.25,2.78c0,1.74,0.78,3.09,2.34,4.05c0.67,0.41,1.41,0.71,2.21,0.89
		c0.8,0.18,1.53,0.29,2.18,0.31c0.65,0.02,1.47,0.03,2.47,0.03c0.99,0,2.09-0.14,3.32-0.41c5.27-1.28,9.48-4.62,12.64-10.02
		C459.5,228.76,459.75,230.43,459.96,232.35z M456.93,223.36c-0.97,1.88-2.19,3.61-3.67,5.21c-3.45,3.66-7.08,5.53-10.87,5.62
		c-2.86-0.5-4.3-2.1-4.3-4.8c0-2.06,0.84-4.39,2.53-7c1.14-1.83,2.51-3.47,4.11-4.94c3.41-3.2,6.66-4.8,9.73-4.8
		c0.29,0,0.59,0.02,0.88,0.07c2.4,0,3.6,1.33,3.6,3.98C458.95,218.63,458.28,220.85,456.93,223.36z M500.09,209.85
		c0-0.91-0.23-1.69-0.7-2.33c-0.38-0.55-0.76-0.82-1.14-0.82s-0.69,0.02-0.95,0.07c-1.01-0.05-1.98-0.07-2.91-0.07
		c-8.26,0-15.17,2.7-20.73,8.09c-0.09-0.41-0.18-1.12-0.28-2.13c-0.11-1.01-0.31-2.02-0.6-3.05c-0.29-1.03-0.7-1.94-1.2-2.74
		c-0.51-0.8-1.2-1.2-2.09-1.2c-1.47,0-2.21,0.55-2.21,1.65c0.25,2.15,0.61,5.51,1.07,10.08c0.21,2.1,0.43,4.24,0.66,6.41
		c0.23,2.17,0.44,4.17,0.63,6c0.19,1.83,0.35,3.39,0.47,4.66c0.13,1.28,0.21,2.06,0.25,2.33c0.34,1.05,0.64,1.76,0.92,2.13
		c0.27,0.37,0.6,0.55,0.98,0.55c0.38,0,0.84-0.09,1.39-0.27c0.55-0.18,1.26-0.3,2.15-0.34c0-2.2-0.21-4.36-0.63-6.48
		c-0.42-2.13-0.63-3.82-0.63-5.08c0-1.26,0-2.02,0-2.3c0-1.55,0.34-3.02,1.01-4.39c1.56-3.02,4.44-5.49,8.66-7.41
		c2.23-1.05,4.65-1.58,7.27-1.58c2.78,0,5.06,0.69,6.83,2.06C499.5,213.42,500.09,212.14,500.09,209.85z M528.59,232.35
		c0.08,0.82,0.17,1.71,0.25,2.67c0.08,0.96,0.21,2.06,0.38,3.29h3.73c-0.42-1.83-0.69-3.85-0.79-6.07
		c-0.11-2.22-0.21-5.37-0.32-9.47c-0.1-4.09-0.43-7.28-0.98-9.57c-0.84-3.61-2.49-5.42-4.93-5.42c-0.76-0.14-1.61-0.21-2.56-0.21
		c-0.95,0-1.99,0.14-3.13,0.41c-3.88,1.01-7.48,3.25-10.81,6.72c-1.6,1.65-2.96,3.45-4.08,5.42c-1.12,1.97-1.89,3.8-2.31,5.49
		c-0.42,1.69-0.63,3.05-0.63,4.08c0,1.03,0.08,1.96,0.25,2.78c0,1.74,0.78,3.09,2.34,4.05c0.67,0.41,1.41,0.71,2.21,0.89
		c0.8,0.18,1.53,0.29,2.18,0.31c0.65,0.02,1.47,0.03,2.47,0.03c0.99,0,2.09-0.14,3.32-0.41c5.27-1.28,9.48-4.62,12.64-10.02
		C528.12,228.76,528.38,230.43,528.59,232.35z M525.56,223.36c-0.97,1.88-2.19,3.61-3.67,5.21c-3.45,3.66-7.08,5.53-10.87,5.62
		c-2.86-0.5-4.3-2.1-4.3-4.8c0-2.06,0.84-4.39,2.53-7c1.14-1.83,2.51-3.47,4.11-4.94c3.41-3.2,6.66-4.8,9.73-4.8
		c0.29,0,0.59,0.02,0.88,0.07c2.4,0,3.6,1.33,3.6,3.98C527.58,218.63,526.9,220.85,525.56,223.36z M566.63,227.68
		c0.38-1.55,1.03-2.72,1.96-3.5c1.6-1.42,3.92-2.13,6.95-2.13l9.1,0.41c1.39,0,2.61-0.16,3.66-0.48c2.4-0.73,3.64-2.49,3.73-5.28
		c0.04-0.32,0.06-0.64,0.06-0.96c0-1.14-0.42-2.26-1.26-3.36c-0.84-1.1-1.98-2.08-3.41-2.95c-3.03-1.83-5.77-2.74-8.21-2.74
		c-2.57,0-4.99,0.62-7.27,1.85c-2.27,1.23-4.26,2.93-5.94,5.08c-1.69,2.15-2.88,4.42-3.57,6.83c-0.7,2.4-1.04,4.33-1.04,5.8
		c0,1.46,0.04,2.63,0.13,3.5c1.01,4.39,3.85,7.25,8.53,8.57c4.13,1.14,8.57,0.85,13.33-0.89c4.76-1.74,7.98-4.16,9.67-7.27
		c0-0.46-0.15-0.86-0.44-1.2c-0.29-0.34-0.67-0.51-1.14-0.51c-7.46,3.66-13.04,5.49-16.75,5.49
		C570.38,233.93,567.68,231.85,566.63,227.68z M587.42,215.06c0,0.69-0.51,1.26-1.52,1.71c-1.64,0.87-4.8,1.3-9.48,1.3
		c-1.69,0-4.21-0.16-7.58-0.48c0-1.6,1.45-3.13,4.36-4.6c1.18-0.59,2.53-1.13,4.04-1.61c1.52-0.48,2.61-0.72,3.29-0.72
		c0.67,0,1.52,0.16,2.53,0.48c1.01,0.32,1.99,0.85,2.94,1.58C586.95,213.46,587.42,214.24,587.42,215.06z M598.19,219.93
		c0.06,2.74,0.16,5.97,0.28,9.67c0.13,3.7,0.19,6.75,0.19,9.12l0.51,0.07c2.69,0,4.04-1.05,4.04-3.16c0-7.82-0.21-15.64-0.63-23.46
		c-0.8-13.49-1.94-20.24-3.41-20.24c-0.67,0-1.19,0.25-1.55,0.75c-0.36,0.5-0.73,1.03-1.11,1.58c0.67,3.66,1.02,5.96,1.04,6.89
		c0.02,0.94,0.07,2.38,0.16,4.32c0.08,1.94,0.17,4.15,0.25,6.62S598.13,217.19,598.19,219.93z M662.81,183.65
		c-1.56,0-2.65,0.57-3.29,1.71c-0.29,0.55-0.52,1.2-0.66,1.95c-0.15,0.75-0.26,1.67-0.35,2.74c-0.09,1.08-0.25,4.59-0.51,10.53
		c-0.13,2.29-0.24,4.46-0.35,6.52c-0.11,2.06-0.16,3.5-0.16,4.32c-1.77-0.64-3.62-0.96-5.56-0.96c-4.51,0-8.7,1.42-12.58,4.25
		c-1.77,1.33-3.28,2.86-4.52,4.6c-1.24,1.74-2.06,3.42-2.46,5.04c-0.4,1.62-0.6,3.01-0.6,4.15c0,1.14,0.1,2.26,0.32,3.36
		c1.52,2.65,3.13,4.41,4.83,5.28c1.71,0.87,3.38,1.3,5.02,1.3c4.13,0,9.18-2.42,15.17-7.27v2.26c0,3.57,0.99,5.35,2.97,5.35
		c0.84,0,1.44-0.23,1.8-0.69c0.36-0.46,0.54-1.21,0.54-2.26c-0.59-5.03-0.88-9.8-0.88-14.3c0-4.5,0.09-8.76,0.28-12.76
		c0.19-4,0.4-8.09,0.63-12.28C662.69,192.32,662.81,188.04,662.81,183.65z M636.96,225.01c0.97-2.51,2.74-4.71,5.31-6.59
		c1.22-0.87,2.46-1.6,3.73-2.2c1.26-0.59,2.4-1.01,3.41-1.23c1.01-0.23,1.76-0.34,2.24-0.34c0.48,0,0.87,0.02,1.17,0.07
		c2.4,0,3.6,0.8,3.6,2.4v9.12c-1.05,1.51-3.98,3.29-8.78,5.35c-2.53,1.1-4.66,1.65-6.38,1.65c-0.46,0.09-0.88,0.14-1.26,0.14
		c-2.4,0-3.6-1.81-3.6-5.42C636.39,226.95,636.58,225.97,636.96,225.01z M670.9,227.68c0.38-1.55,1.03-2.72,1.96-3.5
		c1.6-1.42,3.92-2.13,6.95-2.13l9.1,0.41c1.39,0,2.61-0.16,3.66-0.48c2.4-0.73,3.64-2.49,3.73-5.28c0.04-0.32,0.06-0.64,0.06-0.96
		c0-1.14-0.42-2.26-1.26-3.36c-0.84-1.1-1.98-2.08-3.41-2.95c-3.03-1.83-5.77-2.74-8.21-2.74c-2.57,0-4.99,0.62-7.27,1.85
		c-2.27,1.23-4.26,2.93-5.94,5.08c-1.69,2.15-2.88,4.42-3.57,6.83c-0.7,2.4-1.04,4.33-1.04,5.8c0,1.46,0.04,2.63,0.13,3.5
		c1.01,4.39,3.85,7.25,8.53,8.57c4.13,1.14,8.57,0.85,13.33-0.89c4.76-1.74,7.98-4.16,9.67-7.27c0-0.46-0.15-0.86-0.44-1.2
		c-0.29-0.34-0.67-0.51-1.14-0.51c-7.46,3.66-13.04,5.49-16.75,5.49C674.65,233.93,671.95,231.85,670.9,227.68z M691.69,215.06
		c0,0.69-0.51,1.26-1.52,1.71c-1.64,0.87-4.8,1.3-9.48,1.3c-1.69,0-4.21-0.16-7.58-0.48c0-1.6,1.45-3.13,4.36-4.6
		c1.18-0.59,2.53-1.13,4.04-1.61c1.52-0.48,2.61-0.72,3.29-0.72c0.67,0,1.52,0.16,2.53,0.48c1.01,0.32,1.99,0.85,2.94,1.58
		C691.21,213.46,691.69,214.24,691.69,215.06z M713.17,222.4l-4.61,0.55c-1.73,0-2.59-0.64-2.59-1.92c0.08-2.65,1.43-4.8,4.04-6.45
		c2.53-1.69,5.73-2.54,9.61-2.54c3.12,0,5.92,0.62,8.4,1.85c0-2.2-0.09-3.77-0.25-4.73c-0.17-0.96-0.76-1.44-1.77-1.44
		c-1.22-0.27-2.49-0.41-3.79-0.41c-4.42,0-8.7,1.07-12.83,3.22c-1.69,0.87-3.16,1.83-4.42,2.88c-1.26,1.05-2.28,2.18-3.03,3.4
		c-0.76,1.21-1.14,2.54-1.14,3.98c0,1.44,0.69,2.87,2.09,4.29c1.6,1.6,3.5,2.45,5.69,2.54c4.8-1.28,8.45-1.92,10.93-1.92
		c2.48,0,3.73,0.53,3.73,1.58c0,1.05-1.05,2.4-3.16,4.05c-3.12,2.47-7.1,4.57-11.94,6.31c0.08,0.09,0.22,0.31,0.41,0.65
		c0.19,0.34,0.46,0.83,0.82,1.48c0.36,0.64,0.68,0.96,0.98,0.96c6.49-2.29,11.65-5.33,15.48-9.12c2.57-2.56,3.85-4.8,3.85-6.72
		c0-2.56-2.32-3.84-6.95-3.84C720.31,221.03,717.13,221.49,713.17,222.4z M759.18,232.35c0.08,0.82,0.17,1.71,0.25,2.67
		c0.08,0.96,0.21,2.06,0.38,3.29h3.73c-0.42-1.83-0.69-3.85-0.79-6.07c-0.11-2.22-0.21-5.37-0.32-9.47
		c-0.11-4.09-0.43-7.28-0.98-9.57c-0.84-3.61-2.49-5.42-4.93-5.42c-0.76-0.14-1.61-0.21-2.56-0.21s-1.99,0.14-3.13,0.41
		c-3.88,1.01-7.48,3.25-10.81,6.72c-1.6,1.65-2.96,3.45-4.08,5.42c-1.12,1.97-1.89,3.8-2.31,5.49c-0.42,1.69-0.63,3.05-0.63,4.08
		c0,1.03,0.08,1.96,0.25,2.78c0,1.74,0.78,3.09,2.34,4.05c0.67,0.41,1.41,0.71,2.21,0.89c0.8,0.18,1.53,0.29,2.18,0.31
		c0.65,0.02,1.47,0.03,2.46,0.03c0.99,0,2.1-0.14,3.32-0.41c5.27-1.28,9.48-4.62,12.64-10.02
		C758.71,228.76,758.96,230.43,759.18,232.35z M756.14,223.36c-0.97,1.88-2.19,3.61-3.67,5.21c-3.45,3.66-7.08,5.53-10.87,5.62
		c-2.87-0.5-4.3-2.1-4.3-4.8c0-2.06,0.84-4.39,2.53-7c1.14-1.83,2.51-3.47,4.11-4.94c3.41-3.2,6.66-4.8,9.73-4.8
		c0.29,0,0.59,0.02,0.88,0.07c2.4,0,3.6,1.33,3.6,3.98C758.16,218.63,757.49,220.85,756.14,223.36z M799.3,209.85
		c0-0.91-0.23-1.69-0.69-2.33c-0.38-0.55-0.76-0.82-1.14-0.82c-0.38,0-0.69,0.02-0.95,0.07c-1.01-0.05-1.98-0.07-2.91-0.07
		c-8.26,0-15.17,2.7-20.73,8.09c-0.08-0.41-0.18-1.12-0.28-2.13c-0.11-1.01-0.31-2.02-0.6-3.05c-0.29-1.03-0.69-1.94-1.2-2.74
		c-0.51-0.8-1.2-1.2-2.09-1.2c-1.48,0-2.21,0.55-2.21,1.65c0.25,2.15,0.61,5.51,1.07,10.08c0.21,2.1,0.43,4.24,0.66,6.41
		c0.23,2.17,0.44,4.17,0.63,6c0.19,1.83,0.35,3.39,0.47,4.66c0.13,1.28,0.21,2.06,0.25,2.33c0.34,1.05,0.64,1.76,0.92,2.13
		c0.27,0.37,0.6,0.55,0.98,0.55c0.38,0,0.84-0.09,1.39-0.27c0.55-0.18,1.26-0.3,2.15-0.34c0-2.2-0.21-4.36-0.63-6.48
		c-0.42-2.13-0.63-3.82-0.63-5.08c0-1.26,0-2.02,0-2.3c0-1.55,0.34-3.02,1.01-4.39c1.56-3.02,4.44-5.49,8.66-7.41
		c2.23-1.05,4.66-1.58,7.27-1.58c2.78,0,5.05,0.69,6.82,2.06C798.71,213.42,799.3,212.14,799.3,209.85z M835.01,209.85
		c0-0.91-0.23-1.69-0.69-2.33c-0.38-0.55-0.76-0.82-1.14-0.82c-0.38,0-0.69,0.02-0.95,0.07c-1.01-0.05-1.98-0.07-2.91-0.07
		c-8.26,0-15.17,2.7-20.73,8.09c-0.08-0.41-0.18-1.12-0.28-2.13c-0.11-1.01-0.31-2.02-0.6-3.05c-0.29-1.03-0.69-1.94-1.2-2.74
		c-0.51-0.8-1.2-1.2-2.09-1.2c-1.48,0-2.21,0.55-2.21,1.65c0.25,2.15,0.61,5.51,1.07,10.08c0.21,2.1,0.43,4.24,0.66,6.41
		c0.23,2.17,0.44,4.17,0.63,6c0.19,1.83,0.35,3.39,0.47,4.66c0.13,1.28,0.21,2.06,0.25,2.33c0.34,1.05,0.64,1.76,0.92,2.13
		s0.6,0.55,0.98,0.55c0.38,0,0.84-0.09,1.39-0.27c0.55-0.18,1.26-0.3,2.15-0.34c0-2.2-0.21-4.36-0.63-6.48
		c-0.42-2.13-0.63-3.82-0.63-5.08c0-1.26,0-2.02,0-2.3c0-1.55,0.34-3.02,1.01-4.39c1.56-3.02,4.44-5.49,8.66-7.41
		c2.23-1.05,4.66-1.58,7.27-1.58c2.78,0,5.05,0.69,6.82,2.06C834.42,213.42,835.01,212.14,835.01,209.85z M842.56,235.78
		c2.04,2.01,5.07,3.02,9.07,3.02c5.56,0,10.19-1.51,13.9-4.53c4-3.29,6-7.8,6-13.51c0.04-0.37,0.06-0.99,0.06-1.89
		c0-0.89-0.25-1.98-0.76-3.26c-1.26-3.25-3.62-5.51-7.08-6.79c-1.56-0.59-2.8-0.89-3.73-0.89c-0.93,0-1.52,0-1.77,0
		c-4.8,0.55-8.91,2.13-12.32,4.73c-4.3,3.29-6.45,7.64-6.45,13.03C839.49,230.41,840.51,233.77,842.56,235.78z M850.11,214.86
		c1.47-1.05,3.04-1.76,4.71-2.13c1.66-0.37,3.32-0.71,4.96-1.03c2.4,0,4.34,0.94,5.81,2.81c1.35,1.74,2.02,3.98,2.02,6.72
		c0,4.62-1.58,8.03-4.74,10.22c-1.47,1.01-3.16,1.71-5.05,2.13c-1.9,0.41-4.09,0.62-6.57,0.62c-2.49,0-4.26-0.37-5.31-1.1
		c-1.39-1.01-2.09-2.93-2.09-5.76C844.82,221.26,846.91,217.1,850.11,214.86z M875.67,219.93c0.06,2.74,0.16,5.97,0.28,9.67
		c0.13,3.7,0.19,6.75,0.19,9.12l0.51,0.07c2.69,0,4.04-1.05,4.04-3.16c0-7.82-0.21-15.64-0.63-23.46
		c-0.8-13.49-1.94-20.24-3.41-20.24c-0.67,0-1.19,0.25-1.55,0.75c-0.36,0.5-0.73,1.03-1.11,1.58c0.67,3.66,1.02,5.96,1.04,6.89
		c0.02,0.94,0.07,2.38,0.16,4.32c0.08,1.94,0.17,4.15,0.25,6.62S875.61,217.19,875.67,219.93z M885.84,219.93
		c0.06,2.74,0.16,5.97,0.28,9.67c0.13,3.7,0.19,6.75,0.19,9.12l0.51,0.07c2.69,0,4.04-1.05,4.04-3.16c0-7.82-0.21-15.64-0.63-23.46
		c-0.8-13.49-1.94-20.24-3.41-20.24c-0.67,0-1.19,0.25-1.55,0.75c-0.36,0.5-0.73,1.03-1.11,1.58c0.67,3.66,1.02,5.96,1.04,6.89
		c0.02,0.94,0.07,2.38,0.16,4.32c0.08,1.94,0.17,4.15,0.25,6.62S885.78,217.19,885.84,219.93z M899.3,235.78
		c2.04,2.01,5.07,3.02,9.07,3.02c5.56,0,10.19-1.51,13.9-4.53c4-3.29,6-7.8,6-13.51c0.04-0.37,0.06-0.99,0.06-1.89
		c0-0.89-0.25-1.98-0.76-3.26c-1.26-3.25-3.62-5.51-7.08-6.79c-1.56-0.59-2.8-0.89-3.73-0.89c-0.93,0-1.52,0-1.77,0
		c-4.8,0.55-8.91,2.13-12.32,4.73c-4.3,3.29-6.45,7.64-6.45,13.03C896.24,230.41,897.26,233.77,899.3,235.78z M906.86,214.86
		c1.47-1.05,3.04-1.76,4.71-2.13c1.66-0.37,3.32-0.71,4.96-1.03c2.4,0,4.34,0.94,5.81,2.81c1.35,1.74,2.02,3.98,2.02,6.72
		c0,4.62-1.58,8.03-4.74,10.22c-1.47,1.01-3.16,1.71-5.05,2.13c-1.9,0.41-4.09,0.62-6.57,0.62c-2.49,0-4.26-0.37-5.31-1.1
		c-1.39-1.01-2.09-2.93-2.09-5.76C901.57,221.26,903.65,217.1,906.86,214.86z M969.04,222.4l-4.61,0.55c-1.73,0-2.59-0.64-2.59-1.92
		c0.08-2.65,1.43-4.8,4.04-6.45c2.53-1.69,5.73-2.54,9.61-2.54c3.12,0,5.92,0.62,8.4,1.85c0-2.2-0.09-3.77-0.25-4.73
		c-0.17-0.96-0.76-1.44-1.77-1.44c-1.22-0.27-2.49-0.41-3.79-0.41c-4.42,0-8.7,1.07-12.83,3.22c-1.69,0.87-3.16,1.83-4.42,2.88
		c-1.26,1.05-2.28,2.18-3.03,3.4c-0.76,1.21-1.14,2.54-1.14,3.98c0,1.44,0.69,2.87,2.09,4.29c1.6,1.6,3.5,2.45,5.69,2.54
		c4.8-1.28,8.45-1.92,10.93-1.92c2.48,0,3.73,0.53,3.73,1.58c0,1.05-1.05,2.4-3.16,4.05c-3.12,2.47-7.1,4.57-11.94,6.31
		c0.08,0.09,0.22,0.31,0.41,0.65c0.19,0.34,0.46,0.83,0.82,1.48c0.36,0.64,0.68,0.96,0.98,0.96c6.49-2.29,11.65-5.33,15.48-9.12
		c2.57-2.56,3.85-4.8,3.85-6.72c0-2.56-2.32-3.84-6.95-3.84C976.18,221.03,973,221.49,969.04,222.4z M994.09,235.78
		c2.04,2.01,5.07,3.02,9.07,3.02c5.56,0,10.19-1.51,13.9-4.53c4-3.29,6-7.8,6-13.51c0.04-0.37,0.06-0.99,0.06-1.89
		c0-0.89-0.25-1.98-0.76-3.26c-1.26-3.25-3.62-5.51-7.08-6.79c-1.56-0.59-2.8-0.89-3.73-0.89c-0.93,0-1.52,0-1.77,0
		c-4.8,0.55-8.91,2.13-12.32,4.73c-4.3,3.29-6.45,7.64-6.45,13.03C991.03,230.41,992.05,233.77,994.09,235.78z M1001.64,214.86
		c1.47-1.05,3.04-1.76,4.71-2.13c1.66-0.37,3.32-0.71,4.96-1.03c2.4,0,4.34,0.94,5.81,2.81c1.35,1.74,2.02,3.98,2.02,6.72
		c0,4.62-1.58,8.03-4.74,10.22c-1.47,1.01-3.16,1.71-5.05,2.13c-1.9,0.41-4.09,0.62-6.57,0.62c-2.49,0-4.26-0.37-5.31-1.1
		c-1.39-1.01-2.09-2.93-2.09-5.76C996.36,221.26,998.44,217.1,1001.64,214.86z M1046.13,233.55c-1.81,0.62-3.95,0.93-6.41,0.93
		c-2.47,0-4.48-0.46-6.04-1.37c-2.06-1.23-3.1-3.32-3.1-6.24c-0.04-0.37-0.06-0.71-0.06-1.03c0-2.88,2.02-5.62,6.07-8.23
		c3.58-2.29,7.86-4,12.83-5.14c1.14,0,1.87,0.37,2.21,1.1c0.34,0.73,0.61,1.62,0.82,2.67c0.29-0.23,0.63-0.48,1.01-0.75
		c1.43-1.05,2.15-2.13,2.15-3.22c0-1.74-0.55-2.9-1.64-3.5c-0.46-0.27-1.01-0.45-1.64-0.51c-0.63-0.07-1.24-0.11-1.83-0.14
		c-0.59-0.02-1.34-0.03-2.24-0.03c-0.91,0-2.03,0.16-3.38,0.48c-3.88,0.82-7.58,2.61-11.12,5.35c-1.69,1.28-3.16,2.69-4.42,4.22
		c-1.26,1.53-2.21,3.06-2.84,4.6c-0.63,1.53-0.95,2.71-0.95,3.53c0,0.82,0,1.37,0,1.65c0,3.75,1.71,6.58,5.12,8.51
		c1.47,0.82,3.06,1.42,4.77,1.78c1.71,0.37,3.3,0.55,4.77,0.55s3.96-0.39,7.46-1.17c1.69-0.37,3.41-0.8,5.18-1.3
		c1.77-0.5,3.4-1.05,4.9-1.65c1.5-0.59,2.76-1.22,3.79-1.89c1.03-0.66,1.6-1.23,1.71-1.71c0.1-0.48,0.16-0.83,0.16-1.06
		c0-1.01-0.75-1.51-2.24-1.51c-1.5,0-3.06,0.32-4.71,0.96c-1.64,0.64-3.32,1.34-5.02,2.09
		C1049.7,232.25,1047.94,232.93,1046.13,233.55z M1068.12,198.63c0.67,0.34,1.35,0.51,2.02,0.51s1.18-0.23,1.52-0.69
		c0.34-0.46,0.51-0.93,0.51-1.41c0-0.48-0.06-0.97-0.19-1.47c-0.72-0.55-1.64-0.82-2.78-0.82c-1.73,0-2.59,0.8-2.59,2.4
		C1066.94,197.8,1067.45,198.29,1068.12,198.63z M1068.5,206.49v30.66c0.13,0.37,0.43,0.65,0.92,0.86c0.48,0.21,0.96,0.31,1.42,0.31
		c1.77,0,2.78-0.71,3.03-2.13c-0.38-11.25-0.84-21.15-1.39-29.7H1068.5z M1102.18,232.35c0.08,0.82,0.17,1.71,0.25,2.67
		c0.08,0.96,0.21,2.06,0.38,3.29h3.73c-0.42-1.83-0.69-3.85-0.79-6.07c-0.11-2.22-0.21-5.37-0.32-9.47
		c-0.1-4.09-0.43-7.28-0.98-9.57c-0.84-3.61-2.49-5.42-4.93-5.42c-0.76-0.14-1.61-0.21-2.56-0.21c-0.95,0-1.99,0.14-3.13,0.41
		c-3.88,1.01-7.48,3.25-10.81,6.72c-1.6,1.65-2.96,3.45-4.08,5.42c-1.12,1.97-1.89,3.8-2.31,5.49c-0.42,1.69-0.63,3.05-0.63,4.08
		c0,1.03,0.08,1.96,0.25,2.78c0,1.74,0.78,3.09,2.34,4.05c0.67,0.41,1.41,0.71,2.21,0.89c0.8,0.18,1.53,0.29,2.18,0.31
		c0.65,0.02,1.47,0.03,2.47,0.03c0.99,0,2.09-0.14,3.32-0.41c5.27-1.28,9.48-4.62,12.64-10.02
		C1101.72,228.76,1101.97,230.43,1102.18,232.35z M1099.15,223.36c-0.97,1.88-2.19,3.61-3.67,5.21c-3.45,3.66-7.08,5.53-10.87,5.62
		c-2.86-0.5-4.3-2.1-4.3-4.8c0-2.06,0.84-4.39,2.53-7c1.14-1.83,2.51-3.47,4.11-4.94c3.41-3.2,6.66-4.8,9.73-4.8
		c0.29,0,0.59,0.02,0.88,0.07c2.4,0,3.6,1.33,3.6,3.98C1101.17,218.63,1100.5,220.85,1099.15,223.36z M1110.87,219.93
		c0.06,2.74,0.16,5.97,0.28,9.67c0.13,3.7,0.19,6.75,0.19,9.12l0.51,0.07c2.7,0,4.04-1.05,4.04-3.16c0-7.82-0.21-15.64-0.63-23.46
		c-0.8-13.49-1.94-20.24-3.41-20.24c-0.67,0-1.19,0.25-1.55,0.75c-0.36,0.5-0.73,1.03-1.11,1.58c0.67,3.66,1.02,5.96,1.04,6.89
		c0.02,0.94,0.07,2.38,0.16,4.32c0.08,1.94,0.17,4.15,0.25,6.62C1110.73,214.58,1110.81,217.19,1110.87,219.93z"/>
	<g>
		<g>
			<circle class="st2" cx="142.41" cy="165.15" r="130.48"/>
			<circle class="st3" cx="143.23" cy="182.62" r="109.63"/>
			<path class="st4" d="M226.08,95.38c-2.22-1.27-4.15-0.37-4.15-0.37s0.88-7.69-1.41-8.09c-2.3-0.4-4.98,1.3-4.98,1.3
				s0.87-6.44,0.04-6.99c-0.82-0.56-1.96-3.04-7.73,0.6c-5.77,3.64-7.15,3.9-7.15,3.9s-1.56-5.39-4.73-3.63
				c-2.88,1.6-5.56,11.69-8.39,15.46c-0.28,0.38-0.57,0.69-0.85,0.93c0,0-0.58-0.58-1.49-1.42c1.01,2.82,2.02,5.65,3.02,8.47
				c1.22,4.15,2.08,8.35,2.74,12.58c8.22-1.91,17.34-2.98,27.47-3c0,0,3.81-6.95,4.11-10.03C222.88,101.99,228.3,96.64,226.08,95.38
				z"/>
			<path class="st5" d="M191.02,118.1c-0.66-4.22-1.52-8.42-2.74-12.58c-1.01-2.82-2.02-5.65-3.02-8.47
				c-2.54-2.37-7.67-6.81-9.75-6.21c-2.82,0.81-12.07,19.42-18.82,23.19l-4.81-0.43c-0.16,0.27-0.34,0.53-0.54,0.79
				c-3.91,5.36-5.24,11.71-9.83,16.25c-3.77,3.85-7.16,7.73-9.08,12.13c-1.74,3.67-5.3,4.94-9.2,5.81c0.24,0.42,0.44,0.89,0.56,1.41
				c0.35,4.6-2.29,8.55-5.55,10.92c-2.06,1.72-5.39,0.66-7.93-0.71c-2.48-1.26-4.67-3.73-5.69-6.6c-4.86,0.6-9.81,0.16-14.77-0.33
				c0.9,0.21,1.81,0.39,2.73,0.51c0,0-8.16,5.39-16.35,4.66c-8.19-0.73-16.93,1.3-18.3,6.81c0,0-0.19-0.03-0.52-0.11
				c0.83,6.28,2.36,12.56,4.42,18.7c0.14,0.08,0.29,0.17,0.43,0.26c0,0,10.27,19.87,33.64,6.32c0,0,12.58,42.91,20.74,51.61
				C116.65,242.01,108.61,137.26,191.02,118.1z"/>
			<path class="st4" d="M110.31,160.19c2.54,1.37,5.87,2.43,7.93,0.71c3.26-2.37,5.89-6.32,5.55-10.92
				c-0.12-0.53-0.32-0.99-0.56-1.41c-3.47,0.77-7.21,1.21-10.21,2.73c-2.76,1.24-5.56,1.94-8.39,2.29
				C105.64,156.46,107.83,158.93,110.31,160.19z"/>
			<path class="st4" d="M162.97,86.22c1.08-12.05-2.4-25.84-11.17-25.86c-2.35-0.01-3.91,0.13-4.95,0.33
				c-0.03,3.22-0.35,6.32-2.16,8.96c-2.6,3.57-4.21,8.76-9.25,9.83c-0.38-0.03,0.1-1.13-0.24-1.54c-6.7-5.93-8.71-17.53-10.57-26.45
				c-5.83,5.57-12.44,11.44-21.26,12.18c-9.23,1.08-18.29,4.45-27.11,1c-1.81,7.45-8.57,10.65-14.98,14.26
				c-0.41,0.34-2.33,0.55-2.09,2.1c2.59,9.37,5.89,19.18,3.5,28.86c-1.16,4.46-8.23,2.69-12.76,2.28c1.1-4.97-0.37-9.11-3.26-12.32
				c-3.09,0.77-16.37,5.13-13.56,22.76C36.27,142.5,60.92,145,66.23,137.8c0,0,10.16,12.25,23.63,15.45
				c7.84,0.78,15.65,1.42,23.15-1.96c6.38-3.23,16.13-1.6,19.41-8.54c1.92-4.4,5.31-8.28,9.08-12.13
				c4.59-4.54,5.92-10.89,9.83-16.25c0.2-0.25,0.38-0.52,0.54-0.79l-1.65-0.15l1.75-11.89C151.97,101.56,161.89,98.27,162.97,86.22z
				 M125.66,116.28c-4.69,5.67-11.79,8.46-18.42,5.96c-1.62-0.82-3.59-4.38-2.74-7.45c-0.13-0.02-0.26-0.04-0.4-0.07
				c0.13,0.02,0.27,0.04,0.4,0.07c0.11-0.39,0.26-0.77,0.46-1.13c-0.2,0.36-0.35,0.74-0.46,1.13c7.69,1.25,14.43-2.99,20.7-6.17
				C124.59,111.23,127.41,113.77,125.66,116.28z"/>
			<path class="st6" d="M212.95,153.02c2.96,1.83,5.85,3.71,8.42,5.87c1.31-3.31,8.92-23.51,4.84-35.68
				c-4.45-13.29-22.29-9.32-38.99-11.59c-16.69-2.27-15.69,5.79-15.69,5.79s-5.7-1.48-21.98-1.97s-8.52,16.47-8.52,16.47l63.35,4.96
				l-0.25,10.63c1.29,0.42,2.57,0.89,3.87,1.27C210.2,149.73,211.51,152.13,212.95,153.02z"/>
			<path class="st7" d="M211.07,125.16c0,0,0.64-2.65-1.52-4.17c-3.18-2.23-7.74,0.34-18-2.23c-6.89-1.73-5.06,1.72-3.24,2.7
				c-1.4-0.45-3.03-0.78-4.8-0.94c-5.35-0.48-9.89-0.32-10.08,1.76c-0.09,0.98,0.79,1.95,2.31,2.76c-3.27,0.26-6.65,0.09-9.67-0.93
				c-10.19-3.44-18.92-8.63-23.64,5.17c-3.78,11.05-22.52,4.62-22.52,4.62s-12.03,1.91-1.42,15.88l5.11,3.7l-15.19,17.74
				c0,0-4.39-1.19-0.03,10c4.36,11.19,4.86,9.29,4.86,9.29s-6.86,38.06,14.39,80.77s51.42,59.41,59.15,59.91s8.02-7.06,8.02-7.06
				s23.39,10.06,18.66-2.21c0,0,6.16-2.36,2.8-17.03c-3.2-13.96-1.63-54.58-1.63-54.58l2.65-27.36c0,0-10.4,25.72-23.68,33.65
				c-13.28,7.93-6.07-16.11-14.18-34.13c-8.1-18.02-15.76-26.87-15.76-26.87l7.28-32.5c0,0,21.79-24.16,45-9.84
				c0,0-0.46-6.82,2.14-15.16C221.49,127.13,215.93,120.86,211.07,125.16z M190.6,121.3c0.08,0.03,0.12,0.04,0.12,0.04
				s-0.01,0-0.03,0.01C190.66,121.33,190.63,121.31,190.6,121.3z"/>
			<path class="st8" d="M145.09,62.27c0,0-0.07-0.14-0.2-0.39C144.92,62.11,145.09,62.27,145.09,62.27z"/>
			<path class="st9" d="M49.92,112.15c4.53,0.41,11.6,2.18,12.76-2.28c2.39-9.68-0.92-19.49-3.5-28.86
				c-0.24-1.54,1.68-1.75,2.09-2.1c6.41-3.61,13.17-6.81,14.98-14.26c8.82,3.45,17.88,0.08,27.11-1
				c8.82-0.73,15.43-6.61,21.26-12.18c1.86,8.92,3.87,20.52,10.57,26.45c0.34,0.41-0.14,1.51,0.24,1.54
				c5.04-1.07,6.65-6.25,9.25-9.83c1.81-2.64,2.13-5.73,2.16-8.96c-1.73,0.33-2.01,0.84-1.96,1.19c0.13,0.25,0.2,0.39,0.2,0.39
				s-0.17-0.16-0.2-0.39c-1.28-2.47-8.06-16.01-6.67-22.67c0,0,6.05-12.19-1.47-12.86c-7.52-0.67-6.26-0.66-5.65-5.27
				c0.61-4.61,5.61-19.22-5.41-15.55c-11.02,3.68-16.22,9.72-16.22,9.72S106.43,0.41,97.55,2.92S81.99,15.03,74.91,26.83
				c-7.08,11.8-14.63,17.93-26.58,16.86c-11.95-1.07-11.48,6.65-6.67,11.55c0,0-15.4,13.49-7.39,24.99
				c8.01,11.5,12.74,16.48,13.03,19.46c0,0-0.23,0.04-0.63,0.14C49.55,103.04,51.01,107.18,49.92,112.15z"/>
			<path class="st4" d="M47.48,159.44c-4.33-4.76-9.38-6.28-10.24-2.96c-0.87,3.32-0.08,5.38-0.08,5.38l-12.37-1.83
				c0,0-6.51,3.21,1.03,8.06l-1.01,1.54c0,0-9.73,2.35-1.51,9.31c0,0-6.37,2.98-2.03,6.52c4.34,3.55,6.34,2.8,6.34,2.8
				s-0.27,9.49,16.69,4.6c0,0,3.46-17.39,17.55-9.04c-2.06-6.14-3.59-12.42-4.42-18.7C55.86,164.76,51.06,163.38,47.48,159.44z"/>
			<path class="st8" d="M169.01,154.3c-0.66-4.58-8.41-32.15-24.43-4.96s-11.32,69.39-11.32,69.39s7.84-37,15.98-57.57
				c6.49-16.39,15.68-5.5,19.15-0.39c0.85-1.4,1.74-2.78,2.68-4.13L169.01,154.3z"/>
			<path class="st10" d="M221.18,159.36c0,0,0.07-0.17,0.19-0.47c-2.57-2.16-5.46-4.04-8.42-5.87c-1.44-0.89-2.75-3.29-4.95-4.25
				c-1.29-0.38-2.58-0.85-3.87-1.27l-0.03,1.2c-14.16-2.43-30.68,10.6-30.68,10.6l-2.35-2.67c-0.94,1.35-1.83,2.73-2.68,4.13
				c0.89,1.3,1.4,2.23,1.4,2.23c-3.02,7.34-8.09,29.6-5.22,34.44c2.87,4.84,16.88,28.53,18.61,34.12c1.74,5.6-2.17,23.13,7.3,25.92
				c9.47,2.79,18.89-18.87,18.89-18.87C237.26,186.34,221.18,159.36,221.18,159.36z"/>
			<path class="st11" d="M167.67,162.8c0,0-1.31-23.55-13.4-15.97c-12.09,7.59-25.35,62.75-18.2,82.25c0,0,4.4,4.53,7.46-4.19
				c0,0,3.46,44.04,16.16,42.65c0,0,15.26,22.16,31.98,13.36c16.72-8.8,18.04-32.2,18.04-32.2s1.39,7.32,5.02-17.43
				c0,0-14.03,24.4-22.99,25.92c-8.96,1.53-7.86-15.09-7.86-15.09l-1.73-13.18c0,0-22.67,3.96-16.05-28.84c0,0-4.47-6.64-1.59-13.85
				C167.38,179.03,167.67,162.8,167.67,162.8z"/>
			<path class="st12" d="M191.34,192.57c-0.94-7.48-7.9-26.05-12.66-22.79c-4.76,3.27-4.38,15.96-7.33,20.66
				c-2.95,4.7,15.68,20.86,16.14,48.3s12.42-8.47,13.49-19.7c1.12-11.66-0.65-27.65-2.95-29.86c-2.22-2.12,0.65,17.64-2.63,22.05
				C193.13,214.3,192.21,199.51,191.34,192.57z"/>
			<path class="st12" d="M165.83,199.1c0,0-6.26,28.85,15.67,30.62C181.5,229.72,173.19,199.18,165.83,199.1z"/>
			<path class="st8" d="M167.56,161.49c0,0-1.84-10.33-7.66-12.45c-5.81-2.12-15.13,9.66-20.19,30.02
				c-5.2,20.91-5.93,43.15-5.93,43.15s-3.33-16.75-0.03-38.22c3.3-21.47,10.93-42.94,22.6-45.91
				C168.01,135.1,168.87,146.46,167.56,161.49z"/>
			<path class="st13" d="M106.53,32.8c0,0,13.24,5.83,9.11,15.27c-4.13,9.44-21.86,15.89-38.88,14.72c0,0,14.18,6.29,27.74,1.38
				S136.85,38.26,106.53,32.8z"/>
			<path class="st13" d="M109.48,22.71c0,0,8.89-7.37,13.62-9.53c4.73-2.17,2.73,5.09,0.85,10.88s1.33,10.08,6.73,9.01
				c5.41-1.07,5.49,0.45,3.54,6.3s-1.5,8.4-1.5,8.4s11.47-13.4,8.23-17.71s-11.17-2.62-11.17-2.62s5.48-16.29,3.36-18.74
				c-2.11-2.46-5.82-3.76-10.41-0.93S110,16.86,110,16.86L109.48,22.71z"/>
			<path class="st14" d="M36.99,114.91c-0.95,3.38-1.53,10.02,4.06,17.56s16.09,9.23,21.98,4.71c0,0-1.85-2.3-2.54-6.4
				c-0.67-4.02-1.65,4.72-6.15,4.02c-2.3-0.36-4.4-4.51-3.33-9.32c1.06-4.81,1.63-4.8-0.3-6.48c-1.94-1.68-10.14-2.16-10.47-2.95
				s-1,2.31,2.45,2.6c2.63,0.22,5.42,2.02,5.42,2.02s-3.56,3.7-1.18,9.99c0.59,1.55-8.73-6.81-7.95-14.47
				C39.52,110.92,37.94,111.52,36.99,114.91z"/>
			<path class="st15" d="M146.02,68.19c0,0,4.84-4.72,8.6,0.04s5.69,11.29,4.19,21.02c-1.5,9.73-5.08,10.62-5.08,10.62
				s8.14-3.59,8.79-15.1s-2.92-21.69-7.13-23.47s-8.55,0.84-8.55,0.84L146.02,68.19z"/>
			<path class="st13" d="M67.12,43.26c0,0,4.42-3.24,14.44-16.89s20.35-22.66,23.7-9.06c3.35,13.6,3.21,8.42,3.21,8.42
				s0.6-15.27-3.09-20.34C101.68,0.32,87.04,4.8,80.1,20.04C73.16,35.29,67.12,43.26,67.12,43.26z"/>
			<path class="st8" d="M125.21,108.62c-6.27,3.18-13.01,7.42-20.7,6.17c-0.85,3.07,1.12,6.63,2.74,7.45
				c6.63,2.5,13.73-0.29,18.42-5.96C127.41,113.77,124.59,111.23,125.21,108.62z"/>
			<path class="st16" d="M96.88,122.09c0,0,8.73-4.76,14.84,4.73c0,0,9.2-4.5,13.77,2c0,0-6.23,4.88-10.08,5.32
				c-3.85,0.44-10.39,1.65-13.71-3.1C98.37,126.28,96.88,122.09,96.88,122.09z"/>
			<path class="st15" d="M100.83,106.55c0,0,7.07-6.96,9.07-8.37c2-1.4,8.17,1.36,10.91,2.74c0,0-5.93-5.63-9.33-5.86
				C108.08,94.83,102.89,100.98,100.83,106.55z"/>
			
				<ellipse transform="matrix(0.9197 -0.3927 0.3927 0.9197 -38.5377 39.0445)" class="st17" cx="76.16" cy="113.71" rx="9.2" ry="6.29"/>
			
				<ellipse transform="matrix(0.9755 -0.2198 0.2198 0.9755 -16.7721 31.7497)" class="st17" cx="134.29" cy="91.24" rx="8.95" ry="6.12"/>
			<path class="st7" d="M216.18,261.94c0.49,7.73,3.11,24.97,6.06,30.1c2.95,5.13,13.1-5.22,31.43-30.63c0,0,29.04-37.04,8.52-46.94
				c0,0,13.8-34.8-6.55-30.74c0,0,5.55-31.29-2.63-39.54c-8.19-8.24-11.02-0.77-11.02-0.77l-13.33,35.18c0,0-5.1,28.98-9.98,40.58
				L216.18,261.94z"/>
			<path class="st7" d="M87.62,313.84c8.82,3.64,35.78,10.98,56.25,9.5c20.47-1.48-6.94-17.5-12.46-44.37l-10.46-28.32
				c0,0-17.85-6.04-30.07-21.28c-12.21-15.23-35.78-60.33-41.51-44.9s-3.66,32.12,4.09,51.27c0,0-14.13,12.68-3.44,31.3
				s18.33,18.9,18.33,18.9S62.59,303.52,87.62,313.84z"/>
			<path class="st18" d="M80.37,194.72c0,0-10.75-5.4-12.32-13.47c-1.58-8.06,6.71,7.19,28.61-2.82l-0.11,12.24L80.37,194.72z"/>
			<path class="st13" d="M135.19,43.87c0,0,1.09,10.74,2.92,15.49s-0.76,0.23-1.16-1.24c-0.39-1.47,0.04,2.13,3.07,8.96
				c0,0-2.92,6.47-6.59,6.19c0,0,0.39,4.12,3.56,2.67c3.18-1.44,8.77-8.68,8.2-11.24c0,0-7.96-18.1-7.01-24.8L135.19,43.87z"/>
			<path class="st14" d="M65.56,110.63c0,0,2.74-5.74,0.77-24.93c0,0,0.77,3.3,2.93,3.06c0,0-0.2,3.5,2.4,3.18
				c2.6-0.32,7.65-4.14,11.43-16.52l-9.33,5.65c0,0,6.28-6.84,7.37-10.28c0,0,20.61,7.07,40.5-11.89c0,0,3.03,12.08,8.7,18.84
				c5.67,6.75,13.97-3.99,13.97-3.99s-9.88,7.54-11.47,2.65c-1.59-4.89-9.06-23.72-9.06-23.72s-9.1,9.14-20.15,11.8
				s-26.06,0.78-26.06,0.78s-8.83,12.57-18.46,15.37L65.56,110.63z"/>
			<path class="st14" d="M88.58,112.53c0,0-3.02,23.49,21.66,24.74l0.74-2.41c0,0-10.29,0.65-12.96-7.9
				c-2.67-8.55-2.66-13.85-2.66-13.85L88.58,112.53z"/>
			<path class="st14" d="M111.7,150.13c-10.22,0.97-28.51-0.5-38.5-15.14c-5.59-8.19-0.32-4.96,9.18,1.31
				c7.3,4.82,20.14,10.07,32.04,5.66l2.42,7.95L111.7,150.13z"/>
			<path class="st19" d="M44.53,89.73c0,0-5.76-6.89-6.18-13.98c-0.42-7.06,6.82-15.61,6.89-8.05c0.06,7.55,10.19,4.46,14.9,1.72
				c4.72-2.74,8.68-4.19,6.85,0.74s-7.95,8.71-7.95,8.71l-2.54,3.76c0,0,1.98,19.37,1.64,22.61c-0.33,3.24-7.8,2.42-7.99,1.85
				L44.53,89.73z"/>
			<path class="st14" d="M117.96,161.91l4.84-6.58l-4.37-4.34l-14.94,1.61C106.75,157.97,111.98,160.64,117.96,161.91z"/>
			<path class="st18" d="M103.49,152.6l-6.75,0.73c0,0-7.84,6.3-14.24,6.31c0,0,14.04,15.52,30.7,8.73l4.75-6.47
				C111.98,160.64,106.75,157.97,103.49,152.6z"/>
			<g>
				<path class="st20" d="M251.75,229.07l0.76-1.58c1.83-3.82,3-7.94,3.29-12.17c0.78-11.1-4.44-17-7.3-11.48
					c-3.56,6.87-8.8,9.88-8.8,9.88s6.14-13.09,3.98-30.19c-2.16-17.1-11.88-5.78-15.79-0.78c-1.6,8.43-5.47,27.55-9.21,36.44
					l-2.51,42.75c0.49,7.73,3.11,24.97,6.06,30.1c2.83,4.92,12.28-4.4,29.23-27.59c3.43-6.58,11.95-22.22,10.4-32.04
					c-0.92-5.83-6.4-3.75-9.18-2.28C250.79,231.13,251.75,229.07,251.75,229.07z"/>
			</g>
			<g>
				<path class="st21" d="M249.09,249.08c-3.92-0.98-8.75,3.51-8.75,3.51s9.06-17.33,3.55-23.42c-4.43-4.89-12.86,5.45-12.86,5.45
					s5.15-14.19,0.83-21.55c-3.1-5.28-9.72-0.24-12.78,5.1c-0.14,0.35-0.27,0.69-0.41,1.01l-2.51,42.75
					c0.49,7.73,3.11,24.97,6.06,30.1c2.58,4.48,10.66-2.86,24.89-21.74C252.33,258.9,252.52,249.94,249.09,249.08z"/>
			</g>
			<path class="st22" d="M166.6,168.25c0,0-7.21,16.86-9.05,37.71c-2.06,23.35,18.21,62.49,26.98,34.14l-3.04-10.39
				c0,0-20.58-4.2-14.76-31.6C166.73,198.12,162.28,196.14,166.6,168.25z"/>
			<path class="st23" d="M190.69,121.35c0.02-0.01,0.03-0.01,0.03-0.01s-0.04-0.01-0.12-0.04
				C190.63,121.31,190.66,121.33,190.69,121.35z"/>
			<path class="st24" d="M203.77,284.55c-4.1,17.54-5.85-0.69-9.93,7.25c-1.41,2.75-4.03,13.17-11.9,10.64
				c-7.87-2.54-13.5-15.16-12.7-12.68c0.81,2.48,4.03,13.86-3.64,9.28c-7.68-4.58-13.23-21.66-14.65-23.15
				c-1.43-1.48,0.28,10.16-4.63,6.61c-4.91-3.55-16.65-30.51-14.11-21.95c2.14,7.22,10.18,30.73,20.18,46.99
				c15.18,16.31,29.43,23.33,34.4,23.65c7.73,0.5,8.02-7.06,8.02-7.06s23.39,10.06,18.66-2.21c0,0,6.16-2.36,2.8-17.03
				c-3.2-13.96-1.63-54.58-1.63-54.58l1.52-15.72c-0.02,0.15-2.71,27.05-4.69,36.61C206.52,294.97,207.66,267.9,203.77,284.55z"/>
			<path class="st24" d="M114.64,212.58c0,0,3.17-21.15,7.38-32.69c4.2-11.55-5.5,1.43-3.58-7.89c0.69-3.34-4.9,2.64-6.33,3.24
				c-1.42,0.61-1.21,5.17,2.52,10.26C114.63,185.51,112.3,208.14,114.64,212.58z"/>
			<path class="st24" d="M123.62,150.93c0,0-3.64-5.35-4.68-8.27c-1.04-2.92,2.35,0.47,9.47-1.96c7.12-2.43-2.6,12-2.6,12
				L123.62,150.93z"/>
			<path class="st25" d="M172.71,167.3c2.93-4.97,25.52-19.1,31.98,11.02c6.46,30.12,1.71,38.14,6.96,39.61
				c5.25,1.47,16.4-29.25,14.56-43.61s-20-34.15-39.27-22.83S172.71,167.3,172.71,167.3z"/>
			<g>
				<path class="st20" d="M131.42,278.97l-10.46-28.32c0,0-17.85-6.04-30.07-21.28c-0.45-0.56-0.91-1.16-1.39-1.8
					c-0.42,0.12-1,0.08-1.8-0.16c-5.11-1.57-18.36-21.1-24.49-4.23c-6.29,17.31,13.14,38.94,13.14,38.94s0.89,3.95-1.79,1.82
					c-2.68-2.13-11.33-4.15-9.87,7.05c1.62,12.45,21.65,20.94,21.65,20.94l8.69,4.2c0,0-16.84-1.75-7.1,13.04
					c2.04,3.1,5.12,5.64,8.7,7.71c12.24,3.58,31.64,7.58,47.26,6.46C164.35,321.86,136.94,305.84,131.42,278.97z"/>
			</g>
			<g>
				<path class="st21" d="M131.42,278.97l-10.46-28.32c0,0-3.05-1.03-7.49-3.32l-0.59,1.76c0,0-18.63-12.88-21.41-2.09
					c-2.79,10.79,12.98,27.29,19.94,31.81c0,0-16.18-5.44-15.29,5.18c0.89,10.62,21.08,18.58,21.08,18.58s-9.82-0.7-9.48,4.13
					c0.29,3.95,7.05,12.14,23.28,16.57c4.43,0.31,8.79,0.37,12.89,0.07C164.35,321.86,136.94,305.84,131.42,278.97z"/>
			</g>
			<path class="st6" d="M236.84,165.64c0,0,4.21-13.46,8.29-13.17c5.08,0.36,10.43,13.4,6.55,32.02l1.58,9.84
				c0,0,1.73-4.86,5.59-4.36c4.68,0.61,3.22,14.45,1.12,21.84l-1,10.78c0,0,1.59-1.77,4.69-1.82c3.1-0.05,3.06,13.56-0.03,21.97
				c0,0,12.3-14.6,6.46-23.33c-5.84-8.74-7.4-4.97-7.4-4.97s9.29-18.76,3.56-27.21c-5.73-8.45-11.05-4.25-11.05-4.25
				s5.49-27.55-2.12-36.79c-7.6-9.23-10.38-4.45-10.38-4.45L236.84,165.64z"/>
			<path class="st26" d="M226.16,219.16c-1.28,5.65-8.1,19.21-4.83,53.13c1.06,11.01,8.12,11.82,13.49,6.73
				c7.47-7.08,13.65-18.22,15.86-24.04c3.79-10-5.95-3.33-13.6,3.52c0,0,10.05-23.94,13.39-36.69c3.34-12.75-10.07,4.24-18.17,16.83
				c-8.1,12.59,5.87-28.26,12.18-48.05C248.15,179.1,232.18,192.67,226.16,219.16z"/>
			<path class="st27" d="M50,213.51c0,0-1.29-15.6,2.63-20.01s6.63,6.31,13.72,16.96c7.09,10.65,24.14,33.61,52.6,42.26
				c0,0-27.17-20.72-30.74-25.2c-3.57-4.48-29.42-46.55-32.76-45.94S39.87,189.53,50,213.51z"/>
			<path class="st26" d="M144.35,306.17c-2.21-3.46-6.61-10.5-8.37-13.6c-1.47-4.31-3.51-7.17-6.53-11.7l2.63-0.12l-13.8-28.53
				c0,0-4.02-4.49-3.86-0.97c0.16,3.52,1.51,13.72,5.78,20.89c-0.64-0.57-1.18-1.04-1.55-1.35c-5.03-4.24-18.31-10.25-23.59-15.3
				c-5.28-5.05-6.68-1.27-3.56,2.93c0,0-17.52-14.47-24.94-31.95c-7.41-17.48-12.55-10.81-6.86,6.14
				c5.69,16.95,28.16,38.74,49.5,45.61c2.16,0.6-3.66,3.89-9.13,1.58c-2.44-1.03,1.12,3.36,6.94,8.73
				C93.12,283.86,76.6,276.87,66,266.16c-6.23-6.29-10.62-8.69-11.58-7.21c-2.46,3.78,12.49,23.83,33.37,31.11
				c23.53,8.21,26.22,8.07,18.47,8.17c-6.75,0.09,0.31,4.02,10.23,5.33c0,0,7.53,1.58,0.69,2.39c-6.84,0.81-12.9-0.65-17.69-2.37
				c-4.79-1.71-3.8,0.76-2.01,1.64c0.93,0.46-5.53-1.42-11.07-3.35c-5.15-1.8-9.45-3.76-7.83-1.08c2.42,4,22.29,14.81,43.47,17.62
				C143.22,321.24,152.83,319.43,144.35,306.17z"/>
			<path class="st18" d="M116.38,241.38c0,0-2.73-0.36-10.25-20.25c0,0-2.57-21.68-1.23-26.1c1.34-4.42-6.69-12.39-1.01-19.39
				l8.93,12.79c0,0-2.69,25.74,2.89,48.39C115.95,237.78,116.11,240.43,116.38,241.38z"/>
			<g>
				<g>
					<path class="st1" d="M153.54,182.14c0.59-0.11,0.64-2.22,0.75-5.47c0.07-1.62,0.15-3.54,0.4-5.61
						c0.25-2.07,0.65-4.32,1.42-6.44c0.39-1.05,0.86-2.01,1.39-2.74c0.27-0.37,0.54-0.67,0.81-0.9c0.27-0.22,0.52-0.36,0.75-0.44
						c0.23-0.07,0.45-0.1,0.72-0.07c0.27,0.04,0.57,0.14,0.87,0.3c0.61,0.32,1.21,0.84,1.73,1.36c0.52,0.53,0.97,1.07,1.37,1.57
						c0.4,0.49,0.74,0.93,1.05,1.29c0.6,0.72,1.04,1.1,1.31,0.99c0.26-0.1,0.34-0.69,0.17-1.67c-0.09-0.49-0.24-1.08-0.48-1.75
						c-0.24-0.67-0.57-1.42-1.06-2.22c-0.5-0.8-1.13-1.67-2.15-2.45c-0.51-0.39-1.13-0.75-1.88-0.98c-0.75-0.23-1.62-0.3-2.48-0.14
						c-0.85,0.16-1.64,0.53-2.3,0.99c-0.66,0.46-1.21,1.02-1.68,1.6c-0.94,1.17-1.58,2.47-2.08,3.81c-0.97,2.68-1.28,5.29-1.34,7.62
						c-0.06,2.33,0.18,4.4,0.49,6.11C152,180.31,152.99,182.25,153.54,182.14z"/>
					<path class="st1" d="M207.34,257.58c-0.38-0.15-1.16,0.78-2.31,2.52c-1.16,1.74-2.72,4.29-4.78,7.28
						c-1.03,1.49-2.21,3.07-3.55,4.67c-1.34,1.59-2.85,3.2-4.58,4.62c-0.22,0.18-0.43,0.35-0.65,0.53
						c-0.22,0.16-0.45,0.33-0.68,0.49c-0.45,0.35-0.93,0.62-1.4,0.94c-0.97,0.55-1.97,1.07-3.02,1.43c-1.05,0.34-2.13,0.6-3.24,0.68
						c-1.11,0.06-2.24,0-3.38-0.23c-2.28-0.49-4.49-1.55-6.51-2.88c-1.99-1.34-3.77-2.9-5.28-4.6c-1.53-1.68-2.84-3.45-3.97-5.2
						c-1.13-1.75-2.09-3.46-2.9-5.07c-1.63-3.22-2.74-5.97-3.57-7.87c-0.83-1.9-1.37-2.97-1.77-2.9c-0.4,0.06-0.61,1.29-0.44,3.45
						c0.17,2.15,0.72,5.24,1.97,8.93c0.62,1.84,1.45,3.83,2.51,5.89c1.06,2.06,2.39,4.2,4.07,6.28c1.66,2.09,3.72,4.09,6.14,5.82
						c2.41,1.69,5.28,3.18,8.58,3.89c1.66,0.33,3.36,0.43,5.02,0.3c1.67-0.14,3.26-0.55,4.74-1.1c1.48-0.56,2.81-1.31,4.05-2.1
						c0.59-0.43,1.2-0.82,1.73-1.28c0.27-0.22,0.55-0.44,0.81-0.66c0.25-0.23,0.51-0.46,0.76-0.69c1.99-1.85,3.56-3.82,4.87-5.72
						c1.31-1.91,2.38-3.76,3.24-5.49c1.73-3.46,2.76-6.39,3.3-8.46C207.65,258.96,207.71,257.73,207.34,257.58z"/>
					<path class="st1" d="M36.07,256.18c-0.45-0.7-0.97-1.51-1.57-2.4c-0.61-0.88-1.25-1.89-1.97-2.98
						c-0.73-1.08-1.48-2.28-2.29-3.56c-0.2-0.32-0.41-0.64-0.62-0.97c-0.2-0.34-0.41-0.68-0.62-1.02c-0.42-0.69-0.85-1.4-1.3-2.14
						c-0.44-0.74-0.87-1.51-1.33-2.29c-0.23-0.39-0.46-0.79-0.69-1.19c-0.22-0.41-0.45-0.82-0.68-1.24
						c-1.86-3.32-3.73-7.04-5.58-11.09c-1.84-4.06-3.64-8.47-5.27-13.2c-3.27-9.45-5.85-20.19-7.07-31.64
						c-1.24-11.46-0.99-22.5,0.19-32.42c1.18-9.94,3.21-18.78,5.39-26.06c2.18-7.29,4.42-13.07,5.98-17.07
						c1.57-4,2.4-6.27,2.01-6.49c-0.37-0.21-1.94,1.66-4.23,5.39c-2.28,3.73-5.22,9.38-8.02,16.72c-2.81,7.33-5.39,16.4-6.94,26.72
						c-1.56,10.31-2,21.88-0.7,33.88c1.28,12,4.17,23.22,7.89,32.96c1.86,4.88,3.91,9.39,6.04,13.5c2.13,4.11,4.31,7.84,6.48,11.11
						c0.27,0.41,0.53,0.82,0.8,1.22c0.27,0.39,0.54,0.78,0.81,1.17c0.54,0.77,1.05,1.52,1.57,2.23c0.53,0.71,1.04,1.4,1.54,2.06
						c0.25,0.33,0.5,0.66,0.74,0.98c0.25,0.31,0.5,0.62,0.74,0.93c0.97,1.21,1.88,2.34,2.77,3.33c0.88,1,1.68,1.92,2.45,2.7
						c0.76,0.79,1.44,1.48,2.05,2.06c0.62,0.57,1.16,1.04,1.61,1.41c0.9,0.73,1.45,1.05,1.61,0.9c0.16-0.15-0.06-0.74-0.64-1.74
						C36.91,257.47,36.53,256.87,36.07,256.18z"/>
					<path class="st1" d="M282.21,154.7c-0.05-0.7-0.13-1.39-0.2-2.1c-0.14-1.42-0.29-2.86-0.44-4.32
						c-0.8-5.84-1.83-12.08-3.63-18.48c-3.38-12.84-9.25-26.43-17.59-39.32c-8.47-12.81-18.55-23.64-28.96-31.89
						c-5.13-4.22-10.44-7.66-15.46-10.74c-1.28-0.73-2.54-1.44-3.78-2.14c-0.62-0.35-1.23-0.7-1.85-1.03
						c-0.62-0.31-1.24-0.62-1.85-0.92c-1.22-0.61-2.42-1.2-3.6-1.78c-0.58-0.3-1.18-0.55-1.77-0.8c-0.59-0.25-1.17-0.51-1.74-0.75
						c-1.15-0.49-2.27-0.97-3.36-1.44c-1.11-0.43-2.2-0.82-3.26-1.21c-1.06-0.39-2.08-0.76-3.08-1.12c-1-0.35-1.99-0.62-2.94-0.92
						c-0.95-0.28-1.86-0.56-2.75-0.82c-0.44-0.13-0.87-0.26-1.3-0.38c-0.42-0.13-0.85-0.21-1.26-0.31
						c-1.65-0.39-3.16-0.74-4.52-1.05c-1.35-0.33-2.58-0.5-3.64-0.66c-1.06-0.16-1.96-0.27-2.69-0.35
						c-1.46-0.15-2.24-0.13-2.28,0.06c-0.04,0.2,0.66,0.56,2.03,1.08c0.68,0.26,1.53,0.55,2.54,0.88c1,0.33,2.17,0.67,3.45,1.16
						c1.29,0.46,2.72,0.97,4.29,1.51c0.39,0.14,0.8,0.26,1.2,0.42c0.4,0.16,0.81,0.32,1.23,0.49c0.84,0.33,1.71,0.67,2.61,1.03
						c0.9,0.36,1.84,0.69,2.79,1.11c0.94,0.42,1.92,0.85,2.92,1.3c1,0.45,2.04,0.89,3.09,1.37c1.03,0.51,2.1,1.04,3.18,1.58
						c0.54,0.27,1.09,0.54,1.65,0.82c0.56,0.28,1.13,0.54,1.67,0.86c1.11,0.62,2.24,1.25,3.4,1.89c0.58,0.32,1.16,0.64,1.75,0.97
						c0.58,0.34,1.16,0.71,1.74,1.07c1.17,0.72,2.36,1.45,3.57,2.2c4.74,3.15,9.75,6.61,14.6,10.78
						c9.83,8.16,19.37,18.65,27.49,30.94c7.99,12.37,13.77,25.32,17.3,37.6c1.88,6.11,3.03,12.09,4.01,17.7
						c0.2,1.41,0.39,2.8,0.58,4.16c0.09,0.68,0.2,1.35,0.28,2.02c0.06,0.67,0.12,1.34,0.18,2c0.12,1.32,0.25,2.61,0.36,3.87
						c0.07,0.63,0.09,1.26,0.12,1.88c0.03,0.62,0.06,1.23,0.09,1.84c0.06,1.21,0.12,2.4,0.17,3.55c0.02,1.16,0.01,2.28,0.01,3.38
						c0.01,1.1,0.01,2.16,0.01,3.19c0,1.03-0.08,2.03-0.11,3c-0.04,0.97-0.07,1.9-0.11,2.8c-0.02,0.45-0.03,0.89-0.05,1.33
						c-0.01,0.43-0.07,0.85-0.09,1.27c-0.13,1.66-0.25,3.17-0.34,4.54c-0.07,1.37-0.23,2.58-0.32,3.63
						c-0.1,1.05-0.17,1.95-0.21,2.68c-0.08,1.46-0.02,2.25,0.17,2.29c0.2,0.04,0.52-0.67,0.97-2.07c0.22-0.7,0.48-1.57,0.76-2.6
						c0.28-1.04,0.62-2.23,0.86-3.6c0.27-1.36,0.55-2.89,0.85-4.56c0.07-0.42,0.16-0.84,0.22-1.28c0.06-0.44,0.11-0.89,0.17-1.34
						c0.11-0.91,0.23-1.86,0.35-2.85c0.11-0.98,0.26-2,0.34-3.06c0.07-1.06,0.14-2.15,0.21-3.27c0.07-1.12,0.15-2.28,0.2-3.47
						c0.01-1.19,0.02-2.41,0.03-3.66c0-0.63,0.01-1.26,0.01-1.9c0-0.64,0.02-1.29-0.03-1.94c-0.06-1.31-0.13-2.65-0.19-4.01
						C282.27,156.09,282.24,155.4,282.21,154.7z"/>
					<path class="st1" d="M273.24,219.15c-0.41-1.36-1.02-2.86-2.18-4.31c-0.58-0.72-1.31-1.41-2.2-1.98
						c-0.89-0.57-1.93-1.01-3.06-1.23c-0.22-0.04-0.45-0.08-0.68-0.1c1.48-3.32,2.81-7.03,3.61-11.12c0.56-2.91,0.71-5.14,0.7-7.09
						c-0.03-1.95-0.2-3.64-0.71-5.54c-0.27-0.95-0.63-1.96-1.24-3.04c-0.61-1.08-1.45-2.27-2.87-3.32
						c-0.71-0.52-1.56-0.99-2.57-1.29c-1-0.31-2.16-0.42-3.35-0.28c-0.1,0.01-0.21,0.03-0.31,0.05c0.01-0.03,0.02-0.06,0.02-0.09
						c0.26-1.09,0.53-2.19,0.8-3.3c0.15-0.55,0.23-1.13,0.34-1.7c0.11-0.57,0.21-1.15,0.32-1.73c0.1-0.58,0.23-1.16,0.31-1.75
						c0.08-0.59,0.15-1.19,0.23-1.79c0.14-1.2,0.32-2.4,0.4-3.66c0.09-1.25,0.13-2.52,0.12-3.8c-0.05-5.12-0.86-10.5-3.03-15.68
						c-1.29-3.01-2.83-5.52-4.82-7.52c-1-0.99-2.13-1.87-3.51-2.48c-0.69-0.3-1.45-0.53-2.26-0.62c-0.81-0.09-1.67-0.04-2.48,0.18
						c-0.81,0.22-1.54,0.59-2.15,1.02c-0.61,0.44-1.1,0.93-1.52,1.43c-0.82,1-1.35,2.01-1.75,2.99c-0.4,0.98-0.69,1.96-0.92,2.89
						c-0.21,0.8-0.42,1.6-0.64,2.43c-0.95,3.31-2.2,6.97-4.17,11.85c-1,2.43-2.18,5.17-3.62,8.3c-0.39,0.85-0.81,1.72-1.24,2.63
						c-0.8-3-1.98-5.89-3.56-8.55c-0.01-1.37,0.12-2.8,0.24-4.13c0.67-6.23,1.94-12.4,3.29-18.54c2.15-9.42,1.41-19.11-7.42-24.26
						c0.12-0.09,0.24-0.18,0.37-0.29c0.86-0.74,1.81-1.66,2.62-3.33c0.19-0.43,0.38-0.89,0.51-1.43c0.13-0.54,0.24-1.15,0.21-1.86
						c-0.03-0.7-0.16-1.52-0.65-2.37c0.03-0.02,0.06-0.05,0.09-0.07l0.29-0.23l0.27-0.26c0.18-0.18,0.37-0.35,0.55-0.54
						c0.33-0.4,0.71-0.81,0.98-1.25c0.6-0.85,1.14-1.84,1.5-3c0.41-1.35,0.45-2.56,0.08-3.69c-0.02-0.07-0.04-0.14-0.07-0.21
						l-0.1-0.21c-0.07-0.14-0.14-0.27-0.21-0.4c-0.09-0.13-0.19-0.26-0.29-0.38c-0.1-0.12-0.2-0.25-0.33-0.34
						c-0.12-0.1-0.25-0.2-0.37-0.3c-0.13-0.09-0.28-0.16-0.42-0.23c-0.28-0.15-0.61-0.22-0.94-0.29c-0.16-0.03-0.32-0.03-0.48-0.03
						c-0.16,0-0.34-0.01-0.49,0.02c-0.15,0.02-0.31,0.05-0.47,0.08c-0.06,0.01-0.13,0.03-0.2,0.04l-0.11,0.03
						c0.03-0.05,0.06-0.1,0.09-0.15c0.3-0.59,0.59-1.21,0.74-1.94c0.16-0.72,0.21-1.52,0.04-2.34c-0.19-0.96-0.65-1.76-1.19-2.34
						c-0.55-0.59-1.19-0.96-1.82-1.19c-0.63-0.22-1.28-0.29-1.89-0.22c-0.31,0.02-0.6,0.1-0.9,0.18c-0.14,0.05-0.29,0.11-0.43,0.16
						c-0.1,0.04-0.2,0.08-0.31,0.13c-0.47,0.2-0.99,0.41-1.61,0.63c0.32-0.58,0.6-1.21,0.83-1.92c0.17-0.62,0.34-1.28,0.34-2.03
						c0.01-0.74-0.09-1.56-0.46-2.36c-0.36-0.8-1-1.54-1.79-2.02c-0.79-0.49-1.69-0.73-2.58-0.75c-1.04-0.01-1.91,0.25-2.62,0.59
						c-0.36,0.17-0.67,0.38-0.96,0.59c-0.14,0.11-0.27,0.22-0.4,0.33c-0.09,0.08-0.17,0.15-0.26,0.22
						c-0.63,0.56-1.22,0.98-1.87,1.46c-0.67,0.47-1.42,0.98-2.46,1.65c-0.52,0.34-1.12,0.7-1.81,1.12
						c-0.22,0.13-0.45,0.27-0.69,0.41c-0.15-0.56-0.35-1.14-0.66-1.73c-0.37-0.67-0.87-1.38-1.69-1.92
						c-0.2-0.14-0.43-0.25-0.65-0.36c-0.23-0.08-0.46-0.16-0.69-0.24c-0.23-0.08-0.49-0.09-0.73-0.13c-0.25-0.04-0.5-0.03-0.75-0.01
						c-0.99,0.07-1.94,0.42-2.68,0.94c-0.75,0.51-1.41,1.13-1.92,1.82c-0.28,0.34-0.49,0.7-0.72,1.07c-0.21,0.37-0.4,0.75-0.58,1.13
						c-0.78,1.81-1.03,3.2-1.22,4.39c-0.03,0.3-0.06,0.58-0.09,0.86c-0.01,0.14-0.03,0.28-0.04,0.42c-0.01,0.11-0.03,0.22-0.04,0.32
						c-0.03,0.21-0.05,0.41-0.08,0.62c-0.03,0.21-0.09,0.41-0.14,0.62c-0.21,0.84-0.5,1.76-1.16,2.9c-0.32,0.57-0.75,1.18-1.3,1.84
						c-0.11,0.13-0.24,0.27-0.36,0.41c-0.2-0.29-0.4-0.58-0.59-0.85c-3.4-4.68-6.94-6.97-10.24-6.62c-2.8,0.3-5.07,2.38-6.73,6.17
						c-3.47,7.91-8.49,13.59-12.63,17.28c-0.13-0.03-0.26-0.06-0.39-0.09c-0.63-0.13-1.27-0.25-1.93-0.34
						c0.13-0.72,0.22-1.35,0.29-1.94c0.17-1.45,0.3-2.73,0.29-5c-0.02-1.11-0.11-2.2-0.28-3.23c0.29-0.1,0.58-0.2,0.88-0.33
						c0.95-0.4,1.93-0.93,2.89-1.62c1.93-1.38,3.72-3.44,5.01-5.98c0.15-0.32,0.33-0.64,0.46-0.97c0.14-0.33,0.28-0.67,0.42-1.01
						c0.25-0.69,0.5-1.39,0.69-2.11c0.4-1.45,0.71-2.96,0.87-4.51c0.11-0.78,0.14-1.56,0.2-2.36c0.02-0.79,0.06-1.6,0.04-2.41
						c-0.01-1.62-0.14-3.27-0.35-4.95c-0.45-3.04-1.08-5.25-1.78-7.12c-0.17-0.47-0.38-0.91-0.55-1.34
						c-0.19-0.43-0.41-0.84-0.61-1.26c-0.22-0.41-0.45-0.8-0.68-1.21c-0.26-0.39-0.5-0.79-0.79-1.19c-0.58-0.79-1.25-1.6-2.12-2.42
						c-0.88-0.8-1.96-1.63-3.41-2.31c-0.36-0.18-0.76-0.31-1.16-0.46c-0.21-0.06-0.42-0.12-0.64-0.18
						c-0.11-0.03-0.22-0.06-0.33-0.09c-0.11-0.02-0.23-0.04-0.35-0.06c-0.92-0.19-1.96-0.24-3.07-0.1c-1.1,0.14-2.27,0.5-3.37,1.12
						c-0.34,0.19-0.68,0.41-1,0.65c0,0,0,0,0-0.01c-0.08-0.14-0.17-0.29-0.25-0.43c-0.66-1.15-1.24-2.32-1.73-3.45
						c-1-2.26-1.75-4.34-2.37-6.07c-1.23-3.46-1.96-5.5-2.4-5.42c-0.4,0.08-0.45,2.27,0.14,6c0.3,1.86,0.78,4.11,1.59,6.64
						c0.4,1.27,0.9,2.6,1.56,3.98c0.08,0.17,0.17,0.35,0.25,0.52c0.09,0.17,0.19,0.35,0.28,0.52c0.1,0.18,0.19,0.35,0.29,0.53
						c0.11,0.18,0.22,0.35,0.33,0.53c0.21,0.36,0.47,0.71,0.74,1.06c0.12,0.18,0.29,0.35,0.44,0.53l0.23,0.26l0.06,0.07
						c0.02,0.02,0,0-0.01,0l-0.02-0.02l0.02,0.02c0.05,0.06,0.13,0.1,0.12,0.19c0,0.08-0.03,0.16-0.06,0.23
						c-0.01,0.04-0.03,0.07-0.05,0.1l-0.07,0.17l-0.09,0.2c-0.12,0.27-0.26,0.55-0.41,0.83c-0.61,1.12-1.36,2.27-2.2,3.38
						c-0.84,1.11-1.78,2.18-2.79,3.12c-0.5,0.47-1.03,0.89-1.56,1.22c-0.51,0.33-1.05,0.56-1.37,0.6c-0.16,0.02-0.25,0.01-0.3-0.01
						c-0.05-0.02-0.09-0.04-0.17-0.1c-0.04-0.03-0.07-0.06-0.13-0.14c-0.09-0.11-0.18-0.21-0.26-0.32c-0.18-0.2-0.33-0.43-0.49-0.64
						c-0.61-0.87-1.1-1.75-1.53-2.57c-0.8-1.59-1.4-3.02-2-4.63c1.39-0.2,2.4-0.56,2.71-1.13c1.34-2.48-1.65-2.36-0.91-3.15
						c1.37-1.48,1.8-4.94-1.38-3.03c-0.72,0.43-1.57,0.82-2.5,1.16c-0.03-0.11-0.07-0.21-0.1-0.32c-0.4-1.31-0.85-2.81-1.33-4.54
						c-0.44-1.6-0.93-3.43-1.42-5.47c0.39-1.31,0.56-2.7,0.48-4.04c-0.1-1.7-0.6-3.28-1.29-4.63c-0.7-1.35-1.56-2.49-2.49-3.44
						c-0.93-0.95-1.89-1.75-2.86-2.4c-1.93-1.33-3.84-2.18-5.54-2.77c-1.71-0.58-3.22-0.9-4.47-1.04c-2.51-0.28-3.9,0.06-3.92,0.4
						c-0.03,0.4,1.26,0.77,3.41,1.62c1.08,0.43,2.36,1,3.78,1.77c1.41,0.77,2.96,1.74,4.43,3.03c0.75,0.63,1.44,1.36,2.08,2.14
						c0.65,0.78,1.18,1.66,1.56,2.59c0.78,1.85,0.84,3.87-0.09,5.9c-0.47,1.01-1.13,2.02-1.96,3c-0.21,0.24-0.44,0.48-0.67,0.72
						l-0.34,0.36l-0.37,0.35c-0.25,0.23-0.5,0.46-0.75,0.7c-0.26,0.23-0.54,0.44-0.81,0.67c-2.21,1.77-4.75,3.4-7.5,4.7
						c-2.76,1.3-5.6,2.24-8.43,2.9c-2.82,0.66-5.63,0.99-8.33,1.14c-5.39,0.28-10.33-0.23-14.42-0.95c-4.1-0.72-7.36-1.65-9.61-2.32
						c-2.25-0.67-3.51-1.11-3.72-0.78c-0.2,0.3,0.74,1.38,2.85,2.69c1.49,0.92,3.56,1.97,6.14,2.95c-0.07,0.11-0.14,0.22-0.21,0.33
						c-0.44,0.68-0.86,1.28-1.25,1.81c-0.79,1.06-1.48,1.88-2.16,2.62c-0.68,0.74-1.34,1.41-2.14,2.13
						c-0.79,0.73-1.72,1.49-2.97,2.37c-0.53,0.39-1.08,0.72-1.62,1.07c-0.55,0.31-1.08,0.66-1.63,0.93
						c-0.27,0.15-0.54,0.29-0.81,0.43c-0.27,0.13-0.54,0.26-0.81,0.39l-0.4,0.2c-0.13,0.06-0.27,0.11-0.4,0.17
						c-0.27,0.12-0.53,0.23-0.79,0.34c-2.1,0.87-4.1,1.45-5.82,1.87c-3.45,0.83-5.79,1.14-5.85,1.89c-0.03,0.35,0.53,0.71,1.6,1.06
						c0.53,0.19,1.2,0.29,1.98,0.43c0.39,0.07,0.81,0.09,1.25,0.13c0.45,0.02,0.92,0.08,1.42,0.06c1.07,0.01,2.26-0.07,3.53-0.26
						c0.19,0.53,0.37,1.04,0.53,1.53c0.33,0.99,0.63,1.88,0.87,2.69c0.25,0.81,0.47,1.55,0.66,2.24c0.2,0.69,0.37,1.33,0.53,1.95
						c0.17,0.62,0.32,1.23,0.46,1.84c0.15,0.62,0.3,1.25,0.44,1.92c0.14,0.67,0.31,1.39,0.44,2.18c0.14,0.79,0.31,1.65,0.43,2.62
						c0.06,0.42,0.12,0.83,0.18,1.24c0.05,0.41,0.09,0.82,0.14,1.22c0.05,0.4,0.09,0.8,0.14,1.2c0.03,0.4,0.06,0.79,0.09,1.18
						c0.03,0.39,0.06,0.77,0.09,1.16c0.01,0.38,0.02,0.75,0.03,1.13c0.01,0.36,0.03,0.72,0.04,1.08c0.01,0.09,0.01,0.18-0.01,0.27
						c-0.04,0.18-0.14,0.35-0.29,0.48c-0.04,0.03-0.08,0.06-0.12,0.09c-0.02,0.01-0.05,0.02-0.07,0.04c0,0-0.06,0.02-0.09,0.03
						l-0.11,0.04c-0.3,0.1-0.6,0.18-0.89,0.27c-1.18,0.33-2.3,0.56-3.34,0.71c-4.15,0.61-6.83-0.12-7.13,0.57
						c-0.07,0.16,0.03,0.38,0.3,0.66c0.26,0.28,0.7,0.59,1.31,0.92c1.21,0.64,3.16,1.27,5.64,1.41c1.24,0.07,2.6,0.03,4.04-0.17
						c0.36-0.05,0.73-0.11,1.1-0.18c0.1-0.02,0.17-0.03,0.3-0.06c0.14-0.04,0.27-0.07,0.41-0.11c0.27-0.09,0.54-0.2,0.8-0.33
						c1.04-0.53,1.93-1.44,2.43-2.59c0.25-0.57,0.41-1.2,0.45-1.84c0.01-0.42,0.03-0.84,0.04-1.26c0.01-0.42,0.02-0.84,0.03-1.27
						c-0.01-0.43-0.03-0.85-0.04-1.28c-0.02-0.43-0.03-0.87-0.05-1.31c-0.04-0.44-0.08-0.87-0.12-1.32
						c-0.04-0.44-0.09-0.89-0.13-1.33c-0.06-0.44-0.13-0.89-0.19-1.34c-0.14-1.05-0.3-1.94-0.44-2.75
						c-0.12-0.81-0.27-1.51-0.38-2.16c-0.23-1.31-0.46-2.4-0.71-3.63c-0.14-0.61-0.29-1.25-0.45-1.97
						c-0.18-0.71-0.38-1.51-0.63-2.41c-0.25-0.9-0.56-1.91-0.93-3.08c-0.17-0.51-0.35-1.06-0.56-1.64c2-0.76,4.06-1.8,5.99-3.16
						c1.47-1.03,2.5-1.85,3.36-2.58c0.87-0.72,1.58-1.37,2.36-2.11c0.76-0.75,1.6-1.61,2.61-2.86c0.5-0.63,1.05-1.35,1.64-2.23
						c0.29-0.44,0.6-0.91,0.91-1.44c0.1-0.16,0.2-0.34,0.3-0.51c3.87,0.99,8.45,1.71,13.54,1.69c2.96-0.02,6.1-0.28,9.3-0.94
						c3.2-0.66,6.46-1.7,9.62-3.19c0.79-0.38,1.55-0.78,2.32-1.19c0.74-0.44,1.49-0.85,2.2-1.32c0.35-0.24,0.71-0.47,1.06-0.71
						l0.52-0.35l0.5-0.38c0.67-0.5,1.34-1,1.97-1.56c0.32-0.27,0.64-0.54,0.94-0.82c0.3-0.29,0.6-0.59,0.9-0.88l0.44-0.44l0.42-0.47
						c0.12-0.14,0.25-0.28,0.37-0.43c0.01,0.04,0.02,0.07,0.03,0.11c0.45,1.62,0.87,3.05,1.28,4.35c0.13,0.43,0.26,0.84,0.39,1.24
						c-2.15,0.48-4.42,0.85-6.58,1.16c-3.25,0.47-1.66,2.44,3.02,3.27c1.61,0.29,3.48,0.49,5.3,0.57c0.05,0.13,0.1,0.26,0.15,0.39
						c0.77,1.95,1.52,3.78,2.59,5.84c0.54,1.03,1.14,2.12,1.98,3.3c0.22,0.29,0.42,0.6,0.69,0.9c0.13,0.15,0.26,0.31,0.39,0.46
						c0.05,0.06,0.17,0.19,0.27,0.29c0.1,0.11,0.22,0.21,0.34,0.32c0.49,0.42,1.13,0.79,1.84,0.98c0.71,0.2,1.45,0.22,2.1,0.12
						c1.34-0.21,2.3-0.74,3.13-1.26c0.83-0.54,1.52-1.12,2.16-1.73c1.27-1.21,2.32-2.48,3.25-3.78c0.93-1.31,1.75-2.63,2.44-4.06
						c0.17-0.36,0.34-0.72,0.49-1.11l0.11-0.29l0.12-0.33c0.11-0.32,0.2-0.64,0.27-0.95c0.14-0.64,0.17-1.27,0.01-1.86
						c-0.04-0.15-0.09-0.3-0.15-0.43c-0.06-0.14-0.13-0.26-0.24-0.37c-0.02-0.03-0.05-0.05-0.07-0.08c0.04-0.02,0.07-0.05,0.11-0.08
						c0.25-0.17,0.52-0.29,0.77-0.41c0.27-0.09,0.52-0.2,0.78-0.24c0.13-0.04,0.25-0.07,0.38-0.07c0.13-0.01,0.25-0.04,0.38-0.05
						c0.26,0,0.5-0.03,0.75,0.01c0.49,0.02,0.96,0.15,1.41,0.27c0.89,0.29,1.67,0.74,2.35,1.25c0.68,0.52,1.26,1.11,1.79,1.71
						c1.03,1.25,1.84,2.62,2.55,4.31c0.7,1.7,1.29,3.73,1.69,6.43c0.19,1.49,0.32,2.98,0.35,4.46c0.03,0.74,0,1.46,0.01,2.18
						c-0.04,0.71-0.05,1.42-0.12,2.11c-0.1,1.39-0.32,2.71-0.61,3.96c-0.13,0.63-0.32,1.23-0.49,1.82c-0.1,0.29-0.2,0.58-0.3,0.86
						c-0.1,0.29-0.23,0.55-0.33,0.82c-0.93,2.16-2.21,3.91-3.63,5.19c-0.71,0.64-1.45,1.17-2.18,1.61c-0.1,0.06-0.2,0.11-0.3,0.17
						c-0.46-1.55-1.08-2.89-1.74-3.94c-0.34-0.56-0.71-1.03-1.05-1.42c-0.35-0.39-0.69-0.7-0.99-0.93
						c-0.63-0.44-1.11-0.57-1.41-0.38c-0.61,0.41-0.3,1.91,0.06,4.09c0.39,2.18,0.78,5.08,0.81,8.39c0,1.93-0.19,2.83-0.41,3.97
						c-0.12,0.57-0.25,1.2-0.44,2.04c-0.06,0.28-0.13,0.58-0.21,0.9c-0.11,0.02-0.21,0.04-0.32,0.05c-0.96,0.2-1.93,0.5-2.89,0.94
						c-0.95,0.45-1.87,1.06-2.68,1.8c-0.81,0.74-1.51,1.6-2.08,2.53c-1.14,1.87-1.75,3.93-2.05,5.98c-0.07,0.51-0.13,1.03-0.17,1.54
						c-0.02,0.26-0.04,0.51-0.05,0.77l-0.02,0.38l-0.02,0.22c-0.04,0.58-0.23,1.14-0.52,1.65c-0.29,0.51-0.7,0.96-1.18,1.31
						c-0.25,0.16-0.5,0.33-0.78,0.44c-0.13,0.07-0.28,0.1-0.42,0.16l-0.22,0.06l-0.11,0.03l-0.17,0.04
						c-2.87,0.61-5.24,0.91-7.3,1.03c5.72-4.93,7.17-11.02,7.24-15.75c0.08-5.64-1.73-10.31-2.26-11.54
						c0.56-0.86,0.99-1.63,1.28-2.28c0.53-1.23,0.7-1.97,0.45-2.13c-0.55-0.36-2.38,1.86-5.7,4.73c-1.69,1.4-3.78,2.93-6.29,4.27
						c-0.61,0.36-1.29,0.64-1.95,0.97c-0.33,0.17-0.68,0.3-1.04,0.44c-0.35,0.14-0.7,0.29-1.06,0.44c-1.46,0.51-2.98,1.03-4.59,1.38
						c-3.21,0.78-6.38,1.07-9.29,1.2c-2.91,0.09-5.56-0.02-7.8-0.18c-4.47-0.32-7.27-0.75-7.47-0.18c-0.18,0.49,1.84,1.73,5.5,2.8
						c-0.01,2.05,0.31,10.99,6.14,16.65c2.18,2.12,4.85,3.51,7.98,4.17c0.72,0.15,1.46,0.26,2.22,0.33c-0.22,0.78-0.35,1.58-0.4,2.4
						c-0.06,1.15,0.04,2.34,0.28,3.55c0.42,2.09,1.29,4.27,2.71,6.42c-0.21,0.05-0.42,0.09-0.63,0.14
						c-0.19,0.04-0.39,0.08-0.58,0.13c-0.19,0.03-0.38,0.06-0.56,0.1c-0.74,0.13-1.45,0.25-2.12,0.36
						c-0.67,0.13-1.31,0.19-1.92,0.27c-0.61,0.07-1.2,0.14-1.77,0.21c-1.13,0.1-2.19,0.15-3.21,0.23c-1.02,0.03-2.01,0.03-3.01,0.05
						c-1-0.03-2.02-0.07-3.11-0.13c-2.16-0.2-4.59-0.47-7.58-1.21c-5.12-1.32-9.65-3.55-13.25-6.28c-3.59-2.75-6.26-5.94-8.06-8.88
						c-0.89-1.48-1.59-2.88-2.14-4.15c-0.51-1.28-0.92-2.41-1.17-3.35c-0.55-1.89-0.75-3.02-1.16-3.06
						c-0.19-0.02-0.39,0.25-0.6,0.81c-0.05,0.14-0.11,0.3-0.15,0.47c-0.04,0.17-0.07,0.37-0.11,0.58c-0.04,0.21-0.07,0.44-0.1,0.68
						c-0.03,0.24-0.03,0.5-0.04,0.78c-0.07,1.11,0.06,2.45,0.34,4c0.31,1.54,0.83,3.26,1.62,5.08c0.36,0.81,0.77,1.64,1.24,2.48
						c-0.17,0.08-0.35,0.17-0.54,0.26c-1.84,0.94-4.72,1.84-8.29,1.59c-3.56-0.24-7.76-1.69-11.61-4.49
						c-0.95-0.72-1.91-1.47-2.79-2.35l-0.34-0.32l-0.32-0.34c-0.21-0.23-0.44-0.45-0.65-0.69c-0.41-0.48-0.84-0.95-1.21-1.47
						c-0.4-0.5-0.75-1.04-1.12-1.58c-0.18-0.27-0.34-0.56-0.51-0.83c-0.08-0.14-0.17-0.28-0.25-0.42l-0.23-0.44
						c-0.64-1.15-1.15-2.38-1.56-3.66c-0.97-2.96-0.96-5.25-0.77-7.17c0.24-1.91,0.69-3.49,1.44-5.14c0.38-0.82,0.83-1.67,1.43-2.54
						c0.6-0.87,1.33-1.78,2.29-2.69c0.23-0.23,0.5-0.44,0.76-0.67c0.28-0.2,0.55-0.44,0.86-0.64c0.6-0.43,1.28-0.79,2.02-1.12
						c1.17-0.52,2.55-0.84,4.02-0.76c0.42,1.16,0.72,2.19,0.95,3.04c0.41,1.58,0.63,2.51,1.03,2.57c0.39,0.09,0.96-0.85,1.23-2.68
						c0.25-1.82,0.17-4.55-0.83-7.74c-1.01-3.16-2.98-6.72-5.9-9.98c-0.38-0.39-0.77-0.79-1.15-1.18c-0.38-0.38-0.77-0.77-1.15-1.16
						c-0.34-0.34-0.7-0.67-1.01-1.04c-0.16-0.18-0.33-0.36-0.49-0.54c-0.15-0.19-0.31-0.38-0.46-0.57
						c-1.24-1.52-2.26-3.26-2.96-5.14c-0.42-1.1-0.61-2.09-0.74-2.98c-0.14-0.89-0.13-1.69-0.12-2.42c0.07-1.46,0.33-2.68,0.76-4
						c0.45-1.31,1.05-2.74,2.24-4.46c1.19-1.7,2.96-3.76,6.05-5.66l-0.23-0.39c0.42,0.15,0.83,0.29,1.22,0.4
						c0.43,0.11,0.82,0.23,1.21,0.3c0.38,0.07,0.74,0.14,1.07,0.19c0.67,0.08,1.23,0.13,1.69,0.13c0.92-0.02,1.41-0.14,1.45-0.36
						s-0.37-0.52-1.17-0.89c-0.39-0.2-0.87-0.43-1.44-0.69c-0.28-0.14-0.58-0.29-0.89-0.44c-0.32-0.15-0.64-0.35-0.99-0.53
						c-0.69-0.38-1.43-0.84-2.2-1.36c-0.75-0.55-1.54-1.17-2.27-1.92c-0.72-0.75-1.41-1.61-1.88-2.55c-0.05-0.12-0.1-0.24-0.16-0.36
						c-0.06-0.12-0.11-0.24-0.14-0.36c-0.04-0.12-0.08-0.24-0.12-0.36c-0.02-0.12-0.05-0.23-0.07-0.35c-0.08-0.46-0.1-0.9,0-1.23
						c0.1-0.34,0.26-0.58,0.51-0.81c0.26-0.23,0.61-0.46,1.13-0.61c0.11-0.05,0.25-0.08,0.39-0.11c0.14-0.03,0.27-0.07,0.42-0.1
						c0.32-0.03,0.61-0.1,0.95-0.1c0.17-0.01,0.34-0.02,0.51-0.03c0.17,0,0.35,0.01,0.53,0.01c0.18,0.01,0.36,0.01,0.54,0.02
						c0.19,0.02,0.37,0.04,0.56,0.05c0.19,0.02,0.37,0.03,0.57,0.06c0.19,0.03,0.39,0.06,0.58,0.09c0.43,0.07,0.86,0.14,1.29,0.21
						c0.47,0.08,0.94,0.15,1.43,0.21c0.48,0.07,0.97,0.13,1.47,0.17c1.99,0.18,4.09,0.26,6.31,0c1.1-0.11,2.23-0.34,3.36-0.63
						c1.13-0.31,2.26-0.73,3.36-1.24c1.1-0.52,2.14-1.16,3.14-1.87c1-0.71,1.91-1.52,2.77-2.37c0.86-0.85,1.64-1.76,2.39-2.69
						c0.72-0.94,1.43-1.9,2.07-2.88c1.3-1.97,2.44-4.01,3.52-6.08c0.54-1.04,1.05-2.07,1.55-3.1c0.24-0.5,0.48-1,0.72-1.49
						c0.23-0.48,0.47-0.96,0.71-1.42c0.96-1.88,1.99-3.67,3.08-5.37c1.09-1.7,2.25-3.29,3.48-4.75c1.22-1.47,2.51-2.79,3.86-3.93
						c1.34-1.14,2.74-2.1,4.14-2.79c1.4-0.68,2.8-1.08,4.04-1.11c0.62-0.02,1.19,0.06,1.66,0.21c0.49,0.16,0.99,0.42,1.46,0.78
						c0.95,0.7,1.76,1.74,2.42,2.83c1.3,2.22,1.99,4.66,2.38,6.82c0.2,1.09,0.31,2.12,0.38,3.08c0.07,0.96,0.09,1.84,0.09,2.64
						c-0.02,3.21-0.28,5.06,0.17,5.19c0.21,0.06,0.55-0.31,0.97-1.13c0.42-0.81,0.91-2.07,1.3-3.77c0.19-0.85,0.37-1.81,0.48-2.87
						c0.01-0.06,0.01-0.13,0.02-0.2c0.3-0.34,0.67-0.67,0.85-0.85c0.21-0.2,0.42-0.4,0.62-0.6c0.41-0.39,0.82-0.77,1.22-1.13
						c0.8-0.72,1.57-1.39,2.32-2c1.49-1.22,2.86-2.23,4.14-3.07c2.55-1.67,4.72-2.72,6.66-3.21c0.96-0.24,1.85-0.32,2.61-0.23
						c0.43,0.05,0.64,0.11,0.74,0.17c0.11,0.06,0.13,0.07,0.22,0.22c0.09,0.14,0.2,0.46,0.26,0.91c0.06,0.45,0.07,1.01,0.03,1.65
						c-0.09,1.27-0.39,2.8-0.86,4.53c-0.55,2.05-1.25,4.09-1.95,6.13c-0.12,0.35-0.24,0.71-0.37,1.06
						c-0.17,0.51-0.34,1.01-0.51,1.52c-0.33,1-0.64,2.01-0.77,2.9c-0.07,0.45-0.07,0.84-0.04,1.2c0.05,0.34,0.11,0.66,0.24,0.92
						c0.13,0.25,0.27,0.47,0.42,0.73c0.04,0.06,0.08,0.12,0.14,0.19l0.09,0.09l0.05,0.05l0.01,0.01l0.01,0.01
						c0,0.01,0.04-0.03,0.03-0.01l0.03,0.02c0.14,0.13,0.28,0.26,0.41,0.36c0.55,0.37,1.01,0.49,1.62,0.55
						c0.6,0.05,1.36-0.04,2.25-0.38c0.89-0.33,1.81-0.82,2.7-1.19c0.22-0.09,0.44-0.19,0.67-0.27l0.34-0.12
						c0.18-0.06,0.35-0.11,0.51-0.16c0.33-0.09,0.63-0.14,0.9-0.16c0.27-0.02,0.5,0,0.72,0.03c0.22,0.03,0.41,0.11,0.62,0.21
						c0.1,0.05,0.21,0.11,0.31,0.18c0.05,0.04,0.11,0.06,0.16,0.11l0.04,0.03c0.01,0.01,0,0,0.01,0l0-0.01
						c0.05,0.03,0.1,0.08,0.13,0.13l0.02,0.04c0,0.01,0,0.01,0.01,0.01c0,0.01,0.01,0.04,0.02,0.06c0.02,0.1,0.03,0.22,0.04,0.35
						c0.03,0.53-0.04,1.2-0.16,1.87c-0.24,1.35-0.65,2.71-1.07,3.97c-0.85,2.54-1.76,4.77-2.5,6.62c-1.49,3.69-2.31,5.86-1.88,6.12
						c0.41,0.25,2.03-1.46,4.27-4.87c1.11-1.71,2.38-3.84,3.62-6.46c0.61-1.32,1.22-2.75,1.68-4.42c0.23-0.84,0.43-1.74,0.47-2.81
						c0.01-0.27,0-0.55-0.02-0.85l-0.03-0.23c-0.01-0.09-0.02-0.19-0.04-0.27c-0.04-0.17-0.07-0.35-0.12-0.52
						c-0.19-0.69-0.54-1.35-1.05-1.88l-0.41-0.4c-0.11-0.11-0.23-0.2-0.35-0.3c-0.24-0.2-0.5-0.38-0.78-0.55
						c-0.56-0.33-1.18-0.62-1.84-0.79c-0.66-0.17-1.33-0.26-1.99-0.25c-0.65,0.01-1.28,0.09-1.88,0.21
						c-0.3,0.06-0.59,0.14-0.87,0.22l-0.36,0.11l-0.07,0.02c-0.1,0.02-0.19,0.05-0.28,0.08c-0.17,0.05-0.33,0.14-0.49,0.11
						c-0.1-0.03-0.05-0.18-0.03-0.26c0.03-0.09,0.06-0.18,0.1-0.27l0.1-0.25l0.05-0.12l0.01-0.03l0.04-0.1l0.14-0.38
						c0.74-2.06,1.49-4.21,2.12-6.5c0.52-1.95,0.89-3.71,1.04-5.41c0.07-0.86,0.09-1.69,0.01-2.55c-0.08-0.85-0.25-1.73-0.63-2.61
						c-0.18-0.44-0.43-0.87-0.72-1.28c-0.3-0.4-0.65-0.79-1.04-1.1c-0.78-0.65-1.68-1.03-2.49-1.24l-0.31-0.08
						c-0.1-0.02-0.18-0.03-0.28-0.05l-0.55-0.09c-0.37-0.07-0.72-0.06-1.08-0.09c-0.72-0.02-1.42,0.02-2.12,0.11
						c-1.4,0.19-2.77,0.57-4.19,1.13c-1.42,0.56-2.9,1.28-4.48,2.23c-1.58,0.95-3.28,2.11-5.12,3.56c-0.8,0.63-1.63,1.32-2.49,2.07
						c-0.3-1.36-0.74-2.78-1.4-4.23c-0.73-1.53-1.7-3.12-3.25-4.51c-0.77-0.69-1.69-1.32-2.77-1.77l-0.41-0.17l-0.43-0.13
						c-0.29-0.1-0.57-0.16-0.85-0.22c-0.56-0.12-1.13-0.19-1.69-0.21c-2.27-0.1-4.44,0.45-6.43,1.29c-1.99,0.85-3.83,2-5.53,3.34
						c-1.7,1.34-3.29,2.85-4.75,4.5c-1.47,1.65-2.83,3.42-4.09,5.3c-1.26,1.87-2.42,3.84-3.49,5.88c-0.27,0.51-0.53,1.02-0.79,1.55
						c-0.25,0.5-0.5,1.01-0.74,1.52c-0.48,0.99-0.97,1.97-1.47,2.94c-1.01,1.95-2.05,3.83-3.17,5.55c-0.55,0.87-1.14,1.69-1.73,2.48
						c-0.6,0.77-1.22,1.51-1.86,2.18c-0.65,0.66-1.31,1.28-2.01,1.8c-0.7,0.52-1.42,0.99-2.17,1.38c-0.75,0.38-1.53,0.7-2.33,0.95
						c-0.81,0.23-1.63,0.44-2.47,0.56c-1.68,0.27-3.43,0.3-5.15,0.23c-0.43-0.01-0.86-0.04-1.29-0.08
						c-0.43-0.03-0.86-0.07-1.28-0.12c-0.46-0.05-0.92-0.09-1.37-0.13c-0.25-0.02-0.49-0.04-0.74-0.07
						c-0.25-0.02-0.5-0.02-0.75-0.03c-0.25-0.01-0.5-0.01-0.74-0.02c-0.25,0-0.5,0.02-0.75,0.03c-0.25,0.01-0.5,0.02-0.75,0.04
						c-0.25,0.03-0.51,0.06-0.76,0.09c-0.5,0.04-1.02,0.19-1.52,0.29c-0.25,0.06-0.51,0.16-0.76,0.24c-0.25,0.08-0.5,0.17-0.76,0.29
						c-1,0.41-2.01,1.09-2.79,2.01c-0.79,0.92-1.3,2.11-1.44,3.23c-0.15,1.14,0.04,2.17,0.31,3.07c0.08,0.22,0.15,0.44,0.23,0.66
						c0.09,0.2,0.19,0.4,0.28,0.6c0.09,0.2,0.19,0.39,0.3,0.57c0.11,0.18,0.22,0.36,0.32,0.53c0.66,0.98,1.4,1.77,2.15,2.44
						c-2.12,1.65-3.66,3.36-4.83,4.96c-0.41,0.54-0.75,1.09-1.08,1.61c-0.3,0.54-0.62,1.04-0.86,1.56
						c-0.13,0.26-0.25,0.51-0.38,0.76c-0.11,0.25-0.22,0.51-0.33,0.75c-0.22,0.49-0.38,0.99-0.57,1.48
						c-0.66,1.97-1.03,3.92-1.12,6.16c-0.03,1.12,0.01,2.33,0.21,3.63c0.19,1.3,0.51,2.72,1.07,4.22c0.96,2.58,2.39,4.89,4.04,6.78
						c0.21,0.24,0.41,0.47,0.62,0.71c0.22,0.22,0.43,0.44,0.65,0.66c0.42,0.45,0.88,0.84,1.33,1.24c0.75,0.67,1.48,1.33,2.2,1.97
						c2.04,1.97,3.66,4.02,4.89,5.98c-0.97,0.15-1.89,0.38-2.71,0.69c-2.07,0.76-3.69,1.83-5.03,2.91c-2.63,2.22-4.18,4.53-5.32,6.8
						c-0.57,1.14-1.02,2.3-1.38,3.5c-0.19,0.6-0.33,1.22-0.48,1.85c-0.12,0.64-0.24,1.29-0.31,1.97c-0.15,1.36-0.21,2.82-0.07,4.42
						c0.14,1.59,0.46,3.33,1.06,5.16c0.51,1.57,1.15,3.08,1.94,4.48l0.29,0.53c0.1,0.17,0.21,0.34,0.31,0.51
						c0.21,0.33,0.42,0.67,0.63,1c0.45,0.64,0.9,1.28,1.39,1.87c0.47,0.61,0.99,1.16,1.5,1.72c0.26,0.27,0.53,0.53,0.79,0.79
						l0.4,0.39l0.41,0.37c1.08,1,2.25,1.85,3.41,2.64c4.7,3.08,9.82,4.43,14.13,4.24c2.16-0.09,4.09-0.55,5.67-1.2
						c0.39-0.18,0.78-0.31,1.12-0.52c0.35-0.19,0.68-0.37,1-0.56c0.6-0.42,1.16-0.77,1.59-1.19c0.13-0.12,0.26-0.23,0.39-0.34
						c1.56,2.43,3.61,4.87,6.18,7.09c4,3.43,9.27,6.2,15.12,7.7c0.51,0.12,1,0.23,1.47,0.34c-7,2.22-12.72,2.21-17.53,2.19
						c-4.92-0.02-8.8-0.03-11.82,2.5c-0.65,0.55-2.13,1.97-3.18,4.37c-0.25-0.08-0.49-0.15-0.72-0.24c-0.74-0.26-1.35-0.59-1.9-0.9
						c-1.07-0.64-1.83-1.3-2.45-1.99c-0.16-0.17-0.29-0.36-0.44-0.53c-0.07-0.09-0.15-0.17-0.21-0.27l-0.19-0.29
						c-0.13-0.2-0.27-0.41-0.4-0.61c-0.17-0.27-0.35-0.54-0.53-0.82c-0.77-1.1-1.71-2.32-3.29-3.57c-0.35-0.26-0.7-0.51-1.07-0.74
						c-0.39-0.22-0.75-0.45-1.17-0.62c-0.8-0.38-1.7-0.63-2.64-0.73c-0.93-0.11-1.99,0.03-2.95,0.46c-0.24,0.11-0.48,0.22-0.69,0.38
						c-0.21,0.16-0.44,0.3-0.62,0.48c-0.18,0.19-0.36,0.38-0.53,0.57c-0.16,0.21-0.32,0.43-0.43,0.66c-0.5,0.92-0.61,1.82-0.62,2.62
						c0,0.66,0.09,1.27,0.22,1.83c-0.06,0-0.12-0.01-0.18-0.01c-0.73-0.04-1.38-0.09-1.97-0.14c-1.18-0.11-2.12-0.23-3-0.37
						c-0.87-0.14-1.69-0.3-2.57-0.53c-0.11-0.03-0.22-0.06-0.34-0.09c-0.08-0.02-0.15-0.04-0.23-0.06c-0.1-0.02-0.19-0.04-0.29-0.06
						c-0.19-0.05-0.4-0.07-0.61-0.09c-0.21-0.03-0.42-0.03-0.64-0.03c-0.87,0.01-1.84,0.21-2.8,0.73c-0.82,0.46-1.54,1.13-2.03,1.98
						c-0.5,0.84-0.72,1.85-0.66,2.78c0.06,0.93,0.37,1.75,0.74,2.42c0.37,0.69,0.84,1.21,1.3,1.69c0.44,0.42,0.88,0.78,1.32,1.1
						c-0.28,0.03-0.55,0.05-0.81,0.07c-0.21,0.01-0.41,0.02-0.61,0.03c-0.35,0.03-0.69,0.06-1.03,0.16
						c-0.69,0.19-1.36,0.54-1.93,1.07c-0.57,0.53-1.04,1.24-1.3,2.1c-0.25,0.85-0.27,1.86,0.02,2.84c0.25,0.84,0.69,1.55,1.19,2.14
						c0.46,0.55,0.97,0.95,1.49,1.31l-0.18,0.05c-0.16,0.05-0.31,0.09-0.47,0.18c-0.16,0.08-0.31,0.16-0.46,0.25
						c-0.15,0.09-0.3,0.22-0.44,0.34l-0.21,0.19c-0.06,0.07-0.12,0.14-0.18,0.21c-0.11,0.15-0.23,0.29-0.32,0.46
						c-0.38,0.65-0.51,1.45-0.46,2.16c0.02,0.17,0.05,0.34,0.08,0.51c0.02,0.09,0.04,0.17,0.05,0.26c0.03,0.08,0.05,0.16,0.08,0.24
						c0.05,0.16,0.11,0.32,0.17,0.48c0.07,0.14,0.15,0.29,0.23,0.44c0.15,0.32,0.35,0.56,0.56,0.86c0.21,0.27,0.44,0.54,0.7,0.8
						c0.88,0.88,1.84,1.5,2.79,1.98c0.45,0.26,1,0.45,1.48,0.65c0.25,0.08,0.51,0.15,0.76,0.22c0.12,0.03,0.25,0.07,0.37,0.1
						c0.12,0.02,0.25,0.05,0.37,0.07c0.06,0.01,0.11,0.02,0.16,0.03c0.01,0.61,0.15,1.15,0.31,1.61c0.48,1.25,1.18,2.04,1.84,2.66
						c0.67,0.62,1.34,1.04,1.99,1.38c0.64,0.33,1.26,0.57,1.87,0.75c1.21,0.36,2.38,0.51,3.68,0.52c0.65-0.01,1.34-0.04,2.08-0.15
						c0.74-0.09,1.55-0.28,2.38-0.5c1.02-0.25,2.01-0.48,2.97-0.57c-0.21,2.18-0.23,4.32-0.18,6.42c0.13,4.13,0.67,8.11,1.42,11.95
						c0.38,1.92,0.82,3.79,1.31,5.64c0.49,1.84,1.03,3.64,1.61,5.4c1.2,3.64,2.58,7.11,4.1,10.4c-0.32,0.06-0.63,0.13-0.92,0.22
						c-0.99,0.29-1.77,0.79-2.47,1.29c-0.65,0.52-1.21,1.08-1.65,1.64c-0.89,1.12-1.46,2.22-1.92,3.27
						c-0.85,2.1-1.24,3.99-1.45,5.74c-0.21,1.75-0.23,3.36-0.16,4.9c0.17,3.08,0.67,5.92,1.63,9.02c0.47,1.55,1.08,3.17,1.87,4.89
						c0.79,1.72,1.75,3.55,2.99,5.49c2.13,3.33,4.64,6.27,7.31,8.81c2.68,2.53,5.5,4.67,8.32,6.47c0.12,0.08,0.25,0.15,0.37,0.23
						c-0.14,0.24-0.26,0.48-0.38,0.71c-0.79,1.66-1.05,3.23-1.12,4.68c-0.11,2.91,0.58,5.3,1.39,7.28c0.83,1.99,1.84,3.6,2.86,4.99
						c1.02,1.39,2.07,2.57,3.13,3.65c2.14,2.14,4.32,3.88,6.91,5.65c1.3,0.87,2.7,1.77,4.28,2.66c0.78,0.46,1.62,0.89,2.5,1.37
						c0.89,0.45,1.81,0.93,2.81,1.4c3.41,1.63,6.82,2.99,10.14,4.15c3.33,1.16,6.57,2.13,9.68,2.94c6.22,1.64,11.89,2.7,16.67,3.41
						c9.57,1.38,15.56,1.42,15.67,0.63c0.13-0.85-5.63-2.36-14.82-4.78c-4.59-1.23-10.04-2.69-15.99-4.57
						c-2.97-0.93-6.07-1.98-9.22-3.16c-3.15-1.18-6.37-2.51-9.56-4.03c-0.93-0.43-1.78-0.88-2.58-1.29
						c-0.79-0.43-1.53-0.82-2.21-1.23c-0.34-0.2-0.67-0.39-0.99-0.58c-0.31-0.2-0.62-0.39-0.92-0.58c-0.6-0.37-1.14-0.75-1.68-1.1
						c-2.1-1.45-3.74-2.81-5.42-4.43c-0.83-0.82-1.66-1.71-2.49-2.76c-0.83-1.04-1.65-2.24-2.37-3.67c-0.7-1.42-1.3-3.11-1.37-4.93
						c-0.04-0.9,0.08-1.85,0.38-2.62c0.1-0.25,0.22-0.49,0.34-0.66c3.52,1.72,6.9,2.98,9.93,3.93c1.18,0.38,2.32,0.67,3.39,0.96
						c1.08,0.26,2.1,0.5,3.06,0.7c0.96,0.18,1.86,0.35,2.68,0.49c0.83,0.13,1.59,0.22,2.27,0.29c1.36,0.17,2.44,0.17,3.18,0.14
						c0.74-0.04,1.14-0.16,1.19-0.36c0.04-0.2-0.28-0.48-0.93-0.83c-0.65-0.35-1.63-0.72-2.88-1.24c-1.26-0.48-2.79-1.06-4.56-1.74
						c-0.88-0.35-1.82-0.72-2.81-1.11c-0.98-0.43-2.03-0.83-3.1-1.32c-3.61-1.59-7.72-3.6-11.9-6.27l-0.02-0.2
						c-0.09,0-0.18,0.01-0.27,0.02c-0.71-0.46-1.43-0.95-2.15-1.45c-2.49-1.76-4.96-3.79-7.29-6.09c-2.32-2.32-4.49-4.92-6.34-7.82
						c-1.07-1.69-1.87-3.22-2.51-4.63c-0.64-1.4-1.09-2.68-1.46-3.87c-0.72-2.39-1.09-4.46-1.26-6.76
						c-0.07-1.15-0.09-2.36,0.01-3.68c0.11-1.31,0.31-2.77,0.79-4.24c0.23-0.74,0.54-1.48,0.93-2.13c0.38-0.66,0.88-1.16,1.25-1.39
						c0.18-0.09,0.3-0.12,0.42-0.13c0.11-0.02,0.27,0.01,0.54,0.13c0.03,0.01,0.07,0.02,0.1,0.04c0.04,0.02,0.07,0.05,0.11,0.07
						c0.08,0.05,0.15,0.08,0.24,0.14c0.17,0.13,0.35,0.24,0.54,0.42c0.38,0.31,2.49,2.8,2.89,3.29l0,0
						c3.08,4.95,6.43,9.3,9.85,12.99c3.8,4.12,7.72,7.4,11.35,9.96c3.65,2.54,7.04,4.36,9.88,5.63c5.72,2.51,9.15,3.02,9.26,2.67
						c0.16-0.45-2.99-1.73-8.16-4.79c-2.57-1.54-5.63-3.58-8.91-6.25c-3.26-2.69-6.77-6.01-10.17-10.09
						c-3.41-4.07-6.74-8.87-9.73-14.35c-2.98-5.48-5.64-11.63-7.69-18.33c-0.51-1.68-0.98-3.38-1.41-5.12
						c-0.42-1.74-0.8-3.51-1.13-5.3c-0.64-3.59-1.09-7.28-1.16-11.01c-0.04-1.86,0.01-3.73,0.2-5.57c0.19-1.84,0.52-3.65,1.03-5.33
						c0.27-0.83,0.58-1.63,0.96-2.34c0.38-0.7,0.81-1.33,1.28-1.8c0.12-0.11,0.23-0.24,0.36-0.32c0.13-0.09,0.23-0.2,0.39-0.28
						c0.15-0.08,0.29-0.19,0.43-0.26c0.14-0.06,0.27-0.12,0.4-0.19c0.52-0.19,0.88-0.22,1.33-0.11c0.53,0.14,1.2,0.53,1.86,1.11
						c0.66,0.56,1.3,1.27,1.89,2.02c1.19,1.48,2.22,3.1,3.17,4.64c1.89,3.11,3.48,6.01,5.01,8.68c1.52,2.68,2.96,5.15,4.46,7.56
						c0.76,1.2,1.51,2.4,2.32,3.57c0.81,1.16,1.63,2.34,2.48,3.55c0.42,0.6,0.85,1.21,1.29,1.84c0.46,0.6,0.94,1.22,1.42,1.85
						c0.48,0.63,0.98,1.27,1.48,1.92c0.51,0.65,1,1.34,1.58,2c1.13,1.33,2.31,2.73,3.58,4.22c1.33,1.43,2.73,2.97,4.26,4.57
						c3.13,3.15,6.78,6.61,11.36,10.22c2.31,1.78,4.81,3.65,7.65,5.43c0.35,0.23,0.71,0.46,1.07,0.68c0.37,0.22,0.74,0.44,1.11,0.66
						c0.37,0.22,0.75,0.45,1.13,0.67c0.39,0.22,0.78,0.43,1.18,0.65c0.4,0.22,0.79,0.44,1.21,0.65c0.42,0.21,0.84,0.42,1.26,0.63
						c0.42,0.22,0.87,0.41,1.31,0.62c0.22,0.1,0.45,0.2,0.69,0.3l0.36,0.15l0.2,0.08c1.09,3.76,2.44,7.85,4.09,12.16
						c1.25,3.31,2.71,6.73,4.32,10.23c0.84,1.74,1.65,3.52,2.58,5.28c0.46,0.88,0.92,1.78,1.38,2.67c0.49,0.88,0.98,1.77,1.48,2.67
						c3.98,7.15,8.43,13.61,12.89,19.14c4.46,5.53,8.92,10.14,12.94,13.7c0.49,0.46,0.99,0.88,1.48,1.29
						c0.49,0.41,0.97,0.8,1.43,1.19c0.94,0.76,1.8,1.51,2.67,2.12c0.86,0.63,1.66,1.21,2.4,1.74c0.37,0.26,0.73,0.51,1.07,0.75
						c0.34,0.24,0.69,0.43,1,0.63c2.57,1.56,4.08,2.26,4.31,1.95c0.52-0.7-4.5-4.89-11.59-12.51c-3.54-3.81-7.54-8.53-11.62-14.03
						c-4.08-5.51-8.23-11.81-12.08-18.72c-0.48-0.86-0.96-1.72-1.44-2.58c-0.46-0.87-0.91-1.72-1.36-2.58
						c-0.92-1.7-1.73-3.42-2.58-5.08c-1.62-3.37-3.15-6.64-4.49-9.81c-2.73-6.32-4.89-12.15-6.63-17.08
						c-3.46-9.87-5.15-16.15-5.92-16.03c-0.7,0.1-0.49,5.65,1.48,14.49c-0.33-0.18-0.65-0.35-0.97-0.54
						c-0.6-0.36-1.2-0.71-1.78-1.06c-2.32-1.45-4.47-2.91-6.44-4.39c-0.49-0.37-0.98-0.74-1.45-1.1c-0.48-0.36-0.95-0.72-1.4-1.1
						c-0.9-0.75-1.78-1.47-2.64-2.18c-0.84-0.73-1.64-1.46-2.43-2.17c-0.39-0.35-0.78-0.7-1.17-1.05c-0.37-0.36-0.74-0.72-1.1-1.07
						c-0.72-0.7-1.42-1.39-2.11-2.06c-0.17-0.17-0.34-0.33-0.51-0.5c-0.16-0.17-0.33-0.35-0.49-0.52c-0.32-0.34-0.64-0.68-0.95-1.02
						c-1.26-1.35-2.48-2.61-3.57-3.92c-0.55-0.65-1.1-1.28-1.63-1.9c-0.53-0.63-1.08-1.23-1.56-1.87c-0.99-1.26-1.95-2.49-2.9-3.69
						c-0.49-0.59-0.92-1.22-1.36-1.84c-0.44-0.62-0.88-1.23-1.32-1.85c-0.87-1.23-1.78-2.44-2.59-3.7
						c-1.66-2.51-3.26-5.16-4.94-8.05c-0.74-1.26-1.49-2.58-2.27-3.95c1.86,1.07,3.81,1.83,5.85,2.26c0.8,0.17,1.61,0.28,2.43,0.35
						c6.49,0.53,12.34-2.17,16.14-4.57c0.06,0.69,0.12,1.39,0.2,2.1c0.21,1.64,0.42,3.37,0.77,5.14c0.17,0.88,0.33,1.79,0.53,2.7
						c0.22,0.9,0.45,1.82,0.67,2.75c0.12,0.46,0.24,0.92,0.35,1.38c0.14,0.45,0.27,0.9,0.41,1.35c0.28,0.89,0.55,1.76,0.82,2.62
						c0.13,0.43,0.28,0.85,0.44,1.26c0.16,0.41,0.31,0.82,0.46,1.23c0.31,0.81,0.62,1.6,0.92,2.37c0.64,1.53,1.33,2.94,1.97,4.27
						c0.16,0.33,0.32,0.66,0.48,0.97c0.17,0.31,0.35,0.61,0.51,0.91c0.34,0.59,0.67,1.16,0.99,1.7c1.24,2.17,2.51,3.78,3.46,4.84
						c0.96,1.05,1.66,1.53,2.03,1.33c0.37-0.2,0.37-1.07,0.08-2.43c-0.29-1.37-0.94-3.21-1.64-5.53c-0.18-0.57-0.38-1.17-0.59-1.79
						c-0.11-0.31-0.22-0.62-0.33-0.94c-0.1-0.32-0.2-0.66-0.3-0.99c-0.4-1.35-0.89-2.76-1.36-4.26c-0.22-0.75-0.45-1.53-0.68-2.31
						c-0.12-0.39-0.24-0.79-0.36-1.19c-0.13-0.4-0.25-0.8-0.35-1.22c-0.23-0.82-0.46-1.66-0.69-2.51c-0.12-0.42-0.24-0.85-0.36-1.28
						c-0.11-0.43-0.22-0.87-0.32-1.31c-0.23-0.88-0.45-1.74-0.67-2.6c-0.21-0.86-0.39-1.71-0.59-2.54
						c-0.42-1.66-0.72-3.28-1.08-4.81c-0.63-3.08-1.2-5.87-1.64-8.22c-0.93-4.71-1.54-7.68-2.39-7.72
						c-0.84-0.05-1.77,3.03-1.92,8.05c-0.01,0.27-0.02,0.54-0.02,0.82c-2.63,2.02-8.83,6.08-15.55,5.52
						c-4.64-0.39-8.81-2.97-12.42-7.66c-11.38-14.81-5.6-20.88-4.32-21.95c1.65-1.38,4.58-1.37,8.64-1.35
						c5.94,0.02,13.93,0.05,23.98-4.27c0.05,0.17,0.1,0.32,0.14,0.47c0.09,0.29,0.18,0.56,0.28,0.82c0.1,0.25,0.2,0.5,0.3,0.75
						c0.12,0.24,0.24,0.49,0.37,0.75c0.12,0.27,0.28,0.53,0.46,0.83c0.18,0.29,0.36,0.62,0.61,0.95c0.21,0.29,0.42,0.57,0.63,0.85
						c0.23,0.26,0.46,0.51,0.69,0.75c0.12,0.12,0.23,0.24,0.34,0.36c0.12,0.11,0.24,0.21,0.37,0.32c0.24,0.21,0.48,0.41,0.72,0.6
						c0.98,0.72,1.92,1.26,2.76,1.57c0.82,0.37,1.56,0.48,2.07,0.52c0.52,0.03,0.85-0.07,0.96-0.29c0.11-0.23-0.02-0.56-0.32-0.96
						c-0.29-0.41-0.79-0.84-1.34-1.43c-1.15-1.09-2.65-2.54-3.92-4.36c-0.72-1.07-0.91-1.65-1.13-2.37
						c-0.12-0.36-0.21-0.76-0.34-1.3c-0.02-0.12-0.05-0.24-0.07-0.37c0.41,0.03,0.82,0.04,1.23,0.04c0.5,0.01,1,0.01,1.52,0.02
						c0.53,0,1.07-0.01,1.63-0.02c0.04,0.08,0.08,0.15,0.12,0.22c0.4,0.74,0.77,1.32,1.15,1.85c0.38,0.53,0.78,1.01,1.27,1.53
						c0.5,0.52,1.1,1.08,1.98,1.68c1.52,1.02,3.28,1.57,4.83,1.63c0.32,0.02,0.63,0.02,0.93,0c-0.44,0.48-0.89,0.96-1.35,1.43
						c-0.43,0.42-0.84,0.87-1.29,1.28c-0.44,0.4-0.89,0.8-1.35,1.21c-0.46,0.37-0.94,0.71-1.4,1.08l-0.45,0.34
						c-0.18,0.13-0.35,0.26-0.53,0.4c-0.34,0.3-0.69,0.6-1.01,0.96c-0.65,0.7-1.25,1.52-1.68,2.47c-0.43,0.94-0.7,1.98-0.78,3
						c-0.17,2.06,0.31,3.94,0.98,5.58c0.68,1.64,1.55,3.05,2.47,4.35c0.46,0.65,0.95,1.26,1.44,1.85c0.25,0.29,0.5,0.58,0.75,0.86
						c0.24,0.26,0.47,0.51,0.71,0.76c0.42,0.44,0.65,1.07,0.63,1.7c0,0.07-0.05,0.54-0.08,0.87c-0.04,0.35-0.06,0.69-0.09,1.03
						c-0.06,0.68-0.08,1.34-0.12,2c-0.21,5.23,0,9.88,0.38,13.79c0.76,7.81,2.27,12.49,3.03,12.37c0.82-0.12,0.77-4.89,1.07-12.49
						c0.15-3.8,0.37-8.34,0.85-13.28c0.07-0.61,0.13-1.24,0.21-1.85c0.04-0.31,0.07-0.62,0.12-0.92c0.04-0.33,0.08-0.52,0.15-1.11
						c0.18-2.03-0.46-4.21-1.89-5.84c-0.23-0.26-0.46-0.52-0.69-0.79c-0.21-0.24-0.41-0.49-0.62-0.74c-0.4-0.5-0.79-1.01-1.15-1.53
						c-0.72-1.04-1.37-2.14-1.81-3.22c-0.44-1.08-0.65-2.1-0.59-2.91c0.06-0.81,0.32-1.45,0.91-2.1c0.13-0.17,0.31-0.32,0.47-0.48
						c0.21-0.17,0.43-0.35,0.64-0.52c0.59-0.49,1.19-0.96,1.75-1.45c0.52-0.51,1.03-1.01,1.53-1.5c0.49-0.5,0.93-1.02,1.38-1.52
						c1.76-2.04,3.25-4.05,4.53-5.99c1.31-1.93,2.4-3.78,3.38-5.48c1.93-3.42,3.25-6.29,4.03-8.35c0.78-2.06,1-3.3,0.65-3.49
						c-0.35-0.19-1.24,0.68-2.61,2.36c-0.74,0.91-1.63,2.08-2.65,3.44c-0.72-0.41-1.39-0.86-1.99-1.32c-0.9-0.69-1.67-1.43-2.31-2.2
						c-1.31-1.52-2.14-3.11-2.64-4.59c-0.24-0.74-0.39-1.45-0.48-2.11c-0.06-0.66-0.06-1.27,0.01-1.8c0.07-0.53,0.23-0.97,0.4-1.3
						c0.18-0.33,0.36-0.56,0.57-0.7c0.21-0.14,0.46-0.25,0.79-0.32c0.19,0,0.35-0.06,0.57-0.03c0.11,0.01,0.21,0,0.32,0l0.35,0.05
						l0.18,0.02l0.29,0.05c0.2,0.03,0.41,0.06,0.61,0.1c0.41,0.07,0.82,0.1,1.23,0.15c0.41,0.04,0.83,0.07,1.25,0.1
						c0.42,0.02,0.84,0.04,1.27,0.05c3.44,0.07,7.21-0.26,11.85-1.26l0.19-0.04l0.25-0.06l0.51-0.14c0.33-0.12,0.66-0.22,0.98-0.37
						c0.64-0.27,1.24-0.63,1.81-1.03c1.11-0.82,2.05-1.87,2.71-3.06c0.66-1.19,1.07-2.53,1.16-3.87l0.03-0.5l0.01-0.32
						c0-0.2,0.02-0.4,0.03-0.6c0.02-0.4,0.06-0.79,0.11-1.18c0.2-1.54,0.61-2.95,1.24-4.06c0.63-1.12,1.47-1.93,2.52-2.49
						c0.53-0.27,1.11-0.48,1.72-0.65c0.32-0.07,0.62-0.15,0.95-0.19c0.32-0.06,0.65-0.08,0.99-0.11c1.34-0.1,2.73,0,4.08,0.2
						c1.38,0.2,2.6,0.5,4.11,0.81c0.71,0.16,1.42,0.26,2.11,0.38c0.69,0.12,1.36,0.19,2.02,0.27c5.28,0.57,9.52,0.29,12.4-0.1
						c1.44-0.2,2.55-0.44,3.3-0.66c0.37-0.11,0.65-0.22,0.83-0.32c0.11-0.05,0.12-0.1,0.16-0.15c0.02-0.02,0.03-0.05,0.04-0.07
						c0.01-0.02,0.01,0,0.02-0.05c0.01-0.05,0.02-0.1,0.04-0.16l-0.01,0.04c0,0.02-0.02,0.09-0.02,0.07c0-0.01,0-0.02,0-0.03
						c-0.01-0.02-0.02-0.04-0.04-0.07c-0.04-0.05-0.12-0.09-0.21-0.13c-0.2-0.08-0.49-0.15-0.87-0.22
						c-0.76-0.13-1.87-0.24-3.28-0.36c-0.34-0.03-0.7-0.06-1.07-0.1c0.26-2.03,1.43-2.48,3.53-2.66c2.93-0.18,5.91,0.25,8.95,0.6
						c4.26,0.53,8.6,1.06,12.93,1.24c6.91,0.26,17.05,0.42,21.93,5.88c3.72,4.31,3.08,10.65,2.02,15.96
						c-0.89,4.2-1.71,8.42-2.37,12.7c-0.25,1.7-0.49,3.42-0.68,5.15c-0.68-0.68-1.39-1.33-2.14-1.94
						c-7.29-6.03-18.65-9.53-28.01-7.53c-7.28,1.75-13.68,6.26-18.21,12.17c-0.35-4.86-0.74-9.84-2.44-14.45
						c-3.67-9.21-12.3-10.19-19.52-4.16c-6.48,5.47-10.49,13.39-13.32,21.2c-4.55,13.89-6.98,28.42-7.53,43
						c-0.18,6.54,0.13,13.16,1.61,19.57c0.84,3.22,2.06,7.98,5.34,9.63c1.27,0.68,3.15,0.32,4.17-0.54c0.32-0.27,0.62-0.57,0.9-0.89
						c0,0.48-0.01,0.97-0.01,1.47c0.01,0.59,0.03,1.19,0.04,1.8c0.02,1.21,0.12,2.44,0.19,3.68c0.06,0.62,0.11,1.25,0.17,1.88
						c0.03,0.32,0.06,0.63,0.09,0.95c0.04,0.32,0.08,0.64,0.12,0.95c0.63,5.1,1.72,9.92,3.18,14.16c1.45,4.24,3.21,7.9,4.99,10.78
						c0.41,0.74,0.88,1.39,1.31,2.02c0.44,0.62,0.82,1.22,1.25,1.75c0.42,0.52,0.82,1.01,1.19,1.44c0.37,0.44,0.7,0.84,1.05,1.16
						c1.35,1.33,2.22,1.94,2.5,1.72c0.62-0.49-1.57-3.91-4.07-9.77c-1.28-2.92-2.58-6.47-3.69-10.51
						c-1.12-4.04-2.01-8.57-2.61-13.39c-0.04-0.3-0.08-0.6-0.12-0.9c-0.03-0.3-0.06-0.6-0.09-0.9c-0.06-0.6-0.12-1.19-0.18-1.78
						c-0.08-1.18-0.2-2.34-0.25-3.49c-0.03-0.57-0.06-1.14-0.09-1.71c-0.02-0.56-0.04-1.12-0.06-1.68
						c-0.05-1.11-0.05-2.19-0.07-3.25c-0.04-4.24,0.12-8.07,0.28-11.3c0.35-6.46,0.75-10.48,0.07-10.66
						c-0.68-0.19-2.37,3.65-3.67,10.21c-0.23,1.2-0.45,2.5-0.65,3.87c-0.35,1.38-0.73,2.74-1.18,4.06
						c-0.49,1.43-1.06,2.84-1.77,3.98c-0.43,0.66-0.83,1.21-1.33,1.42c-0.09-0.06-0.26-0.14-0.44-0.34
						c-0.62-0.69-1.04-1.53-1.42-2.46c-1.1-2.75-1.66-5.83-2.05-8.81c-0.78-6.16-0.68-12.5-0.19-18.7c0.79-9.4,2.41-18.77,4.81-27.9
						c2.3-8.85,5.63-17.8,11.65-24.77c2.87-3.28,8.54-8.1,12.53-4.04c1.74,1.81,2.55,4.75,2.93,7.27c0.9,5.69,1.17,11.53,0.83,17.29
						c-0.02,0.37-0.05,0.77-0.08,1.09c0,0,0.06,0.38,0,0.56c-0.31,1.06-0.73,2.2-1.01,3.27c-0.18,0.81-0.61,2.51-0.76,3.32
						c-0.12,0.69-0.4,2.65-0.52,3.35c-0.2,2.01-0.82,3.97-1.38,5.9c-0.98,3.87-1.75,7.73-0.84,11.8c0.37,1.56,1.22,3.24,2.49,4.35
						c0.16,0.17,0.49,0.49,0.65,0.65l0.15,0.15c0,0,0.15,0.19,0.15,0.19c0.38,0.46,0.87,1.04,1.21,1.53
						c1.84,2.48,3.39,5.17,4.91,7.93c2.68,4.92,5.05,10.07,7,15.32c0.15,0.39,0.29,0.79,0.43,1.19c-0.49-0.1-0.94-0.21-1.35-0.32
						c-1.08-0.37-1.93-0.71-2.66-1.16c-0.18-0.11-0.36-0.21-0.54-0.32c-0.17-0.12-0.34-0.25-0.51-0.37
						c-0.17-0.13-0.35-0.24-0.51-0.38c-0.16-0.14-0.33-0.29-0.5-0.45c-0.09-0.08-0.17-0.15-0.26-0.23
						c-0.08-0.09-0.17-0.18-0.25-0.27c-0.17-0.18-0.35-0.36-0.53-0.57c-0.17-0.21-0.35-0.44-0.54-0.68
						c-0.19-0.23-0.36-0.52-0.55-0.79c-1.29-1.96-2.16-4.16-2.8-6.24c-0.64-2.08-1.04-4.06-1.37-5.74
						c-0.63-3.37-0.95-5.56-1.57-5.61c-0.6-0.07-1.42,2.13-1.58,5.83c-0.07,1.85,0.03,4.07,0.53,6.52c0.5,2.44,1.39,5.14,3.06,7.68
						c0.25,0.36,0.46,0.71,0.71,1.02c0.24,0.31,0.47,0.6,0.68,0.87c0.22,0.27,0.45,0.5,0.65,0.74c0.21,0.23,0.4,0.46,0.61,0.65
						c0.82,0.8,1.56,1.43,2.46,2.05c0.46,0.29,0.93,0.64,1.52,0.91c0.29,0.14,0.59,0.3,0.92,0.46c0.33,0.15,0.69,0.27,1.07,0.41
						c1.26,0.45,2.87,0.87,4.9,1.04c0.84,3.23,1.33,6.52,1.5,9.92c0.64,6.09-0.89,18.01,8.33,17.67
						c9.29-0.8,17.56-13.72,23.28-25.47c-0.2,3.09-0.33,5.66-0.43,8.1c-0.22,5.39-0.39,10.13-0.36,18.45
						c0.04,7.15,0.39,13.97,1.02,20.15c0.64,6.18,1.56,11.73,2.64,16.33c0.14,0.57,0.27,1.13,0.4,1.68
						c0.15,0.54,0.29,1.07,0.43,1.59c0.29,1.03,0.55,1.99,0.86,2.89c0.3,0.89,0.57,1.72,0.85,2.48c0.3,0.75,0.58,1.44,0.83,2.05
						c0.13,0.3,0.26,0.59,0.37,0.86c0.13,0.26,0.26,0.51,0.38,0.74c0.24,0.45,0.46,0.83,0.65,1.13c0.38,0.6,0.65,0.88,0.81,0.82
						c0.16-0.06,0.2-0.46,0.13-1.16c-0.04-0.35-0.1-0.77-0.19-1.26c-0.05-0.25-0.1-0.51-0.15-0.79c-0.05-0.28-0.1-0.59-0.15-0.91
						c-0.11-0.64-0.25-1.34-0.4-2.11c-0.13-0.77-0.28-1.61-0.44-2.51c-0.17-0.89-0.31-1.86-0.47-2.89
						c-0.08-0.51-0.16-1.04-0.25-1.57c-0.07-0.54-0.15-1.1-0.22-1.67c-0.62-4.55-1.16-9.99-1.54-16.06
						c-0.37-6.07-0.57-12.77-0.62-19.81c-0.02-8.2,0.22-12.03,0.49-16.92c0.15-2.45,0.32-5.17,0.58-8.83
						c0.13-1.83,0.28-3.9,0.48-6.29c0.18-2.16,0.5-7.17,1.1-10.47c2.34-6.22,4.4-12.51,6.31-18.87c0.7-2.4,1.35-5.02,1.87-7.48
						c0.18-0.74,0.43-2.5,0.57-3.28c0.24-1.27,0.4-3.13,0.53-4.43c0.1-1.03,0.11-2.32,0.17-3.36c0.01-0.16,0.3-0.45,0.3-0.45
						c0.98-1.82,1.82-3.48,2.63-5.09c0.8-1.61,1.53-3.13,2.21-4.59c1.37-2.91,2.5-5.54,3.51-7.95c1.99-4.84,3.41-8.84,4.54-12.72
						c0.14-0.49,0.28-0.97,0.42-1.45c0.13-0.48,0.24-0.97,0.37-1.46l0.36-1.46l0.15-0.63c0.04-0.2,0.1-0.38,0.15-0.57
						c0.21-0.74,0.49-1.42,0.81-1.94c0.16-0.25,0.32-0.47,0.46-0.62c0.15-0.15,0.27-0.23,0.35-0.27c0.09-0.04,0.13-0.05,0.23-0.06
						c0.1,0,0.26,0.01,0.48,0.09c0.45,0.15,1.11,0.57,1.76,1.19c1.32,1.27,2.61,3.26,3.65,5.71c1.79,4.25,2.57,8.94,2.68,13.46
						c0.03,1.13,0.01,2.26-0.04,3.37c-0.04,1.11-0.19,2.24-0.3,3.35c-0.06,0.56-0.11,1.11-0.16,1.66c-0.06,0.55-0.16,1.1-0.24,1.64
						c-0.08,0.54-0.17,1.08-0.25,1.62c-0.09,0.54-0.15,1.07-0.27,1.6c-0.22,1.06-0.43,2.1-0.64,3.13c-0.09,0.52-0.24,1.02-0.36,1.53
						c-0.13,0.5-0.25,1.01-0.38,1.5c-0.12,0.5-0.25,0.99-0.37,1.48c-0.14,0.49-0.28,0.97-0.42,1.45c-0.29,0.96-0.54,1.91-0.84,2.83
						c-0.61,1.84-1.17,3.62-1.82,5.31c-0.6,1.7-1.26,3.31-1.86,4.85c-2.5,6.14-4.91,10.98-6.54,14.35
						c-1.64,3.37-2.56,5.24-2.22,5.49c0.32,0.23,1.9-1.22,4.18-4.29c2.28-3.06,5.31-7.7,8.39-13.82c0.75-1.54,1.55-3.15,2.29-4.87
						c0.78-1.7,1.48-3.53,2.22-5.41c0.26-0.67,0.92-1.92,0.92-1.92c0.86-1.07,1.81-1.64,2.6-1.83c0.8-0.2,1.47-0.06,2.06,0.23
						c0.6,0.29,1.11,0.78,1.53,1.34c0.42,0.57,0.74,1.21,0.99,1.88c0.5,1.35,0.77,2.81,0.84,4.53c0.06,1.73-0.05,3.75-0.55,6.32
						c-0.85,4.43-2.36,8.61-3.91,12.34c-0.11,0.26-0.61,1.43-0.61,1.43c-0.58,1.35-1.17,2.63-1.75,3.85
						c-0.78,1.64-1.53,3.17-2.23,4.56c-2.81,5.56-4.63,9.05-4.05,9.46c0.53,0.38,3.38-2.41,7.06-7.67c0.92-1.32,1.88-2.79,2.84-4.42
						c0.24-0.4,0.81-1.09,0.81-1.09c0.86-0.49,1.7-0.67,2.37-0.61c0.68,0.06,1.22,0.32,1.71,0.75c0.49,0.43,0.89,1.06,1.21,1.76
						c0.31,0.7,0.52,1.48,0.65,2.26c0.26,1.57,0.27,3.13,0.15,4.59c-0.11,1.47-0.33,2.86-0.61,4.2c-0.56,2.69-1.34,5.22-2.38,8.07
						c-1.07,2.85-2.42,6.03-4.43,9.97c-3.45,6.78-7.29,13.01-10.91,18.61c-3.63,5.59-7.09,10.54-10,14.69
						c-5.84,8.3-9.48,13.49-8.88,13.99c0.55,0.47,5.23-3.84,11.92-11.63c3.33-3.9,7.17-8.68,11.11-14.23
						c3.93-5.56,8.01-11.88,11.62-18.96c2.09-4.12,3.45-7.26,4.55-10.01c1.09-2.75,1.89-5.14,2.62-7.9
						c0.35-1.39,0.68-2.87,0.93-4.58c0.23-1.71,0.41-3.65,0.25-5.97C273.82,221.78,273.64,220.52,273.24,219.15z M56.4,178.8
						c-0.42-0.09-0.85-0.16-1.28-0.22c-0.44-0.01-0.88-0.02-1.32,0c-0.43,0.06-0.86,0.11-1.27,0.2c-0.39,0.11-0.79,0.23-1.17,0.37
						c-0.35,0.16-0.7,0.32-1.05,0.49c-0.15,0.08-0.28,0.16-0.42,0.24c-1.05-0.89-2.61-2.13-3.71-3.97
						c-0.96-1.56-1.48-3.25-1.86-4.53c-0.38-1.28-0.65-2.17-1.08-2.21c-0.42-0.05-0.94,0.82-1.12,2.38
						c-0.07,0.77-0.08,1.72,0.14,2.76c0.22,1.03,0.59,2.17,1.26,3.23c0.32,0.5,0.67,0.96,1.04,1.38c-0.15,0.09-0.31,0.19-0.48,0.31
						c-0.58,0.43-1.04,0.95-1.35,1.48c-0.31,0.52-0.49,1.03-0.56,1.47c-0.09,0.43-0.05,0.8,0.01,1.05c0.07,0.26,0.18,0.41,0.34,0.45
						c0.16,0.04,0.34-0.03,0.54-0.18c0.2-0.15,0.39-0.39,0.64-0.64c0.46-0.54,1.04-1.17,1.76-1.71c0.22-0.14,0.39-0.24,0.55-0.3
						c0.15-0.07,0.29-0.1,0.45-0.13c0.08-0.02,0.16-0.03,0.24-0.05c0.16,0.09,0.32,0.17,0.47,0.25c0.21,0.11,0.41,0.21,0.61,0.3
						c0.07,0.03,0.14,0.05,0.21,0.07c-0.11,0.1-0.21,0.2-0.31,0.31c-1.02,1.03-1.76,2.15-2.36,3.27c-0.59,1.12-1.01,2.25-1.37,3.37
						c-0.27,0.9-0.49,1.8-0.67,2.68c-0.07,0-0.14,0-0.21,0c-1.45,0.01-2.9,0.3-4.34,0.66c-1.42,0.38-2.42,0.47-3.29,0.46
						c-0.86-0.01-1.57-0.13-2.31-0.35c-0.73-0.22-1.53-0.54-2.33-1.18c-0.38-0.31-0.77-0.73-0.96-1.15
						c-0.06-0.12-0.09-0.23-0.11-0.32c0.28-0.04,0.54-0.09,0.8-0.14c1.39-0.3,2.44-0.73,3.12-1.13c0.68-0.4,1-0.76,0.92-0.97
						c-0.17-0.43-1.79-0.19-4.29-0.22c-1.24-0.01-2.69-0.13-4.15-0.56l-0.28-0.08l-0.27-0.1c-0.18-0.07-0.36-0.13-0.54-0.2
						c-0.35-0.18-0.7-0.31-1.06-0.55c-0.73-0.41-1.43-0.91-1.99-1.47c-0.66-0.65-0.85-1.21-0.87-1.5l-0.01-0.06l0.01-0.04
						c0.01-0.03,0.01-0.05,0-0.07c0.01-0.02,0.02-0.02,0.02-0.03c0-0.01,0-0.02,0.02-0.02c0.01,0,0.02-0.01,0.02-0.02
						c0-0.01,0.02,0,0.03-0.01c0-0.02,0.04,0,0.04-0.01c0-0.01,0.04,0,0.05-0.01c0.02,0,0.02-0.02,0.06-0.02
						c0.03,0,0.06-0.01,0.09-0.02l0.02-0.01l0.07-0.01c0.05-0.01,0.11-0.02,0.16-0.03c0.43-0.08,0.89-0.18,1.42-0.31
						c0.95-0.23,2.09-0.53,3.58-0.97c1.09,0.1,2.09,0.1,2.98,0.06c1.58-0.09,2.83-0.32,3.68-0.57c0.85-0.26,1.3-0.51,1.28-0.75
						c-0.04-0.5-1.95-0.68-4.86-1.1c-1.45-0.22-3.16-0.52-4.87-1.11c-0.85-0.31-1.69-0.69-2.4-1.2c-0.33-0.26-0.67-0.53-0.91-0.84
						c-0.24-0.3-0.42-0.61-0.51-0.92c-0.2-0.72,0.06-1.15,0.31-1.39c0.13-0.12,0.27-0.2,0.42-0.23c0.07-0.03,0.16-0.02,0.23-0.04
						c0.04,0,0.08,0,0.13,0l0.03,0l0.07,0l0.16,0c0.86,0,1.81-0.05,3.08-0.21c0.63-0.09,1.35-0.2,2.17-0.38
						c0.41-0.09,0.84-0.19,1.31-0.32c0.17-0.05,0.35-0.1,0.52-0.15c0.8,0.18,1.49,0.27,2.04,0.31c0.95,0.05,1.5-0.04,1.56-0.28
						c0.07-0.24-0.35-0.62-1.14-1.07c-0.78-0.48-1.95-1.05-3.29-1.83c-0.34-0.19-0.68-0.41-1.04-0.62
						c-0.34-0.23-0.71-0.46-1.06-0.72c-0.71-0.5-1.41-1.09-1.98-1.75c-0.55-0.66-0.92-1.4-0.92-1.98c0-0.29,0.07-0.53,0.22-0.77
						c0.15-0.24,0.38-0.46,0.68-0.63c0.35-0.19,0.72-0.26,1.04-0.26c0.16-0.01,0.31,0.02,0.45,0.04c0.07,0.02,0.14,0.04,0.2,0.05
						c0.12,0.03,0.23,0.07,0.34,0.1c0.94,0.28,1.72,0.46,2.61,0.66c0.88,0.18,1.87,0.36,3.19,0.52c0.66,0.08,1.41,0.15,2.28,0.21
						c0.75,0.05,1.58,0.09,2.54,0.11c1.08,1.58,2.27,2.6,3.2,3.17c1.01,0.62,1.69,0.72,1.81,0.52c0.14-0.22-0.25-0.71-0.86-1.57
						c-0.61-0.85-1.46-2.08-2.15-3.72c-0.34-0.82-0.64-1.74-0.78-2.7c-0.07-0.48-0.09-0.96-0.05-1.4c0.05-0.44,0.16-0.84,0.34-1.09
						c0.04-0.07,0.09-0.12,0.14-0.17c0.07-0.05,0.13-0.1,0.18-0.16c0.06-0.06,0.14-0.08,0.2-0.13c0.06-0.05,0.15-0.07,0.22-0.1
						c0.32-0.11,0.71-0.18,1.19-0.1c0.47,0.08,0.99,0.21,1.5,0.47c0.26,0.1,0.51,0.28,0.77,0.42c0.25,0.16,0.5,0.34,0.75,0.53
						c1.14,0.92,1.83,1.82,2.37,2.61c0.27,0.44,0.51,0.85,0.75,1.25c0.15,0.24,0.3,0.48,0.45,0.72c0.16,0.24,0.34,0.46,0.51,0.7
						c0.72,0.93,1.64,1.92,3.1,2.9c0.73,0.49,1.6,0.98,2.65,1.42c0.45,0.18,0.94,0.36,1.46,0.51c-0.39,2.97,0.02,6.78,2.17,11.5
						C56.95,178.96,56.68,178.87,56.4,178.8z M114.13,115.9c1.81-0.4,3.53-1.01,5.16-1.65c0.4-0.18,0.8-0.36,1.19-0.54
						c0.39-0.18,0.78-0.35,1.15-0.56c0.74-0.41,1.48-0.78,2.15-1.24c0.07-0.05,0.14-0.1,0.22-0.14c0.43,1.34,0.79,3.34-0.3,4.6
						c-3.43,3.98-12.39,6.51-15,4.9c-2.15-1.32-2.89-3.54-3.1-4.38C108.28,116.87,111.18,116.61,114.13,115.9z M117.79,153.94
						c0.6,0.46,1.23,0.9,1.91,1.31c-0.96,1.26-1.99,2.59-3.12,3.96c-0.17,0.21-0.35,0.42-0.52,0.63c-0.08,0-0.16,0-0.24,0.01
						c-0.91,0.02-1.96-0.02-3.03-0.24c-1.07-0.21-2.14-0.64-3.16-1.31c-0.59-0.4-0.98-0.78-1.28-1.13c-0.3-0.35-0.54-0.68-0.77-1.06
						c-0.06-0.1-0.13-0.2-0.19-0.31c0.47-0.05,0.96-0.1,1.47-0.16C111.28,155.31,114.19,154.83,117.79,153.94z M121.42,131.01
						c-0.27-0.04-0.53-0.08-0.79-0.12l-0.43-0.08l-0.23-0.04l-0.32-0.05c-0.42-0.06-0.84-0.13-1.3-0.13c-0.23,0-0.45-0.02-0.68-0.01
						c-0.24,0.02-0.48,0.04-0.71,0.06c-0.12,0.01-0.24,0.02-0.36,0.04l-0.37,0.08c-0.25,0.06-0.5,0.11-0.75,0.19
						c-1,0.32-2.01,0.9-2.85,1.7c-0.17,0.16-0.33,0.33-0.48,0.5c-3.95-0.1-7.16-1.3-9.54-3.62c-2.36-2.28-3.63-5.32-4.32-8.03
						c1.45-0.48,3.88-0.97,6.52-0.23c0.62,0.81,1.43,1.61,2.5,2.26c0.49,0.3,1.08,0.52,1.74,0.65c0.22,0.05,0.45,0.08,0.69,0.11
						c0.68,0.7,1.35,1.53,1.99,2.52c0,0,8.72-4.26,13.4,1.52C124.07,129.28,122.85,130.18,121.42,131.01z M168.31,115.47
						c-1.46-0.21-3.02-0.47-4.67-0.81c-0.6-0.13-1.22-0.25-1.84-0.42c-0.22-0.06-0.43-0.11-0.65-0.16
						c4.01-3.98,8.4-9.52,11.63-16.88c0.54-1.23,1.66-3.33,3.05-3.48c1.17-0.13,3.37,1.06,6.07,4.77c2.23,3.06,3.95,6.61,5.09,9.72
						C179.54,107.22,169.76,105.77,168.31,115.47z M225,96.75L225,96.75C225,96.75,225,96.75,225,96.75
						C225,96.75,225,96.75,225,96.75z M216.8,107.42c0.78,0.03,1.9-0.08,3.25-0.46c0.23-0.07,0.47-0.14,0.72-0.23
						c0.06,0.03,0.03,0.01,0.07,0.05c0.03,0.03,0.08,0.16,0.11,0.33c0.05,0.36-0.03,0.84-0.18,1.27c-0.31,0.87-0.85,1.56-1.41,2.13
						c-0.58,0.57-1.22,1.03-2.04,1.48c-0.08,0.04-0.16,0.08-0.24,0.12c-5.43-1.89-11.21-2.21-16.92-2.46
						c0.24-0.17,0.46-0.4,0.72-0.66c0.14-0.14,0.28-0.29,0.43-0.45c0.14-0.17,0.26-0.36,0.4-0.55c0.08-0.12,0.16-0.25,0.25-0.37
						c0.08-0.02,0.15-0.03,0.22-0.04c0.33-0.04,0.62-0.07,1.12-0.01c0.85,0.13,1.62,0.4,2.27,0.65c0.33,0.1,0.61,0.22,0.85,0.25
						c0.24,0.04,0.44,0.01,0.56-0.1c0.12-0.11,0.15-0.3,0.09-0.55c-0.06-0.25-0.19-0.59-0.47-0.92c-0.26-0.35-0.65-0.7-1.15-1.02
						c-0.5-0.32-1.14-0.55-1.83-0.65c-0.23-0.02-0.42-0.04-0.59-0.06c0.15-0.6,0.26-1.23,0.31-1.88c0.09-1.26-0.12-2.43-0.41-3.44
						c-0.29-1.02-0.75-1.85-1.17-2.5c-0.89-1.29-1.76-1.82-2.11-1.58c-0.36,0.25-0.19,1.16,0.09,2.46c0.27,1.31,0.6,3.04,0.49,4.87
						c-0.05,0.93-0.22,1.81-0.45,2.61c-0.04,0.02-0.09,0.05-0.15,0.08l0.08,0.14c-0.48,1.6-1.14,2.86-1.28,3.61
						c-2.14-0.15-4.26-0.39-6.39-0.65c-0.89-2.93-2.26-6.03-3.77-8.78c0.35-0.33,0.67-0.66,0.96-0.99c0.69-0.76,1.21-1.53,1.66-2.24
						c0.87-1.45,1.37-2.75,1.69-4.01c0.08-0.31,0.13-0.63,0.19-0.94c0.03-0.16,0.06-0.31,0.08-0.47l0.05-0.48
						c0.03-0.31,0.06-0.62,0.08-0.94c0.02-0.25,0.04-0.5,0.06-0.77c0.12-1.04,0.34-2.21,0.9-3.51c0.13-0.27,0.26-0.54,0.4-0.79
						c0.16-0.24,0.29-0.5,0.46-0.7c0.31-0.46,0.69-0.79,1.03-1.06c0.35-0.28,0.69-0.38,0.97-0.43c0.07-0.01,0.14-0.04,0.2-0.02
						c0.06,0.01,0.13-0.01,0.19,0.01c0.06,0.02,0.13,0.04,0.2,0.04c0.05,0.02,0.11,0.03,0.16,0.07c0.22,0.1,0.49,0.37,0.72,0.7
						c0.23,0.35,0.43,0.76,0.59,1.2c0.32,0.88,0.48,1.81,0.57,2.67c0.16,1.73,0,3.19-0.13,4.2c-0.13,1.02-0.24,1.62-0.01,1.75
						c0.21,0.12,0.75-0.28,1.34-1.27c0.52-0.89,1.07-2.26,1.3-4.05c0.85-0.46,1.55-0.87,2.19-1.26c0.67-0.4,1.26-0.78,1.8-1.13
						c1.07-0.7,1.91-1.3,2.69-1.89c0.78-0.59,1.51-1.18,2.3-1.91c0.1-0.09,0.2-0.19,0.3-0.28l0.08-0.07l0.04-0.03l0.08-0.07
						c0.05-0.05,0.11-0.08,0.17-0.12c0.06-0.05,0.12-0.08,0.19-0.11c0.26-0.13,0.59-0.23,0.93-0.23c0.3,0.01,0.56,0.08,0.75,0.2
						c0.2,0.11,0.34,0.25,0.45,0.46c0.23,0.41,0.27,1.18,0.1,1.98c-0.18,0.81-0.5,1.64-0.89,2.41c-0.18,0.39-0.4,0.75-0.59,1.11
						c-0.22,0.35-0.4,0.7-0.61,1.02c-0.81,1.31-1.56,2.36-2.02,3.14c-0.48,0.77-0.67,1.3-0.5,1.48c0.17,0.18,0.7,0.01,1.51-0.48
						c0.37-0.24,0.81-0.55,1.29-0.93c0.09-0.01,0.17-0.03,0.26-0.05c0.22-0.04,0.44-0.09,0.65-0.13c0.42-0.09,0.81-0.18,1.17-0.28
						c0.73-0.19,1.37-0.39,1.96-0.58c1.16-0.39,2.08-0.77,2.93-1.15c0.21-0.1,0.41-0.19,0.62-0.29c0.08-0.02,0.15-0.07,0.22-0.07
						c0.15-0.03,0.29-0.03,0.44,0c0.3,0.08,0.65,0.32,0.79,0.94c0.06,0.27,0.05,0.6-0.02,0.95c-0.06,0.35-0.22,0.73-0.38,1.1
						c-0.37,0.74-0.92,1.46-1.5,2.12c-1.21,1.3-2.56,2.37-3.73,3.23c-2.35,1.73-3.94,2.79-3.74,3.24c0.09,0.22,0.61,0.23,1.47,0.06
						c0.86-0.18,2.07-0.56,3.49-1.22c0.7-0.33,1.46-0.72,2.24-1.21l0.02,0.08c1.53-0.31,2.7-0.57,3.7-0.8
						c0.5-0.12,0.95-0.23,1.38-0.34c0.22-0.06,0.43-0.12,0.63-0.17c0.03-0.01,0.04-0.01,0.04-0.01l0.02,0c0.01,0,0.03,0,0.04-0.01
						c0.03-0.01,0.06-0.02,0.07-0.01c0.01,0,0.02,0,0.04,0c0,0,0,0,0,0c0,0-0.01,0,0.04,0.07c0.08,0.21,0.17,0.79-0.1,1.63
						c-0.22,0.73-0.59,1.47-1.04,2.17c-0.21,0.37-0.45,0.64-0.66,0.95c-0.13,0.14-0.25,0.28-0.37,0.42l-0.18,0.21l-0.2,0.19
						c-1.05,1.04-2.26,1.82-3.33,2.4c-2.15,1.18-3.69,1.74-3.62,2.19C215.58,107.22,216.02,107.39,216.8,107.42z M225.08,180.92
						c-0.04,0.95,0,2.12-0.09,3.06c-0.09,0.75-0.16,2.33-0.26,3.07c-0.08,0.63-0.36,2.43-0.44,3.07c-0.16,1.15-0.57,2.92-0.79,4.08
						c-1.99,8.23-4.57,16.36-7.42,24.33c-0.2,0.54-0.4,1.08-0.6,1.62c0,0-3.99,10.08-5.91,14.02c-2.45,5.01-5.18,9.96-8.64,14.31
						c-2.5,3.09-6.18,7.08-10.21,7.72c-3.61,0.59-4.04-2.93-4.39-5.76c-0.29-2.77-0.31-5.65-0.47-8.47
						c-0.21-5.81-1.46-11.78-3.47-17.27c-1.93-5.5-4.24-10.82-6.89-16.01c-1.51-2.9-3.11-5.85-5.04-8.59
						c-0.36-0.57-0.98-1.3-1.41-1.86c-0.09-0.13-0.29-0.35-0.4-0.46c-0.28-0.28-0.82-0.87-1.11-1.16c-0.44-0.52-0.67-1.09-0.84-1.83
						c-0.6-2.97,0.16-6.4,1-9.36c0.68-2.14,1.37-4.34,1.65-6.58c0.21-1.13,0.46-2.89,0.76-3.98c0.61-2.65,1.48-5.11,2.61-7.57
						c3.56-7.46,9.77-13.38,17.72-15.85l0.92-0.25c3.03-0.85,6.32-0.57,9.44-0.11c8.12,1.3,15.38,5.6,19.7,12.26
						c0.02,0.09,0.03,0.19,0.06,0.28l0.1-0.03c1.23,1.95,2.22,4.11,2.9,6.44l0.54,1.9c0.23,1.18,0.59,2.74,0.68,3.94
						c0.04,0.38,0.19,1.68,0.19,1.68c0.01,0.11,0.02,0.22,0.01,0.33C224.99,178.64,225.12,180.15,225.08,180.92z"/>
					<path class="st1" d="M81.86,89.74c-1.24,1.68-1.88,3.43-2.28,5.02c-0.38,1.6-0.48,3.06-0.42,4.27
						c0.13,2.45,0.88,3.85,1.44,3.79c0.6-0.06,0.93-1.45,1.53-3.47c0.3-1.01,0.67-2.2,1.16-3.44c0.5-1.23,1.13-2.55,1.93-3.62
						c0.4-0.53,0.82-0.95,1.2-1.22c0.39-0.27,0.69-0.38,1.04-0.42c0.69-0.09,1.69,0.37,2.49,0.9c0.82,0.53,1.51,1.09,2.06,1.44
						c0.54,0.36,0.97,0.5,1.22,0.34c0.25-0.15,0.29-0.59,0.13-1.28c-0.17-0.68-0.55-1.6-1.33-2.64c-0.2-0.26-0.41-0.53-0.69-0.79
						c-0.14-0.13-0.27-0.26-0.41-0.4c-0.16-0.12-0.33-0.25-0.5-0.38c-0.7-0.49-1.61-0.97-2.76-1.08c-1.14-0.13-2.41,0.18-3.39,0.77
						C83.27,88.12,82.48,88.9,81.86,89.74z"/>
					<path class="st1" d="M115.26,82.37c0.41-0.86,0.91-1.85,1.55-2.83c0.32-0.48,0.68-0.96,1.07-1.39
						c0.39-0.42,0.82-0.79,1.23-1.03c0.42-0.25,0.76-0.33,1.08-0.33c0.32,0,0.69,0.1,1.08,0.31c0.79,0.44,1.56,1.23,2.17,1.93
						c1.22,1.44,2.06,2.5,2.57,2.3c0.25-0.09,0.37-0.48,0.36-1.11c-0.01-0.63-0.18-1.51-0.59-2.57c-0.42-1.04-1.08-2.31-2.48-3.46
						c-0.71-0.55-1.69-1.05-2.84-1.16c-1.15-0.12-2.34,0.2-3.27,0.75c-0.94,0.55-1.64,1.24-2.2,1.93c-0.56,0.7-0.96,1.42-1.3,2.12
						c-0.65,1.4-0.95,2.72-1.07,3.83c-0.21,2.24,0.27,3.58,0.77,3.61C113.95,85.32,114.45,84.1,115.26,82.37z"/>
					<path class="st1" d="M110.33,92.55c-0.33-0.01-0.7,0.02-1.1,0.1c-0.2,0.04-0.42,0.11-0.66,0.2c-0.23,0.1-0.45,0.22-0.66,0.37
						l-0.31,0.25c-1.81,1.42-3.12,3.06-4.19,4.6c-1.06,1.55-1.82,3.04-2.37,4.32c-1.1,2.57-1.3,4.36-0.87,4.51
						c0.44,0.16,1.4-1.21,2.95-3.34c0.78-1.06,1.7-2.32,2.78-3.63c1.09-1.3,2.33-2.68,3.78-3.81l0.22-0.17c0,0,0,0,0,0
						c-0.01,0.01,0.01-0.01,0.06-0.02c0.08-0.02,0.21-0.04,0.37-0.04c0.31-0.01,0.69,0.03,1.06,0.11c0.76,0.15,1.53,0.42,2.25,0.73
						c1.45,0.62,2.72,1.39,3.78,2.07c2.11,1.38,3.42,2.4,3.78,2.08c0.17-0.15,0.08-0.61-0.29-1.29c-0.37-0.69-1.01-1.6-1.98-2.61
						c-0.97-1-2.25-2.1-3.93-3.03c-0.84-0.46-1.78-0.88-2.88-1.17C111.59,92.67,111,92.56,110.33,92.55z"/>
					<path class="st1" d="M82.07,74.5c-4.04,3.57-8.77,7.46-12.61,8.77c-3.83,1.31-0.64,3.39,1.55,3.29
						c1.18-0.05-1.03,2.35,1.98,2.99c2.05,0.43,7.01-5.64,9.67-10.22C85.27,74.84,84.75,72.13,82.07,74.5z"/>
					<path class="st1" d="M58.86,126.83c0.26-0.1,0.37-0.5,0.35-1.17c-0.04-0.66-0.24-1.58-0.69-2.66c-0.45-1.07-1.17-2.3-2.21-3.48
						c-1.04-1.18-2.39-2.32-4-3.19c-1.6-0.88-3.27-1.42-4.8-1.67c-1.54-0.26-2.95-0.26-4.12-0.08c-1.17,0.17-2.1,0.51-2.69,0.89
						c-0.6,0.38-0.82,0.79-0.71,1.03c0.25,0.49,1.44,0.51,3.38,0.91c1.92,0.37,4.52,1.06,7.02,2.44c0.11,0.06,0.22,0.12,0.33,0.18
						c-0.05,0.05-0.11,0.09-0.16,0.15c-0.17,0.18-0.34,0.35-0.51,0.53c-0.16,0.2-0.31,0.4-0.48,0.62c-0.17,0.21-0.31,0.48-0.48,0.76
						c-0.08,0.14-0.16,0.29-0.25,0.45c-0.07,0.17-0.14,0.34-0.22,0.53c-0.29,0.64-0.41,1.28-0.54,1.89
						c-0.05,0.3-0.06,0.59-0.09,0.88c-0.01,0.28-0.05,0.57-0.03,0.83c0.03,0.52,0.07,1.01,0.14,1.44c0.1,0.42,0.2,0.8,0.31,1.14
						c0.1,0.35,0.24,0.62,0.38,0.86c0.14,0.24,0.27,0.43,0.41,0.58c0.27,0.3,0.52,0.4,0.75,0.31c0.23-0.09,0.41-0.38,0.55-0.79
						c0.07-0.21,0.13-0.44,0.17-0.71c0.04-0.26,0.08-0.55,0.14-0.86c0.05-0.31,0.09-0.64,0.12-0.98c0.06-0.34,0.12-0.68,0.17-1.04
						c0.02-0.18,0.08-0.34,0.11-0.52c0.04-0.17,0.07-0.35,0.11-0.52c0.12-0.32,0.19-0.67,0.33-0.96c0.31-0.71,0.57-0.92,0.9-1.16
						c0.16-0.13,0.35-0.24,0.62-0.39c0.07-0.04,0.14-0.08,0.21-0.12c0.08-0.03,0.16-0.07,0.25-0.12c0.09-0.04,0.19-0.07,0.29-0.11
						c0.05-0.02,0.1-0.03,0.15-0.05l0.07-0.02l0.03-0.01c0,0-0.01,0-0.01,0l-0.01-0.12C56.7,124.86,58.09,127.14,58.86,126.83z"/>
					<path class="st1" d="M150.11,76.04c0.32-1.08,0.7-2.04,1.03-2.87c0.68-1.64,1.17-2.76,0.79-3.1c-0.34-0.32-1.53,0.22-2.91,1.75
						c-0.67,0.77-1.39,1.78-1.97,3.03c-0.58,1.24-1.03,2.71-1.24,4.29c-0.4,3.17,0.25,6.01,1.07,7.85c0.82,1.86,1.79,2.78,2.23,2.56
						c0.44-0.22,0.34-1.4,0.2-3.2c-0.06-0.75-0.12-1.61-0.15-2.55l0.08,0.07c0.04-0.04,0.13-0.14,0.2-0.2
						c0.08-0.07,0.15-0.14,0.22-0.2c0.14-0.12,0.27-0.23,0.39-0.32c0.24-0.18,0.44-0.31,0.63-0.41c0.19-0.11,0.36-0.19,0.56-0.27
						c0.19-0.07,0.41-0.14,0.66-0.17c0.42-0.03,0.73,0,1.09,0.16c0.36,0.15,0.73,0.41,1.06,0.67c0.66,0.52,1.2,0.94,1.55,0.78
						c0.33-0.15,0.44-0.85,0.02-1.9c-0.22-0.51-0.59-1.13-1.27-1.66c-0.66-0.54-1.72-0.88-2.73-0.76c-0.58,0.06-0.97,0.18-1.3,0.28
						c-0.33,0.1-0.59,0.2-0.89,0.32c-0.05,0.02-0.11,0.05-0.16,0.08c0.02-0.23,0.04-0.46,0.07-0.69
						C149.52,78.31,149.78,77.11,150.11,76.04z"/>
				</g>
			</g>
		</g>
	</g>
</g>
</svg>
