<svg xmlns="http://www.w3.org/2000/svg" xml:space="preserve" id="Capa_1" x="0" y="0" viewBox="0 0 343.65 363">
  <style>
    .st1{fill:#2b2b77}.st4{fill:#f9d0bb}.st6{fill:#f9b2c2}.st7{fill:#f7415b}.st8{fill:#fff}.st12{fill:#aa8252}.st13{fill:#d8a877}.st14{fill:#e2aa91}.st15{fill:#fcebe3}.st17{fill:#e0a58c}.st18{fill:#bcb23b}.st20{fill:#5bd85b}.st21{fill:#268bc4}.st24{fill:#ce2949}.st26{opacity:.3;fill:#2b2b77}
  </style>
  <circle cx="163.75" cy="167.08" r="130.48" style="fill:#a0f9f9"/>
  <circle cx="164.57" cy="184.56" r="109.63" style="fill:#00edff"/>
  <path d="M247.42 97.31c-2.22-1.27-4.15-.37-4.15-.37s.88-7.69-1.41-8.09c-2.3-.4-4.98 1.3-4.98 1.3s.87-6.44.04-6.99c-.82-.56-1.96-3.04-7.73.6s-7.15 3.9-7.15 3.9-1.56-5.39-4.73-3.63c-2.88 1.6-5.56 11.69-8.39 15.46-.28.38-.57.69-.85.93 0 0-.58-.58-1.49-1.42 1.01 2.82 2.02 5.65 3.02 8.47 1.22 4.15 2.08 8.35 2.74 12.58 8.22-1.91 17.34-2.98 27.47-3 0 0 3.81-6.95 4.11-10.03.3-3.1 5.72-8.44 3.5-9.71" class="st4"/>
  <path d="M212.35 120.03c-.66-4.22-1.52-8.42-2.74-12.58-1.01-2.82-2.02-5.65-3.02-8.47-2.54-2.37-7.67-6.81-9.75-6.21-2.82.81-12.07 19.42-18.82 23.19l-4.81-.43a8 8 0 0 1-.54.79c-3.91 5.36-5.24 11.71-9.83 16.25-3.77 3.85-7.16 7.73-9.08 12.13-1.74 3.67-5.3 4.94-9.2 5.81.24.42.44.89.56 1.41.35 4.6-2.29 8.55-5.55 10.92-2.06 1.72-5.39.66-7.93-.71-2.48-1.26-4.67-3.73-5.69-6.6-4.86.6-9.81.16-14.77-.33.9.21 1.81.39 2.73.51 0 0-8.16 5.39-16.35 4.66s-16.93 1.3-18.3 6.81c0 0-.19-.03-.52-.11.83 6.28 2.36 12.56 4.42 18.7.14.08.29.17.43.26 0 0 10.27 19.87 33.64 6.32 0 0 12.58 42.91 20.74 51.61.02-.01-8.03-104.77 74.38-123.93" style="fill:#ede962"/>
  <path d="M131.65 162.12c2.54 1.37 5.87 2.43 7.93.71 3.26-2.37 5.89-6.32 5.55-10.92-.12-.53-.32-.99-.56-1.41-3.47.77-7.21 1.21-10.21 2.73-2.76 1.24-5.56 1.94-8.39 2.29 1.01 2.87 3.2 5.34 5.68 6.6" class="st4"/>
  <path d="M184.3 88.16c1.08-12.05-2.4-25.84-11.17-25.86-2.35-.01-3.91.13-4.95.33-.03 3.22-.35 6.32-2.16 8.96-2.6 3.57-4.21 8.76-9.25 9.83-.38-.03.1-1.13-.24-1.54-6.7-5.93-8.71-17.53-10.57-26.45-5.83 5.57-12.44 11.44-21.26 12.18-9.23 1.08-18.29 4.45-27.11 1-1.81 7.45-8.57 10.65-14.98 14.26-.41.34-2.33.55-2.09 2.1 2.59 9.37 5.89 19.18 3.5 28.86-1.16 4.46-8.23 2.69-12.76 2.28 1.1-4.97-.37-9.11-3.26-12.32-3.09.77-16.37 5.13-13.56 22.76 3.17 19.91 27.82 22.41 33.13 15.21 0 0 10.16 12.25 23.63 15.45 7.84.78 15.65 1.42 23.15-1.96 6.38-3.23 16.13-1.6 19.41-8.54 1.92-4.4 5.31-8.28 9.08-12.13 4.59-4.54 5.92-10.89 9.83-16.25.2-.25.38-.52.54-.79l-1.65-.15 1.75-11.89c0-.01 9.91-3.3 10.99-15.34M147 118.21c-4.69 5.67-11.79 8.46-18.42 5.96-1.62-.82-3.59-4.38-2.74-7.45-.13-.02-.26-.04-.4-.07.13.02.27.04.4.07 7.69 1.25 14.43-2.99 20.7-6.17-.61 2.61 2.21 5.15.46 7.66" class="st4"/>
  <path d="M234.29 154.95c2.96 1.83 5.85 3.71 8.42 5.87 1.31-3.31 8.92-23.51 4.84-35.68-4.45-13.29-22.29-9.32-38.99-11.59-16.69-2.27-15.69 5.79-15.69 5.79s-5.7-1.48-21.98-1.97-8.52 16.47-8.52 16.47l63.35 4.96-.25 10.63c1.29.42 2.57.89 3.87 1.27 2.2.96 3.5 3.36 4.95 4.25" class="st6"/>
  <path d="M232.41 127.09s.64-2.65-1.52-4.17c-3.18-2.23-7.74.34-18-2.23-6.89-1.73-5.06 1.72-3.24 2.7-1.4-.45-3.03-.78-4.8-.94-5.35-.48-9.89-.32-10.08 1.76-.09.98.79 1.95 2.31 2.76-3.27.26-6.65.09-9.67-.93-10.19-3.44-18.92-8.63-23.64 5.17-3.78 11.05-22.52 4.62-22.52 4.62s-12.03 1.91-1.42 15.88l5.11 3.7-15.19 17.74s-4.39-1.19-.03 10 4.86 9.29 4.86 9.29-6.86 38.06 14.39 80.77 51.42 59.41 59.15 59.91 8.02-7.06 8.02-7.06 23.39 10.06 18.66-2.21c0 0 6.16-2.36 2.8-17.03-3.2-13.96-1.63-54.58-1.63-54.58l2.65-27.36s-10.4 25.72-23.68 33.65-6.07-16.11-14.18-34.13c-8.1-18.02-15.76-26.87-15.76-26.87l7.28-32.5s21.79-24.16 45-9.84c0 0-.46-6.82 2.14-15.16 3.4-10.97-2.16-17.23-7.01-12.94m-20.48-3.86c.08.03.12.04.12.04s-.01 0-.03.01a.3.3 0 0 0-.09-.05" class="st7"/>
  <path d="M166.43 64.2s-.07-.14-.2-.39c.03.23.2.39.2.39" class="st8"/>
  <path d="M71.25 114.08c4.53.41 11.6 2.18 12.76-2.28 2.39-9.68-.92-19.49-3.5-28.86-.24-1.54 1.68-1.75 2.09-2.1 6.41-3.61 13.17-6.81 14.98-14.26 8.82 3.45 17.88.08 27.11-1 8.82-.73 15.43-6.61 21.26-12.18 1.86 8.92 3.87 20.52 10.57 26.45.34.41-.14 1.51.24 1.54 5.04-1.07 6.65-6.25 9.25-9.83 1.81-2.64 2.13-5.73 2.16-8.96-1.73.33-2.01.84-1.96 1.19.13.25.2.39.2.39s-.17-.16-.2-.39c-1.28-2.47-8.06-16.01-6.67-22.67 0 0 6.05-12.19-1.47-12.86s-6.26-.66-5.65-5.27 5.61-19.22-5.41-15.55c-11.02 3.68-16.22 9.72-16.22 9.72s-3.04-14.85-11.92-12.34-15.56 12.11-22.65 23.92c-7.08 11.8-14.63 17.93-26.58 16.86s-11.48 6.65-6.67 11.55c0 0-15.4 13.49-7.39 24.99s12.74 16.48 13.03 19.46c0 0-.23.04-.63.14 2.9 3.23 4.37 7.37 3.27 12.34" style="fill:#bf7422"/>
  <path d="M68.81 161.37c-4.33-4.76-9.38-6.28-10.24-2.96-.87 3.32-.08 5.38-.08 5.38l-12.37-1.83s-6.51 3.21 1.03 8.06l-1.01 1.54s-9.73 2.35-1.51 9.31c0 0-6.37 2.98-2.03 6.52 4.34 3.55 6.34 2.8 6.34 2.8s-.27 9.49 16.69 4.6c0 0 3.46-17.39 17.55-9.04-2.06-6.14-3.59-12.42-4.42-18.7-1.56-.35-6.36-1.74-9.95-5.68" class="st4"/>
  <path d="M190.35 156.23c-.66-4.58-8.41-32.15-24.43-4.96s-11.32 69.39-11.32 69.39 7.84-37 15.98-57.57c6.49-16.39 15.68-5.5 19.15-.39.85-1.4 1.74-2.78 2.68-4.13z" class="st8"/>
  <path d="M242.52 161.29s.07-.17.19-.47c-2.57-2.16-5.46-4.04-8.42-5.87-1.44-.89-2.75-3.29-4.95-4.25-1.29-.38-2.58-.85-3.87-1.27l-.03 1.2c-14.16-2.43-30.68 10.6-30.68 10.6l-2.35-2.67c-.94 1.35-1.83 2.73-2.68 4.13.89 1.3 1.4 2.23 1.4 2.23-3.02 7.34-8.09 29.6-5.22 34.44s16.88 28.53 18.61 34.12c1.74 5.6-2.17 23.13 7.3 25.92s18.89-18.87 18.89-18.87c27.89-52.26 11.81-79.24 11.81-79.24" style="fill:#d8bca4"/>
  <path d="M189 164.74s-1.31-23.55-13.4-15.97c-12.09 7.59-25.35 62.75-18.2 82.25 0 0 4.4 4.53 7.46-4.19 0 0 3.46 44.04 16.16 42.65 0 0 15.26 22.16 31.98 13.36s18.04-32.2 18.04-32.2 1.39 7.32 5.02-17.43c0 0-14.03 24.4-22.99 25.92-8.96 1.53-7.86-15.09-7.86-15.09l-1.73-13.18s-22.67 3.96-16.05-28.84c0 0-4.47-6.64-1.59-13.85s3.16-23.43 3.16-23.43" style="fill:#fce8d6"/>
  <path d="M212.67 194.5c-.94-7.48-7.9-26.05-12.66-22.79-4.76 3.27-4.38 15.96-7.33 20.66s15.68 20.86 16.14 48.3 12.42-8.47 13.49-19.7c1.12-11.66-.65-27.65-2.95-29.86-2.22-2.12.65 17.64-2.63 22.05-2.27 3.07-3.19-11.72-4.06-18.66" class="st12"/>
  <path d="M187.16 201.03s-6.26 28.85 15.67 30.62c0 0-8.3-30.54-15.67-30.62" class="st12"/>
  <path d="M188.89 163.43s-1.84-10.33-7.66-12.45-15.13 9.66-20.19 30.02c-5.2 20.91-5.93 43.15-5.93 43.15s-3.33-16.75-.03-38.22 10.93-42.94 22.6-45.91c11.67-2.99 12.53 8.37 11.21 23.41" class="st8"/>
  <path d="M127.87 34.73s13.24 5.83 9.11 15.27-21.86 15.89-38.88 14.72c0 0 14.18 6.29 27.74 1.38 13.55-4.9 32.34-25.91 2.03-31.37" class="st13"/>
  <path d="M130.82 24.64s8.89-7.37 13.62-9.53c4.73-2.17 2.73 5.09.85 10.88s1.33 10.08 6.73 9.01 5.49.45 3.54 6.3-1.5 8.4-1.5 8.4 11.47-13.4 8.23-17.71-11.17-2.62-11.17-2.62 5.48-16.29 3.36-18.74c-2.11-2.46-5.82-3.76-10.41-.93s-12.73 9.09-12.73 9.09z" class="st13"/>
  <path d="M58.33 116.84c-.95 3.38-1.53 10.02 4.06 17.56 5.59 7.55 16.09 9.23 21.98 4.71 0 0-1.85-2.3-2.54-6.4-.67-4.02-1.65 4.72-6.15 4.02-2.3-.36-4.4-4.51-3.33-9.32 1.06-4.81 1.63-4.8-.3-6.48-1.94-1.68-10.14-2.16-10.47-2.95s-1 2.31 2.45 2.6c2.63.22 5.42 2.02 5.42 2.02s-3.56 3.7-1.18 9.99c.59 1.55-8.73-6.81-7.95-14.47.53-5.27-1.05-4.66-1.99-1.28" class="st14"/>
  <path d="M167.36 70.12s4.84-4.72 8.6.04c3.75 4.76 5.69 11.29 4.19 21.02s-5.08 10.62-5.08 10.62 8.14-3.59 8.79-15.1-2.92-21.69-7.13-23.47c-4.21-1.79-8.55.84-8.55.84z" class="st15"/>
  <path d="M88.46 45.19s4.42-3.24 14.44-16.89 20.35-22.66 23.7-9.06 3.21 8.42 3.21 8.42.6-15.27-3.09-20.34-18.34-.59-25.28 14.66C94.5 37.22 88.46 45.19 88.46 45.19" class="st13"/>
  <path d="M146.54 110.55c-6.27 3.18-13.01 7.42-20.7 6.17-.85 3.07 1.12 6.63 2.74 7.45 6.63 2.5 13.73-.29 18.42-5.96 1.75-2.51-1.07-5.05-.46-7.66" class="st8"/>
  <path d="M118.22 124.02s8.73-4.76 14.84 4.73c0 0 9.2-4.5 13.77 2 0 0-6.23 4.88-10.08 5.32s-10.39 1.65-13.71-3.1c-3.33-4.76-4.82-8.95-4.82-8.95" style="fill:#f78686"/>
  <path d="M122.17 108.49s7.07-6.96 9.07-8.37c2-1.4 8.17 1.36 10.91 2.74 0 0-5.93-5.63-9.33-5.86s-8.59 5.91-10.65 11.49" class="st15"/>
  <ellipse cx="97.5" cy="115.64" class="st17" rx="9.2" ry="6.29" transform="rotate(-23.122 97.503 115.65)"/>
  <ellipse cx="155.62" cy="93.18" class="st17" rx="8.95" ry="6.12" transform="rotate(-12.698 155.625 93.176)"/>
  <path d="M237.52 263.87c.49 7.73 3.11 24.97 6.06 30.1s13.1-5.22 31.43-30.63c0 0 29.04-37.04 8.52-46.94 0 0 13.8-34.8-6.55-30.74 0 0 5.55-31.29-2.63-39.54-8.19-8.24-11.02-.77-11.02-.77L250 180.54s-5.1 28.98-9.98 40.58zM108.96 315.78c8.82 3.64 35.78 10.98 56.25 9.5s-6.94-17.5-12.46-44.37l-10.46-28.32s-17.85-6.04-30.07-21.28c-12.21-15.23-35.78-60.33-41.51-44.9s-3.66 32.12 4.09 51.27c0 0-14.13 12.68-3.44 31.3s18.33 18.9 18.33 18.9-5.76 17.58 19.27 27.9" class="st7"/>
  <path d="M101.71 196.65s-10.75-5.4-12.32-13.47c-1.58-8.06 6.71 7.19 28.61-2.82l-.11 12.24z" class="st18"/>
  <path d="M156.52 45.8s1.09 10.74 2.92 15.49c1.84 4.76-.76.23-1.16-1.24s.04 2.13 3.07 8.96c0 0-2.92 6.47-6.59 6.19 0 0 .39 4.12 3.56 2.67 3.18-1.44 8.77-8.68 8.2-11.24 0 0-7.96-18.1-7.01-24.8z" class="st13"/>
  <path d="M86.9 112.56s2.74-5.74.77-24.93c0 0 .77 3.3 2.93 3.06 0 0-.2 3.5 2.4 3.18s7.65-4.14 11.43-16.52L95.1 83s6.28-6.84 7.37-10.28c0 0 20.61 7.07 40.5-11.89 0 0 3.03 12.08 8.7 18.84 5.67 6.75 13.97-3.99 13.97-3.99s-9.88 7.54-11.47 2.65-9.06-23.72-9.06-23.72-9.1 9.14-20.15 11.8-26.06.78-26.06.78-8.83 12.57-18.46 15.37zM109.92 114.46s-3.02 23.49 21.66 24.74l.74-2.41s-10.29.65-12.96-7.9-2.66-13.85-2.66-13.85zM133.04 152.06c-10.22.97-28.51-.5-38.5-15.14-5.59-8.19-.32-4.96 9.18 1.31 7.3 4.82 20.14 10.07 32.04 5.66l2.42 7.95z" class="st14"/>
  <path d="M65.86 91.67s-5.76-6.89-6.18-13.98c-.42-7.06 6.82-15.61 6.89-8.05s10.19 4.46 14.9 1.72c4.72-2.74 8.68-4.19 6.85.74s-7.95 8.71-7.95 8.71l-2.54 3.76s1.98 19.37 1.64 22.61-7.8 2.42-7.99 1.85z" style="fill:#965b1a"/>
  <path d="m139.3 163.84 4.84-6.58-4.37-4.34-14.94 1.61c3.26 5.37 8.48 8.05 14.47 9.31" class="st14"/>
  <path d="m124.83 154.53-6.75.73s-7.84 6.3-14.24 6.31c0 0 14.04 15.52 30.7 8.73l4.75-6.47c-5.98-1.25-11.2-3.93-14.46-9.3" class="st18"/>
  <path d="m273.09 231 .76-1.58c1.83-3.82 3-7.94 3.29-12.17.78-11.1-4.44-17-7.3-11.48-3.56 6.87-8.8 9.88-8.8 9.88s6.14-13.09 3.98-30.19-11.88-5.78-15.79-.78c-1.6 8.43-5.47 27.55-9.21 36.44l-2.51 42.75c.49 7.73 3.11 24.97 6.06 30.1 2.83 4.92 12.28-4.4 29.23-27.59 3.43-6.58 11.95-22.22 10.4-32.04-.92-5.83-6.4-3.75-9.18-2.28-1.9 1-.93-1.06-.93-1.06" class="st20"/>
  <path d="M270.43 251.02c-3.92-.98-8.75 3.51-8.75 3.51s9.06-17.33 3.55-23.42c-4.43-4.89-12.86 5.45-12.86 5.45s5.15-14.19.83-21.55c-3.1-5.28-9.72-.24-12.78 5.1-.14.35-.27.69-.41 1.01l-2.51 42.75c.49 7.73 3.11 24.97 6.06 30.1 2.58 4.48 10.66-2.86 24.89-21.74 5.22-11.4 5.4-20.36 1.98-21.21" class="st21"/>
  <path d="M187.94 170.19s-7.21 16.86-9.05 37.71c-2.06 23.35 18.21 62.49 26.98 34.14l-3.04-10.39s-20.58-4.2-14.76-31.6c0 0-4.46-1.98-.13-29.86" style="fill:#d6b59d"/>
  <path d="M212.03 123.28c.02-.01.03-.01.03-.01s-.04-.01-.12-.04c.02.01.06.03.09.05" style="fill:none"/>
  <path d="M225.11 286.48c-4.1 17.54-5.85-.69-9.93 7.25-1.41 2.75-4.03 13.17-11.9 10.64-7.87-2.54-13.5-15.16-12.7-12.68s4.03 13.86-3.64 9.28c-7.68-4.58-13.23-21.66-14.65-23.15-1.43-1.48.28 10.16-4.63 6.61s-16.65-30.51-14.11-21.95c2.14 7.22 10.18 30.73 20.18 46.99 15.18 16.31 29.43 23.33 34.4 23.65 7.73.5 8.02-7.06 8.02-7.06s23.39 10.06 18.66-2.21c0 0 6.16-2.36 2.8-17.03-3.2-13.96-1.63-54.58-1.63-54.58l1.52-15.72c-.02.15-2.71 27.05-4.69 36.61-4.95 23.77-3.81-3.3-7.7 13.35M135.98 214.52s3.17-21.15 7.38-32.69-5.5 1.43-3.58-7.89c.69-3.34-4.9 2.64-6.33 3.24-1.42.61-1.21 5.17 2.52 10.26-.01 0-2.34 22.63.01 27.08M144.96 152.86s-3.64-5.35-4.68-8.27 2.35.47 9.47-1.96-2.6 12-2.6 12z" class="st24"/>
  <path d="M194.04 169.23c2.93-4.97 25.52-19.1 31.98 11.02s1.71 38.14 6.96 39.61 16.4-29.25 14.56-43.61c-1.84-14.37-20-34.15-39.27-22.83s-14.23 15.81-14.23 15.81" style="fill:#f4e0d3"/>
  <path d="m152.75 280.9-10.46-28.32s-17.85-6.04-30.07-21.28c-.45-.56-.91-1.16-1.39-1.8-.42.12-1 .08-1.8-.16-5.11-1.57-18.36-21.1-24.49-4.23-6.29 17.31 13.14 38.94 13.14 38.94s.89 3.95-1.79 1.82-11.33-4.15-9.87 7.05c1.62 12.45 21.65 20.94 21.65 20.94l8.69 4.2s-16.84-1.75-7.1 13.04c2.04 3.1 5.12 5.64 8.7 7.71 12.24 3.58 31.64 7.58 47.26 6.46 20.46-1.48-6.94-17.5-12.47-44.37" class="st20"/>
  <path d="m152.75 280.9-10.46-28.32s-3.05-1.03-7.49-3.32l-.59 1.76s-18.63-12.88-21.41-2.09c-2.79 10.79 12.98 27.29 19.94 31.81 0 0-16.18-5.44-15.29 5.18s21.08 18.58 21.08 18.58-9.82-.7-9.48 4.13c.29 3.95 7.05 12.14 23.28 16.57 4.43.31 8.79.37 12.89.07 20.46-1.48-6.94-17.5-12.47-44.37" class="st21"/>
  <path d="M258.17 167.58s4.21-13.46 8.29-13.17c5.08.36 10.43 13.4 6.55 32.02l1.58 9.84s1.73-4.86 5.59-4.36c4.68.61 3.22 14.45 1.12 21.84l-1 10.78s1.59-1.77 4.69-1.82 3.06 13.56-.03 21.97c0 0 12.3-14.6 6.46-23.33-5.84-8.74-7.4-4.97-7.4-4.97s9.29-18.76 3.56-27.21-11.05-4.25-11.05-4.25 5.49-27.55-2.12-36.79-10.38-4.45-10.38-4.45z" class="st6"/>
  <path d="M247.49 221.09c-1.28 5.65-8.1 19.21-4.83 53.13 1.06 11.01 8.12 11.82 13.49 6.73 7.47-7.08 13.65-18.22 15.86-24.04 3.79-10-5.95-3.33-13.6 3.52 0 0 10.05-23.94 13.39-36.69s-10.07 4.24-18.17 16.83 5.87-28.26 12.18-48.05c3.67-11.49-12.29 2.08-18.32 28.57" class="st26"/>
  <path d="M71.34 215.44s-1.29-15.6 2.63-20.01c3.93-4.41 6.63 6.31 13.72 16.96s24.14 33.61 52.6 42.26c0 0-27.17-20.72-30.74-25.2s-29.42-46.55-32.76-45.94-15.58 7.95-5.45 31.93" style="opacity:.54;fill:#fff"/>
  <path d="M165.69 308.1c-2.21-3.46-6.61-10.5-8.37-13.6-1.47-4.31-3.51-7.17-6.53-11.7l2.63-.12-13.8-28.53s-4.02-4.49-3.86-.97 1.51 13.72 5.78 20.89a74 74 0 0 0-1.55-1.35c-5.03-4.24-18.31-10.25-23.59-15.3s-6.68-1.27-3.56 2.93c0 0-17.52-14.47-24.94-31.95-7.41-17.48-12.55-10.81-6.86 6.14s28.16 38.74 49.5 45.61c2.16.6-3.66 3.89-9.13 1.58-2.44-1.03 1.12 3.36 6.94 8.73-13.92-4.67-30.44-11.67-41.04-22.37-6.23-6.29-10.62-8.69-11.58-7.21-2.46 3.78 12.49 23.83 33.37 31.11 23.53 8.21 26.22 8.07 18.47 8.17-6.75.09.31 4.02 10.23 5.33 0 0 7.53 1.58.69 2.39s-12.9-.65-17.69-2.37c-4.79-1.71-3.8.76-2.01 1.64.93.46-5.53-1.42-11.07-3.35-5.15-1.8-9.45-3.76-7.83-1.08 2.42 4 22.29 14.81 43.47 17.62 21.2 2.84 30.8 1.02 22.33-12.24" class="st26"/>
  <path d="M137.72 243.31s-2.73-.36-10.25-20.25c0 0-2.57-21.68-1.23-26.1s-6.69-12.39-1.01-19.39l8.93 12.79s-2.69 25.74 2.89 48.39c.24.97.4 3.61.67 4.56" class="st18"/>
  <path d="M174.87 184.07c.59-.11.64-2.22.75-5.47.07-1.62.15-3.54.4-5.61s.65-4.32 1.42-6.44c.39-1.05.86-2.01 1.39-2.74q.405-.555.81-.9c.27-.22.52-.36.75-.44.23-.07.45-.1.72-.07.27.04.57.14.87.3.61.32 1.21.84 1.73 1.36.52.53.97 1.07 1.37 1.57.4.49.74.93 1.05 1.29.6.72 1.04 1.1 1.31.99.26-.1.34-.69.17-1.67-.09-.49-.24-1.08-.48-1.75s-.57-1.42-1.06-2.22c-.5-.8-1.13-1.67-2.15-2.45a6 6 0 0 0-1.88-.98 5.3 5.3 0 0 0-2.48-.14c-.85.16-1.64.53-2.3.99s-1.21 1.02-1.68 1.6c-.94 1.17-1.58 2.47-2.08 3.81-.97 2.68-1.28 5.29-1.34 7.62s.18 4.4.49 6.11c.69 3.41 1.68 5.35 2.22 5.24M228.68 259.51c-.38-.15-1.16.78-2.31 2.52-1.16 1.74-2.72 4.29-4.78 7.28a64 64 0 0 1-3.55 4.67c-1.34 1.59-2.85 3.2-4.58 4.62l-.65.53c-.22.16-.45.33-.68.49-.45.35-.93.62-1.4.94-.97.55-1.97 1.07-3.02 1.43-1.05.34-2.13.6-3.24.68-1.11.06-2.24 0-3.38-.23-2.28-.49-4.49-1.55-6.51-2.88-1.99-1.34-3.77-2.9-5.28-4.6-1.53-1.68-2.84-3.45-3.97-5.2a55 55 0 0 1-2.9-5.07c-1.63-3.22-2.74-5.97-3.57-7.87s-1.37-2.97-1.77-2.9c-.4.06-.61 1.29-.44 3.45.17 2.15.72 5.24 1.97 8.93.62 1.84 1.45 3.83 2.51 5.89s2.39 4.2 4.07 6.28c1.66 2.09 3.72 4.09 6.14 5.82 2.41 1.69 5.28 3.18 8.58 3.89 1.66.33 3.36.43 5.02.3 1.67-.14 3.26-.55 4.74-1.1 1.48-.56 2.81-1.31 4.05-2.1.59-.43 1.2-.82 1.73-1.28.27-.22.55-.44.81-.66.25-.23.51-.46.76-.69 1.99-1.85 3.56-3.82 4.87-5.72 1.31-1.91 2.38-3.76 3.24-5.49 1.73-3.46 2.76-6.39 3.3-8.46.55-2.09.61-3.32.24-3.47M57.41 258.11c-.45-.7-.97-1.51-1.57-2.4-.61-.88-1.25-1.89-1.97-2.98-.73-1.08-1.48-2.28-2.29-3.56-.2-.32-.41-.64-.62-.97-.2-.34-.41-.68-.62-1.02l-1.3-2.14c-.44-.74-.87-1.51-1.33-2.29-.23-.39-.46-.79-.69-1.19-.22-.41-.45-.82-.68-1.24-1.86-3.32-3.73-7.04-5.58-11.09-1.84-4.06-3.64-8.47-5.27-13.2-3.27-9.45-5.85-20.19-7.07-31.64-1.24-11.46-.99-22.5.19-32.42 1.18-9.94 3.21-18.78 5.39-26.06 2.18-7.29 4.42-13.07 5.98-17.07 1.57-4 2.4-6.27 2.01-6.49-.37-.21-1.94 1.66-4.23 5.39-2.28 3.73-5.22 9.38-8.02 16.72-2.81 7.33-5.39 16.4-6.94 26.72-1.56 10.31-2 21.88-.7 33.88 1.28 12 4.17 23.22 7.89 32.96 1.86 4.88 3.91 9.39 6.04 13.5s4.31 7.84 6.48 11.11c.27.41.53.82.8 1.22l.81 1.17c.54.77 1.05 1.52 1.57 2.23.53.71 1.04 1.4 1.54 2.06.25.33.5.66.74.98.25.31.5.62.74.93.97 1.21 1.88 2.34 2.77 3.33.88 1 1.68 1.92 2.45 2.7.76.79 1.44 1.48 2.05 2.06.62.57 1.16 1.04 1.61 1.41.9.73 1.45 1.05 1.61.9s-.06-.74-.64-1.74c-.31-.48-.69-1.08-1.15-1.77M303.54 156.63c-.05-.7-.13-1.39-.2-2.1-.14-1.42-.29-2.86-.44-4.32-.8-5.84-1.83-12.08-3.63-18.48-3.38-12.84-9.25-26.43-17.59-39.32-8.47-12.81-18.55-23.64-28.96-31.89-5.13-4.22-10.44-7.66-15.46-10.74-1.28-.73-2.54-1.44-3.78-2.14-.62-.35-1.23-.7-1.85-1.03-.62-.31-1.24-.62-1.85-.92-1.22-.61-2.42-1.2-3.6-1.78-.58-.3-1.18-.55-1.77-.8s-1.17-.51-1.74-.75q-1.725-.735-3.36-1.44c-1.11-.43-2.2-.82-3.26-1.21s-2.08-.76-3.08-1.12c-1-.35-1.99-.62-2.94-.92-.95-.28-1.86-.56-2.75-.82-.44-.13-.87-.26-1.3-.38-.42-.13-.85-.21-1.26-.31-1.65-.39-3.16-.74-4.52-1.05-1.35-.33-2.58-.5-3.64-.66s-1.96-.27-2.69-.35c-1.46-.15-2.24-.13-2.28.06-.04.2.66.56 2.03 1.08.68.26 1.53.55 2.54.88 1 .33 2.17.67 3.45 1.16 1.29.46 2.72.97 4.29 1.51.39.14.8.26 1.2.42s.81.32 1.23.49c.84.33 1.71.67 2.61 1.03s1.84.69 2.79 1.11c.94.42 1.92.85 2.92 1.3s2.04.89 3.09 1.37c1.03.51 2.1 1.04 3.18 1.58.54.27 1.09.54 1.65.82s1.13.54 1.67.86c1.11.62 2.24 1.25 3.4 1.89.58.32 1.16.64 1.75.97.58.34 1.16.71 1.74 1.07 1.17.72 2.36 1.45 3.57 2.2 4.74 3.15 9.75 6.61 14.6 10.78 9.83 8.16 19.37 18.65 27.49 30.94 7.99 12.37 13.77 25.32 17.3 37.6 1.88 6.11 3.03 12.09 4.01 17.7.2 1.41.39 2.8.58 4.16.09.68.2 1.35.28 2.02l.18 2c.12 1.32.25 2.61.36 3.87.07.63.09 1.26.12 1.88l.09 1.84c.06 1.21.12 2.4.17 3.55.02 1.16.01 2.28.01 3.38.01 1.1.01 2.16.01 3.19s-.08 2.03-.11 3c-.04.97-.07 1.9-.11 2.8-.02.45-.03.89-.05 1.33-.01.43-.07.85-.09 1.27-.13 1.66-.25 3.17-.34 4.54-.07 1.37-.23 2.58-.32 3.63-.1 1.05-.17 1.95-.21 2.68-.08 1.46-.02 2.25.17 2.29.2.04.52-.67.97-2.07.22-.7.48-1.57.76-2.6.28-1.04.62-2.23.86-3.6.27-1.36.55-2.89.85-4.56.07-.42.16-.84.22-1.28s.11-.89.17-1.34c.11-.91.23-1.86.35-2.85.11-.98.26-2 .34-3.06q.105-1.59.21-3.27c.07-1.12.15-2.28.2-3.47l.03-3.66c0-.63.01-1.26.01-1.9s.02-1.29-.03-1.94c-.06-1.31-.13-2.65-.19-4.01.02-.72-.01-1.41-.05-2.11" class="st1"/>
  <path d="M294.58 221.09c-.41-1.36-1.02-2.86-2.18-4.31a9.2 9.2 0 0 0-2.2-1.98 8.8 8.8 0 0 0-3.06-1.23c-.22-.04-.45-.08-.68-.1 1.48-3.32 2.81-7.03 3.61-11.12.56-2.91.71-5.14.7-7.09-.03-1.95-.2-3.64-.71-5.54-.27-.95-.63-1.96-1.24-3.04s-1.45-2.27-2.87-3.32c-.71-.52-1.56-.99-2.57-1.29-1-.31-2.16-.42-3.35-.28-.1.01-.21.03-.31.05.01-.03.02-.06.02-.09.26-1.09.53-2.19.8-3.3.15-.55.23-1.13.34-1.7s.21-1.15.32-1.73c.1-.58.23-1.16.31-1.75s.15-1.19.23-1.79c.14-1.2.33-2.4.4-3.66.09-1.25.13-2.52.12-3.8-.05-5.12-.86-10.5-3.03-15.68-1.29-3.01-2.83-5.52-4.82-7.52-1-.99-2.13-1.87-3.51-2.48-.69-.3-1.45-.53-2.26-.62s-1.67-.04-2.48.18-1.54.59-2.15 1.02c-.61.44-1.1.93-1.52 1.43-.82 1-1.35 2.01-1.75 2.99s-.69 1.96-.92 2.89c-.21.8-.42 1.6-.64 2.43-.95 3.31-2.2 6.97-4.17 11.85-1 2.43-2.18 5.17-3.62 8.3-.39.85-.81 1.72-1.24 2.63-.8-3-1.98-5.89-3.56-8.55-.01-1.37.12-2.8.24-4.13.67-6.23 1.94-12.4 3.29-18.54 2.15-9.42 1.41-19.11-7.42-24.26.12-.09.24-.18.37-.29.86-.74 1.81-1.66 2.62-3.33.19-.43.38-.89.51-1.43s.24-1.15.21-1.86c-.03-.7-.16-1.52-.65-2.37.03-.02.06-.05.09-.07l.29-.23.27-.26c.18-.18.37-.35.55-.54.33-.4.71-.81.98-1.25.6-.85 1.14-1.84 1.5-3 .41-1.35.45-2.56.08-3.69-.02-.07-.04-.14-.07-.21l-.1-.21c-.07-.14-.14-.27-.21-.4-.09-.13-.19-.26-.29-.38s-.2-.25-.33-.34c-.12-.1-.25-.2-.37-.3-.13-.09-.28-.16-.42-.23-.28-.15-.61-.22-.94-.29-.16-.03-.32-.03-.48-.03s-.34-.01-.49.02c-.15.02-.31.05-.47.08-.06.01-.13.03-.2.04l-.11.03.09-.15c.3-.59.59-1.21.74-1.94.16-.72.21-1.52.04-2.34-.19-.96-.65-1.76-1.19-2.34-.55-.59-1.19-.96-1.82-1.19-.63-.22-1.28-.29-1.89-.22-.31.02-.6.1-.9.18-.14.05-.29.11-.43.16-.1.04-.2.08-.31.13-.47.2-.99.41-1.61.63.32-.58.6-1.21.83-1.92.17-.62.34-1.28.34-2.03.01-.74-.09-1.56-.46-2.36-.36-.8-1-1.54-1.79-2.02a5.1 5.1 0 0 0-2.58-.75c-1.04-.01-1.91.25-2.62.59-.36.17-.67.38-.96.59-.14.11-.27.22-.4.33-.09.08-.17.15-.26.22-.63.56-1.22.98-1.87 1.46-.67.47-1.42.98-2.46 1.65-.52.34-1.12.7-1.81 1.12-.22.13-.45.27-.69.41a8.3 8.3 0 0 0-.66-1.73c-.37-.67-.87-1.38-1.69-1.92-.2-.14-.43-.25-.65-.36l-.69-.24c-.23-.08-.49-.09-.73-.13-.25-.04-.5-.03-.75-.01-.99.07-1.94.42-2.68.94-.75.51-1.41 1.13-1.92 1.82-.28.34-.49.7-.72 1.07-.21.37-.4.75-.58 1.13-.78 1.81-1.03 3.2-1.22 4.39-.03.3-.06.58-.09.86-.01.14-.03.28-.04.42-.01.11-.03.22-.04.32-.03.21-.05.41-.08.62s-.09.41-.14.62c-.21.84-.5 1.76-1.16 2.9-.32.57-.75 1.18-1.3 1.84-.11.13-.24.27-.36.41-.2-.29-.4-.58-.59-.85-3.4-4.68-6.94-6.97-10.24-6.62-2.8.3-5.07 2.38-6.73 6.17-3.47 7.91-8.49 13.59-12.63 17.28l-.39-.09c-.63-.13-1.27-.25-1.93-.34.13-.72.22-1.35.29-1.94.17-1.45.3-2.73.29-5-.02-1.11-.11-2.2-.28-3.23.29-.1.58-.2.88-.33.95-.4 1.93-.93 2.89-1.62 1.93-1.38 3.72-3.44 5.01-5.98.15-.32.33-.64.46-.97.14-.33.28-.67.42-1.01.25-.69.5-1.39.69-2.11.4-1.45.71-2.96.87-4.51.11-.78.14-1.56.2-2.36.02-.79.06-1.6.04-2.41-.01-1.62-.14-3.27-.35-4.95-.45-3.04-1.08-5.25-1.78-7.12-.17-.47-.38-.91-.55-1.34-.19-.43-.41-.84-.61-1.26-.22-.41-.45-.8-.68-1.21-.26-.39-.5-.79-.79-1.19-.58-.79-1.25-1.6-2.12-2.42-.88-.8-1.96-1.63-3.41-2.31-.36-.18-.76-.31-1.16-.46-.21-.06-.42-.12-.64-.18l-.33-.09c-.11-.02-.23-.04-.35-.06-.92-.19-1.96-.24-3.07-.1a9.3 9.3 0 0 0-4.37 1.77v-.01c-.08-.14-.17-.29-.25-.43-.66-1.15-1.24-2.32-1.73-3.45-1-2.26-1.75-4.34-2.37-6.07-1.23-3.46-1.96-5.5-2.4-5.42-.4.08-.45 2.27.14 6 .3 1.86.78 4.11 1.59 6.64.4 1.27.9 2.6 1.56 3.98.08.17.17.35.25.52.09.17.19.35.28.52.1.18.19.35.29.53.11.18.22.35.33.53.21.36.47.71.74 1.06.12.18.29.35.44.53l.23.26.06.07c.02.02 0 0-.01 0l-.02-.02.02.02c.05.06.13.1.12.19 0 .08-.03.16-.06.23-.01.04-.03.07-.05.1l-.07.17-.09.2c-.12.27-.26.55-.41.83-.61 1.12-1.36 2.27-2.2 3.38s-1.78 2.18-2.79 3.12c-.5.47-1.03.89-1.56 1.22-.51.33-1.05.56-1.37.6-.16.02-.25.01-.3-.01a.66.66 0 0 1-.3-.24c-.09-.11-.18-.21-.26-.32-.18-.2-.33-.43-.49-.64-.61-.87-1.1-1.75-1.53-2.57-.8-1.59-1.4-3.02-2-4.63 1.39-.2 2.4-.56 2.71-1.13 1.34-2.48-1.65-2.36-.91-3.15 1.37-1.48 1.8-4.94-1.38-3.03-.72.43-1.57.82-2.5 1.16-.03-.11-.07-.21-.1-.32-.4-1.31-.85-2.81-1.33-4.54-.44-1.6-.93-3.43-1.42-5.47.39-1.31.56-2.7.48-4.04-.1-1.7-.6-3.28-1.29-4.63-.7-1.35-1.56-2.49-2.49-3.44s-1.89-1.75-2.86-2.4c-1.93-1.33-3.84-2.18-5.54-2.77-1.71-.58-3.22-.9-4.47-1.04-2.51-.28-3.9.06-3.92.4-.03.4 1.26.77 3.41 1.62 1.08.43 2.36 1 3.78 1.77 1.41.77 2.96 1.74 4.43 3.03.75.63 1.44 1.36 2.08 2.14a10 10 0 0 1 1.56 2.59c.78 1.85.84 3.87-.09 5.9-.47 1.01-1.13 2.02-1.96 3-.21.24-.44.48-.67.72l-.34.36-.37.35c-.25.23-.5.46-.75.7-.26.23-.54.44-.81.67-2.21 1.77-4.75 3.4-7.5 4.7-2.76 1.3-5.6 2.24-8.43 2.9-2.82.66-5.63.99-8.33 1.14-5.39.28-10.33-.23-14.42-.95-4.1-.72-7.36-1.65-9.61-2.32s-3.51-1.11-3.72-.78c-.2.3.74 1.38 2.85 2.69 1.49.92 3.56 1.97 6.14 2.95l-.21.33c-.44.68-.86 1.28-1.25 1.81-.79 1.06-1.48 1.88-2.16 2.62s-1.34 1.41-2.14 2.13c-.79.73-1.72 1.49-2.97 2.37-.53.39-1.08.72-1.62 1.07-.55.31-1.08.66-1.63.93-.27.15-.54.29-.81.43l-.81.39-.4.2c-.13.06-.27.11-.4.17-.27.12-.53.23-.79.34-2.1.87-4.1 1.45-5.82 1.87-3.45.83-5.79 1.14-5.85 1.89-.03.35.53.71 1.6 1.06.53.19 1.2.29 1.98.43.39.07.81.09 1.25.13.45.02.92.08 1.42.06 1.07.01 2.26-.07 3.53-.26.19.53.37 1.04.53 1.53.33.99.63 1.88.87 2.69.25.81.47 1.55.66 2.24.2.69.37 1.33.53 1.95.17.62.32 1.23.46 1.84.15.62.3 1.25.44 1.92s.31 1.39.44 2.18c.14.79.31 1.65.43 2.62l.18 1.24c.05.41.09.82.14 1.22s.09.8.14 1.2l.09 1.18.09 1.16.03 1.13c.01.36.03.72.04 1.08.01.09.01.18-.01.27-.04.18-.14.35-.29.48l-.12.09c-.02.01-.05.02-.07.04l-.09.03-.11.04c-.3.1-.6.18-.89.27-1.18.33-2.3.56-3.34.71-4.15.61-6.83-.12-7.13.57q-.105.24.3.66c.26.28.7.59 1.31.92 1.21.64 3.16 1.27 5.64 1.41 1.24.07 2.6.03 4.04-.17.36-.05.73-.11 1.1-.18.1-.02.17-.03.3-.06.14-.04.27-.07.41-.11.27-.09.54-.2.8-.33a5.3 5.3 0 0 0 2.43-2.59c.25-.57.41-1.2.45-1.84.01-.42.03-.84.04-1.26l.03-1.27c-.01-.43-.03-.85-.04-1.28-.02-.43-.03-.87-.05-1.31l-.12-1.32c-.04-.44-.09-.89-.13-1.33-.06-.44-.13-.89-.19-1.34-.14-1.05-.3-1.94-.44-2.75-.12-.81-.27-1.51-.38-2.16-.23-1.31-.46-2.4-.71-3.63-.14-.61-.29-1.25-.45-1.97-.18-.71-.38-1.51-.63-2.41s-.56-1.91-.93-3.08c-.17-.51-.35-1.06-.56-1.64 2-.76 4.06-1.8 5.99-3.16a44 44 0 0 0 3.36-2.58c.87-.72 1.58-1.37 2.36-2.11.76-.75 1.6-1.61 2.61-2.86.5-.63 1.05-1.35 1.64-2.23.29-.44.6-.91.91-1.44.1-.16.2-.34.3-.51 3.87.99 8.45 1.71 13.54 1.69 2.96-.02 6.1-.28 9.3-.94s6.46-1.7 9.62-3.19c.79-.38 1.55-.78 2.32-1.19.74-.44 1.49-.85 2.2-1.32.35-.24.71-.47 1.06-.71l.52-.35.5-.38c.67-.5 1.34-1 1.97-1.56.32-.27.64-.54.94-.82.3-.29.6-.59.9-.88l.44-.44.42-.47c.12-.14.25-.28.37-.43l.03.11c.45 1.62.87 3.05 1.28 4.35.13.43.26.84.39 1.24-2.15.48-4.42.85-6.58 1.16-3.25.47-1.66 2.44 3.02 3.27 1.61.29 3.48.49 5.3.57l.15.39c.77 1.95 1.52 3.78 2.59 5.84.54 1.03 1.14 2.12 1.98 3.3.22.29.42.6.69.9.13.15.26.31.39.46.05.06.17.19.27.29.1.11.22.21.34.32.49.42 1.13.79 1.84.98.71.2 1.45.22 2.1.12 1.34-.21 2.3-.74 3.13-1.26.83-.54 1.52-1.12 2.16-1.73 1.27-1.21 2.32-2.48 3.25-3.78.93-1.31 1.75-2.63 2.44-4.06.17-.36.34-.72.49-1.11l.11-.29.12-.33c.11-.32.2-.64.27-.95.14-.64.17-1.27.01-1.86-.04-.15-.09-.3-.15-.43-.06-.14-.13-.26-.24-.37-.02-.03-.05-.05-.07-.08.04-.02.07-.05.11-.08.25-.17.52-.29.77-.41.27-.09.52-.2.78-.24.13-.04.25-.07.38-.07.13-.01.25-.04.38-.05.26 0 .5-.03.75.01.49.02.96.15 1.41.27.89.29 1.67.74 2.35 1.25.68.52 1.26 1.11 1.79 1.71 1.03 1.25 1.84 2.62 2.55 4.31.7 1.7 1.29 3.73 1.69 6.43.19 1.49.32 2.98.35 4.46.03.74 0 1.46.01 2.18-.04.71-.05 1.42-.12 2.11-.1 1.39-.32 2.71-.61 3.96-.13.63-.32 1.23-.49 1.82-.1.29-.2.58-.3.86-.1.29-.23.55-.33.82-.93 2.16-2.21 3.91-3.63 5.19-.71.64-1.45 1.17-2.18 1.61-.1.06-.2.11-.3.17-.46-1.55-1.08-2.89-1.74-3.94-.34-.56-.71-1.03-1.05-1.42-.35-.39-.69-.7-.99-.93-.63-.44-1.11-.57-1.41-.38-.61.41-.3 1.91.06 4.09.39 2.18.78 5.08.81 8.39 0 1.93-.19 2.83-.41 3.97-.12.57-.25 1.2-.44 2.04q-.09.42-.21.9c-.11.02-.21.04-.32.05-.96.2-1.93.5-2.89.94-.95.45-1.87 1.06-2.68 1.8s-1.51 1.6-2.08 2.53c-1.14 1.87-1.75 3.93-2.05 5.98-.07.51-.13 1.03-.17 1.54-.02.26-.04.51-.05.77l-.02.38-.02.22c-.04.58-.23 1.14-.52 1.65s-.7.96-1.18 1.31c-.25.16-.5.33-.78.44-.13.07-.28.1-.42.16l-.22.06-.11.03-.17.04c-2.87.61-5.24.91-7.3 1.03 5.72-4.93 7.17-11.02 7.24-15.75.08-5.64-1.73-10.31-2.26-11.54.56-.86.99-1.63 1.28-2.28.53-1.23.7-1.97.45-2.13-.55-.36-2.38 1.86-5.7 4.73-1.69 1.4-3.78 2.93-6.29 4.27-.61.36-1.29.64-1.95.97-.33.17-.68.3-1.04.44-.35.14-.7.29-1.06.44-1.46.51-2.98 1.03-4.59 1.38-3.21.78-6.38 1.07-9.29 1.2-2.91.09-5.56-.02-7.8-.18-4.47-.32-7.27-.75-7.47-.18-.18.49 1.84 1.73 5.5 2.8-.01 2.05.31 10.99 6.14 16.65 2.18 2.12 4.85 3.51 7.98 4.17q1.08.225 2.22.33c-.22.78-.35 1.58-.4 2.4-.06 1.15.04 2.34.28 3.55.42 2.09 1.29 4.27 2.71 6.42-.21.05-.42.09-.63.14-.19.04-.39.08-.58.13-.19.03-.38.06-.56.1-.74.13-1.45.25-2.12.36-.67.13-1.31.19-1.92.27q-.915.105-1.77.21c-1.13.1-2.19.15-3.21.23-1.02.03-2.01.03-3.01.05-1-.03-2.02-.07-3.11-.13-2.16-.2-4.59-.47-7.58-1.21-5.12-1.32-9.65-3.55-13.25-6.28-3.59-2.75-6.26-5.94-8.06-8.88a35 35 0 0 1-2.14-4.15c-.51-1.28-.92-2.41-1.17-3.35-.55-1.89-.75-3.02-1.16-3.06q-.285-.03-.6.81c-.05.14-.11.3-.15.47s-.07.37-.11.58-.07.44-.1.68-.03.5-.04.78c-.07 1.11.06 2.45.34 4 .31 1.54.83 3.26 1.62 5.08.36.81.77 1.64 1.24 2.48-.17.08-.35.17-.54.26-1.84.94-4.72 1.84-8.29 1.59-3.56-.24-7.76-1.69-11.61-4.49-.95-.72-1.91-1.47-2.79-2.35l-.34-.32-.32-.34c-.21-.23-.44-.45-.65-.69-.41-.48-.84-.95-1.21-1.47-.4-.5-.75-1.04-1.12-1.58-.18-.27-.34-.56-.51-.83-.08-.14-.17-.28-.25-.42l-.23-.44c-.64-1.15-1.15-2.38-1.56-3.66-.97-2.96-.96-5.25-.77-7.17.24-1.91.69-3.49 1.44-5.14a16.756 16.756 0 0 1 3.72-5.23c.23-.23.5-.44.76-.67.28-.2.55-.44.86-.64.6-.43 1.28-.79 2.02-1.12 1.17-.52 2.55-.84 4.02-.76.42 1.16.72 2.19.95 3.04.41 1.58.63 2.51 1.03 2.57.39.09.96-.85 1.23-2.68.25-1.82.17-4.55-.83-7.74-1.01-3.16-2.98-6.72-5.9-9.98l-1.15-1.18c-.38-.38-.77-.77-1.15-1.16-.34-.34-.7-.67-1.01-1.04-.16-.18-.33-.36-.49-.54-.15-.19-.31-.38-.46-.57a18.2 18.2 0 0 1-2.96-5.14c-.42-1.1-.61-2.09-.74-2.98-.14-.89-.13-1.69-.12-2.42.07-1.46.33-2.68.76-4 .45-1.31 1.05-2.74 2.24-4.46 1.19-1.7 2.96-3.76 6.05-5.66l-.23-.39c.42.15.83.29 1.22.4.43.11.82.23 1.21.3.38.07.74.14 1.07.19.67.08 1.23.13 1.69.13.92-.02 1.41-.14 1.45-.36s-.37-.52-1.17-.89q-.585-.3-1.44-.69c-.28-.14-.58-.29-.89-.44-.32-.15-.64-.35-.99-.53-.69-.38-1.43-.84-2.2-1.36-.75-.55-1.54-1.17-2.27-1.92-.72-.75-1.41-1.61-1.88-2.55-.05-.12-.1-.24-.16-.36s-.11-.24-.14-.36l-.12-.36c-.02-.12-.05-.23-.07-.35-.08-.46-.1-.9 0-1.23.1-.34.26-.58.51-.81.26-.23.61-.46 1.13-.61.11-.05.25-.08.39-.11s.27-.07.42-.1c.32-.03.61-.1.95-.1l.51-.03c.17 0 .35.01.53.01.18.01.36.01.54.02.19.02.37.04.56.05.19.02.37.03.57.06l.58.09 1.29.21c.47.08.94.15 1.43.21.48.07.97.13 1.47.17 1.99.18 4.09.26 6.31 0 1.1-.11 2.23-.34 3.36-.63 1.13-.31 2.26-.73 3.36-1.24 1.1-.52 2.14-1.16 3.14-1.87s1.91-1.52 2.77-2.37 1.64-1.76 2.39-2.69a48 48 0 0 0 2.07-2.88c1.3-1.97 2.44-4.01 3.52-6.08.54-1.04 1.05-2.07 1.55-3.1.24-.5.48-1 .72-1.49.23-.48.47-.96.71-1.42.96-1.88 1.99-3.67 3.08-5.37s2.25-3.29 3.48-4.75c1.22-1.47 2.51-2.79 3.86-3.93 1.34-1.14 2.74-2.1 4.14-2.79 1.4-.68 2.8-1.08 4.04-1.11.62-.02 1.19.06 1.66.21.49.16.99.42 1.46.78.95.7 1.76 1.74 2.42 2.83 1.3 2.22 1.99 4.66 2.38 6.82.2 1.09.31 2.12.38 3.08s.09 1.84.09 2.64c-.02 3.21-.28 5.06.17 5.19.21.06.55-.31.97-1.13.42-.81.91-2.07 1.3-3.77.19-.85.37-1.81.48-2.87.01-.06.01-.13.02-.2.3-.34.67-.67.85-.85.21-.2.42-.4.62-.6.41-.39.82-.77 1.22-1.13.8-.72 1.57-1.39 2.32-2 1.49-1.22 2.86-2.23 4.14-3.07 2.55-1.67 4.72-2.72 6.66-3.21.96-.24 1.85-.32 2.61-.23.43.05.64.11.74.17.11.06.13.07.22.22.09.14.2.46.26.91s.07 1.01.03 1.65c-.09 1.27-.39 2.8-.86 4.53-.55 2.05-1.25 4.09-1.95 6.13-.12.35-.24.71-.37 1.06-.17.51-.34 1.01-.51 1.52-.33 1-.64 2.01-.77 2.9-.07.45-.07.84-.04 1.2.05.34.11.66.24.92.13.25.27.47.42.73.04.06.08.12.14.19l.09.09.05.05.01.01.01.01c0 .01.04-.03.03-.01l.03.02c.14.13.28.26.41.36.55.37 1.01.49 1.62.55.6.05 1.36-.04 2.25-.38.89-.33 1.81-.82 2.7-1.19.22-.09.44-.19.67-.27l.34-.12c.18-.06.35-.11.51-.16.33-.09.63-.14.9-.16s.5 0 .72.03.41.11.62.21c.1.05.21.11.31.18.05.04.11.06.16.11l.04.03c.01.01 0 0 .01 0v-.01c.05.03.1.08.13.13l.02.04c0 .01 0 .01.01.01 0 .01.01.04.02.06.02.1.03.22.04.35.03.53-.04 1.2-.16 1.87-.24 1.35-.65 2.71-1.07 3.97-.85 2.54-1.76 4.77-2.5 6.62-1.49 3.69-2.31 5.86-1.88 6.12.41.25 2.03-1.46 4.27-4.87 1.11-1.71 2.38-3.84 3.62-6.46.61-1.32 1.22-2.75 1.68-4.42.23-.84.43-1.74.47-2.81.01-.27 0-.55-.02-.85l-.03-.23c-.01-.09-.02-.19-.04-.27-.04-.17-.07-.35-.12-.52-.19-.69-.54-1.35-1.05-1.88l-.41-.4c-.11-.11-.23-.2-.35-.3-.24-.2-.5-.38-.78-.55-.56-.33-1.18-.62-1.84-.79a7.5 7.5 0 0 0-1.99-.25c-.65.01-1.28.09-1.88.21-.3.06-.59.14-.87.22l-.36.11-.07.02c-.1.02-.19.05-.28.08-.17.05-.33.14-.49.11-.1-.03-.05-.18-.03-.26.03-.09.06-.18.1-.27l.1-.25.05-.12.01-.03.04-.1.14-.38c.74-2.06 1.49-4.21 2.12-6.5.52-1.95.89-3.71 1.04-5.41.07-.86.09-1.69.01-2.55-.08-.85-.25-1.73-.63-2.61a6.5 6.5 0 0 0-.72-1.28c-.3-.4-.65-.79-1.04-1.1-.78-.65-1.68-1.03-2.49-1.24l-.31-.08c-.1-.02-.18-.03-.28-.05l-.55-.09c-.37-.07-.72-.06-1.08-.09-.72-.02-1.42.02-2.12.11-1.4.19-2.77.57-4.19 1.13s-2.9 1.28-4.48 2.23a49 49 0 0 0-5.12 3.56q-1.2.945-2.49 2.07c-.3-1.36-.74-2.78-1.4-4.23-.73-1.53-1.7-3.12-3.25-4.51a9.8 9.8 0 0 0-2.77-1.77l-.41-.17-.43-.13a7 7 0 0 0-.85-.22 10 10 0 0 0-1.69-.21c-2.27-.1-4.44.45-6.43 1.29-1.99.85-3.83 2-5.53 3.34s-3.29 2.85-4.75 4.5a49 49 0 0 0-4.09 5.3 62 62 0 0 0-3.49 5.88c-.27.51-.53 1.02-.79 1.55-.25.5-.5 1.01-.74 1.52q-.72 1.485-1.47 2.94c-1.01 1.95-2.05 3.83-3.17 5.55-.55.87-1.14 1.69-1.73 2.48-.6.77-1.22 1.51-1.86 2.18-.65.66-1.31 1.28-2.01 1.8s-1.42.99-2.17 1.38c-.75.38-1.53.7-2.33.95-.81.23-1.63.44-2.47.56-1.68.27-3.43.3-5.15.23-.43-.01-.86-.04-1.29-.08-.43-.03-.86-.07-1.28-.12-.46-.05-.92-.09-1.37-.13a19 19 0 0 1-.74-.07c-.25-.02-.5-.02-.75-.03s-.5-.01-.74-.02c-.25 0-.5.02-.75.03s-.5.02-.75.04l-.76.09c-.5.04-1.02.19-1.52.29-.25.06-.51.16-.76.24s-.5.17-.76.29c-1 .41-2.01 1.09-2.79 2.01A6.3 6.3 0 0 0 57 49.27c-.15 1.14.04 2.17.31 3.07.08.22.15.44.23.66.09.2.19.4.28.6q.135.3.3.57c.11.18.22.36.32.53.66.98 1.4 1.77 2.15 2.44a24.7 24.7 0 0 0-4.83 4.96c-.41.54-.75 1.09-1.08 1.61-.3.54-.62 1.04-.86 1.56-.13.26-.25.51-.38.76-.11.25-.22.51-.33.75-.22.49-.38.99-.57 1.48-.66 1.97-1.03 3.92-1.12 6.16-.03 1.12.01 2.33.21 3.63.19 1.3.51 2.72 1.07 4.22.96 2.58 2.39 4.89 4.04 6.78l.62.71c.22.22.43.44.65.66.42.45.88.84 1.33 1.24.75.67 1.48 1.33 2.2 1.97 2.04 1.97 3.66 4.02 4.89 5.98-.97.15-1.89.38-2.71.69-2.07.76-3.69 1.83-5.03 2.91-2.63 2.22-4.18 4.53-5.32 6.8-.57 1.14-1.02 2.3-1.38 3.5-.19.6-.33 1.22-.48 1.85-.12.64-.24 1.29-.31 1.97-.15 1.36-.21 2.82-.07 4.42.14 1.59.46 3.33 1.06 5.16.51 1.57 1.15 3.08 1.94 4.48l.29.53c.1.17.21.34.31.51.21.33.42.67.63 1 .45.64.9 1.28 1.39 1.87.47.61.99 1.16 1.5 1.72.26.27.53.53.79.79l.4.39.41.37c1.08 1 2.25 1.85 3.41 2.64 4.7 3.08 9.82 4.43 14.13 4.24 2.16-.09 4.09-.55 5.67-1.2.39-.18.78-.31 1.12-.52.35-.19.68-.37 1-.56.6-.42 1.16-.77 1.59-1.19.13-.12.26-.23.39-.34 1.56 2.43 3.61 4.87 6.18 7.09 4 3.43 9.27 6.2 15.12 7.7.51.12 1 .23 1.47.34-7 2.22-12.72 2.21-17.53 2.19-4.92-.02-8.8-.03-11.82 2.5-.65.55-2.13 1.97-3.18 4.37-.25-.08-.49-.15-.72-.24-.74-.26-1.35-.59-1.9-.9-1.07-.64-1.83-1.3-2.45-1.99-.16-.17-.29-.36-.44-.53-.07-.09-.15-.17-.21-.27l-.19-.29-.4-.61c-.17-.27-.35-.54-.53-.82-.77-1.1-1.71-2.32-3.29-3.57-.35-.26-.7-.51-1.07-.74-.39-.22-.75-.45-1.17-.62-.8-.38-1.7-.63-2.64-.73-.93-.11-1.99.03-2.95.46-.24.11-.48.22-.69.38s-.44.3-.62.48c-.18.19-.36.38-.53.57-.16.21-.32.43-.43.66-.5.92-.61 1.82-.62 2.62 0 .66.09 1.27.22 1.83-.06 0-.12-.01-.18-.01-.73-.04-1.38-.09-1.97-.14a46 46 0 0 1-3-.37 27 27 0 0 1-2.91-.62l-.23-.06-.29-.06c-.19-.05-.4-.07-.61-.09-.21-.03-.42-.03-.64-.03-.87.01-1.84.21-2.8.73-.82.46-1.54 1.13-2.03 1.98-.5.84-.72 1.85-.66 2.78s.37 1.75.74 2.42c.37.69.84 1.21 1.3 1.69.44.42.88.78 1.32 1.1-.28.03-.55.05-.81.07l-.61.03c-.35.03-.69.06-1.03.16-.69.19-1.36.54-1.93 1.07s-1.04 1.24-1.3 2.1c-.25.85-.27 1.86.02 2.84.25.84.69 1.55 1.19 2.14.46.55.97.95 1.49 1.31l-.18.05c-.16.05-.31.09-.47.18-.16.08-.31.16-.46.25s-.3.22-.44.34l-.21.19-.18.21c-.11.15-.23.29-.32.46-.38.65-.51 1.45-.46 2.16.02.17.05.34.08.51.02.09.04.17.05.26.03.08.05.16.08.24.05.16.11.32.17.48.07.14.15.29.23.44.15.32.35.56.56.86.21.27.44.54.7.8.88.88 1.84 1.5 2.79 1.98.45.26 1 .45 1.48.65.25.08.51.15.76.22.12.03.25.07.37.1.12.02.25.05.37.07.06.01.11.02.16.03.01.61.15 1.15.31 1.61.48 1.25 1.18 2.04 1.84 2.66.67.62 1.34 1.04 1.99 1.38.64.33 1.26.57 1.87.75 1.21.36 2.38.51 3.68.52.65-.01 1.34-.04 2.08-.15.74-.09 1.55-.28 2.38-.5 1.02-.25 2.01-.48 2.97-.57-.21 2.18-.23 4.32-.18 6.42.13 4.13.67 8.11 1.42 11.95.38 1.92.82 3.79 1.31 5.64a97.831 97.831 0 0 0 5.71 15.8c-.32.06-.63.13-.92.22-.99.29-1.77.79-2.47 1.29-.65.52-1.21 1.08-1.65 1.64-.89 1.12-1.46 2.22-1.92 3.27-.85 2.1-1.24 3.99-1.45 5.74s-.23 3.36-.16 4.9c.17 3.08.67 5.92 1.63 9.02.47 1.55 1.08 3.17 1.87 4.89s1.75 3.55 2.99 5.49c2.13 3.33 4.64 6.27 7.31 8.81 2.68 2.53 5.5 4.67 8.32 6.47.12.08.25.15.37.23-.14.24-.26.48-.38.71-.79 1.66-1.05 3.23-1.12 4.68-.11 2.91.58 5.3 1.39 7.28.83 1.99 1.84 3.6 2.86 4.99s2.07 2.57 3.13 3.65c2.14 2.14 4.32 3.88 6.91 5.65 1.3.87 2.7 1.77 4.28 2.66.78.46 1.62.89 2.5 1.37.89.45 1.81.93 2.81 1.4 3.41 1.63 6.82 2.99 10.14 4.15 3.33 1.16 6.57 2.13 9.68 2.94 6.22 1.64 11.89 2.7 16.67 3.41 9.57 1.38 15.56 1.42 15.67.63.13-.85-5.63-2.36-14.82-4.78-4.59-1.23-10.04-2.69-15.99-4.57-2.97-.93-6.07-1.98-9.22-3.16s-6.37-2.51-9.56-4.03c-.93-.43-1.78-.88-2.58-1.29-.79-.43-1.53-.82-2.21-1.23-.34-.2-.67-.39-.99-.58-.31-.2-.62-.39-.92-.58-.6-.37-1.14-.75-1.68-1.1-2.1-1.45-3.74-2.81-5.42-4.43-.83-.82-1.66-1.71-2.49-2.76-.83-1.04-1.65-2.24-2.37-3.67-.7-1.42-1.3-3.11-1.37-4.93-.04-.9.08-1.85.38-2.62.1-.25.22-.49.34-.66 3.52 1.72 6.9 2.98 9.93 3.93 1.18.38 2.32.67 3.39.96 1.08.26 2.1.5 3.06.7.96.18 1.86.35 2.68.49.83.13 1.59.22 2.27.29 1.36.17 2.44.17 3.18.14.74-.04 1.14-.16 1.19-.36.04-.2-.28-.48-.93-.83s-1.63-.72-2.88-1.24c-1.26-.48-2.79-1.06-4.56-1.74-.88-.35-1.82-.72-2.81-1.11-.98-.43-2.03-.83-3.1-1.32-3.61-1.59-7.72-3.6-11.9-6.27l-.02-.2c-.09 0-.18.01-.27.02-.71-.46-1.43-.95-2.15-1.45a58 58 0 0 1-7.29-6.09c-2.32-2.32-4.49-4.92-6.34-7.82a38 38 0 0 1-2.51-4.63c-.64-1.4-1.09-2.68-1.46-3.87-.72-2.39-1.09-4.46-1.26-6.76-.07-1.15-.09-2.36.01-3.68.11-1.31.31-2.77.79-4.24.23-.74.54-1.48.93-2.13.38-.66.88-1.16 1.25-1.39.18-.09.3-.12.42-.13.11-.02.27.01.54.13.03.01.07.02.1.04.04.02.07.05.11.07.08.05.15.08.24.14.17.13.35.24.54.42.38.31 2.49 2.8 2.89 3.29 3.08 4.95 6.43 9.3 9.85 12.99 3.8 4.12 7.72 7.4 11.35 9.96 3.65 2.54 7.04 4.36 9.88 5.63 5.72 2.51 9.15 3.02 9.26 2.67.16-.45-2.99-1.73-8.16-4.79a76 76 0 0 1-8.91-6.25 77 77 0 0 1-10.17-10.09c-3.41-4.07-6.74-8.87-9.73-14.35a99.2 99.2 0 0 1-7.69-18.33c-.51-1.68-.98-3.38-1.41-5.12-.42-1.74-.8-3.51-1.13-5.3-.64-3.59-1.09-7.28-1.16-11.01-.04-1.86.01-3.73.2-5.57s.52-3.65 1.03-5.33c.27-.83.58-1.63.96-2.34.38-.7.81-1.33 1.28-1.8.12-.11.23-.24.36-.32.13-.09.23-.2.39-.28.15-.08.29-.19.43-.26.14-.06.27-.12.4-.19.52-.19.88-.22 1.33-.11.53.14 1.2.53 1.86 1.11.66.56 1.3 1.27 1.89 2.02 1.19 1.48 2.22 3.1 3.17 4.64 1.89 3.11 3.48 6.01 5.01 8.68 1.52 2.68 2.96 5.15 4.46 7.56.76 1.2 1.51 2.4 2.32 3.57.81 1.16 1.63 2.34 2.48 3.55.42.6.85 1.21 1.29 1.84.46.6.94 1.22 1.42 1.85s.98 1.27 1.48 1.92c.51.65 1 1.34 1.58 2 1.13 1.33 2.31 2.73 3.58 4.22 1.33 1.43 2.73 2.97 4.26 4.57 3.13 3.15 6.78 6.61 11.36 10.22 2.31 1.78 4.81 3.65 7.65 5.43.35.23.71.46 1.07.68l1.11.66c.37.22.75.45 1.13.67.39.22.78.43 1.18.65s.79.44 1.21.65l1.26.63c.42.22.87.41 1.31.62q.33.15.69.3l.36.15.2.08c1.09 3.76 2.44 7.85 4.09 12.16 1.25 3.31 2.71 6.73 4.32 10.23.84 1.74 1.65 3.52 2.58 5.28.46.88.92 1.78 1.38 2.67.49.88.98 1.77 1.48 2.67 3.98 7.15 8.43 13.61 12.89 19.14s8.92 10.14 12.94 13.7c.49.46.99.88 1.48 1.29s.97.8 1.43 1.19c.94.76 1.8 1.51 2.67 2.12q1.29.945 2.4 1.74c.37.26.73.51 1.07.75s.69.43 1 .63c2.57 1.56 4.08 2.26 4.31 1.95.52-.7-4.5-4.89-11.59-12.51-3.54-3.81-7.54-8.53-11.62-14.03-4.08-5.51-8.23-11.81-12.08-18.73l-1.44-2.58c-.46-.87-.91-1.72-1.36-2.58-.92-1.7-1.73-3.42-2.58-5.08-1.62-3.37-3.15-6.64-4.49-9.81-2.73-6.32-4.89-12.15-6.63-17.08-3.46-9.87-5.15-16.15-5.92-16.03-.7.1-.49 5.65 1.48 14.49-.33-.18-.65-.35-.97-.54-.6-.36-1.2-.71-1.78-1.06a91 91 0 0 1-6.44-4.39c-.49-.37-.98-.74-1.45-1.1-.48-.36-.95-.72-1.4-1.1-.9-.75-1.78-1.47-2.64-2.18-.84-.73-1.64-1.46-2.43-2.17l-1.17-1.05-1.1-1.07c-.72-.7-1.42-1.39-2.11-2.06-.17-.17-.34-.33-.51-.5l-.49-.52c-.32-.34-.64-.68-.95-1.02-1.26-1.35-2.48-2.61-3.57-3.92-.55-.65-1.1-1.28-1.63-1.9-.53-.63-1.08-1.23-1.56-1.87-.99-1.26-1.95-2.49-2.9-3.69-.49-.59-.92-1.22-1.36-1.84s-.88-1.23-1.32-1.85c-.87-1.23-1.78-2.44-2.59-3.7-1.66-2.51-3.26-5.16-4.94-8.05-.74-1.26-1.49-2.58-2.27-3.95 1.86 1.07 3.81 1.83 5.85 2.26.8.17 1.61.28 2.43.35 6.49.53 12.34-2.17 16.14-4.57.06.69.12 1.39.2 2.1.21 1.64.42 3.37.77 5.14.17.88.33 1.79.53 2.7.22.9.45 1.82.67 2.75.12.46.24.92.35 1.38.14.45.27.9.41 1.35.28.89.55 1.76.82 2.62.13.43.28.85.44 1.26s.31.82.46 1.23c.31.81.62 1.6.92 2.37.64 1.53 1.33 2.94 1.97 4.27.16.33.32.66.48.97.17.31.35.61.51.91.34.59.67 1.16.99 1.7a28.4 28.4 0 0 0 3.46 4.84c.96 1.05 1.66 1.53 2.03 1.33s.37-1.07.08-2.43c-.29-1.37-.94-3.21-1.64-5.53-.18-.57-.38-1.17-.59-1.79-.11-.31-.22-.62-.33-.94-.1-.32-.2-.66-.3-.99-.4-1.35-.89-2.76-1.36-4.26l-.68-2.31c-.12-.39-.24-.79-.36-1.19-.13-.4-.25-.8-.35-1.22-.23-.82-.46-1.66-.69-2.51-.12-.42-.24-.85-.36-1.28-.11-.43-.22-.87-.32-1.31-.23-.88-.45-1.74-.67-2.6-.21-.86-.39-1.71-.59-2.54-.42-1.66-.72-3.28-1.08-4.81-.63-3.08-1.2-5.87-1.64-8.22-.93-4.71-1.54-7.68-2.39-7.72-.84-.05-1.77 3.03-1.92 8.05-.01.27-.02.54-.02.82-2.63 2.02-8.83 6.08-15.55 5.52-4.64-.39-8.81-2.97-12.42-7.66-11.38-14.81-5.6-20.88-4.32-21.95 1.65-1.38 4.58-1.37 8.64-1.35 5.94.02 13.93.05 23.98-4.27.05.17.1.32.14.47.09.29.18.56.28.82l.3.75c.12.24.24.49.37.75.12.27.28.53.46.83.18.29.36.62.61.95.21.29.42.57.63.85q.345.39.69.75c.12.12.23.24.34.36.12.11.24.21.37.32q.36.315.72.6c.98.72 1.92 1.26 2.76 1.57.82.37 1.56.48 2.07.52.52.03.85-.07.96-.29.11-.23-.02-.56-.32-.96-.29-.41-.79-.84-1.34-1.43-1.15-1.09-2.65-2.54-3.92-4.36-.72-1.07-.91-1.65-1.13-2.37-.12-.36-.21-.76-.34-1.3-.02-.12-.05-.24-.07-.37.41.03.82.04 1.23.04.5.01 1 .01 1.52.02.53 0 1.07-.01 1.63-.02.04.08.08.15.12.22.4.74.77 1.32 1.15 1.85s.78 1.01 1.27 1.53c.5.52 1.1 1.08 1.98 1.68 1.52 1.02 3.28 1.57 4.83 1.63q.48.03.93 0c-.44.48-.89.96-1.35 1.43-.43.42-.84.87-1.29 1.28-.44.4-.89.8-1.35 1.21-.46.37-.94.71-1.4 1.08l-.45.34c-.18.13-.35.26-.53.4-.34.3-.69.6-1.01.96-.65.7-1.25 1.52-1.68 2.47-.43.94-.7 1.98-.78 3-.17 2.06.31 3.94.98 5.58.68 1.64 1.55 3.05 2.47 4.35a30 30 0 0 0 2.19 2.71c.24.26.47.51.71.76.42.44.65 1.07.63 1.7 0 .07-.05.54-.08.87-.04.35-.06.69-.09 1.03-.06.68-.08 1.34-.12 2-.21 5.23 0 9.88.38 13.79.76 7.81 2.27 12.49 3.03 12.37.82-.12.77-4.89 1.07-12.49.15-3.8.37-8.34.85-13.28.07-.61.13-1.24.21-1.85.04-.31.07-.62.12-.92.04-.33.08-.52.15-1.11.18-2.03-.46-4.21-1.89-5.84-.23-.26-.46-.52-.69-.79-.21-.24-.41-.49-.62-.74-.4-.5-.79-1.01-1.15-1.53-.72-1.04-1.37-2.14-1.81-3.22s-.65-2.1-.59-2.91.32-1.45.91-2.1c.13-.17.31-.32.47-.48l.64-.52c.59-.49 1.19-.96 1.75-1.45l1.53-1.5c.49-.5.93-1.02 1.38-1.52 1.76-2.04 3.25-4.05 4.53-5.99 1.31-1.93 2.4-3.78 3.38-5.48 1.93-3.42 3.25-6.29 4.03-8.35s1-3.3.65-3.49-1.24.68-2.61 2.36c-.74.91-1.63 2.08-2.65 3.44-.72-.41-1.39-.86-1.99-1.32-.9-.69-1.67-1.43-2.31-2.2a13.8 13.8 0 0 1-2.64-4.59c-.24-.74-.39-1.45-.48-2.11-.06-.66-.06-1.27.01-1.8s.23-.97.4-1.3c.18-.33.36-.56.57-.7s.46-.25.79-.32c.19 0 .35-.06.57-.03.11.01.21 0 .32 0l.35.05.18.02.29.05c.2.03.41.06.61.1.41.07.82.1 1.23.15.41.04.83.07 1.25.1.42.02.84.04 1.27.05 3.44.07 7.21-.26 11.85-1.26l.19-.04.25-.06.51-.14c.33-.12.66-.22.98-.37.64-.27 1.24-.63 1.81-1.03a9.7 9.7 0 0 0 2.71-3.06 9.35 9.35 0 0 0 1.16-3.87l.03-.5.01-.32c0-.2.02-.4.03-.6.02-.4.06-.79.11-1.18.2-1.54.61-2.95 1.24-4.06.63-1.12 1.47-1.93 2.52-2.49.53-.27 1.11-.48 1.72-.65.32-.07.62-.15.95-.19.32-.06.65-.08.99-.11 1.34-.1 2.73 0 4.08.2 1.38.2 2.6.5 4.11.81.71.16 1.42.26 2.11.38s1.36.19 2.02.27c5.28.57 9.52.29 12.4-.1 1.44-.2 2.55-.44 3.3-.66.37-.11.65-.22.83-.32.11-.05.12-.1.16-.15.02-.02.03-.05.04-.07s.01 0 .02-.05.02-.1.04-.16l-.01.04c0 .02-.02.09-.02.07v-.03c-.01-.02-.02-.04-.04-.07a.6.6 0 0 0-.21-.13c-.2-.08-.49-.15-.87-.22-.76-.13-1.87-.24-3.28-.36-.34-.03-.7-.06-1.07-.1.26-2.03 1.43-2.48 3.53-2.66 2.93-.18 5.91.25 8.95.6 4.26.53 8.6 1.06 12.93 1.24 6.91.26 17.05.42 21.93 5.88 3.72 4.31 3.08 10.65 2.02 15.96-.89 4.2-1.71 8.42-2.37 12.7-.25 1.7-.49 3.42-.68 5.15-.68-.68-1.39-1.33-2.14-1.94-7.29-6.03-18.65-9.53-28.01-7.53-7.28 1.75-13.68 6.26-18.21 12.17-.35-4.86-.74-9.84-2.44-14.45-3.67-9.21-12.3-10.19-19.52-4.16-6.48 5.47-10.49 13.39-13.32 21.2-4.55 13.89-6.98 28.42-7.53 43-.18 6.54.13 13.16 1.61 19.57.84 3.22 2.06 7.98 5.34 9.63 1.27.68 3.15.32 4.17-.54.32-.27.62-.57.9-.89 0 .48-.01.97-.01 1.47.01.59.03 1.19.04 1.8.02 1.21.12 2.44.19 3.68.06.62.11 1.25.17 1.88l.09.95.12.95c.63 5.1 1.72 9.92 3.18 14.16 1.45 4.24 3.21 7.9 4.99 10.78.41.74.88 1.39 1.31 2.02.44.62.82 1.22 1.25 1.75.42.52.82 1.01 1.19 1.44.37.44.7.84 1.05 1.16 1.35 1.33 2.22 1.94 2.5 1.72.62-.48-1.57-3.91-4.07-9.77-1.28-2.92-2.58-6.47-3.69-10.51-1.12-4.04-2.01-8.57-2.61-13.39l-.12-.9-.09-.9-.18-1.78c-.08-1.18-.2-2.34-.25-3.49l-.09-1.71-.06-1.68c-.05-1.11-.05-2.19-.07-3.25-.04-4.24.12-8.07.28-11.3.35-6.46.75-10.48.07-10.66-.68-.19-2.37 3.65-3.67 10.21-.23 1.2-.45 2.5-.65 3.87-.35 1.38-.73 2.74-1.18 4.06-.49 1.43-1.06 2.84-1.77 3.98-.43.66-.83 1.21-1.33 1.42-.09-.06-.26-.14-.44-.34-.62-.69-1.04-1.53-1.42-2.46-1.1-2.75-1.66-5.83-2.05-8.81-.78-6.16-.68-12.5-.19-18.7.79-9.4 2.41-18.77 4.81-27.9 2.3-8.85 5.63-17.8 11.65-24.77 2.87-3.28 8.54-8.1 12.53-4.04 1.74 1.81 2.55 4.75 2.93 7.27.9 5.69 1.17 11.53.83 17.29-.02.37-.05.77-.08 1.09 0 0 .06.38 0 .56-.31 1.06-.73 2.2-1.01 3.27-.18.81-.61 2.51-.76 3.32-.12.69-.4 2.65-.52 3.35-.2 2.01-.82 3.97-1.38 5.9-.98 3.87-1.75 7.73-.83 11.8.37 1.56 1.22 3.24 2.49 4.35.16.17.49.49.65.65l.15.15.15.19c.38.46.87 1.04 1.21 1.53 1.84 2.48 3.39 5.17 4.91 7.93 2.68 4.92 5.05 10.07 7 15.32.15.39.29.79.43 1.19-.49-.1-.94-.21-1.35-.32-1.08-.37-1.93-.71-2.66-1.16-.18-.11-.36-.21-.54-.32-.17-.12-.34-.25-.51-.37-.17-.13-.35-.24-.51-.38s-.33-.29-.5-.45l-.26-.23c-.08-.09-.17-.18-.25-.27-.17-.18-.35-.36-.53-.57-.17-.21-.35-.44-.54-.68-.19-.23-.36-.52-.55-.79-1.29-1.96-2.16-4.16-2.8-6.24s-1.04-4.06-1.37-5.74c-.63-3.37-.95-5.56-1.57-5.61-.6-.07-1.42 2.13-1.58 5.83-.07 1.85.03 4.07.53 6.52.5 2.44 1.39 5.14 3.06 7.68.25.36.46.71.71 1.02.24.31.47.6.68.87.22.27.45.5.65.74.21.23.4.46.61.65.82.8 1.56 1.43 2.46 2.05.46.29.93.64 1.52.91.29.14.59.3.92.46.33.15.69.27 1.07.41 1.26.45 2.87.87 4.9 1.04.84 3.23 1.33 6.52 1.5 9.92.64 6.09-.89 18.01 8.33 17.67 9.29-.8 17.56-13.72 23.28-25.47-.2 3.09-.33 5.66-.43 8.1-.22 5.39-.39 10.13-.36 18.45.04 7.15.39 13.97 1.02 20.15.64 6.18 1.56 11.73 2.64 16.33.14.57.27 1.13.4 1.68.15.54.29 1.07.43 1.59.29 1.03.55 1.99.86 2.89.3.89.57 1.72.85 2.48.3.75.58 1.44.83 2.05.13.3.26.59.37.86.13.26.26.51.38.74.24.45.46.83.65 1.13.38.6.65.88.81.82s.2-.46.13-1.16c-.04-.35-.1-.77-.19-1.26a39 39 0 0 1-.3-1.7c-.11-.64-.25-1.34-.4-2.11-.13-.77-.28-1.61-.44-2.51-.17-.89-.31-1.86-.47-2.89-.08-.51-.16-1.04-.25-1.57-.07-.54-.15-1.1-.22-1.67-.62-4.55-1.16-9.99-1.54-16.06-.37-6.07-.57-12.77-.62-19.81-.02-8.2.22-12.03.49-16.92.15-2.45.32-5.17.58-8.83.13-1.83.28-3.9.48-6.29.18-2.16.5-7.17 1.1-10.47 2.34-6.22 4.4-12.51 6.31-18.87.7-2.4 1.35-5.02 1.87-7.48.18-.74.43-2.5.57-3.28.24-1.27.4-3.13.53-4.43.1-1.03.11-2.32.17-3.36.01-.16.3-.45.3-.45.98-1.82 1.82-3.48 2.63-5.09.8-1.61 1.53-3.13 2.21-4.59 1.37-2.91 2.5-5.54 3.51-7.95 1.99-4.84 3.41-8.84 4.54-12.72.14-.49.28-.97.42-1.45.13-.48.24-.97.37-1.46l.36-1.46.15-.63c.04-.2.1-.38.15-.57.21-.74.49-1.42.81-1.94.16-.25.32-.47.46-.62.15-.15.27-.23.35-.27.09-.04.13-.05.23-.06.1 0 .26.01.48.09.45.15 1.11.57 1.76 1.19 1.32 1.27 2.61 3.26 3.65 5.71 1.79 4.25 2.57 8.94 2.68 13.46.03 1.13.01 2.26-.04 3.37-.04 1.11-.19 2.24-.3 3.35-.06.56-.11 1.11-.16 1.66-.06.55-.16 1.1-.24 1.64s-.17 1.08-.25 1.62c-.09.54-.15 1.07-.27 1.6-.22 1.06-.43 2.1-.64 3.13-.09.52-.24 1.02-.36 1.53-.13.5-.25 1.01-.38 1.5-.12.5-.25.99-.37 1.48-.14.49-.28.97-.42 1.45-.29.96-.54 1.91-.84 2.83-.61 1.84-1.17 3.62-1.82 5.31-.6 1.7-1.26 3.31-1.86 4.85-2.5 6.14-4.91 10.98-6.54 14.35-1.64 3.37-2.56 5.24-2.22 5.49.32.23 1.9-1.22 4.18-4.29 2.28-3.06 5.31-7.7 8.39-13.82.75-1.54 1.55-3.15 2.29-4.87.78-1.7 1.48-3.53 2.22-5.41.26-.67.92-1.92.92-1.92.86-1.07 1.81-1.64 2.6-1.83.8-.2 1.47-.06 2.06.23.6.29 1.11.78 1.53 1.34.42.57.74 1.21.99 1.88.5 1.35.77 2.81.84 4.53.06 1.73-.05 3.75-.55 6.32-.85 4.43-2.36 8.61-3.91 12.34l-.61 1.43c-.58 1.35-1.17 2.63-1.75 3.85-.78 1.64-1.53 3.17-2.23 4.56-2.81 5.56-4.63 9.05-4.05 9.46.53.38 3.38-2.41 7.06-7.67.92-1.32 1.88-2.79 2.84-4.42.24-.4.81-1.09.81-1.09.86-.49 1.7-.67 2.37-.61.68.06 1.22.32 1.71.75s.89 1.06 1.21 1.76c.31.7.52 1.48.65 2.26.26 1.57.27 3.13.15 4.59-.11 1.47-.33 2.86-.61 4.2-.56 2.69-1.34 5.22-2.38 8.07-1.07 2.85-2.42 6.03-4.43 9.97-3.45 6.78-7.29 13.01-10.91 18.61-3.63 5.59-7.09 10.54-10 14.69-5.84 8.3-9.48 13.49-8.88 13.99.55.47 5.23-3.84 11.92-11.63 3.33-3.9 7.17-8.68 11.11-14.23 3.93-5.56 8.01-11.88 11.62-18.96 2.09-4.12 3.45-7.26 4.55-10.01 1.09-2.75 1.89-5.14 2.62-7.9.35-1.39.68-2.87.93-4.58.23-1.71.41-3.65.25-5.97-.08-1.22-.25-2.48-.65-3.84M77.74 180.73c-.42-.09-.85-.16-1.28-.22-.44-.01-.88-.02-1.32 0-.43.06-.86.11-1.27.2-.39.11-.79.23-1.17.37-.35.16-.7.32-1.05.49-.15.08-.28.16-.42.24-1.05-.89-2.61-2.13-3.71-3.97-.96-1.56-1.48-3.25-1.86-4.53s-.65-2.17-1.08-2.21c-.42-.05-.94.82-1.12 2.38-.07.77-.08 1.72.14 2.76.22 1.03.59 2.17 1.26 3.23.32.5.67.96 1.04 1.38-.15.09-.31.19-.48.31-.58.43-1.04.95-1.35 1.48-.31.52-.49 1.03-.56 1.47-.09.43-.05.8.01 1.05.07.26.18.41.34.45s.34-.03.54-.18.39-.39.64-.64c.46-.54 1.04-1.17 1.76-1.71.22-.14.39-.24.55-.3.15-.07.29-.1.45-.13.08-.02.16-.03.24-.05.16.09.32.17.47.25.21.11.41.21.61.3.07.03.14.05.21.07-.11.1-.21.2-.31.31-1.02 1.03-1.76 2.15-2.36 3.27-.59 1.12-1.01 2.25-1.37 3.37-.27.9-.49 1.8-.67 2.68h-.21c-1.45.01-2.9.3-4.34.66-1.42.38-2.42.47-3.29.46-.86-.01-1.57-.13-2.31-.35-.73-.22-1.53-.54-2.33-1.18-.38-.31-.77-.73-.96-1.15-.06-.12-.09-.23-.11-.32.28-.04.54-.09.8-.14 1.39-.3 2.44-.73 3.12-1.13s1-.76.92-.97c-.17-.43-1.79-.19-4.29-.22-1.24-.01-2.69-.13-4.15-.56l-.28-.08-.27-.1c-.18-.07-.36-.13-.54-.2-.35-.18-.7-.31-1.06-.55-.73-.41-1.43-.91-1.99-1.47-.66-.65-.85-1.21-.87-1.5l-.01-.06.01-.04c.01-.03.01-.05 0-.07.01-.02.02-.02.02-.03s0-.02.02-.02c.01 0 .02-.01.02-.02s.02 0 .03-.01c0-.02.04 0 .04-.01s.04 0 .05-.01c.02 0 .02-.02.06-.02.03 0 .06-.01.09-.02l.02-.01.07-.01.16-.03c.43-.08.89-.18 1.42-.31a74 74 0 0 0 3.58-.97c1.09.1 2.09.1 2.98.06 1.58-.09 2.83-.32 3.68-.57.85-.26 1.3-.51 1.28-.75-.04-.5-1.95-.68-4.86-1.1-1.45-.22-3.16-.52-4.87-1.11-.85-.31-1.69-.69-2.4-1.2-.33-.26-.67-.53-.91-.84-.24-.3-.42-.61-.51-.92-.2-.72.06-1.15.31-1.39.13-.12.27-.2.42-.23.07-.03.16-.02.23-.04h.39c.86 0 1.81-.05 3.08-.21.63-.09 1.35-.2 2.17-.38.41-.09.84-.19 1.31-.32l.52-.15c.8.18 1.49.27 2.04.31.95.05 1.5-.04 1.56-.28.07-.24-.35-.62-1.14-1.07-.78-.48-1.95-1.05-3.29-1.83-.34-.19-.68-.41-1.04-.62-.34-.23-.71-.46-1.06-.72-.71-.5-1.41-1.09-1.98-1.75-.55-.66-.92-1.4-.92-1.98 0-.29.07-.53.22-.77s.38-.46.68-.63c.35-.19.72-.26 1.04-.26.16-.01.31.02.45.04.07.02.14.04.2.05.12.03.23.07.34.1.94.28 1.72.46 2.61.66.88.18 1.87.36 3.19.52.66.08 1.41.15 2.28.21.75.05 1.58.09 2.54.11 1.08 1.58 2.27 2.6 3.2 3.17 1.01.62 1.69.72 1.81.52.14-.22-.25-.71-.86-1.57-.61-.85-1.46-2.08-2.15-3.72-.34-.82-.64-1.74-.78-2.7-.07-.48-.09-.96-.05-1.4.05-.44.16-.84.34-1.09.04-.07.09-.12.14-.17.07-.05.13-.1.18-.16.06-.06.14-.08.2-.13s.15-.07.22-.1c.32-.11.71-.18 1.19-.1.47.08.99.21 1.5.47.26.1.51.28.77.42.25.16.5.34.75.53 1.14.92 1.83 1.82 2.37 2.61.27.44.51.85.75 1.25l.45.72c.16.24.34.46.51.7.72.93 1.64 1.92 3.1 2.9.73.49 1.6.98 2.65 1.42.45.18.94.36 1.46.51-.39 2.97.02 6.78 2.17 11.5-.21-.04-.48-.12-.76-.2m57.72-62.9c1.81-.4 3.53-1.01 5.16-1.65.4-.18.8-.36 1.19-.54s.78-.35 1.15-.56c.74-.41 1.48-.78 2.15-1.24.07-.05.14-.1.22-.14.43 1.34.79 3.34-.3 4.6-3.43 3.98-12.39 6.51-15 4.9-2.15-1.32-2.89-3.54-3.1-4.38 2.69-.02 5.58-.27 8.53-.99m3.66 38.04c.6.46 1.23.9 1.91 1.31-.96 1.26-1.99 2.59-3.12 3.96-.17.21-.35.42-.52.63-.08 0-.16 0-.24.01-.91.02-1.96-.02-3.03-.24a8.9 8.9 0 0 1-3.16-1.31c-.59-.4-.98-.78-1.28-1.13s-.54-.68-.77-1.06c-.06-.1-.13-.2-.19-.31.47-.05.96-.1 1.47-.16 2.42-.33 5.34-.81 8.93-1.7m3.63-22.93c-.27-.04-.53-.08-.79-.12l-.43-.08-.23-.04-.32-.05c-.42-.06-.84-.13-1.3-.13-.23 0-.45-.02-.68-.01l-.71.06c-.12.01-.24.02-.36.04l-.37.08c-.25.06-.5.11-.75.19a7.5 7.5 0 0 0-3.33 2.2c-3.95-.1-7.16-1.3-9.54-3.62-2.36-2.28-3.63-5.32-4.32-8.03 1.45-.48 3.88-.97 6.52-.23a9.1 9.1 0 0 0 2.5 2.26c.49.3 1.08.52 1.74.65.22.05.45.08.69.11.68.7 1.35 1.53 1.99 2.52 0 0 8.72-4.26 13.4 1.52-1.06.95-2.28 1.85-3.71 2.68m46.9-15.54c-1.46-.21-3.02-.47-4.67-.81-.6-.13-1.22-.25-1.84-.42-.22-.06-.43-.11-.65-.16 4.01-3.98 8.4-9.52 11.63-16.88.54-1.23 1.66-3.33 3.05-3.48 1.17-.13 3.37 1.06 6.07 4.77 2.23 3.06 3.95 6.61 5.09 9.72-7.46-.98-17.24-2.44-18.68 7.26m48.49-8.05c.78.03 1.9-.08 3.25-.46.23-.07.47-.14.72-.23.06.03.03.01.07.05.03.03.08.16.11.33.05.36-.03.84-.18 1.27-.31.87-.85 1.56-1.41 2.13-.58.57-1.22 1.03-2.04 1.48l-.24.12c-5.43-1.89-11.21-2.21-16.92-2.46.24-.17.46-.4.72-.66.14-.14.28-.29.43-.45.14-.17.26-.36.4-.55.08-.12.16-.25.25-.37a4.086 4.086 0 0 1 1.34-.05c.85.13 1.62.4 2.27.65.33.1.61.22.85.25.24.04.44.01.56-.1s.15-.3.09-.55-.19-.59-.47-.92c-.26-.35-.65-.7-1.15-1.02s-1.14-.55-1.83-.65c-.23-.02-.42-.04-.59-.06.15-.6.26-1.23.31-1.88.09-1.26-.12-2.43-.41-3.44-.29-1.02-.75-1.85-1.17-2.5-.89-1.29-1.76-1.82-2.11-1.58-.36.25-.19 1.16.09 2.46.27 1.31.6 3.04.49 4.87-.05.93-.22 1.81-.45 2.61-.04.02-.09.05-.15.08l.08.14c-.48 1.6-1.14 2.86-1.28 3.61-2.14-.15-4.26-.39-6.39-.65-.89-2.93-2.26-6.03-3.77-8.78q.525-.495.96-.99c.69-.76 1.21-1.53 1.66-2.24.87-1.45 1.37-2.75 1.69-4.01.08-.31.13-.63.19-.94.03-.16.06-.31.08-.47l.05-.48c.03-.31.06-.62.08-.94.02-.25.04-.5.06-.77.12-1.04.34-2.21.9-3.51.13-.27.26-.54.4-.79.16-.24.29-.5.46-.7.31-.46.69-.79 1.03-1.06.35-.28.69-.38.97-.43.07-.01.14-.04.2-.02.06.01.13-.01.19.01s.13.04.2.04c.05.02.11.03.16.07.22.1.49.37.72.7.23.35.43.76.59 1.2.32.88.48 1.81.57 2.67.16 1.73 0 3.19-.13 4.2-.13 1.02-.24 1.62-.01 1.75.21.12.75-.28 1.34-1.27.52-.89 1.07-2.26 1.3-4.05.85-.46 1.55-.87 2.19-1.26.67-.4 1.26-.78 1.8-1.13 1.07-.7 1.91-1.3 2.69-1.89s1.51-1.18 2.3-1.91c.1-.09.2-.19.3-.28l.08-.07.04-.03.08-.07c.05-.05.11-.08.17-.12.06-.05.12-.08.19-.11.26-.13.59-.23.93-.23.3.01.56.08.75.2.2.11.34.25.45.46.23.41.27 1.18.1 1.98-.18.81-.5 1.64-.89 2.41-.18.39-.4.75-.59 1.11-.22.35-.4.7-.61 1.02-.81 1.31-1.56 2.36-2.02 3.14-.48.77-.67 1.3-.5 1.48s.7.01 1.51-.48c.37-.24.81-.55 1.29-.93.09-.01.17-.03.26-.05.22-.04.44-.09.65-.13.42-.09.81-.18 1.17-.28.73-.19 1.37-.39 1.96-.58 1.16-.39 2.08-.77 2.93-1.15.21-.1.41-.19.62-.29.08-.02.15-.07.22-.07.15-.03.29-.03.44 0 .3.08.65.32.79.94.06.27.05.6-.02.95-.06.35-.22.73-.38 1.1-.37.74-.92 1.46-1.5 2.12-1.21 1.3-2.56 2.37-3.73 3.23-2.35 1.73-3.94 2.79-3.74 3.24.09.22.61.23 1.47.06.86-.18 2.07-.56 3.49-1.22.7-.33 1.46-.72 2.24-1.21l.02.08c1.53-.31 2.7-.57 3.7-.8.5-.11.95-.23 1.38-.34.22-.06.43-.12.63-.17.03-.01.04-.01.04-.01h.02c.01 0 .03 0 .04-.01.03-.01.06-.02.07-.01h.04s-.01 0 .04.07c.08.21.17.79-.1 1.63-.22.73-.59 1.47-1.04 2.17-.21.37-.45.64-.66.95-.13.14-.25.28-.37.42l-.18.21-.2.19c-1.05 1.04-2.26 1.82-3.33 2.4-2.15 1.18-3.69 1.74-3.62 2.19.04.22.48.39 1.26.42m8.27 73.5c-.04.95 0 2.12-.09 3.06-.09.75-.16 2.33-.26 3.07-.08.63-.36 2.43-.44 3.07-.16 1.15-.57 2.92-.79 4.08-1.99 8.23-4.57 16.36-7.42 24.33l-.6 1.62s-3.99 10.08-5.91 14.02c-2.45 5.01-5.18 9.96-8.64 14.31-2.5 3.09-6.18 7.08-10.21 7.72-3.61.59-4.04-2.93-4.39-5.76-.29-2.77-.31-5.65-.47-8.47-.21-5.81-1.46-11.78-3.47-17.27-1.93-5.5-4.24-10.82-6.89-16.01-1.51-2.9-3.11-5.85-5.04-8.59-.36-.57-.98-1.3-1.41-1.86-.09-.13-.29-.35-.4-.46-.28-.28-.82-.87-1.11-1.16-.44-.52-.67-1.09-.84-1.83-.6-2.97.16-6.4 1-9.36.68-2.14 1.37-4.34 1.65-6.58.21-1.13.46-2.89.76-3.98.61-2.65 1.48-5.11 2.61-7.57 3.56-7.46 9.77-13.38 17.72-15.85l.92-.25c3.03-.85 6.32-.57 9.44-.11 8.12 1.3 15.38 5.6 19.7 12.26.02.09.03.19.06.28l.1-.03c1.23 1.95 2.22 4.11 2.9 6.44l.54 1.9c.23 1.18.59 2.74.68 3.94.04.38.19 1.68.19 1.68.01.11.02.22.01.33.01.75.15 2.26.1 3.03" class="st1"/>
  <path d="M103.19 91.67c-1.24 1.68-1.88 3.43-2.28 5.02-.38 1.6-.48 3.06-.42 4.27.13 2.45.88 3.85 1.44 3.79.6-.06.93-1.45 1.53-3.47.3-1.01.67-2.2 1.16-3.44.5-1.23 1.13-2.55 1.93-3.62.4-.53.82-.95 1.2-1.22.39-.27.69-.38 1.04-.42.69-.09 1.69.37 2.49.9.82.53 1.51 1.09 2.06 1.44.54.36.97.5 1.22.34.25-.15.29-.59.13-1.28-.17-.68-.55-1.6-1.33-2.64-.2-.26-.41-.53-.69-.79-.14-.13-.27-.26-.41-.4-.16-.12-.33-.25-.5-.38-.7-.49-1.61-.97-2.76-1.08-1.14-.13-2.41.18-3.39.77-1.01.59-1.79 1.37-2.42 2.21M136.6 84.31c.41-.86.91-1.85 1.55-2.83.32-.48.68-.96 1.07-1.39.39-.42.82-.79 1.23-1.03.42-.25.76-.33 1.08-.33s.69.1 1.08.31c.79.44 1.56 1.23 2.17 1.93 1.22 1.44 2.06 2.5 2.57 2.3.25-.09.37-.48.36-1.11s-.18-1.51-.59-2.57c-.42-1.04-1.08-2.31-2.48-3.46-.71-.55-1.69-1.05-2.84-1.16-1.15-.12-2.34.2-3.27.75-.94.55-1.64 1.24-2.2 1.93-.56.7-.96 1.42-1.3 2.12-.65 1.4-.95 2.72-1.07 3.83-.21 2.24.27 3.58.77 3.61.56.04 1.06-1.18 1.87-2.9M131.67 94.49c-.33-.01-.7.02-1.1.1-.2.04-.42.11-.66.2-.23.1-.45.22-.66.37l-.31.25c-1.81 1.42-3.12 3.06-4.19 4.6a25.4 25.4 0 0 0-2.37 4.32c-1.1 2.57-1.3 4.36-.87 4.51.44.16 1.4-1.21 2.95-3.34.78-1.06 1.7-2.32 2.78-3.63 1.09-1.3 2.33-2.68 3.78-3.81l.22-.17c-.01.01.01-.01.06-.02.08-.02.21-.04.37-.04.31-.01.69.03 1.06.11.76.15 1.53.42 2.25.73 1.45.62 2.72 1.39 3.78 2.07 2.11 1.38 3.42 2.4 3.78 2.08.17-.15.08-.61-.29-1.29-.37-.69-1.01-1.6-1.98-2.61-.97-1-2.25-2.1-3.93-3.03-.84-.46-1.78-.88-2.88-1.17-.53-.12-1.12-.23-1.79-.23M103.4 76.44c-4.04 3.57-8.77 7.46-12.61 8.77-3.83 1.31-.64 3.39 1.55 3.29 1.18-.05-1.03 2.35 1.98 2.99 2.05.43 7.01-5.64 9.67-10.22 2.61-4.5 2.1-7.21-.59-4.83M80.19 128.77c.26-.1.37-.5.35-1.17-.04-.66-.24-1.58-.69-2.66-.45-1.07-1.17-2.3-2.21-3.48a14.7 14.7 0 0 0-4-3.19c-1.6-.88-3.27-1.42-4.8-1.67-1.54-.26-2.95-.26-4.12-.08-1.17.17-2.1.51-2.69.89-.6.38-.82.79-.71 1.03.25.49 1.44.51 3.38.91 1.92.37 4.52 1.06 7.02 2.44l.33.18c-.05.05-.11.09-.16.15-.17.18-.34.35-.51.53-.16.2-.31.4-.48.62-.17.21-.31.48-.48.76-.08.14-.16.29-.25.45-.07.17-.14.34-.22.53-.29.64-.41 1.28-.54 1.89-.05.3-.06.59-.09.88-.01.28-.05.57-.03.83.03.52.07 1.01.14 1.44.1.42.2.8.31 1.14.1.35.24.62.38.86s.27.43.41.58c.27.3.52.4.75.31s.41-.38.55-.79c.07-.21.13-.44.17-.71.04-.26.08-.55.14-.86.05-.31.09-.64.12-.98.06-.34.12-.68.17-1.04.02-.18.08-.34.11-.52.04-.17.07-.35.11-.52.12-.32.19-.67.33-.96.31-.71.57-.92.9-1.16.16-.13.35-.24.62-.39l.21-.12c.08-.03.16-.07.25-.12.09-.04.19-.07.29-.11.05-.02.1-.03.15-.05l.07-.02.03-.01h-.01l-.01-.12c2.56 2.33 3.94 4.61 4.71 4.31M171.44 77.97c.32-1.08.7-2.04 1.03-2.87.68-1.64 1.17-2.76.79-3.1-.34-.32-1.53.22-2.91 1.75-.67.77-1.39 1.78-1.97 3.03a14.8 14.8 0 0 0-1.24 4.29c-.4 3.17.25 6.01 1.07 7.85.82 1.86 1.79 2.78 2.23 2.56s.34-1.4.2-3.2c-.06-.75-.12-1.61-.15-2.55l.08.07c.04-.04.13-.14.2-.2.08-.07.15-.14.22-.2.14-.12.27-.23.39-.32.24-.18.44-.31.63-.41.19-.11.36-.19.56-.27.19-.07.41-.14.66-.17.42-.03.73 0 1.09.16.36.15.73.41 1.06.67.66.52 1.2.94 1.55.78.33-.15.44-.85.02-1.9-.22-.51-.59-1.13-1.27-1.66-.66-.54-1.72-.88-2.73-.76-.58.06-.97.18-1.3.28s-.59.2-.89.32c-.05.02-.11.05-.16.08.02-.23.04-.46.07-.69.18-1.27.45-2.46.77-3.54M211.43 16.15l9.78 2.9 1.22-4.11-9.78-2.9 1.92-6.5 11.08 3.28 1.23-4.14L211.1 0l-7.53 25.4 4.7 1.4zM222.29 29.67c.51 1.66 1.71 2.91 3.59 3.76 1.24.56 2.39.84 3.46.86 1.07.01 2.07-.13 3-.43l-.59 1.76 4.14 1.86 8-17.79-4.47-2.01-5.67 12.61c-.7.32-1.46.5-2.26.56-.81.06-1.6-.09-2.37-.44q-1.53-.69-1.92-1.83c-.27-.77-.13-1.75.41-2.95l4.96-11.03-4.47-2.01-5.01 11.14c-1.05 2.3-1.31 4.28-.8 5.94M243.2 41.87l7.48-11.63c.74-.21 1.53-.27 2.38-.18s1.59.34 2.22.74c1.08.69 1.67 1.4 1.77 2.12s-.21 1.63-.92 2.74l-6.61 10.28 4.12 2.65 6.77-10.52q2.055-3.18 1.71-5.55c-.22-1.58-1.29-2.98-3.2-4.21-1-.64-2.07-1.06-3.22-1.27-1.15-.2-2.19-.24-3.1-.11l.85-1.66-3.82-2.46-10.55 16.4zM258.52 47.85c-.41 1.51-.37 2.89.13 4.14s1.33 2.38 2.48 3.38c.91.79 1.83 1.34 2.74 1.64s1.89.41 2.94.35l-.97 1.56 3.18 2.76 18.16-20.96-3.71-3.21-6.09 7.03c-.36-1.62-1.25-3.05-2.68-4.28a7.4 7.4 0 0 0-3.94-1.78c-1.49-.2-3.04.05-4.65.76s-3.18 1.95-4.7 3.71c-1.5 1.75-2.47 3.39-2.89 4.9m6.67-1.65c2.91-3.36 5.52-4.04 7.82-2.04 1.02.89 1.59 2.05 1.69 3.48l-5.82 6.72c-1.56.21-2.92-.19-4.07-1.18-1.02-.89-1.56-1.88-1.61-2.97-.03-1.11.63-2.44 1.99-4.01M283.48 55.46c1.71.92 3.21 2.11 4.5 3.59q1.77 2.025 1.8 3.18c.02.77-.43 1.55-1.33 2.35l-.4.35-3.35-3.83c-1.55-1.77-3.15-2.72-4.8-2.87q-2.49-.21-4.65 1.68c-1.01.89-1.67 1.84-1.96 2.85-.3 1.02-.31 2.02-.04 3.02s.77 1.91 1.49 2.73c.99 1.13 1.95 1.94 2.9 2.44.94.49 1.89.77 2.86.83l-1.16 1.36 2.8 3.2 9.32-8.15c1.98-1.73 2.96-3.53 2.92-5.38q-.045-2.775-2.61-5.7c-.89-1.02-1.81-1.89-2.74-2.6s-1.8-1.25-2.59-1.62zm-.36 13.77c-.78.07-1.58-.06-2.42-.39s-1.61-.91-2.33-1.73c-1.37-1.57-1.41-2.92-.11-4.06 1.34-1.17 2.64-1.04 3.9.4l3.28 3.75zM287 79.42c-.52 2.32.08 4.76 1.8 7.3 1.27 1.89 2.69 3.28 4.26 4.18l3.41-2.3c-.71-.37-1.37-.83-1.99-1.4-.61-.57-1.16-1.2-1.63-1.9-1.11-1.65-1.52-3.1-1.21-4.37.3-1.27 1.32-2.49 3.04-3.65 1.89-1.27 3.46-1.75 4.72-1.43s2.4 1.24 3.43 2.77c.51.76.92 1.53 1.2 2.3.29.77.46 1.5.53 2.18l3.31-2.23a10 10 0 0 0-.64-2.64c-.33-.83-.83-1.75-1.51-2.75-1.64-2.43-3.64-3.9-6.01-4.42s-4.97.18-7.82 2.1c-2.74 1.85-4.38 3.94-4.89 6.26M314.57 83.9l3.825-2.092 2.562 4.685-3.826 2.092zM308.01 87.96l-13.5 7.38 2.35 4.3 17.11-9.36-3.38-6.18-3.82 1.59zM330.94 104.26l-1.64-3.92-8.22.29 1.53 3.65zM314.74 115.88c2.99-1.25 5-2.91 6.05-4.99s.95-4.6-.29-7.57c-1.23-2.95-2.96-4.78-5.17-5.49-2.22-.71-4.82-.45-7.8.8-2.99 1.25-5.01 2.91-6.06 4.97-1.05 2.07-.96 4.59.28 7.56 1.25 2.99 2.98 4.84 5.19 5.54 2.22.7 4.82.42 7.8-.82m-8.79-10.11c.48-.94 1.65-1.79 3.5-2.57 1.85-.77 3.27-1 4.28-.69s1.81 1.18 2.41 2.61c.61 1.45.67 2.65.18 3.58-.49.94-1.65 1.79-3.5 2.57-1.85.77-3.28 1-4.28.69-1.01-.31-1.82-1.2-2.42-2.65-.6-1.41-.66-2.6-.17-3.54M328.18 133.06c.9-1.32 1.06-3.07.48-5.27-.3-1.15-.81-2.18-1.52-3.11s-1.45-1.65-2.21-2.18l1.74-.65-1.16-4.39-18.85 4.99 1.25 4.74 13.36-3.54c.69.34 1.31.84 1.88 1.48s.95 1.32 1.14 2.05q.495 1.86-.12 2.76c-.41.6-1.25 1.06-2.52 1.4l-11.81 3.13 1.25 4.74 12.09-3.2c2.43-.66 4.1-1.64 5-2.95M321.09 155.88c-.71-.56-1.13-1.56-1.24-3-.06-.8-.05-1.6.03-2.42.09-.81.25-1.55.5-2.21l-7.06.57c-.29.96-.47 1.95-.56 2.98-.08 1.03-.08 2.1.01 3.22.26 3.25 1.36 5.65 3.29 7.2s4.48 2.19 7.65 1.94l19.47-1.57-.61-7.51-18.11 1.46c-1.53.12-2.66-.1-3.37-.66M343.65 169.92l-29.18-2.05-.52 7.52 14.59 1.02-9.9 3.49-.29 4.04 9.32 4.79-14.59-1.02-.53 7.51 29.18 2.05.51-7.27-14.37-7.4 15.27-5.36zM12.48 254.76c.8.8 1.64 1.46 2.54 1.97.9.52 1.83.84 2.8.98s1.91-.01 2.82-.44c.92-.43 1.41-1.24 1.47-2.44.04-.53-.01-1.3-.15-2.3s-.51-2.13-1.1-3.4c-1.37-2.94-2.6-4.82-3.7-5.64q-.885-.69-1.89-.78c-.66-.06-1.41.02-2.24.24s-1.79.56-2.88 1q-1.635.66-3.75 1.5L0 248.44l.48 1.16c.27.59.52.83.74.73l6.2-2.77c.74 1.59 1.69 3.15 2.86 4.7.67.87 1.4 1.7 2.2 2.5m-2.83-6.93c-.34-.73-.05-1.3.87-1.73.48-.22 1.23-.45 2.26-.68.32-.07.6-.15.83-.23.55-.2 1.15-.14 1.79.18s1.25.79 1.83 1.42 1.03 1.22 1.34 1.76q.465.81.75 1.44c.19.41.36.91.49 1.48.49 1.91.2 3.27-.88 4.07-1.19.56-2.47.36-3.85-.58-.6-.42-1.17-.94-1.73-1.55a24 24 0 0 1-1.53-1.89 18 18 0 0 1-1.21-1.88c-.34-.61-.57-1.04-.7-1.29s-.22-.42-.26-.52M20.83 273.14c1.54-.96 2.68-1.8 3.43-2.52q1.785-1.695.96-3.09c-.12-.32-.28-.66-.49-1.02s-.5-.73-.86-1.1q-1.875-1.875-4.98-2.61c-.99-.24-1.98-.35-2.98-.34-1 .02-1.87.13-2.61.35s-1.3.44-1.7.67c-.39.23-.73.47-1 .72q-.99.585-1.02 1.8c-.01.35.05.7.16 1.04.11.35.23.65.37.9s.32.57.54.95q.33.57.9 1.17c1.67 1.72 3.88 2.58 6.65 2.57q-.705.645-1.74 1.41c-.29.22-.62.45-.96.7-.35.25-.74.54-1.17.88l.84 1.42c.6-.57 1.31-1.12 2.14-1.66.81-.53 1.99-1.28 3.52-2.24m-4.43-2.49c-2.17-.5-3.69-1.46-4.58-2.88-.45-1.2-.16-2.11.87-2.71.78-.46 1.86-.66 3.23-.6.95.02 1.88.18 2.8.46 1.98.58 3.32 1.46 4.01 2.63.07.11.12.23.17.35.54.91.3 1.67-.71 2.26-.73.43-1.73.67-2.99.72-.93.05-1.87-.03-2.8-.23M32.29 280.97c.71 1 1.05 1.99 1.01 2.98.4.35 1.01.24 1.84-.35.33-.23.55-.52.66-.85.1-.28.1-.48 0-.62s-.19-.24-.27-.32c-.24-.38-.48-.73-.72-1.06-2.12-2.97-4.86-4.76-8.23-5.38.13-.14.36-.35.69-.65s.65-.63.94-1 .52-.75.68-1.14.12-.74-.1-1.06c-.38-.53-.77-.65-1.16-.37-.71.64-1.83 1.63-3.35 2.97-.7.62-1.42 1.24-2.14 1.88s-1.39 1.23-2 1.77-1.13.99-1.56 1.37c-.43.37-.69.6-.77.69-.29.39-.47.68-.53.88-.06.19-.04.36.05.49.1.14.25.28.46.43s.43.38.67.68c.79-.56 1.51-1.19 2.17-1.89s1.21-1.21 1.66-1.53l.83-.59c.56-.4 1.17-.65 1.84-.76 1.49-.21 3.11.19 4.89 1.21a7.6 7.6 0 0 1 2.44 2.22M42.59 290.82c-.27-.32-.62-.63-1.04-.93-1.45-1.01-3.24-1.58-5.36-1.7-1.01-.07-2.01 0-2.99.19s-1.82.46-2.51.8-1.21.66-1.55.96c-.35.3-.63.59-.86.88q-.87.75-.69 1.95c.05.34.17.68.34 1s.34.59.52.82.41.51.7.84c.28.33.65.66 1.09 1 1.94 1.4 4.27 1.86 6.99 1.37-.39.51-.88 1.07-1.46 1.69-.25.26-.53.55-.83.85s-.63.66-1 1.07l1.07 1.25c.49-.67 1.1-1.34 1.81-2.01q1.065-1.005 3.09-2.82c1.34-1.21 2.32-2.24 2.93-3.08.97-1.32 1.11-2.39.41-3.21-.17-.3-.39-.6-.66-.92m-1.86 4.03c-.65.55-1.58.96-2.82 1.23-.91.21-1.84.3-2.8.27q-3.33-.165-5.01-2.04c-.65-1.11-.53-2.05.38-2.82.69-.59 1.72-.98 3.08-1.16.94-.14 1.89-.16 2.84-.04q3.075.345 4.41 1.89c.08.1.16.21.23.32.68.8.58 1.59-.31 2.35M58.16 318.55c-3.55-.93-5.95-1.92-7.19-2.99-1.45-1.25-1.75-2.73-.91-4.42.58-.41 1.13-.61 1.66-.61q1.41-.015 2.94 1.29l2.93 2.76c.47.4.92.7 1.37.9 1.01.45 1.94.22 2.77-.69q.165-.15.3-.3c.33-.38.51-.88.55-1.49.03-.61-.06-1.27-.29-1.97-.49-1.49-1.14-2.58-1.96-3.29a6.7 6.7 0 0 0-2.97-1.48 8.35 8.35 0 0 0-3.45-.01c-1.18.23-2.24.65-3.16 1.25s-1.6 1.15-2.02 1.64-.74.89-.97 1.21c-.93 1.76-.8 3.54.38 5.33 1.05 1.57 2.63 2.76 4.72 3.55s3.87.91 5.33.35c.13-.15.2-.33.2-.53s-.07-.37-.23-.5m-1.66-10.43c.57.14 1.17.35 1.82.63s1.08.51 1.31.71c.22.19.46.49.71.89s.42.86.53 1.38.04.92-.2 1.19c-.2.23-.53.27-1 .14-.8-.18-1.98-.95-3.55-2.3-.56-.49-1.36-1.27-2.4-2.35.46-.55 1.39-.64 2.78-.29M70.34 307.93c-.26.08-.53.17-.81.26-.75 1.46-1.24 2.36-1.49 2.7q-.36.495-1.11 1.56c-.49.7-1.06 1.5-1.69 2.39s-1.31 1.82-2.02 2.8c-.72.98-1.55 2.14-2.5 3.47s-1.75 2.42-2.39 3.25l.16.16c.95.72 1.7.72 2.27-.02 2.1-2.74 4.13-5.54 6.08-8.4 3.34-4.95 4.76-7.62 4.24-8.01-.23-.19-.48-.24-.74-.16M92.67 324.61c1.03-1.54 2.03-3.15 3.02-4.82-.59-.35-1.14-.38-1.64-.08a2.7 2.7 0 0 0-.69.6c-.23.25-.47.58-.75.97q-.405.585-2.55 3.9-.84 1.26-1.59 2.4c-.5.76-.84 1.3-1.03 1.61a7 7 0 0 0-1.9-1.61c-1.72-1.01-3.63-1.41-5.74-1.2-.97.11-1.89.35-2.75.74-.86.38-1.55.84-2.07 1.37s-.9 1.01-1.16 1.44q-.39.66-.63 1.35c-.02 1.35.2 2.38.66 3.1q.675 1.065 1.62 1.62c1.57.93 4.04 1.14 7.4.63l-.51.86c-.8 1.36-.82 2.26-.07 2.7.32.19.6.24.84.14.24-.09.48-.34.71-.74.9-2.05 1.86-3.93 2.87-5.64s2-3.31 2.97-4.79c.96-1.5 1.96-3.01 2.99-4.55m-6.92 6.5-2.05 3.47c-.74.34-2.25.36-4.54.07-1.21-.15-2.14-.42-2.8-.81-.2-.07-.37-.15-.51-.23-.91-.54-.97-1.5-.16-2.87.23-.38.52-.71.88-1 .93-.74 2.1-1.18 3.5-1.32.66-.06 1.3-.06 1.91 0s1.14.16 1.58.3.75.26.93.37.33.21.43.29c.91.54 1.19 1.12.83 1.73M101.39 335.18c-.86-1.31-1.78-2.19-2.75-2.66-1.02-.49-2.11-.7-3.25-.64s-2.25.36-3.33.89c-1.08.54-1.99 1.22-2.72 2.04s-1.24 1.53-1.52 2.11-.48 1.06-.62 1.42q-.645 2.91 1.77 5.04c1.43 1.24 3.26 1.97 5.49 2.18s3.98-.14 5.24-1.06c.09-.18.1-.37.05-.56a.63.63 0 0 0-.36-.42c-3.67.04-6.24-.29-7.72-1-1.73-.83-2.41-2.17-2.04-4.03.45-.55.93-.89 1.45-1.02.91-.26 1.97-.1 3.18.47l3.55 1.89c.55.26 1.07.43 1.55.51 1.1.17 1.93-.3 2.49-1.4.08-.12.15-.24.21-.37.22-.46.26-.98.13-1.58-.12-.58-.39-1.19-.8-1.81m-1.07 2.25c-.13.27-.44.41-.93.4-.82.03-2.16-.39-4.03-1.28-.67-.32-1.65-.87-2.93-1.63.3-.64 1.18-.97 2.61-1 .58-.01 1.22.03 1.92.13s1.18.21 1.45.34.57.35.92.67c.34.32.63.72.87 1.19.24.45.28.85.12 1.18M108.09 340.41c1.31-.31 2.76-.16 4.37.44 1.29.48 2.35 1.17 3.19 2.07.34-.91.55-1.57.63-2q.12-.63-.51-.87c-.46-.3-.97-.56-1.51-.76-1.83-.69-3.77-.9-5.81-.65q-1.245.15-2.28.51c-.69.24-1.28.55-1.78.94-.5.38-.86.87-1.09 1.47-.22.6-.16 1.3.2 2.1.41.91 1.07 1.55 1.96 1.93 2.19.21 3.79.51 4.82.9s1.46.8 1.3 1.23c-.16.44-.81.83-1.93 1.19-1.67.54-3.65.79-5.92.76.02.05.04.16.07.33s.06.42.11.74.13.5.26.55c3.04.06 5.65-.4 7.82-1.38 1.46-.66 2.34-1.39 2.64-2.18q.6-1.59-2.28-2.67c-.99-.37-2.38-.68-4.16-.91l-1.99-.49c-.72-.27-.97-.67-.77-1.2.43-1.1 1.32-1.78 2.66-2.05M128.63 343.92a6.099 6.099 0 0 0-2.44-.59c-1.77-.03-3.57.49-5.4 1.57-.88.51-1.67 1.12-2.38 1.82s-1.26 1.39-1.64 2.06-.63 1.22-.76 1.66c-.12.44-.2.84-.22 1.21-.21.74-.04 1.41.51 2 .24.26.52.47.83.64.32.17.62.3.89.39s.62.19 1.04.31.91.19 1.46.22c2.39.08 4.58-.83 6.57-2.75-.04.64-.14 1.38-.28 2.22q-.09.54-.21 1.17c-.08.42-.16.9-.23 1.45l1.59.45c.04-.83.17-1.72.39-2.68s.55-2.31 1-4.06c.44-1.75.69-3.15.73-4.19.07-1.64-.41-2.61-1.45-2.9m-.37 3.99c-.23.82-.78 1.68-1.66 2.59-.64.68-1.36 1.27-2.18 1.78-1.91 1.14-3.67 1.51-5.3 1.09-1.16-.56-1.58-1.41-1.25-2.56.25-.87.88-1.77 1.91-2.67.7-.64 1.48-1.18 2.34-1.61 1.83-.95 3.4-1.25 4.71-.88.12.04.25.08.37.14 1.03.28 1.38.99 1.06 2.12M146.38 347.11c-.16-.03-.3-.05-.42-.05-.44-.1-.85-.19-1.26-.27q-5.385-1.005-9.66 1.83c0-.19.01-.5.05-.95s.03-.9-.01-1.37q-.06-.705-.3-1.29-.225-.585-.81-.69c-.64-.12-1 .06-1.09.54-.07.95-.18 2.44-.35 4.47-.08.93-.16 1.88-.23 2.84-.08.96-.15 1.85-.21 2.66-.07.81-.12 1.5-.17 2.06-.05.57-.08.91-.08 1.03.06.48.14.82.22 1 .09.18.22.29.38.32s.37.03.63-.01q.375-.06.96.03c.18-.95.26-1.91.25-2.87s.04-1.71.14-2.26.16-.88.19-1c.13-.67.39-1.28.8-1.82.92-1.18 2.38-2.02 4.36-2.51a7.4 7.4 0 0 1 3.28-.09c1.21.23 2.14.71 2.8 1.45.53-.02.89-.53 1.08-1.52.07-.4.04-.75-.11-1.07-.14-.28-.28-.43-.44-.46M161.97 348.68c-.17-.02-.31-.02-.42-.01-.44-.06-.87-.11-1.28-.15-3.63-.34-6.78.56-9.45 2.71-.02-.18-.03-.5-.04-.95 0-.45-.05-.9-.14-1.37q-.135-.69-.42-1.26c-.19-.37-.48-.58-.87-.61-.65-.06-1 .15-1.04.63.02.96.04 2.45.06 4.48l.03 2.85.03 2.67c.01.81.01 1.5.02 2.07 0 .57.01.91.01 1.04.1.48.21.8.32.97s.24.27.41.28c.17.02.37-.01.62-.06q.375-.09.96-.06c.09-.97.09-1.92-.01-2.88-.1-.95-.12-1.71-.07-2.26l.09-1.01q.09-1.02.63-1.89c.81-1.26 2.18-2.23 4.11-2.9a7.4 7.4 0 0 1 3.26-.39c1.22.11 2.2.51 2.92 1.19.53-.07.84-.61.94-1.62q.06-.6-.21-1.05c-.13-.27-.29-.4-.46-.42M175.39 349.77c-.69-.26-1.24-.4-1.65-.4h-.78c-2.12.24-3.94.93-5.45 2.08-1.9 1.45-2.85 3.37-2.86 5.75 0 2.08.45 3.57 1.35 4.46s2.24 1.34 4 1.34c2.46 0 4.51-.66 6.15-1.99 1.77-1.45 2.66-3.44 2.66-5.97.02-.16.03-.44.03-.83q0-.585-.33-1.44c-.56-1.43-1.6-2.44-3.12-3m-.41 10c-.65.44-1.4.76-2.24.94s-1.81.27-2.9.27c-1.1 0-1.88-.16-2.34-.49-.61-.44-.92-1.29-.92-2.55.43-2.69 1.36-4.52 2.77-5.51.65-.46 1.35-.78 2.08-.94q1.11-.24 2.19-.45c1.06 0 1.92.42 2.57 1.25.59.77.89 1.76.89 2.97 0 2.04-.7 3.54-2.1 4.51M180.59 342.06c-.3.02-.52.14-.66.37-.15.23-.29.47-.45.72.39 1.6.6 2.6.63 3.02.03.41.09 1.05.18 1.9.09.86.18 1.83.28 2.91.1 1.09.2 2.24.29 3.44.1 1.21.22 2.63.37 4.26s.25 2.97.31 4.02l.22.02c1.19-.07 1.76-.57 1.7-1.49-.2-3.45-.49-6.89-.87-10.33-.68-5.93-1.35-8.88-2-8.84M184.93 341.77c-.3.02-.52.15-.65.39-.14.23-.28.48-.43.73.43 1.59.67 2.59.71 3s.12 1.04.23 1.9c.11.85.23 1.82.35 2.91.13 1.08.26 2.23.38 3.44.13 1.21.29 2.62.48 4.25s.33 2.96.42 4.01l.23.01c1.19-.1 1.74-.61 1.67-1.54-.29-3.44-.66-6.88-1.13-10.31-.86-5.92-1.61-8.85-2.26-8.79M204.37 351.33c-.06-.39-.23-.85-.54-1.38-.76-1.34-1.93-2.18-3.52-2.53-.72-.16-1.28-.22-1.69-.16s-.66.09-.77.11c-2.07.54-3.76 1.49-5.09 2.84-1.67 1.71-2.34 3.74-2.01 6.1.29 2.06.95 3.47 1.97 4.22s2.4 1 4.15.75c2.43-.35 4.37-1.3 5.8-2.85 1.54-1.69 2.14-3.79 1.78-6.29 0-.14-.03-.42-.08-.81m-3.03 6.05c-.58.53-1.28.95-2.08 1.25s-1.75.52-2.84.68-1.88.11-2.39-.15c-.67-.35-1.09-1.15-1.27-2.39.04-2.72.7-4.67 1.96-5.85.58-.55 1.22-.96 1.93-1.22s1.41-.52 2.11-.76c1.05-.15 1.96.14 2.72.87.7.68 1.13 1.61 1.3 2.81.28 2.02-.2 3.61-1.44 4.76M226.77 346.47c-1.01.31-2.3.91-3.85 1.81l-1.88.83c-.73.22-1.18.06-1.34-.48-.31-1.13-.02-2.21.88-3.25.85-1.04 2.09-1.81 3.73-2.31 1.32-.4 2.58-.5 3.79-.3-.28-.93-.52-1.58-.72-1.97-.2-.38-.51-.51-.93-.38-.55.04-1.1.15-1.66.32-1.87.57-3.54 1.58-5 3.02-.6.59-1.1 1.18-1.5 1.79q-.6.915-.84 1.83t.03 1.83c.19.61.66 1.12 1.44 1.54.88.47 1.79.58 2.73.34 1.86-1.16 3.32-1.9 4.37-2.22s1.64-.26 1.78.18-.13 1.15-.81 2.12c-1 1.45-2.41 2.85-4.23 4.21.05.03.13.1.26.22.12.12.3.29.54.52.23.22.41.32.54.28 2.45-1.8 4.23-3.76 5.36-5.86.75-1.41 1.01-2.53.76-3.34-.35-1.09-1.5-1.33-3.45-.73M245.22 338.4c-.15-.37-.43-.77-.85-1.21-1.06-1.12-2.4-1.65-4.03-1.6-.74.02-1.3.1-1.67.25-.38.15-.62.25-.72.29-1.88 1.02-3.29 2.35-4.26 3.99-1.21 2.06-1.37 4.2-.47 6.41.78 1.93 1.76 3.13 2.93 3.62 1.17.48 2.58.39 4.21-.27 2.28-.92 3.92-2.31 4.94-4.16 1.09-2.01 1.16-4.19.21-6.53-.05-.16-.15-.43-.29-.79m-1.48 6.6c-.44.66-1.01 1.23-1.72 1.71s-1.57.93-2.59 1.35c-1.02.41-1.8.56-2.36.43-.74-.18-1.34-.85-1.81-2.01-.61-2.65-.45-4.7.49-6.15.43-.68.95-1.23 1.57-1.65.62-.43 1.24-.84 1.86-1.25q1.47-.6 2.85.18c.84.49 1.49 1.29 1.95 2.42.77 1.89.69 3.55-.24 4.97M263.67 334.33c-.21-.39-.6-.44-1.19-.13s-1.13.76-1.64 1.35-1.02 1.21-1.53 1.85c-.51.65-1.06 1.28-1.64 1.89-.58.62-1.35 1.18-2.32 1.68-.96.51-1.84.74-2.64.71-1.06-.06-1.89-.66-2.5-1.8q-.135-.195-.24-.39c-.59-1.13-.37-2.61.67-4.47.93-1.63 2.24-3.18 3.95-4.66.45-.23.81-.24 1.09-.03.28.22.57.51.87.88.07-.15.15-.32.24-.5.34-.71.4-1.27.18-1.7-.36-.68-.81-1.02-1.36-1.03-.24-.01-.49.03-.75.14-.26.1-.51.21-.74.32-.24.11-.53.26-.88.45s-.76.48-1.22.89c-1.34 1.12-2.43 2.58-3.24 4.38-.39.85-.68 1.7-.86 2.56s-.23 1.65-.16 2.38.19 1.25.36 1.58c.17.32.28.54.34.64.77 1.47 2.02 2.22 3.75 2.27.75.02 1.49-.08 2.23-.29s1.4-.46 1.98-.77c.58-.3 1.47-.97 2.67-1.99.58-.49 1.17-1.02 1.76-1.58s1.11-1.11 1.57-1.65.83-1.05 1.09-1.52c.27-.47.37-.81.31-1.02-.05-.2-.1-.35-.15-.44M258.66 320.99c.33-.03.63-.12.88-.27.25-.16.39-.36.41-.61s-.02-.47-.13-.65a2.8 2.8 0 0 0-.41-.51c-.4-.04-.81.07-1.24.33q-.975.6-.42 1.5c.27.17.57.23.91.21M262.11 322.94l-1.5.92 7.09 11.54c.13.11.31.15.54.11.23-.03.43-.11.61-.21.67-.41.88-.91.65-1.5-2.74-4.15-5.2-7.77-7.39-10.86M280.73 324.13c-.6-.78-1.43-1.9-2.5-3.36s-1.99-2.54-2.76-3.23c-1.21-1.1-2.27-1.34-3.15-.73-.31.14-.64.33-.98.57s-.69.55-1.03.94c-1.16 1.34-1.9 3.06-2.24 5.16-.17 1-.21 2-.12 2.99.09 1 .27 1.85.54 2.57s.54 1.27.8 1.64.52.69.79.95c.44.63 1.06.93 1.87.88.35-.02.69-.1 1.03-.23s.63-.28.87-.44.54-.36.9-.61.73-.58 1.1-.98c1.59-1.79 2.28-4.06 2.07-6.82.46.44.98.98 1.53 1.63.24.28.49.58.76.91s.59.69.97 1.1l1.35-.94c-.6-.55-1.21-1.22-1.8-2m-4.66 1.25c-.33 2.2-1.18 3.79-2.53 4.78-1.17.54-2.09.32-2.77-.66q-.78-1.125-.84-3.18c-.05-.95.04-1.89.25-2.83.44-2.02 1.21-3.42 2.33-4.19.11-.07.22-.14.34-.2q1.305-.9 2.31.54c.48.7.8 1.67.94 2.93.11.92.11 1.86-.03 2.81M278.99 314.16c-3.94-4.49-6.16-6.54-6.68-6.14-.24.18-.35.41-.34.68s.03.56.04.85c1.23 1.09 1.97 1.8 2.23 2.12q.39.48 1.23 1.47a335 335 0 0 1 4.08 4.91c.77.94 1.67 2.04 2.72 3.3s1.89 2.3 2.54 3.13l.2-.11c.94-.73 1.13-1.46.56-2.2a209 209 0 0 0-6.58-8.01" class="st1"/>
</svg>
