<svg xmlns="http://www.w3.org/2000/svg" xml:space="preserve" id="Capa_1" x="0" y="0" viewBox="0 0 395.95 418.23">
  <style>
    .st1{fill:#2b2b77}
  </style>
  <path d="m243.6 18.6 11.28 3.35 1.4-4.73-11.27-3.34 2.22-7.5 12.76 3.78 1.41-4.77L243.23 0l-8.68 29.27 5.42 1.61zM256.12 34.19c.59 1.91 1.97 3.36 4.13 4.33 1.42.64 2.75.97 3.98.99s2.38-.15 3.46-.5l-.68 2.03 4.77 2.15L281 22.7l-5.15-2.32-6.54 14.53c-.81.36-1.68.58-2.61.65s-1.84-.1-2.73-.5c-1.17-.53-1.91-1.23-2.21-2.11-.31-.88-.15-2.02.47-3.4l5.72-12.71-5.15-2.32-5.78 12.84c-1.19 2.63-1.49 4.91-.9 6.83M280.21 48.24l8.62-13.39c.85-.24 1.77-.31 2.75-.21s1.83.39 2.56.86c1.24.8 1.92 1.61 2.04 2.44.11.83-.24 1.88-1.06 3.15l-7.62 11.84 4.75 3.06 7.8-12.12c1.57-2.44 2.23-4.58 1.98-6.4q-.39-2.73-3.69-4.86a10 10 0 0 0-3.71-1.46c-1.33-.23-2.52-.28-3.57-.13l.98-1.91-4.4-2.83-12.16 18.9zM297.87 55.13c-.48 1.74-.42 3.33.15 4.78.58 1.44 1.53 2.74 2.86 3.89q1.575 1.365 3.15 1.89c1.05.34 2.18.48 3.39.4l-1.11 1.8 3.67 3.18 20.93-24.14-4.27-3.7-7.02 8.1c-.41-1.86-1.44-3.51-3.09-4.93a8.55 8.55 0 0 0-4.54-2.05c-1.72-.23-3.5.06-5.36.88-1.85.82-3.66 2.24-5.42 4.27-1.75 2-2.87 3.89-3.34 5.63m7.68-1.9c3.35-3.87 6.36-4.65 9.01-2.35 1.18 1.02 1.83 2.36 1.95 4.01l-6.71 7.74c-1.8.24-3.36-.21-4.69-1.36-1.18-1.02-1.8-2.16-1.85-3.42-.04-1.27.72-2.81 2.29-4.62M326.62 63.9c1.97 1.05 3.7 2.43 5.19 4.13 1.36 1.55 2.05 2.78 2.07 3.66.02.89-.49 1.79-1.54 2.71l-.46.41-3.86-4.41c-1.78-2.04-3.63-3.14-5.53-3.3-1.91-.17-3.7.48-5.36 1.94-1.17 1.02-1.92 2.11-2.26 3.28s-.36 2.33-.04 3.48c.31 1.15.89 2.2 1.71 3.15 1.14 1.3 2.25 2.24 3.34 2.81s2.18.89 3.29.96l-1.34 1.56 3.22 3.69 10.74-9.39c2.28-2 3.41-4.06 3.37-6.2-.04-2.13-1.04-4.32-3.01-6.57a22 22 0 0 0-3.15-2.99c-1.07-.82-2.07-1.44-2.98-1.86zm-.41 15.87q-1.35.12-2.79-.45c-.96-.38-1.86-1.04-2.68-1.99-1.58-1.81-1.62-3.36-.12-4.68 1.55-1.35 3.04-1.2 4.5.46l3.77 4.32zM330.67 91.51c-.6 2.67.1 5.48 2.08 8.42 1.47 2.17 3.1 3.78 4.91 4.82l3.93-2.65c-.82-.42-1.58-.96-2.29-1.61a12.4 12.4 0 0 1-1.88-2.19c-1.28-1.9-1.75-3.58-1.4-5.04s1.52-2.87 3.51-4.21c2.17-1.47 3.99-2.02 5.44-1.65s2.77 1.43 3.95 3.19c.59.88 1.06 1.76 1.39 2.65s.54 1.73.61 2.52l3.81-2.57c-.11-1.07-.36-2.08-.74-3.04s-.96-2.01-1.74-3.17c-1.89-2.8-4.2-4.5-6.93-5.09-2.73-.6-5.73.21-9.01 2.42-3.16 2.12-5.04 4.53-5.64 7.2M362.444 96.664l4.414-2.413 2.95 5.396-4.413 2.413zM354.88 101.34l-15.55 8.51 2.71 4.96 19.71-10.79-3.89-7.12-4.4 1.84zM381.3 120.13l-1.89-4.52-9.47.33 1.76 4.21zM362.64 133.51c3.44-1.44 5.77-3.36 6.97-5.75q1.815-3.585-.33-8.73c-1.42-3.4-3.41-5.51-5.96-6.33s-5.55-.51-8.99.92c-3.44 1.44-5.77 3.35-6.98 5.73s-1.1 5.28.33 8.71c1.44 3.45 3.44 5.58 5.98 6.39 2.55.81 5.54.5 8.98-.94m-10.13-11.64c.56-1.08 1.9-2.07 4.03-2.96s3.77-1.15 4.93-.79 2.09 1.36 2.78 3.01c.7 1.67.77 3.05.21 4.13s-1.9 2.07-4.03 2.96-3.77 1.15-4.94.79c-1.16-.36-2.09-1.38-2.79-3.05-.69-1.64-.75-3.01-.19-4.09M378.12 153.31c1.04-1.52 1.22-3.54.55-6.08a10 10 0 0 0-1.76-3.58c-.82-1.07-1.67-1.9-2.55-2.51l2.01-.75-1.34-5.06-21.72 5.75 1.45 5.46 15.4-4.07c.79.4 1.51.96 2.17 1.7.65.74 1.09 1.52 1.31 2.36.38 1.43.33 2.49-.14 3.18s-1.44 1.23-2.91 1.61l-13.61 3.6 1.44 5.46 13.93-3.69c2.81-.74 4.73-1.87 5.77-3.38M369.95 179.61c-.82-.64-1.3-1.79-1.43-3.45-.07-.92-.06-1.85.04-2.78s.29-1.78.58-2.55l-8.14.66c-.33 1.11-.54 2.25-.64 3.43a23 23 0 0 0 .01 3.71c.3 3.74 1.57 6.51 3.79 8.29 2.23 1.78 5.17 2.53 8.82 2.23l22.43-1.81-.7-8.66-20.86 1.68q-2.67.21-3.9-.75M395.95 195.78l-33.62-2.36-.61 8.66 16.81 1.18-11.4 4.01-.33 4.66 10.74 5.52-16.81-1.18-.61 8.66 33.62 2.36.58-8.38-16.55-8.53 17.59-6.17zM14.37 293.53c.92.92 1.89 1.68 2.93 2.27 1.03.59 2.11.97 3.22 1.13s2.2-.01 3.25-.5 1.62-1.43 1.69-2.81c.05-.61-.01-1.5-.18-2.65s-.59-2.46-1.27-3.92c-1.58-3.38-3-5.55-4.26-6.5-.69-.53-1.41-.83-2.17-.9s-1.63.02-2.58.28c-.96.26-2.06.64-3.31 1.15s-2.69 1.09-4.32 1.73L0 286.25l.55 1.34c.32.68.6.96.86.84l7.14-3.19c.85 1.83 1.95 3.63 3.3 5.42.76.99 1.61 1.95 2.52 2.87m-3.26-7.99c-.39-.84-.06-1.5 1-1.99.55-.26 1.42-.52 2.6-.79.37-.08.69-.17.95-.27.64-.23 1.33-.16 2.06.21.74.37 1.44.91 2.11 1.64s1.19 1.4 1.54 2.03c.36.63.64 1.18.87 1.65.22.48.41 1.05.56 1.71.56 2.2.22 3.76-1.01 4.69-1.37.64-2.85.42-4.43-.67-.69-.48-1.35-1.08-1.99-1.79s-1.23-1.43-1.76-2.18c-.54-.74-1-1.47-1.4-2.17-.39-.7-.66-1.2-.81-1.49zM24 314.71c1.77-1.1 3.08-2.07 3.95-2.9 1.37-1.3 1.74-2.49 1.11-3.56-.14-.37-.33-.76-.57-1.18a6.4 6.4 0 0 0-.99-1.27c-1.44-1.44-3.35-2.44-5.74-3.01-1.14-.28-2.28-.41-3.43-.39s-2.15.15-3 .4q-1.275.375-1.95.78c-.45.27-.84.54-1.15.83q-1.14.675-1.17 2.07-.015.6.18 1.2c.13.4.27.74.43 1.04.16.29.37.66.62 1.09s.6.88 1.04 1.35c1.92 1.98 4.47 2.97 7.66 2.96-.55.5-1.21 1.04-2 1.62-.34.25-.71.52-1.11.8q-.6.42-1.35 1.02l.96 1.64c.69-.66 1.51-1.29 2.46-1.91q1.395-.93 4.05-2.58m-5.11-2.87c-2.5-.57-4.25-1.68-5.27-3.32-.52-1.39-.19-2.43 1-3.12.9-.53 2.14-.76 3.72-.7 1.1.03 2.17.2 3.23.53 2.29.67 3.82 1.68 4.62 3.03.08.13.14.26.2.41.62 1.05.35 1.92-.82 2.61-.84.5-1.99.77-3.44.83q-1.62.075-3.24-.27M37.2 323.73c.82 1.15 1.21 2.3 1.16 3.44.46.41 1.17.27 2.11-.4.38-.27.63-.6.76-.98.12-.32.12-.56.01-.71a2.6 2.6 0 0 0-.31-.37c-.28-.43-.56-.84-.83-1.23-2.44-3.42-5.6-5.49-9.48-6.2.15-.16.41-.4.8-.75.39-.34.75-.72 1.09-1.15s.6-.86.78-1.31.14-.85-.12-1.22c-.44-.61-.88-.75-1.34-.43-.82.74-2.1 1.88-3.86 3.43-.81.71-1.63 1.43-2.46 2.17s-1.6 1.42-2.3 2.04-1.3 1.14-1.79 1.57-.79.7-.89.79c-.34.45-.54.79-.61 1.01q-.105.33.06.57c.11.16.29.32.52.5.24.17.5.44.78.79.91-.65 1.74-1.38 2.5-2.18s1.4-1.39 1.92-1.76.84-.6.95-.68c.64-.46 1.35-.75 2.12-.88 1.71-.25 3.59.22 5.63 1.4 1.1.61 2.03 1.46 2.8 2.54M49.07 335.08c-.31-.37-.71-.72-1.19-1.07-1.67-1.17-3.73-1.82-6.18-1.96-1.17-.08-2.32 0-3.45.21-1.13.22-2.09.53-2.89.92-.79.4-1.39.77-1.79 1.11q-.6.51-.99 1.02c-.67.58-.94 1.32-.79 2.24.06.4.19.78.39 1.15.19.37.39.69.6.95s.47.58.8.97c.33.38.75.77 1.26 1.15 2.24 1.62 4.92 2.14 8.06 1.58-.45.58-1.01 1.23-1.69 1.95l-.95.98c-.34.35-.73.76-1.15 1.24l1.23 1.44c.57-.77 1.26-1.54 2.09-2.31.82-.77 2.01-1.86 3.56-3.25s2.67-2.58 3.38-3.54c1.12-1.52 1.28-2.75.47-3.7-.2-.36-.46-.72-.77-1.08m-2.14 4.64c-.74.64-1.83 1.11-3.24 1.42-1.05.25-2.12.35-3.23.31-2.56-.13-4.48-.91-5.77-2.35-.75-1.27-.61-2.36.44-3.25.8-.68 1.98-1.13 3.54-1.34 1.08-.16 2.17-.18 3.27-.04 2.37.26 4.06.99 5.08 2.18.1.11.19.24.27.37q1.17 1.38-.36 2.7M67.01 367.03q-6.135-1.605-8.28-3.45c-1.67-1.44-2.02-3.14-1.05-5.09.66-.47 1.3-.71 1.92-.7 1.09-.01 2.22.48 3.39 1.49l3.37 3.18c.54.46 1.06.81 1.57 1.03 1.17.52 2.23.25 3.19-.8.12-.11.24-.23.34-.35.38-.44.59-1.01.63-1.72.04-.7-.07-1.46-.34-2.27-.56-1.71-1.31-2.98-2.26-3.79a7.7 7.7 0 0 0-3.42-1.7 9.7 9.7 0 0 0-3.98-.02c-1.36.27-2.58.75-3.65 1.45s-1.84 1.32-2.33 1.89c-.49.56-.86 1.03-1.11 1.39-1.07 2.03-.92 4.08.44 6.14 1.21 1.81 3.02 3.18 5.44 4.09 2.41.91 4.46 1.05 6.14.41.15-.18.23-.38.23-.61.03-.23-.06-.42-.24-.57m-1.91-12.02q.975.24 2.1.72c.74.32 1.25.59 1.51.81s.53.57.82 1.03c.28.46.49.99.61 1.59s.05 1.05-.23 1.37c-.23.26-.61.32-1.15.16-.92-.21-2.29-1.09-4.09-2.65-.65-.56-1.57-1.46-2.76-2.71.51-.62 1.58-.72 3.19-.32M81.05 354.79c-.3.09-.61.19-.94.3-.86 1.69-1.43 2.72-1.71 3.11s-.71.98-1.27 1.79c-.57.81-1.22 1.73-1.95 2.75s-1.51 2.1-2.33 3.23-1.78 2.46-2.88 4-2.01 2.78-2.75 3.75l.18.18c1.09.83 1.96.83 2.61-.02 2.42-3.16 4.76-6.39 7.01-9.68 3.85-5.7 5.48-8.78 4.89-9.23-.28-.22-.56-.27-.86-.18M106.77 374.01q1.77-2.67 3.48-5.55c-.68-.4-1.31-.43-1.88-.1-.27.16-.54.39-.8.69-.26.29-.55.66-.86 1.11-.32.45-1.3 1.95-2.94 4.49-.65.97-1.26 1.89-1.84 2.77s-.97 1.49-1.19 1.85a8.2 8.2 0 0 0-2.19-1.86c-1.98-1.17-4.18-1.63-6.61-1.38-1.12.12-2.18.41-3.17.85s-1.79.97-2.38 1.57c-.6.61-1.04 1.16-1.34 1.66s-.54 1.02-.73 1.56c-.02 1.56.23 2.74.76 3.57.52.82 1.15 1.44 1.87 1.87 1.81 1.07 4.65 1.31 8.53.73l-.58.99c-.92 1.56-.95 2.6-.08 3.11.37.22.69.27.97.16.27-.11.55-.39.82-.85 1.04-2.36 2.14-4.53 3.31-6.5q1.74-2.97 3.42-5.52c1.1-1.7 2.25-3.44 3.43-5.22m-7.97 7.48-2.36 4c-.85.39-2.6.42-5.24.08-1.39-.17-2.47-.48-3.22-.93a3.3 3.3 0 0 1-.59-.27c-1.05-.62-1.11-1.72-.18-3.31.26-.44.6-.82 1.01-1.15 1.07-.85 2.42-1.36 4.03-1.52.76-.07 1.49-.07 2.2 0s1.31.18 1.82.34c.5.16.86.3 1.07.43.21.12.38.24.49.33 1.06.64 1.38 1.3.97 2M116.82 386.19c-.99-1.5-2.05-2.53-3.17-3.06a7.65 7.65 0 0 0-3.74-.74c-1.32.07-2.6.41-3.84 1.03-1.25.62-2.29 1.4-3.14 2.35-.84.95-1.43 1.76-1.75 2.43s-.56 1.22-.71 1.63c-.5 2.24.18 4.18 2.04 5.81 1.65 1.43 3.75 2.27 6.32 2.51s4.58-.16 6.04-1.22c.1-.21.12-.43.06-.65a.77.77 0 0 0-.41-.49c-4.23.05-7.19-.34-8.9-1.15-1.99-.95-2.78-2.5-2.35-4.64.52-.63 1.07-1.02 1.67-1.18 1.05-.3 2.27-.12 3.66.55l4.09 2.18c.64.3 1.24.5 1.79.58 1.26.19 2.22-.35 2.87-1.61.09-.14.17-.28.24-.43.25-.53.3-1.13.16-1.82-.15-.66-.46-1.37-.93-2.08m-1.23 2.59c-.15.32-.51.47-1.07.46-.95.04-2.49-.45-4.64-1.48-.78-.37-1.9-1-3.38-1.88.35-.74 1.35-1.12 3.01-1.16.67-.01 1.41.03 2.21.15.8.11 1.36.24 1.67.39s.66.41 1.06.77c.39.37.73.82 1 1.37.27.54.32 1 .14 1.38M124.54 392.21c1.51-.35 3.18-.19 5.03.5 1.49.56 2.71 1.35 3.68 2.38.39-1.05.63-1.81.72-2.3s-.1-.82-.59-1c-.53-.35-1.11-.64-1.73-.87q-3.165-1.185-6.69-.75c-.96.11-1.83.31-2.62.58-.79.28-1.47.64-2.05 1.08s-1 1.01-1.25 1.69c-.26.69-.18 1.49.23 2.42.48 1.05 1.23 1.79 2.26 2.23 2.52.25 4.37.59 5.55 1.04 1.18.44 1.68.92 1.5 1.42-.19.5-.93.96-2.23 1.37-1.93.62-4.2.91-6.82.88.02.06.05.19.08.38.03.2.07.48.13.85s.15.58.3.63c3.5.07 6.5-.46 9.01-1.59 1.68-.76 2.69-1.6 3.04-2.52.46-1.22-.42-2.24-2.63-3.07-1.15-.43-2.74-.78-4.79-1.05l-2.3-.56c-.82-.31-1.12-.77-.89-1.38.49-1.26 1.52-2.04 3.06-2.36M148.2 396.26q-.525-.255-1.23-.45c-.46-.13-.99-.21-1.59-.23-2.04-.04-4.11.56-6.22 1.81-1.01.59-1.93 1.29-2.74 2.1q-1.23 1.215-1.89 2.37c-.44.77-.73 1.41-.87 1.91s-.23.97-.26 1.4c-.24.85-.04 1.62.59 2.31.27.29.59.54.96.74s.71.35 1.03.45q.48.15 1.2.36c.49.14 1.05.22 1.68.26 2.76.1 5.28-.96 7.57-3.17-.05.74-.16 1.59-.32 2.56-.07.42-.15.86-.24 1.35-.09.48-.18 1.04-.27 1.67l1.83.51c.04-.95.19-1.98.45-3.08.25-1.1.64-2.66 1.15-4.68s.79-3.63.84-4.82c.09-1.93-.47-3.04-1.67-3.37m-.42 4.59c-.26.94-.9 1.94-1.91 2.98-.73.79-1.57 1.47-2.51 2.05-2.2 1.32-4.23 1.74-6.1 1.26q-2.01-.96-1.44-2.94c.28-1.01 1.02-2.04 2.2-3.08.81-.74 1.71-1.36 2.69-1.86 2.11-1.1 3.92-1.44 5.43-1.01.14.04.29.09.42.16 1.18.33 1.59 1.14 1.22 2.44M168.65 399.93c-.19-.04-.35-.05-.48-.05-.5-.12-.99-.22-1.45-.31-4.13-.77-7.84-.07-11.13 2.11 0-.21.01-.58.06-1.09.04-.51.04-1.04-.01-1.58s-.17-1.04-.34-1.49c-.18-.45-.49-.71-.93-.8-.74-.14-1.16.07-1.26.62-.07 1.1-.21 2.81-.41 5.15q-.135 1.605-.27 3.27c-.09 1.11-.17 2.13-.25 3.06s-.14 1.73-.2 2.38-.09 1.05-.09 1.19c.07.56.16.94.26 1.15s.25.33.44.37.43.03.72-.01q.435-.06 1.11.03c.21-1.1.3-2.2.29-3.3s.04-1.97.16-2.6.19-1.01.22-1.15c.15-.78.45-1.48.92-2.1 1.06-1.36 2.74-2.33 5.03-2.9 1.22-.32 2.48-.35 3.78-.11 1.39.26 2.47.82 3.22 1.67.62-.03 1.03-.61 1.25-1.76.09-.46.04-.87-.13-1.23-.16-.31-.32-.49-.51-.52M186.62 401.75c-.19-.02-.35-.02-.48-.01-.51-.07-1-.13-1.47-.17q-6.27-.585-10.89 3.12c-.02-.21-.04-.58-.04-1.09a10 10 0 0 0-.16-1.58 5.3 5.3 0 0 0-.48-1.45c-.22-.43-.55-.67-1-.71-.75-.07-1.15.17-1.2.73.03 1.1.05 2.82.07 5.16l.03 3.28c.01 1.11.03 2.14.04 3.07.01.94.02 1.73.02 2.39s.01 1.05.02 1.19c.12.55.24.92.36 1.12s.28.31.47.32c.19.02.43-.01.72-.07.29-.07.65-.09 1.11-.07.1-1.11.1-2.22-.01-3.32s-.14-1.96-.08-2.6.1-1.03.11-1.16c.07-.79.31-1.51.72-2.18.93-1.46 2.51-2.57 4.74-3.34 1.18-.43 2.43-.58 3.76-.45 1.41.13 2.53.59 3.36 1.37q.915-.12 1.08-1.86c.04-.46-.04-.87-.24-1.21-.19-.31-.36-.47-.56-.48M202.08 402.99c-.79-.3-1.43-.46-1.9-.46h-.9c-2.45.28-4.54 1.08-6.28 2.4-2.19 1.67-3.29 3.88-3.29 6.63 0 2.4.51 4.11 1.55 5.13 1.04 1.03 2.58 1.54 4.61 1.54 2.83 0 5.19-.76 7.08-2.29 2.04-1.67 3.06-3.97 3.07-6.87q.03-.285.03-.96c0-.45-.13-1.01-.38-1.66-.64-1.65-1.84-2.8-3.59-3.46m-.47 11.53q-1.125.765-2.58 1.08c-.96.21-2.08.31-3.35.31s-2.17-.19-2.7-.56c-.71-.51-1.06-1.49-1.06-2.93.5-3.1 1.56-5.21 3.19-6.35a6.6 6.6 0 0 1 2.4-1.08c.85-.19 1.69-.36 2.53-.52 1.22 0 2.21.48 2.96 1.44.68.89 1.03 2.03 1.02 3.42.01 2.34-.8 4.07-2.41 5.19M208.08 394.11c-.34.02-.6.16-.76.43-.17.27-.34.54-.52.83.45 1.84.69 3 .73 3.47q.06.72.21 2.19c.1.99.21 2.1.32 3.36.11 1.25.23 2.58.34 3.97s.25 3.03.42 4.91.29 3.42.36 4.63l.26.02c1.37-.08 2.03-.65 1.96-1.72-.23-3.97-.56-7.94-1-11.91-.8-6.82-1.58-10.22-2.32-10.18M213.08 393.78q-.51.045-.75.45c-.16.27-.33.55-.49.85.5 1.83.77 2.98.82 3.45s.14 1.2.26 2.19c.12.98.26 2.1.41 3.35s.29 2.57.44 3.96.33 3.02.55 4.89q.33 2.805.48 4.62l.26.01q2.055-.165 1.92-1.77c-.33-3.97-.76-7.93-1.31-11.88-.99-6.81-1.85-10.18-2.59-10.12M235.47 404.8c-.06-.45-.27-.98-.62-1.59q-1.305-2.325-4.05-2.91c-.83-.19-1.48-.25-1.94-.18-.47.07-.76.11-.89.13-2.38.62-4.34 1.71-5.87 3.27-1.93 1.97-2.7 4.31-2.31 7.03.34 2.37 1.09 3.99 2.27 4.86 1.17.87 2.77 1.16 4.79.87 2.8-.4 5.03-1.49 6.68-3.28 1.78-1.95 2.46-4.36 2.05-7.24-.01-.19-.05-.51-.11-.96m-3.49 6.97q-1.005.915-2.4 1.44-1.395.51-3.27.78c-1.25.18-2.17.12-2.75-.17-.77-.41-1.26-1.33-1.47-2.75.05-3.13.8-5.38 2.25-6.74q1.005-.96 2.22-1.41c.81-.3 1.62-.6 2.43-.88 1.21-.17 2.25.16 3.13 1 .8.78 1.31 1.86 1.5 3.24.34 2.33-.21 4.16-1.64 5.49M261.28 399.2c-1.17.36-2.65 1.05-4.44 2.09l-2.16.95c-.84.26-1.36.07-1.55-.55-.35-1.3-.02-2.55 1.01-3.74.98-1.2 2.41-2.09 4.3-2.67 1.52-.46 2.97-.58 4.37-.35-.33-1.07-.6-1.82-.83-2.27-.23-.44-.58-.59-1.08-.44-.64.05-1.27.17-1.91.36q-3.225.99-5.76 3.48c-.69.67-1.27 1.36-1.72 2.06-.46.7-.78 1.4-.97 2.1s-.18 1.41.04 2.11c.21.7.77 1.29 1.65 1.78q1.53.81 3.15.39c2.15-1.34 3.83-2.19 5.04-2.56s1.89-.3 2.05.21-.16 1.33-.94 2.44c-1.15 1.67-2.78 3.28-4.87 4.85.05.03.15.12.3.26.14.14.35.34.62.6s.48.37.62.32q4.23-3.12 6.18-6.75c.87-1.63 1.16-2.91.88-3.85-.41-1.24-1.73-1.51-3.98-.82M282.53 389.9c-.17-.42-.5-.88-.98-1.39-1.22-1.29-2.76-1.9-4.64-1.85-.85.02-1.49.12-1.93.29-.44.18-.72.29-.83.34-2.16 1.18-3.8 2.71-4.91 4.59q-2.1 3.57-.54 7.38c.9 2.22 2.03 3.61 3.38 4.17s2.97.45 4.86-.31c2.62-1.07 4.52-2.66 5.69-4.8 1.26-2.32 1.34-4.83.24-7.52-.06-.18-.17-.48-.34-.9m-1.7 7.6c-.5.76-1.16 1.41-1.98 1.97s-1.81 1.07-2.98 1.55-2.08.64-2.71.5c-.85-.21-1.54-.98-2.09-2.32-.71-3.05-.52-5.42.56-7.09.49-.78 1.1-1.41 1.81-1.9s1.43-.97 2.14-1.44c1.13-.46 2.23-.39 3.28.21.97.56 1.72 1.49 2.24 2.78.89 2.19.8 4.1-.27 5.74M303.8 385.21c-.24-.45-.7-.5-1.37-.15s-1.3.87-1.89 1.55-1.18 1.39-1.77 2.14c-.59.74-1.22 1.47-1.89 2.18s-1.56 1.36-2.67 1.94c-1.11.59-2.12.86-3.04.82-1.22-.06-2.18-.76-2.88-2.07q-.165-.225-.27-.45c-.68-1.3-.43-3.01.78-5.15 1.07-1.88 2.59-3.67 4.55-5.36q.765-.405 1.26-.03c.33.25.66.59 1.01 1.01.08-.17.17-.37.28-.58.39-.81.46-1.47.2-1.96-.41-.78-.94-1.18-1.57-1.18-.27-.01-.56.04-.86.16s-.59.24-.86.37-.61.3-1.02.52q-.615.33-1.41 1.02c-1.55 1.29-2.79 2.98-3.74 5.05-.45.98-.78 1.96-.99 2.95-.2.99-.27 1.91-.19 2.75s.22 1.44.41 1.82c.2.37.33.62.39.74.89 1.69 2.33 2.56 4.33 2.61.86.02 1.72-.09 2.57-.33.86-.24 1.61-.54 2.28-.89.66-.35 1.69-1.12 3.08-2.3.67-.56 1.35-1.17 2.02-1.82.68-.65 1.28-1.28 1.81-1.9s.95-1.21 1.26-1.75.43-.94.36-1.18c-.06-.26-.12-.43-.17-.53M298.02 369.84c.38-.03.72-.14 1.01-.32s.45-.41.48-.7c.02-.29-.03-.54-.16-.75s-.29-.4-.48-.59c-.46-.05-.93.08-1.43.38-.75.46-.91 1.04-.48 1.73.32.2.67.28 1.06.25M302 372.08l-1.73 1.06 8.17 13.3c.15.13.36.17.63.13.26-.04.5-.12.7-.25.77-.47 1.02-1.05.75-1.73q-4.74-7.155-8.52-12.51M323.45 373.46c-.69-.9-1.65-2.19-2.87-3.87q-1.845-2.52-3.18-3.72-2.1-1.905-3.63-.84c-.36.16-.73.38-1.13.66-.4.27-.79.63-1.19 1.08q-1.995 2.325-2.58 5.94c-.19 1.15-.24 2.3-.14 3.45s.31 2.14.62 2.97.62 1.46.92 1.89.6.79.91 1.09c.5.73 1.22 1.07 2.15 1.02.4-.02.8-.11 1.18-.27.39-.15.72-.32 1-.5s.63-.41 1.04-.7.84-.66 1.27-1.13c1.83-2.06 2.63-4.68 2.39-7.85.53.51 1.12 1.13 1.77 1.88.27.32.57.67.88 1.05s.68.8 1.11 1.27l1.56-1.08c-.7-.67-1.4-1.44-2.08-2.34m-5.37 1.44c-.39 2.53-1.36 4.37-2.92 5.5-1.34.62-2.41.36-3.19-.77-.6-.86-.92-2.08-.97-3.66-.05-1.1.04-2.18.29-3.26.5-2.33 1.4-3.94 2.68-4.83.12-.09.25-.16.39-.23 1.01-.7 1.89-.49 2.66.62.56.8.92 1.93 1.08 3.37.15 1.08.14 2.16-.02 3.26M321.44 361.97c-4.53-5.17-7.1-7.53-7.69-7.07-.27.21-.4.47-.39.79.01.31.03.64.05.98 1.41 1.26 2.27 2.08 2.57 2.45s.77.93 1.41 1.69 1.36 1.62 2.17 2.58c.8.97 1.65 1.99 2.53 3.08.88 1.08 1.93 2.35 3.13 3.8s2.18 2.65 2.93 3.61l.22-.13c1.08-.84 1.3-1.69.64-2.53-2.43-3.16-4.95-6.23-7.57-9.25M205.86 188.05c.31-.42.63-.77.93-1.03.31-.25.6-.41.86-.51.26-.08.52-.11.83-.08.31.04.65.16 1 .34.71.37 1.39.97 1.99 1.56.6.61 1.12 1.23 1.58 1.8s.86 1.08 1.21 1.49c.69.83 1.19 1.27 1.51 1.14.3-.12.39-.8.2-1.92-.1-.56-.27-1.24-.55-2.01s-.66-1.64-1.22-2.56c-.57-.92-1.31-1.92-2.47-2.82-.59-.44-1.3-.86-2.16-1.12a6.2 6.2 0 0 0-2.85-.16c-.98.19-1.88.61-2.64 1.14s-1.39 1.17-1.93 1.84c-1.08 1.35-1.82 2.84-2.39 4.38-1.12 3.09-1.47 6.08-1.54 8.76-.06 2.69.2 5.07.57 7.03.76 3.93 1.9 6.15 2.53 6.03.67-.13.74-2.55.87-6.29.08-1.87.17-4.07.46-6.46.29-2.38.75-4.97 1.64-7.4.41-1.21.95-2.31 1.57-3.15M255.39 318.17c1.51-2.2 2.73-4.33 3.73-6.31 1.99-3.98 3.18-7.35 3.8-9.74s.69-3.8.27-3.97c-.44-.18-1.33.9-2.66 2.9s-3.13 4.94-5.5 8.37a73 73 0 0 1-4.09 5.37c-1.54 1.83-3.28 3.68-5.27 5.31-.25.2-.5.41-.75.61l-.78.57c-.51.4-1.07.71-1.61 1.08-1.12.64-2.27 1.23-3.47 1.64-1.21.4-2.45.69-3.72.78-1.27.07-2.57 0-3.89-.27-2.63-.56-5.17-1.78-7.49-3.31a33 33 0 0 1-6.08-5.29 45.4 45.4 0 0 1-4.56-5.98c-1.3-2.01-2.4-3.98-3.33-5.83-1.87-3.7-3.15-6.87-4.11-9.05-.95-2.19-1.58-3.41-2.04-3.34s-.7 1.49-.51 3.97c.2 2.48.83 6.03 2.26 10.27.72 2.12 1.66 4.4 2.89 6.78 1.22 2.37 2.75 4.83 4.68 7.22 1.91 2.4 4.28 4.7 7.06 6.7 2.77 1.95 6.07 3.66 9.87 4.47 1.9.38 3.86.49 5.78.35 1.92-.16 3.75-.63 5.46-1.26 1.71-.64 3.24-1.5 4.66-2.41.68-.49 1.38-.95 1.99-1.47.31-.26.63-.51.93-.76.29-.27.58-.53.87-.8 2.29-2.15 4.1-4.41 5.61-6.6M55.27 287.55c.29.36.57.72.85 1.07 1.12 1.4 2.16 2.69 3.19 3.83 1.01 1.15 1.93 2.2 2.82 3.1.87.91 1.66 1.7 2.36 2.37.71.66 1.33 1.2 1.85 1.62 1.04.84 1.67 1.2 1.86 1.04.19-.17-.07-.85-.74-2-.33-.57-.77-1.26-1.3-2.05-.52-.81-1.11-1.73-1.8-2.76-.7-1.02-1.44-2.18-2.26-3.43-.84-1.24-1.7-2.62-2.63-4.1-.23-.37-.47-.74-.72-1.12-.23-.39-.47-.78-.71-1.18-.48-.8-.98-1.61-1.5-2.46-.51-.85-1-1.73-1.53-2.63-.26-.45-.53-.91-.79-1.37-.26-.47-.52-.94-.78-1.42-2.14-3.82-4.3-8.09-6.42-12.76s-4.19-9.74-6.06-15.18c-3.76-10.87-6.73-23.22-8.13-36.4-1.43-13.18-1.14-25.88.22-37.3 1.35-11.43 3.69-21.6 6.2-29.98 2.5-8.39 5.08-15.03 6.88-19.63s2.76-7.21 2.31-7.47c-.42-.24-2.23 1.91-4.86 6.21-2.62 4.29-6 10.79-9.23 19.23s-6.2 18.87-7.98 30.74a152.6 152.6 0 0 0-.81 38.98c1.47 13.81 4.79 26.71 9.07 37.92 2.13 5.61 4.5 10.8 6.94 15.54 2.45 4.73 4.95 9.01 7.45 12.78.31.47.61.94.91 1.4.31.45.62.9.93 1.34.62.88 1.2 1.75 1.8 2.57.61.81 1.2 1.61 1.77 2.37.28.38.56.76.84 1.13M349.43 182.17l-.12-2.38c-.06-.8-.15-1.6-.23-2.42-.17-1.63-.33-3.29-.51-4.97-.92-6.71-2.1-13.9-4.18-21.25-3.89-14.77-10.64-30.4-20.24-45.24-9.74-14.74-21.34-27.2-33.31-36.69-5.91-4.85-12.01-8.82-17.79-12.36q-2.22-1.245-4.35-2.46c-.71-.4-1.41-.81-2.12-1.18-.72-.36-1.43-.71-2.13-1.06-1.41-.7-2.79-1.38-4.14-2.05-.67-.35-1.36-.63-2.03-.92-.68-.29-1.34-.58-2.01-.87-1.32-.57-2.61-1.12-3.87-1.66-1.28-.49-2.53-.94-3.75-1.39q-1.83-.66-3.54-1.29c-1.15-.41-2.29-.72-3.38-1.06-1.09-.33-2.14-.64-3.16-.95-.51-.15-1-.3-1.49-.44-.49-.15-.98-.24-1.45-.36q-2.85-.675-5.19-1.2c-1.55-.38-2.97-.57-4.19-.76-1.22-.18-2.25-.32-3.09-.4-1.68-.17-2.58-.15-2.63.07-.05.23.76.65 2.33 1.24.79.3 1.76.64 2.92 1.02 1.15.38 2.5.77 3.97 1.34 1.48.53 3.13 1.11 4.94 1.74.45.16.92.3 1.38.49.46.18.94.37 1.42.56.96.38 1.97.77 3 1.18 1.03.42 2.12.8 3.21 1.27 1.09.48 2.21.98 3.36 1.49s2.34 1.02 3.55 1.57c1.19.59 2.41 1.2 3.66 1.82.63.31 1.26.62 1.9.94s1.29.62 1.93.99c1.28.71 2.58 1.43 3.91 2.17.67.37 1.34.74 2.02 1.11.67.39 1.33.82 2 1.23 1.35.83 2.72 1.67 4.11 2.53 5.46 3.62 11.22 7.6 16.8 12.4 11.31 9.39 22.28 21.45 31.63 35.59 9.2 14.23 15.84 29.13 19.9 43.25 2.16 7.03 3.49 13.91 4.62 20.36.23 1.62.45 3.22.67 4.78.11.78.23 1.56.32 2.33l.21 2.3c.14 1.52.28 3 .42 4.46.09.73.1 1.45.14 2.16.03.71.07 1.42.1 2.12.07 1.4.13 2.76.2 4.09.02 1.33.01 2.62.01 3.88.01 1.26.01 2.49.02 3.68 0 1.19-.09 2.34-.12 3.45-.04 1.11-.08 2.19-.12 3.22-.02.52-.04 1.03-.05 1.52-.02.5-.07.98-.11 1.46-.16 1.9-.29 3.65-.39 5.22-.07 1.58-.26 2.96-.37 4.18-.12 1.21-.2 2.24-.24 3.08-.09 1.68-.02 2.58.2 2.63.23.05.6-.77 1.12-2.38.26-.8.55-1.81.87-3s.71-2.56.99-4.14c.31-1.57.63-3.32.98-5.24.08-.48.19-.97.25-1.47s.13-1.02.19-1.54c.13-1.05.26-2.14.4-3.27.12-1.13.3-2.3.39-3.52.08-1.22.16-2.47.24-3.76s.17-2.62.23-3.99l.03-4.21c0-.72.01-1.45.01-2.18 0-.74.02-1.48-.03-2.23-.07-1.52-.15-3.06-.22-4.63" class="st1"/>
  <path d="M339 253.94c-.47-1.56-1.17-3.29-2.51-4.95-.67-.82-1.51-1.62-2.53-2.28a10.05 10.05 0 0 0-4.3-1.53c1.71-3.82 3.24-8.09 4.15-12.79.64-3.35.81-5.91.81-8.15-.03-2.25-.23-4.18-.82-6.37-.31-1.09-.73-2.25-1.42-3.5-.7-1.24-1.67-2.61-3.31-3.82-.81-.6-1.8-1.13-2.96-1.49s-2.49-.49-3.86-.33l-.36.06.03-.1c.3-1.25.61-2.51.92-3.8.17-.64.27-1.3.4-1.95.12-.66.25-1.32.37-1.99s.26-1.33.35-2.01.17-1.37.26-2.06c.17-1.38.37-2.76.46-4.21.1-1.44.14-2.9.13-4.37-.05-5.89-.98-12.07-3.48-18.04-1.48-3.46-3.26-6.35-5.55-8.65-1.15-1.14-2.45-2.15-4.04-2.85-.79-.35-1.67-.61-2.6-.71a7.594 7.594 0 0 0-5.33 1.39c-.7.5-1.27 1.07-1.75 1.64-.94 1.15-1.55 2.32-2.02 3.44-.46 1.12-.79 2.25-1.05 3.33-.24.92-.49 1.84-.74 2.8-1.1 3.81-2.53 8.02-4.8 13.63a230 230 0 0 1-5.6 12.57c-.91-3.46-2.28-6.77-4.09-9.83-.01-1.58.14-3.22.28-4.75.77-7.17 2.23-14.26 3.79-21.33 2.48-10.84 1.63-21.99-8.53-27.91.14-.11.28-.21.42-.33.99-.86 2.08-1.91 3.02-3.83.22-.49.44-1.02.59-1.65.15-.62.27-1.32.24-2.14-.03-.8-.19-1.75-.75-2.73l.11-.08.33-.26.31-.3c.21-.2.42-.41.63-.62.38-.46.82-.93 1.13-1.43.69-.98 1.32-2.11 1.72-3.45.47-1.55.51-2.95.09-4.24-.03-.08-.05-.16-.08-.24l-.12-.24c-.08-.16-.16-.31-.24-.46-.1-.15-.22-.3-.33-.44-.12-.14-.23-.28-.38-.39-.14-.12-.28-.23-.43-.34s-.32-.18-.48-.26c-.33-.18-.7-.25-1.08-.33-.19-.04-.37-.03-.56-.04-.18 0-.39-.01-.56.02l-.54.09c-.07.02-.15.03-.23.05l-.12.03c.03-.06.07-.11.1-.17.34-.68.68-1.4.85-2.23.18-.83.24-1.75.05-2.69-.22-1.1-.74-2.02-1.37-2.69a5.2 5.2 0 0 0-2.09-1.36c-.73-.26-1.47-.33-2.17-.26-.36.02-.69.12-1.04.2-.16.06-.33.12-.49.18-.12.05-.23.1-.35.14-.54.23-1.14.47-1.85.73.36-.67.7-1.39.96-2.21.2-.71.39-1.47.39-2.33.02-.85-.11-1.8-.53-2.72a5.4 5.4 0 0 0-2.05-2.33c-.9-.56-1.95-.84-2.97-.86-1.2-.02-2.2.29-3.02.68-.41.2-.77.44-1.1.68-.16.13-.31.26-.46.38-.1.09-.2.17-.3.26-.72.64-1.4 1.13-2.15 1.68-.77.54-1.63 1.13-2.84 1.9a84 84 0 0 1-2.87 1.76 9 9 0 0 0-.76-1.99c-.42-.77-1-1.59-1.94-2.21-.22-.16-.49-.29-.75-.41-.26-.1-.53-.19-.8-.27-.27-.09-.56-.1-.84-.15-.29-.05-.57-.03-.86-.01-1.14.08-2.23.49-3.09 1.08s-1.62 1.3-2.2 2.09c-.32.39-.56.81-.83 1.23-.24.42-.46.86-.67 1.3-.89 2.08-1.18 3.68-1.4 5.05-.04.34-.07.67-.11.99-.02.16-.03.32-.05.48-.02.12-.03.25-.05.37l-.09.72c-.04.24-.11.47-.16.72-.24.97-.58 2.03-1.33 3.33a14.3 14.3 0 0 1-1.92 2.59c-.23-.34-.46-.66-.68-.97-3.92-5.39-7.99-8.02-11.78-7.61-3.22.35-5.83 2.74-7.74 7.1-3.99 9.1-9.77 15.63-14.53 19.88-.15-.03-.3-.07-.45-.1-.72-.15-1.46-.29-2.23-.39.15-.83.25-1.55.34-2.23.2-1.67.35-3.14.34-5.75-.02-1.28-.13-2.53-.32-3.72.33-.11.67-.23 1.02-.38a16.7 16.7 0 0 0 3.33-1.87c2.22-1.59 4.28-3.96 5.76-6.88.18-.37.37-.73.53-1.12.16-.38.32-.77.48-1.16.28-.79.57-1.6.79-2.43.46-1.66.81-3.4 1-5.19.13-.89.16-1.8.23-2.71.02-.91.07-1.84.05-2.77-.01-1.86-.16-3.77-.4-5.7-.51-3.5-1.24-6.05-2.05-8.19-.19-.54-.43-1.04-.64-1.54-.22-.5-.47-.97-.7-1.44-.25-.47-.52-.92-.78-1.39-.3-.45-.58-.91-.91-1.37-.67-.91-1.43-1.85-2.44-2.79-1.01-.93-2.25-1.88-3.92-2.66-.41-.2-.87-.35-1.33-.53-.24-.07-.49-.14-.74-.21-.13-.03-.25-.07-.38-.1-.13-.02-.26-.05-.4-.07-1.06-.22-2.26-.28-3.53-.11-1.27.16-2.61.57-3.88 1.29-.39.22-.78.47-1.15.75v-.01c-.1-.17-.19-.33-.29-.5-.76-1.32-1.42-2.66-1.99-3.97-1.15-2.6-2.02-5-2.73-6.98-1.41-3.98-2.26-6.33-2.76-6.23-.46.09-.52 2.61.16 6.9.35 2.14.9 4.73 1.83 7.64a36 36 0 0 0 2.08 5.18c.11.2.22.4.32.6.11.2.22.4.33.61.13.2.25.4.38.61.24.41.55.81.85 1.22.14.21.33.41.5.61l.27.3.07.08c.02.02 0 0-.01 0l-.03-.03.02.03c.05.07.14.12.14.22 0 .09-.03.18-.06.27-.02.04-.04.08-.05.12l-.08.2-.1.23c-.14.31-.3.63-.47.95-.7 1.29-1.57 2.62-2.53 3.89-.97 1.27-2.04 2.51-3.21 3.59-.58.54-1.19 1.02-1.79 1.41-.59.38-1.2.64-1.58.69-.19.03-.28.01-.34-.01a.6.6 0 0 1-.2-.11c-.05-.04-.08-.07-.16-.16-.1-.12-.2-.25-.3-.37-.2-.23-.38-.5-.56-.74-.71-1.01-1.26-2.01-1.76-2.96-.92-1.83-1.61-3.48-2.3-5.32 1.6-.23 2.76-.64 3.12-1.3 1.54-2.86-1.9-2.71-1.05-3.63 1.58-1.7 2.07-5.68-1.59-3.49-.83.5-1.81.94-2.88 1.34-.04-.12-.08-.24-.11-.37-.47-1.51-.97-3.23-1.53-5.22-.51-1.84-1.07-3.95-1.63-6.29.45-1.51.64-3.11.55-4.65-.11-1.95-.69-3.78-1.48-5.32-.8-1.55-1.8-2.87-2.87-3.95a21 21 0 0 0-3.29-2.76c-2.22-1.53-4.41-2.51-6.37-3.19-1.97-.67-3.71-1.04-5.15-1.2-2.89-.32-4.49.07-4.51.46-.03.45 1.45.88 3.93 1.87 1.24.49 2.72 1.15 4.35 2.03 1.62.89 3.41 2.01 5.09 3.49.86.72 1.66 1.56 2.39 2.47.74.9 1.36 1.91 1.8 2.98.89 2.13.97 4.45-.11 6.79-.54 1.17-1.3 2.33-2.25 3.45-.24.28-.51.55-.77.82l-.39.42-.43.4-.86.8c-.3.26-.62.51-.93.77a43.5 43.5 0 0 1-8.62 5.4 48.6 48.6 0 0 1-9.69 3.33c-3.25.76-6.48 1.14-9.58 1.31-6.21.33-11.88-.27-16.58-1.1-4.71-.83-8.47-1.9-11.06-2.67s-4.04-1.27-4.28-.9c-.23.34.85 1.58 3.28 3.09 1.71 1.06 4.09 2.27 7.06 3.39-.08.13-.16.26-.24.38-.5.79-.99 1.47-1.44 2.08-.91 1.22-1.7 2.16-2.48 3.01s-1.54 1.62-2.46 2.45c-.91.83-1.98 1.71-3.42 2.72-.61.44-1.25.83-1.86 1.23-.64.36-1.24.76-1.87 1.07-.31.17-.62.33-.93.5l-.93.45-.46.22c-.16.07-.31.13-.46.2-.31.13-.61.27-.91.4-2.42 1.01-4.71 1.67-6.7 2.15-3.97.96-6.66 1.31-6.73 2.17-.03.4.61.82 1.84 1.22.61.21 1.38.34 2.27.49.45.08.93.11 1.44.15.51.03 1.06.09 1.63.07 1.23.01 2.6-.08 4.06-.29.22.61.43 1.2.61 1.76.39 1.14.72 2.16 1 3.1.29.93.54 1.78.76 2.57.23.79.42 1.53.61 2.25.2.72.36 1.41.53 2.12s.35 1.43.5 2.21c.16.77.35 1.6.5 2.51.16.91.35 1.9.5 3.01l.21 1.42c.05.47.11.94.16 1.4s.11.92.16 1.38c.03.46.07.91.1 1.35.04.45.07.89.1 1.33.01.44.03.87.04 1.29.02.42.03.83.05 1.24.01.1.01.21-.02.31-.04.2-.16.4-.33.55-.04.03-.09.07-.14.1-.02.02-.05.02-.08.04 0 .01-.07.02-.1.04l-.13.04c-.34.11-.69.21-1.03.31-1.36.38-2.65.64-3.84.81-4.77.71-7.86-.14-8.2.66-.08.18.04.44.34.75.3.33.81.68 1.51 1.06 1.4.74 3.64 1.46 6.49 1.62 1.42.09 2.99.03 4.65-.2.41-.06.84-.12 1.26-.21.12-.02.19-.03.34-.07.16-.04.31-.08.47-.13.31-.1.62-.23.92-.38a6.16 6.16 0 0 0 2.8-2.98c.29-.66.47-1.38.51-2.12.02-.48.03-.96.05-1.45.01-.48.02-.97.04-1.46-.01-.49-.03-.98-.05-1.48l-.06-1.5c-.04-.5-.09-1.01-.13-1.51l-.15-1.53c-.07-.51-.14-1.02-.22-1.54-.16-1.21-.35-2.24-.5-3.16-.14-.93-.31-1.73-.44-2.49-.26-1.51-.53-2.76-.81-4.17l-.52-2.27c-.21-.82-.43-1.73-.73-2.77-.29-1.04-.64-2.2-1.07-3.54-.2-.59-.41-1.22-.64-1.89 2.31-.87 4.67-2.07 6.89-3.64 1.69-1.18 2.87-2.13 3.87-2.97 1.01-.83 1.82-1.57 2.71-2.42a37 37 0 0 0 5.94-7.5c.11-.19.23-.39.34-.59 4.46 1.14 9.73 1.96 15.58 1.94 3.41-.02 7.02-.32 10.7-1.08s7.43-1.96 11.06-3.67c.9-.44 1.79-.9 2.66-1.37.85-.51 1.72-.98 2.53-1.52.41-.27.81-.54 1.22-.81l.6-.41.58-.44c.77-.58 1.54-1.15 2.26-1.79.36-.32.73-.62 1.09-.94.35-.34.69-.68 1.03-1.01l.51-.51.48-.55c.14-.17.29-.33.43-.49l.03.12a170 170 0 0 0 1.92 6.44c-2.47.55-5.09.98-7.57 1.33-3.74.54-1.91 2.8 3.48 3.77 1.85.33 4.01.57 6.1.66.06.15.11.3.17.45.88 2.24 1.74 4.34 2.98 6.72.62 1.19 1.32 2.44 2.28 3.8.26.34.49.69.79 1.04.15.18.3.35.45.53a8 8 0 0 0 .72.71c.56.48 1.3.9 2.12 1.13s1.67.25 2.42.14c1.54-.24 2.64-.85 3.6-1.45.95-.62 1.75-1.29 2.49-1.99 1.46-1.39 2.67-2.85 3.74-4.35s2.01-3.03 2.81-4.67c.2-.41.39-.83.56-1.27l.13-.34.14-.38c.12-.37.23-.73.31-1.1.16-.73.19-1.46.02-2.14-.04-.17-.1-.34-.18-.5-.07-.16-.15-.3-.27-.43-.03-.03-.06-.06-.08-.09l.12-.09c.29-.2.59-.33.88-.48.31-.1.59-.23.89-.28.15-.04.29-.08.44-.09.15-.02.29-.05.44-.06.29 0 .58-.03.86.01.56.02 1.1.17 1.62.31 1.02.34 1.92.85 2.71 1.44.78.6 1.45 1.27 2.06 1.97 1.18 1.44 2.11 3.01 2.94 4.95.81 1.95 1.48 4.3 1.94 7.4.22 1.72.37 3.43.4 5.13.03.85.01 1.68.01 2.51-.05.82-.05 1.64-.14 2.43-.12 1.59-.37 3.12-.7 4.56-.15.73-.37 1.41-.57 2.1-.12.33-.23.66-.35.99-.11.33-.26.63-.38.95-1.06 2.48-2.54 4.49-4.18 5.97-.82.74-1.67 1.35-2.51 1.85-.11.07-.23.13-.34.19-.53-1.78-1.24-3.32-2-4.53-.39-.64-.82-1.18-1.21-1.64-.41-.45-.79-.8-1.14-1.07-.72-.51-1.27-.66-1.62-.44-.71.47-.34 2.19.07 4.7.45 2.5.89 5.84.93 9.65 0 2.22-.21 3.26-.47 4.56-.13.65-.29 1.38-.51 2.35-.07.32-.15.67-.24 1.04l-.36.06c-1.1.23-2.22.57-3.32 1.09-1.09.52-2.15 1.22-3.08 2.07s-1.74 1.84-2.39 2.91c-1.31 2.15-2.01 4.52-2.36 6.88-.08.59-.15 1.18-.2 1.77-.02.3-.04.59-.05.89l-.02.43-.02.25c-.05.67-.27 1.31-.6 1.9s-.81 1.1-1.36 1.51c-.29.19-.58.38-.9.5-.15.08-.33.12-.49.18l-.25.06-.13.04-.19.04c-3.3.7-6.03 1.05-8.39 1.18 6.58-5.67 8.25-12.68 8.33-18.12.1-6.49-2-11.86-2.6-13.27.65-.99 1.14-1.88 1.47-2.63.61-1.42.8-2.27.51-2.45-.63-.41-2.74 2.14-6.56 5.44-1.95 1.61-4.35 3.37-7.24 4.91-.7.42-1.48.73-2.25 1.11-.38.2-.79.34-1.19.51s-.81.33-1.22.5c-1.68.59-3.43 1.18-5.28 1.59-3.69.9-7.35 1.23-10.69 1.38-3.35.1-6.4-.02-8.97-.21-5.15-.37-8.37-.87-8.59-.21-.2.56 2.11 1.99 6.33 3.22-.01 2.36.36 12.65 7.07 19.15 2.51 2.44 5.58 4.04 9.18 4.79.82.17 1.68.3 2.55.38-.25.89-.4 1.82-.46 2.76-.07 1.33.05 2.69.32 4.08.48 2.41 1.48 4.91 3.12 7.39-.24.05-.49.11-.72.16-.22.05-.45.1-.66.14-.22.04-.44.07-.65.11-.85.15-1.66.28-2.44.41-.77.15-1.51.22-2.21.31-.71.08-1.38.17-2.03.24-1.3.12-2.51.18-3.69.27-1.17.04-2.31.04-3.47.06-1.15-.04-2.33-.08-3.58-.15-2.48-.22-5.28-.54-8.72-1.4-5.89-1.52-11.1-4.08-15.25-7.23-4.13-3.17-7.2-6.83-9.28-10.22-1.03-1.7-1.83-3.31-2.46-4.77-.58-1.47-1.06-2.77-1.35-3.86-.63-2.17-.86-3.48-1.33-3.52q-.33-.03-.69.93-.09.24-.18.54c-.04.2-.09.42-.13.66q-.06.36-.12.78c-.03.28-.04.58-.05.89-.08 1.27.07 2.82.39 4.6.36 1.77.96 3.75 1.86 5.84.41.93.89 1.89 1.43 2.86-.2.1-.4.2-.62.3-2.12 1.08-5.43 2.12-9.54 1.83-4.09-.28-8.92-1.94-13.36-5.17-1.09-.82-2.2-1.69-3.21-2.7l-.39-.37-.37-.39c-.25-.26-.5-.52-.74-.79-.47-.56-.96-1.1-1.4-1.7-.47-.57-.87-1.2-1.29-1.81-.2-.31-.39-.64-.59-.96-.1-.16-.2-.32-.29-.48l-.26-.5c-.73-1.32-1.32-2.74-1.8-4.21-1.11-3.41-1.11-6.04-.89-8.24.28-2.2.79-4.02 1.66-5.91.43-.95.95-1.92 1.65-2.92.69-1 1.53-2.05 2.64-3.09.27-.27.58-.5.88-.77.32-.23.64-.51.99-.73.69-.49 1.48-.91 2.33-1.29 1.35-.59 2.93-.97 4.63-.88.49 1.33.83 2.52 1.1 3.49.48 1.82.73 2.89 1.19 2.96.45.1 1.1-.97 1.41-3.08.29-2.09.19-5.24-.96-8.9-1.17-3.64-3.43-7.73-6.79-11.48l-1.33-1.36c-.44-.44-.88-.89-1.33-1.34-.39-.39-.8-.77-1.16-1.2-.19-.21-.38-.41-.57-.62-.18-.22-.35-.44-.53-.66a21 21 0 0 1-3.41-5.92c-.48-1.26-.71-2.4-.86-3.43-.08-1.07-.08-1.98-.06-2.82.08-1.68.38-3.09.87-4.6.52-1.5 1.21-3.15 2.58-5.13 1.37-1.96 3.41-4.32 6.96-6.51l-.27-.45c.49.18.96.33 1.41.46.49.13.95.27 1.39.35s.85.16 1.23.22c.77.09 1.42.15 1.95.15 1.06-.02 1.62-.16 1.67-.41.04-.25-.43-.6-1.34-1.02-.45-.23-1.01-.5-1.66-.79-.32-.16-.66-.33-1.03-.51-.37-.17-.74-.4-1.14-.61-.8-.43-1.65-.96-2.53-1.57-.87-.64-1.77-1.35-2.62-2.21-.83-.86-1.62-1.85-2.16-2.94-.06-.14-.12-.27-.18-.41-.07-.14-.12-.27-.16-.41-.05-.14-.09-.27-.14-.41l-.09-.4c-.09-.53-.12-1.04 0-1.42.11-.39.3-.67.58-.93.29-.26.7-.53 1.3-.7.13-.06.29-.09.45-.13.16-.03.31-.09.49-.11.36-.03.7-.12 1.1-.12l.58-.03c.2 0 .41.01.61.01.21.01.41.01.62.02l.65.06c.22.02.43.03.65.07s.45.07.67.11l1.48.24c.54.09 1.09.18 1.64.24.55.08 1.12.14 1.69.19 2.29.21 4.71.3 7.25 0 1.27-.13 2.57-.39 3.87-.73 1.3-.36 2.6-.84 3.86-1.43 1.26-.6 2.47-1.34 3.61-2.16 1.15-.82 2.19-1.75 3.19-2.73.99-.98 1.89-2.03 2.75-3.09.83-1.08 1.65-2.18 2.38-3.32 1.5-2.26 2.81-4.61 4.05-7 .62-1.19 1.21-2.39 1.78-3.57.28-.57.55-1.15.83-1.72.26-.55.53-1.1.82-1.64 1.11-2.16 2.29-4.23 3.54-6.18s2.59-3.79 4-5.47c1.41-1.69 2.89-3.21 4.44-4.53 1.54-1.32 3.15-2.41 4.76-3.21 1.61-.78 3.22-1.25 4.64-1.28.71-.02 1.37.07 1.91.24.57.18 1.14.49 1.68.9 1.09.81 2.03 2 2.78 3.26 1.5 2.56 2.29 5.36 2.74 7.84.23 1.25.35 2.44.43 3.54.09 1.1.1 2.12.11 3.04-.02 3.69-.32 5.82.2 5.97.24.07.63-.36 1.12-1.3s1.04-2.39 1.5-4.34c.22-.98.43-2.08.55-3.3.01-.07.01-.15.02-.23.35-.39.77-.78.98-.98.24-.23.48-.46.71-.69.47-.45.94-.88 1.4-1.3.92-.83 1.81-1.6 2.67-2.3 1.72-1.4 3.29-2.57 4.76-3.53 2.93-1.92 5.43-3.12 7.66-3.69 1.11-.28 2.13-.37 3.01-.27.5.06.74.12.85.2.12.07.15.09.25.26s.23.53.3 1.05c.06.52.08 1.16.03 1.9-.1 1.46-.45 3.23-.99 5.22-.64 2.36-1.44 4.71-2.24 7.06-.14.41-.28.81-.42 1.22-.2.58-.39 1.16-.59 1.74-.38 1.15-.74 2.31-.88 3.33-.08.52-.08.96-.04 1.38.06.39.13.76.27 1.05.15.29.31.55.48.84.05.07.1.14.16.21l.1.11.06.06.01.01.01.01c0 .01.05-.04.03-.02l.03.03c.16.14.33.3.48.42.63.42 1.16.56 1.86.64.69.06 1.57-.04 2.59-.43 1.02-.38 2.08-.94 3.1-1.37.26-.11.51-.22.77-.31l.39-.14c.2-.07.4-.13.59-.18.38-.1.72-.16 1.03-.19.31-.02.57 0 .82.04.25.03.48.13.72.24.12.06.24.12.36.21.06.04.12.07.18.13l.04.04c.01.01.01 0 .01 0l.01-.01c.06.03.11.09.15.15l.03.05c0 .01 0 .01.01.02 0 .01.01.04.02.07.02.12.04.25.05.4.04.61-.05 1.39-.18 2.15-.28 1.55-.75 3.11-1.23 4.57-.98 2.93-2.03 5.49-2.87 7.61-1.71 4.24-2.66 6.75-2.17 7.04.47.29 2.34-1.68 4.91-5.61 1.28-1.97 2.74-4.42 4.16-7.43.7-1.52 1.4-3.16 1.94-5.09.26-.97.49-2 .54-3.23.01-.31 0-.63-.02-.98l-.03-.27c-.01-.1-.03-.21-.04-.31-.04-.2-.08-.4-.14-.6-.22-.79-.62-1.56-1.21-2.17l-.48-.45c-.12-.12-.27-.23-.41-.34-.27-.23-.58-.44-.9-.64-.64-.38-1.36-.72-2.12-.91-.75-.2-1.53-.29-2.29-.29-.75.01-1.48.1-2.16.24-.34.07-.68.16-1.01.25l-.41.12-.09.02c-.11.03-.22.06-.32.09-.2.05-.38.16-.56.12-.12-.04-.06-.2-.03-.3.03-.11.07-.21.11-.31l.12-.28.06-.13.01-.03.04-.12.16-.44c.85-2.37 1.72-4.84 2.43-7.48.6-2.24 1.02-4.26 1.19-6.23.08-.98.11-1.95.01-2.94-.1-.98-.29-1.99-.72-3-.2-.5-.5-1-.83-1.47-.35-.47-.74-.9-1.2-1.27-.9-.75-1.93-1.18-2.87-1.43l-.35-.09c-.11-.03-.21-.04-.32-.06l-.63-.1c-.42-.08-.83-.07-1.24-.1-.82-.03-1.64.02-2.44.13-1.61.22-3.18.66-4.82 1.3-1.63.64-3.33 1.47-5.15 2.57-1.82 1.09-3.77 2.43-5.89 4.09-.92.73-1.88 1.52-2.86 2.38-.34-1.56-.85-3.2-1.62-4.87-.84-1.76-1.96-3.59-3.73-5.18-.88-.79-1.94-1.52-3.19-2.03l-.47-.19-.49-.16c-.33-.11-.65-.18-.98-.25-.65-.14-1.3-.21-1.95-.24-2.61-.11-5.11.52-7.4 1.48-2.29.98-4.4 2.3-6.36 3.84a41.7 41.7 0 0 0-5.46 5.18 55 55 0 0 0-4.7 6.09 72 72 0 0 0-4.02 6.77c-.31.59-.61 1.18-.91 1.78-.28.58-.57 1.16-.86 1.75-.55 1.14-1.11 2.26-1.7 3.38-1.16 2.24-2.36 4.4-3.65 6.39-.63 1.01-1.31 1.94-1.99 2.85-.7.89-1.4 1.74-2.15 2.5s-1.51 1.47-2.31 2.07-1.63 1.14-2.49 1.59c-.87.44-1.76.8-2.68 1.09-.93.27-1.87.51-2.85.65-1.94.31-3.95.34-5.93.26-.49-.02-.99-.05-1.48-.09-.49-.03-.98-.08-1.47-.13-.53-.05-1.06-.1-1.58-.16-.28-.03-.57-.05-.85-.08-.28-.02-.57-.02-.86-.03s-.57-.01-.85-.02c-.29 0-.58.02-.87.03-.29.02-.57.02-.86.05-.29.04-.58.07-.87.11-.57.05-1.17.22-1.75.34-.29.07-.59.18-.88.27s-.58.19-.87.33a8.4 8.4 0 0 0-3.21 2.32c-.91 1.06-1.5 2.42-1.66 3.72-.18 1.31.04 2.49.36 3.53.09.26.17.51.27.76.11.23.22.46.32.69s.22.45.35.65c.12.21.25.41.37.61.75 1.13 1.61 2.04 2.47 2.81a28 28 0 0 0-5.55 5.71c-.47.62-.86 1.25-1.24 1.85-.35.62-.71 1.2-.99 1.79-.15.29-.29.58-.43.87-.13.29-.25.58-.37.87-.26.56-.44 1.14-.65 1.7-.76 2.26-1.19 4.5-1.29 7.09-.03 1.29.01 2.68.24 4.18.22 1.5.58 3.13 1.23 4.86 1.11 2.97 2.74 5.62 4.65 7.8.24.27.48.54.71.81.25.25.5.51.75.76.49.51 1.02.96 1.52 1.42.86.77 1.7 1.53 2.53 2.26 2.35 2.27 4.21 4.62 5.62 6.88-1.12.17-2.17.44-3.12.8-2.39.88-4.25 2.1-5.78 3.35-3.03 2.56-4.8 5.21-6.12 7.83-.66 1.31-1.18 2.64-1.59 4.03-.22.69-.37 1.41-.55 2.13-.13.74-.28 1.48-.36 2.27-.17 1.56-.24 3.25-.08 5.08a26.4 26.4 0 0 0 1.22 5.94c.59 1.81 1.33 3.55 2.23 5.15l.33.61c.12.2.24.39.36.58.24.39.48.78.73 1.15.52.74 1.03 1.48 1.6 2.15.54.7 1.14 1.34 1.72 1.98.3.31.61.61.91.91l.46.45.53.44c1.25 1.15 2.59 2.13 3.92 3.03 5.4 3.55 11.3 5.1 16.26 4.88 2.48-.11 4.7-.63 6.53-1.38.45-.2.9-.36 1.29-.59.4-.22.79-.43 1.15-.64.69-.48 1.33-.89 1.83-1.36.15-.14.3-.27.44-.4 1.79 2.79 4.15 5.6 7.11 8.16 4.61 3.95 10.66 7.13 17.39 8.86.59.14 1.15.27 1.69.39-8.06 2.56-14.63 2.54-20.17 2.52-5.65-.02-10.12-.04-13.6 2.87-.75.63-2.45 2.27-3.66 5.02-.29-.09-.56-.18-.82-.27-.85-.3-1.56-.68-2.18-1.03-1.23-.74-2.1-1.5-2.82-2.29-.18-.2-.33-.41-.5-.61-.08-.1-.17-.2-.25-.31l-.22-.33c-.15-.23-.31-.47-.46-.71-.2-.31-.4-.62-.61-.95-.88-1.27-1.97-2.66-3.78-4.11-.4-.3-.81-.59-1.23-.85-.44-.25-.86-.52-1.35-.71a9.5 9.5 0 0 0-3.03-.84c-1.07-.13-2.29.03-3.39.52-.28.13-.55.25-.8.44-.25.18-.51.34-.72.56-.21.21-.41.43-.61.65-.18.24-.36.5-.49.76-.57 1.06-.7 2.1-.71 3.01 0 .76.11 1.46.25 2.1-.07 0-.14-.01-.21-.01-.84-.04-1.59-.1-2.27-.16-1.36-.12-2.44-.26-3.45-.43-1.01-.16-1.94-.34-2.96-.61-.13-.03-.26-.07-.39-.1-.09-.02-.18-.04-.26-.06-.11-.02-.22-.05-.33-.07-.22-.06-.46-.08-.7-.1-.24-.03-.48-.04-.74-.03-1 .02-2.11.24-3.22.84-.94.53-1.77 1.3-2.34 2.27s-.83 2.13-.76 3.2.42 2.01.85 2.78c.43.79.97 1.39 1.49 1.94.5.49 1.01.9 1.52 1.26-.32.03-.63.06-.94.08-.24.01-.47.03-.71.04-.4.03-.79.07-1.19.19-.79.21-1.56.62-2.22 1.23s-1.2 1.43-1.49 2.42c-.29.98-.31 2.14.02 3.27.29.97.8 1.79 1.37 2.46.52.63 1.12 1.09 1.71 1.51l-.21.06c-.18.06-.35.11-.54.21-.18.09-.36.19-.53.29-.17.11-.34.26-.5.39l-.24.21c-.07.08-.14.16-.2.25-.13.17-.27.34-.37.52-.43.75-.59 1.67-.53 2.48.02.19.06.39.1.59l.06.3.09.27c.06.18.13.37.2.56.08.17.17.34.26.51.17.36.41.65.64.99.25.31.51.62.81.92 1.02 1.01 2.12 1.73 3.21 2.28.52.3 1.15.52 1.71.75.29.09.58.17.87.25l.43.12c.14.03.28.05.43.08l.19.03c.01.7.17 1.32.36 1.85.55 1.43 1.36 2.34 2.12 3.06.77.71 1.55 1.2 2.28 1.58.74.38 1.45.66 2.15.87 1.4.41 2.73.58 4.23.59.75-.01 1.54-.05 2.39-.17.85-.1 1.78-.33 2.74-.57 1.17-.28 2.31-.55 3.41-.65-.24 2.51-.27 4.97-.21 7.38.15 4.76.78 9.33 1.63 13.74.44 2.2.95 4.36 1.5 6.48.57 2.12 1.18 4.19 1.85 6.22 1.38 4.19 2.97 8.18 4.71 11.97-.36.06-.72.15-1.06.25-1.14.33-2.03.91-2.84 1.48-.75.6-1.39 1.24-1.9 1.88-1.03 1.29-1.68 2.56-2.2 3.76-.98 2.41-1.43 4.59-1.67 6.6s-.27 3.86-.19 5.64c.2 3.54.78 6.81 1.88 10.38.54 1.79 1.24 3.65 2.15 5.63.9 1.98 2.01 4.08 3.44 6.32 2.45 3.84 5.34 7.21 8.41 10.14 3.08 2.91 6.33 5.38 9.57 7.44.14.09.28.18.42.26-.16.27-.3.55-.44.82-.91 1.91-1.2 3.72-1.29 5.39-.12 3.34.66 6.1 1.6 8.38.96 2.29 2.11 4.14 3.29 5.74s2.39 2.96 3.61 4.2c2.46 2.46 4.97 4.46 7.95 6.5 1.5 1 3.11 2.03 4.93 3.06.9.53 1.87 1.03 2.88 1.58 1.02.51 2.09 1.07 3.23 1.61 3.92 1.87 7.84 3.44 11.67 4.77 3.83 1.34 7.56 2.45 11.14 3.39 7.16 1.88 13.68 3.11 19.18 3.92 11.01 1.59 17.9 1.63 18.03.72.15-.97-6.47-2.72-17.05-5.5-5.28-1.41-11.55-3.1-18.39-5.25-3.42-1.07-6.98-2.27-10.61-3.64-3.63-1.36-7.33-2.89-10.99-4.64-1.08-.5-2.05-1.01-2.97-1.48-.9-.5-1.76-.94-2.54-1.41-.39-.23-.77-.45-1.14-.67-.36-.23-.71-.45-1.06-.66-.69-.42-1.32-.86-1.93-1.27-2.42-1.67-4.3-3.23-6.23-5.1-.95-.95-1.91-1.97-2.87-3.17-.95-1.2-1.9-2.58-2.73-4.22-.8-1.63-1.5-3.57-1.58-5.67-.05-1.04.09-2.12.44-3.02.11-.29.26-.56.39-.76 4.05 1.98 7.94 3.43 11.42 4.52 1.36.44 2.67.77 3.9 1.11 1.25.3 2.42.57 3.52.81 1.11.21 2.14.4 3.08.56.95.15 1.83.25 2.61.34 1.57.19 2.81.2 3.66.16.85-.05 1.32-.18 1.36-.42.05-.23-.32-.56-1.07-.95-.74-.41-1.88-.83-3.31-1.42-1.45-.55-3.2-1.22-5.24-2-1.01-.4-2.09-.83-3.23-1.28-1.13-.49-2.33-.96-3.57-1.52-4.15-1.83-8.88-4.14-13.68-7.22l-.02-.23c-.1 0-.2.01-.31.02-.82-.53-1.65-1.09-2.47-1.67a67 67 0 0 1-8.39-7.01c-2.67-2.67-5.17-5.66-7.29-8.99a42 42 0 0 1-2.88-5.32c-.74-1.61-1.25-3.08-1.68-4.45-.83-2.75-1.25-5.13-1.45-7.78-.08-1.32-.1-2.72.01-4.24.12-1.51.35-3.18.9-4.88.27-.85.62-1.7 1.07-2.45.43-.76 1.02-1.33 1.44-1.59.21-.1.35-.14.49-.15.13-.02.31.01.62.14.04.02.08.03.11.04.04.02.09.05.13.08.09.06.18.09.27.16.2.15.4.27.62.48.44.35 2.86 3.23 3.33 3.79v-.01c3.54 5.7 7.4 10.7 11.34 14.95a83 83 0 0 0 13.06 11.46c4.2 2.92 8.09 5.02 11.37 6.48 6.58 2.88 10.53 3.47 10.66 3.07.18-.52-3.44-1.99-9.39-5.51a87.5 87.5 0 0 1-10.25-7.19c-3.75-3.1-7.79-6.91-11.7-11.61-3.92-4.68-7.75-10.2-11.19-16.51-3.43-6.3-6.49-13.38-8.85-21.09-.58-1.93-1.13-3.89-1.62-5.89-.48-2-.92-4.03-1.3-6.1-.73-4.13-1.25-8.38-1.34-12.67-.04-2.14.02-4.29.23-6.41.22-2.11.59-4.2 1.19-6.13.32-.95.67-1.87 1.1-2.69.44-.81.94-1.53 1.48-2.07.14-.13.27-.28.41-.37.15-.11.26-.23.44-.32.17-.1.34-.22.5-.3.16-.07.31-.14.46-.22.6-.22 1.01-.26 1.53-.13.6.16 1.38.61 2.14 1.27.76.65 1.49 1.47 2.17 2.32 1.37 1.71 2.56 3.56 3.65 5.34 2.18 3.58 4.01 6.91 5.76 9.99s3.4 5.93 5.13 8.7c.87 1.38 1.74 2.76 2.67 4.11.93 1.34 1.88 2.69 2.85 4.08.49.69.98 1.4 1.48 2.11.53.69 1.08 1.4 1.63 2.12.56.72 1.12 1.46 1.7 2.21.59.75 1.16 1.54 1.82 2.3 1.3 1.53 2.66 3.14 4.11 4.86 1.54 1.65 3.14 3.42 4.91 5.26 3.6 3.62 7.8 7.61 13.07 11.76 2.66 2.05 5.53 4.19 8.81 6.25.41.26.81.53 1.23.79.42.25.85.51 1.28.76.43.26.87.51 1.3.77.44.25.9.5 1.36.75s.91.51 1.39.75.96.48 1.45.73c.48.25 1 .47 1.51.71.25.12.52.24.8.35l.41.17.23.09c1.26 4.33 2.81 9.03 4.71 13.98 1.43 3.81 3.12 7.74 4.96 11.77.96 2 1.9 4.05 2.97 6.08.53 1.02 1.06 2.04 1.59 3.07.56 1.02 1.13 2.04 1.7 3.07 4.58 8.23 9.7 15.66 14.82 22.02 5.13 6.36 10.26 11.67 14.88 15.76.56.53 1.14 1.01 1.71 1.48.56.47 1.11.93 1.65 1.37 1.08.88 2.07 1.73 3.07 2.44.99.73 1.91 1.39 2.76 2 .43.3.84.59 1.23.86s.79.5 1.16.73c2.95 1.79 4.69 2.6 4.96 2.24.6-.81-5.18-5.62-13.33-14.39-4.08-4.38-8.67-9.81-13.37-16.14-4.69-6.33-9.47-13.58-13.9-21.54l-1.65-2.97c-.52-1-1.05-1.98-1.56-2.97-1.06-1.95-1.99-3.93-2.97-5.85-1.86-3.88-3.62-7.64-5.16-11.29-3.14-7.27-5.63-13.97-7.62-19.65-3.98-11.35-5.93-18.58-6.81-18.44-.8.12-.56 6.5 1.71 16.67-.37-.2-.75-.41-1.11-.62-.69-.41-1.38-.82-2.05-1.22-2.67-1.67-5.14-3.34-7.41-5.05-.57-.43-1.12-.85-1.67-1.27s-1.1-.83-1.61-1.26c-1.04-.86-2.05-1.69-3.04-2.51-.96-.84-1.88-1.69-2.79-2.49-.45-.41-.9-.81-1.34-1.2q-.645-.615-1.26-1.23l-2.43-2.37c-.2-.19-.39-.38-.59-.58-.19-.2-.37-.4-.56-.59-.37-.39-.74-.78-1.1-1.17-1.44-1.55-2.86-3-4.1-4.51-.64-.74-1.26-1.47-1.88-2.19-.61-.72-1.24-1.41-1.79-2.15-1.14-1.45-2.24-2.86-3.33-4.25-.56-.68-1.06-1.41-1.57-2.12s-1.01-1.42-1.52-2.12c-1-1.42-2.04-2.81-2.98-4.26-1.91-2.89-3.75-5.94-5.68-9.26-.85-1.45-1.71-2.97-2.61-4.54 2.13 1.23 4.38 2.11 6.72 2.6.92.19 1.85.33 2.79.41 7.46.61 14.19-2.5 18.57-5.26.06.79.14 1.59.23 2.42.24 1.89.48 3.88.89 5.91.2 1.02.38 2.06.61 3.1.25 1.04.51 2.1.77 3.16.14.53.27 1.06.4 1.59.16.52.31 1.04.47 1.55.32 1.02.63 2.03.94 3.02.15.5.33.98.51 1.45.18.48.36.95.53 1.41.36.93.71 1.84 1.06 2.73.74 1.76 1.54 3.39 2.26 4.91.19.38.36.76.55 1.12.2.36.4.71.59 1.05.39.68.77 1.34 1.14 1.96 1.42 2.5 2.89 4.34 3.98 5.56 1.1 1.21 1.91 1.76 2.33 1.53.42-.24.43-1.23.09-2.8-.33-1.58-1.09-3.7-1.88-6.36-.21-.66-.44-1.34-.68-2.05-.12-.35-.25-.72-.38-1.08-.11-.37-.23-.75-.35-1.14-.47-1.55-1.03-3.17-1.56-4.9-.26-.87-.52-1.76-.79-2.66-.14-.45-.28-.91-.42-1.37-.15-.46-.29-.92-.41-1.4-.26-.95-.53-1.91-.79-2.89l-.42-1.47c-.12-.5-.25-1-.37-1.51-.26-1.01-.51-2-.77-2.99-.24-.98-.45-1.96-.68-2.92-.48-1.91-.83-3.77-1.24-5.53-.73-3.54-1.37-6.75-1.88-9.46-1.07-5.42-1.77-8.83-2.75-8.88-.96-.06-2.03 3.49-2.21 9.26l-.03.94c-3.02 2.32-10.16 7-17.89 6.35-5.33-.45-10.14-3.41-14.29-8.81-13.09-17.04-6.44-24.02-4.97-25.25 1.89-1.58 5.27-1.57 9.94-1.55 6.84.03 16.02.06 27.59-4.91.05.19.11.37.17.54.1.34.2.65.33.94.12.29.22.58.35.87.14.28.28.56.42.87s.33.61.53.95c.21.33.41.72.71 1.1.24.33.49.66.73.98.27.3.53.59.8.86.13.14.27.28.4.41.14.13.28.25.42.37.28.24.56.47.83.69 1.12.83 2.21 1.44 3.18 1.81.94.42 1.79.55 2.39.6.6.03.98-.08 1.1-.34s-.02-.64-.36-1.11-.91-.97-1.55-1.64c-1.33-1.26-3.05-2.93-4.51-5.01-.83-1.23-1.05-1.9-1.3-2.73-.13-.41-.25-.88-.39-1.5-.03-.13-.05-.28-.08-.43.47.03.94.04 1.42.04.57.01 1.15.01 1.75.02.61 0 1.23-.01 1.88-.03.05.09.09.17.13.26.46.85.89 1.52 1.32 2.13.44.61.89 1.16 1.46 1.76s1.27 1.24 2.28 1.93c1.74 1.18 3.77 1.8 5.56 1.88.37.02.72.02 1.07 0-.51.55-1.02 1.1-1.55 1.65-.49.48-.97 1-1.48 1.47-.51.46-1.03.92-1.55 1.39-.53.43-1.08.82-1.62 1.24l-.52.39c-.2.15-.41.3-.61.47-.4.35-.79.69-1.16 1.1-.75.8-1.44 1.75-1.93 2.84-.5 1.09-.8 2.28-.9 3.46-.19 2.37.36 4.53 1.13 6.41.78 1.89 1.78 3.51 2.84 5 .53.74 1.09 1.45 1.66 2.13.29.34.57.67.87.99.27.29.54.59.81.88.49.51.75 1.23.73 1.95 0 .08-.05.62-.09 1-.04.41-.07.8-.1 1.19-.06.79-.09 1.55-.14 2.3-.24 6.01 0 11.37.44 15.86.87 8.99 2.61 14.37 3.48 14.23.95-.14.88-5.62 1.23-14.37.17-4.37.43-9.59.98-15.28.08-.7.15-1.43.24-2.13.04-.35.09-.72.14-1.06.05-.38.1-.59.17-1.28.21-2.34-.53-4.84-2.17-6.72-.26-.3-.53-.6-.8-.91-.24-.28-.48-.56-.71-.85-.46-.57-.91-1.16-1.33-1.77-.83-1.2-1.58-2.46-2.08-3.7-.51-1.24-.75-2.42-.68-3.35s.37-1.66 1.04-2.42c.15-.19.36-.37.54-.55.25-.2.49-.4.73-.6.68-.56 1.37-1.11 2.01-1.67l1.76-1.73c.56-.58 1.06-1.18 1.59-1.75 2.02-2.34 3.74-4.66 5.22-6.89 1.5-2.22 2.76-4.35 3.88-6.31 2.22-3.93 3.74-7.24 4.64-9.6.89-2.37 1.15-3.79.75-4.01-.41-.22-1.43.78-3 2.72-.86 1.05-1.88 2.39-3.05 3.95-.83-.48-1.6-.99-2.3-1.52-1.03-.79-1.92-1.65-2.66-2.53-1.51-1.75-2.47-3.58-3.04-5.28-.27-.85-.45-1.66-.55-2.43-.07-.76-.07-1.46.01-2.07s.26-1.11.46-1.49.41-.64.66-.8c.24-.17.53-.28.9-.37.22 0 .4-.07.66-.04.12.01.24 0 .37.01l.4.06.2.02.33.05c.23.04.47.07.7.11.47.08.94.12 1.42.18.48.05.95.08 1.44.12.48.02.97.05 1.47.06 3.95.08 8.3-.3 13.63-1.45l.22-.05.29-.07.58-.16c.38-.14.76-.25 1.13-.42.74-.31 1.43-.73 2.08-1.18 1.28-.94 2.36-2.15 3.12-3.52s1.23-2.91 1.33-4.45l.03-.58.01-.36c0-.23.02-.46.03-.7.03-.46.07-.91.12-1.36.23-1.77.7-3.39 1.43-4.67s1.69-2.22 2.89-2.87c.61-.32 1.28-.56 1.98-.75.36-.08.72-.17 1.1-.21.37-.07.75-.1 1.14-.13 1.54-.11 3.14 0 4.69.22 1.59.23 3 .57 4.73.93.82.19 1.64.3 2.43.44s1.57.22 2.33.31c6.07.66 10.95.33 14.27-.11 1.66-.23 2.94-.5 3.79-.76.43-.13.75-.25.95-.37.12-.06.14-.11.18-.17.02-.03.04-.06.05-.08s.01-.01.02-.06c.01-.06.03-.12.04-.18l-.01.04c0 .02-.02.11-.02.08v-.04a.3.3 0 0 0-.04-.08.56.56 0 0 0-.25-.15 5 5 0 0 0-1-.25c-.87-.15-2.15-.27-3.77-.42-.39-.04-.8-.07-1.23-.11.3-2.33 1.65-2.85 4.06-3.05 3.38-.21 6.79.29 10.29.69 4.91.61 9.89 1.22 14.88 1.43 7.95.3 19.61.49 25.22 6.77 4.28 4.95 3.55 12.25 2.33 18.36-1.02 4.83-1.96 9.69-2.72 14.61-.28 1.96-.56 3.93-.78 5.92-.78-.78-1.59-1.53-2.46-2.23-8.39-6.94-21.46-10.97-32.23-8.66-8.37 2.01-15.73 7.21-20.95 14-.4-5.59-.85-11.32-2.81-16.62-4.22-10.6-14.14-11.73-22.45-4.79-7.45 6.3-12.07 15.41-15.33 24.39-5.24 15.98-8.03 32.69-8.66 49.47-.21 7.53.15 15.14 1.85 22.51.96 3.71 2.37 9.18 6.14 11.08 1.46.79 3.62.37 4.8-.62.37-.31.71-.65 1.04-1.02 0 .56-.01 1.12-.01 1.69.02.68.03 1.37.05 2.07.02 1.39.14 2.8.21 4.24.07.72.13 1.44.2 2.16.03.36.07.73.1 1.09.05.36.09.73.14 1.1.73 5.87 1.98 11.42 3.66 16.29 1.67 4.88 3.69 9.09 5.74 12.4.48.85 1.02 1.6 1.51 2.33.5.72.95 1.41 1.44 2.01.48.6.94 1.16 1.36 1.66.43.5.81.96 1.21 1.34 1.56 1.53 2.55 2.23 2.88 1.98.72-.56-1.81-4.49-4.68-11.24-1.47-3.36-2.96-7.44-4.25-12.09-1.29-4.64-2.31-9.86-3-15.4-.04-.35-.09-.69-.13-1.04-.03-.35-.07-.69-.1-1.03l-.21-2.05c-.09-1.36-.23-2.7-.29-4.02-.04-.66-.07-1.31-.11-1.96-.02-.65-.05-1.29-.07-1.93-.06-1.27-.06-2.52-.08-3.74-.05-4.88.13-9.28.32-13 .4-7.43.87-12.06.08-12.26-.79-.21-2.73 4.2-4.22 11.74-.27 1.38-.52 2.87-.75 4.46-.4 1.59-.84 3.16-1.36 4.67-.57 1.64-1.22 3.26-2.04 4.58-.49.76-.95 1.4-1.53 1.63-.11-.07-.3-.16-.51-.39-.71-.79-1.19-1.77-1.64-2.83-1.26-3.16-1.91-6.7-2.36-10.13-.9-7.09-.78-14.38-.22-21.51a188.6 188.6 0 0 1 5.53-32.09c2.65-10.18 6.48-20.47 13.4-28.49 3.3-3.77 9.83-9.31 14.42-4.65 2 2.08 2.93 5.47 3.37 8.36 1.03 6.55 1.34 13.26.95 19.89-.03.43-.06.89-.1 1.25 0 0 .07.44 0 .64-.36 1.22-.84 2.53-1.16 3.76-.2.94-.7 2.89-.87 3.82-.14.79-.46 3.05-.6 3.85-.23 2.31-.95 4.57-1.59 6.79-1.13 4.46-2.01 8.89-.96 13.57.43 1.8 1.41 3.73 2.87 5.01.18.19.56.56.74.75l.18.17.18.21c.44.53 1 1.2 1.4 1.76 2.11 2.85 3.91 5.95 5.65 9.12 3.08 5.66 5.81 11.58 8.05 17.63.17.45.34.91.5 1.37-.57-.11-1.08-.24-1.55-.36-1.25-.42-2.22-.82-3.06-1.33-.21-.12-.42-.25-.63-.37-.2-.13-.39-.28-.58-.42-.19-.15-.4-.28-.59-.44-.19-.17-.38-.34-.58-.51l-.3-.27c-.09-.1-.19-.2-.29-.31-.19-.21-.41-.42-.61-.65-.2-.25-.4-.51-.62-.78s-.41-.59-.64-.91c-1.48-2.25-2.49-4.78-3.22-7.17-.74-2.4-1.2-4.67-1.57-6.61-.73-3.88-1.09-6.39-1.8-6.45-.69-.08-1.63 2.45-1.81 6.7-.08 2.12.04 4.68.61 7.5.57 2.81 1.6 5.92 3.51 8.84.29.42.53.82.82 1.17.28.35.54.69.78 1 .25.31.52.58.75.85.25.26.46.53.71.75.94.92 1.8 1.64 2.83 2.35.53.33 1.07.73 1.74 1.04.33.17.68.34 1.05.52.38.17.79.31 1.23.48 1.45.52 3.3 1 5.64 1.19.97 3.71 1.53 7.5 1.73 11.41.74 7.01-1.02 20.72 9.59 20.32 10.69-.92 20.2-15.78 26.78-29.3-.22 3.55-.38 6.52-.5 9.32-.25 6.21-.45 11.65-.42 21.23.05 8.22.45 16.07 1.17 23.18.73 7.11 1.79 13.5 3.04 18.79.16.66.31 1.31.46 1.93.17.62.34 1.23.5 1.82.33 1.18.63 2.29.99 3.32.34 1.03.65 1.98.98 2.85.34.87.66 1.65.96 2.35.15.35.3.68.43.99.15.3.3.59.44.85.28.52.52.96.74 1.3.44.69.75 1.01.94.94.18-.07.23-.53.14-1.33-.04-.4-.11-.89-.22-1.45-.05-.28-.11-.59-.18-.91-.06-.33-.11-.68-.18-1.04-.13-.73-.28-1.54-.46-2.43-.15-.89-.32-1.85-.5-2.89-.2-1.03-.35-2.14-.54-3.32-.09-.59-.19-1.19-.28-1.81-.08-.62-.17-1.26-.25-1.92-.71-5.23-1.33-11.5-1.77-18.48-.42-6.99-.66-14.69-.71-22.79-.02-9.43.25-13.84.57-19.47.17-2.82.37-5.94.67-10.16.15-2.11.33-4.49.56-7.23.21-2.48.58-8.25 1.26-12.05 2.69-7.16 5.07-14.39 7.25-21.71.81-2.77 1.55-5.78 2.15-8.61.21-.85.49-2.87.66-3.77.27-1.46.46-3.6.61-5.09.12-1.19.13-2.67.19-3.87.01-.19.34-.52.34-.52a217.961 217.961 0 0 0 5.57-11.14c1.57-3.34 2.88-6.37 4.04-9.15 2.29-5.57 3.92-10.17 5.22-14.63.16-.56.32-1.11.48-1.66.15-.56.28-1.12.42-1.68l.41-1.68.18-.72c.05-.23.12-.43.18-.65.24-.85.57-1.63.93-2.23.18-.29.36-.54.53-.72.17-.17.31-.26.4-.31a.6.6 0 0 1 .27-.07c.11 0 .29.02.55.11.52.17 1.28.65 2.03 1.37 1.52 1.46 3.01 3.75 4.2 6.57 2.06 4.89 2.96 10.29 3.08 15.48.03 1.3.01 2.6-.05 3.88-.05 1.27-.22 2.58-.34 3.86-.06.64-.13 1.28-.19 1.91-.07.63-.19 1.26-.28 1.89-.1.63-.19 1.25-.29 1.86-.1.62-.17 1.24-.31 1.84-.25 1.22-.5 2.42-.74 3.6-.11.6-.27 1.18-.41 1.76-.15.58-.29 1.16-.43 1.73s-.28 1.14-.43 1.71c-.16.56-.33 1.11-.49 1.66-.33 1.1-.62 2.19-.96 3.25-.71 2.11-1.35 4.17-2.09 6.11-.68 1.96-1.45 3.8-2.14 5.58-2.88 7.06-5.64 12.63-7.52 16.51-1.89 3.88-2.94 6.03-2.55 6.32.37.27 2.18-1.41 4.81-4.93 2.62-3.52 6.1-8.86 9.65-15.9.86-1.77 1.78-3.62 2.63-5.61.9-1.96 1.7-4.06 2.56-6.23.3-.78 1.06-2.21 1.06-2.21.99-1.23 2.08-1.89 2.99-2.1.92-.23 1.69-.07 2.37.26.69.34 1.27.9 1.76 1.54.48.65.85 1.39 1.14 2.16.58 1.56.88 3.23.96 5.22.07 1.99-.06 4.31-.63 7.27-.98 5.09-2.72 9.9-4.5 14.2-.13.3-.7 1.64-.7 1.64-.67 1.55-1.35 3.03-2.01 4.43-.89 1.89-1.76 3.65-2.57 5.25-3.24 6.4-5.33 10.41-4.66 10.88.61.43 3.89-2.77 8.12-8.82 1.05-1.51 2.16-3.21 3.27-5.08.28-.46.93-1.26.93-1.26.99-.57 1.95-.77 2.73-.7s1.4.37 1.96.87c.56.49 1.03 1.22 1.39 2.02.36.81.6 1.7.75 2.6.3 1.81.31 3.6.18 5.28-.13 1.69-.38 3.29-.7 4.83-.65 3.1-1.54 6.01-2.74 9.29-1.23 3.27-2.79 6.93-5.1 11.47-3.97 7.8-8.39 14.97-12.56 21.41-4.18 6.43-8.16 12.12-11.51 16.9-6.72 9.55-10.9 15.52-10.22 16.09.63.54 6.02-4.42 13.71-13.38 3.84-4.49 8.24-9.98 12.78-16.38 4.52-6.4 9.22-13.67 13.37-21.81 2.41-4.74 3.97-8.35 5.23-11.51 1.25-3.17 2.18-5.91 3.02-9.09.4-1.6.79-3.3 1.07-5.27.27-1.97.47-4.2.29-6.87-.15-1.31-.35-2.76-.81-4.33M89.55 207.51c-.48-.11-.98-.18-1.47-.25-.5-.02-1.02-.03-1.52 0-.49.06-.99.13-1.46.24-.45.13-.91.27-1.35.42-.4.18-.81.37-1.2.56-.17.09-.33.18-.48.28-1.21-1.03-3-2.45-4.27-4.57-1.1-1.8-1.7-3.73-2.14-5.21-.43-1.48-.75-2.49-1.25-2.55-.48-.06-1.09.95-1.28 2.74-.08.89-.09 1.98.16 3.17.25 1.18.67 2.5 1.45 3.72.36.57.77 1.11 1.19 1.59-.17.1-.35.22-.55.36-.66.5-1.2 1.09-1.55 1.7-.35.6-.56 1.19-.64 1.69-.11.5-.06.92.01 1.21.08.3.21.47.39.52s.4-.03.62-.21c.23-.17.45-.44.74-.74.53-.62 1.19-1.35 2.02-1.97.26-.16.45-.28.63-.34.18-.08.34-.11.51-.15.09-.02.18-.04.28-.06.18.1.36.2.54.29.24.12.47.25.7.34.09.03.16.05.25.08-.12.12-.24.23-.36.35-1.17 1.18-2.03 2.48-2.71 3.77s-1.16 2.59-1.58 3.87c-.31 1.04-.56 2.07-.77 3.09h-.24c-1.67.01-3.34.35-4.99.76-1.63.44-2.78.54-3.78.53a9.7 9.7 0 0 1-2.65-.4c-.84-.25-1.76-.62-2.68-1.35-.44-.36-.88-.84-1.11-1.33-.07-.14-.1-.26-.12-.37.32-.05.62-.1.91-.16 1.6-.34 2.81-.84 3.59-1.3.79-.46 1.15-.87 1.06-1.11-.19-.5-2.06-.22-4.93-.25-1.43-.02-3.1-.15-4.78-.64l-.32-.09-.31-.12c-.21-.08-.41-.15-.62-.23-.4-.21-.8-.36-1.22-.63-.85-.47-1.65-1.04-2.29-1.69-.76-.75-.98-1.39-1-1.72l-.01-.06.01-.04q.015-.045 0-.09c.01-.02.02-.02.03-.03 0-.01 0-.02.02-.03.01 0 .02-.01.02-.02s.03 0 .03-.01c0-.02.04 0 .05-.02 0-.01.04 0 .05-.01.02 0 .02-.02.07-.02.04 0 .07-.01.11-.02l.03-.01.08-.02c.06-.01.12-.02.19-.03.5-.1 1.03-.21 1.63-.35 1.09-.26 2.4-.61 4.12-1.11 1.25.12 2.41.12 3.43.06 1.82-.1 3.26-.37 4.24-.65.98-.3 1.5-.59 1.47-.86-.04-.57-2.24-.78-5.59-1.27-1.67-.25-3.63-.6-5.6-1.27-.97-.35-1.94-.8-2.76-1.37-.38-.3-.77-.61-1.04-.96-.28-.35-.48-.71-.59-1.06-.23-.82.07-1.33.36-1.6.15-.14.31-.23.49-.27.08-.04.18-.03.27-.05h.45c.99 0 2.08-.06 3.54-.24.73-.1 1.55-.23 2.49-.44.47-.1.97-.22 1.51-.37.19-.05.4-.11.6-.17.92.2 1.72.31 2.35.36 1.09.06 1.72-.05 1.8-.32.08-.28-.4-.71-1.31-1.24-.9-.55-2.24-1.21-3.79-2.11-.39-.21-.78-.47-1.19-.71-.4-.26-.82-.52-1.22-.82-.82-.58-1.62-1.26-2.27-2.01-.64-.75-1.06-1.62-1.06-2.27 0-.33.08-.61.25-.89.17-.27.43-.53.78-.72.4-.22.83-.3 1.19-.3.18-.01.36.03.52.05.08.02.16.04.23.06.13.04.27.08.39.11 1.08.33 1.98.53 3 .76 1.02.21 2.15.42 3.67.6.76.09 1.62.17 2.62.25.87.06 1.81.1 2.93.12 1.25 1.81 2.62 2.99 3.68 3.65 1.16.71 1.94.83 2.09.6.16-.25-.29-.82-.99-1.8-.7-.97-1.68-2.39-2.47-4.28-.39-.94-.74-2-.9-3.1-.08-.55-.11-1.1-.06-1.62.06-.5.19-.97.39-1.25.04-.08.1-.13.16-.2.08-.06.15-.12.21-.19s.16-.09.23-.15.17-.08.26-.12a2.6 2.6 0 0 1 1.37-.11c.54.09 1.13.24 1.72.54.3.12.59.32.89.48.29.19.58.4.87.61 1.32 1.06 2.11 2.1 2.73 3.01.31.51.59.98.87 1.44.17.28.34.55.51.83.18.27.39.53.59.8.83 1.07 1.88 2.21 3.57 3.34.84.57 1.84 1.12 3.05 1.63.52.21 1.08.41 1.68.59-.45 3.42.03 7.8 2.49 13.23-.33-.11-.64-.21-.96-.3m66.4-72.36c2.08-.46 4.06-1.16 5.94-1.9.46-.21.92-.42 1.37-.62.45-.21.9-.4 1.32-.65.85-.48 1.71-.89 2.47-1.42.08-.05.16-.11.25-.16.49 1.54.91 3.84-.34 5.29-3.95 4.58-14.25 7.48-17.26 5.64-2.47-1.52-3.33-4.08-3.57-5.04 3.1-.02 6.43-.32 9.82-1.14m4.21 43.76c.69.53 1.42 1.03 2.2 1.51a163 163 0 0 1-3.59 4.56c-.19.24-.4.49-.6.73-.09 0-.18 0-.27.01-1.05.02-2.26-.02-3.48-.27-1.23-.24-2.46-.73-3.64-1.51-.68-.46-1.12-.9-1.47-1.31a9 9 0 0 1-.89-1.22c-.07-.11-.15-.23-.22-.36.55-.05 1.1-.11 1.7-.18 2.78-.38 6.13-.93 10.26-1.96m4.18-26.38c-.31-.04-.61-.09-.91-.14l-.49-.09-.26-.05-.36-.06c-.49-.07-.97-.15-1.5-.15-.26-.01-.52-.02-.78-.01-.27.02-.55.05-.82.07-.14.02-.27.02-.41.05l-.43.09c-.29.07-.57.12-.86.22a8.5 8.5 0 0 0-3.82 2.53c-4.54-.11-8.23-1.5-10.98-4.16-2.71-2.62-4.18-6.12-4.97-9.24 1.67-.55 4.46-1.12 7.5-.27.71.93 1.65 1.85 2.87 2.6.56.34 1.24.59 2 .75.25.05.52.09.79.13.78.81 1.55 1.76 2.29 2.9 0 0 10.03-4.91 15.41 1.74-1.22 1.1-2.63 2.13-4.27 3.09m53.95-17.88c-1.67-.24-3.47-.54-5.37-.93-.69-.16-1.41-.29-2.12-.48-.25-.06-.5-.13-.75-.19a63 63 0 0 0 13.38-19.42c.62-1.42 1.91-3.83 3.51-4 1.34-.15 3.88 1.22 6.98 5.48 2.56 3.52 4.54 7.6 5.85 11.19-8.57-1.13-19.82-2.8-21.48 8.35m65.22-21.53c-.01.01-.01 0 0 0m-9.44 12.27c.9.03 2.18-.09 3.73-.53.27-.08.54-.17.83-.26.06.03.04.02.08.05.04.04.1.18.13.38.06.41-.03.97-.21 1.46-.36 1-.98 1.8-1.62 2.45-.66.66-1.41 1.19-2.34 1.7-.09.05-.18.09-.28.14-6.25-2.18-12.9-2.54-19.46-2.84.28-.2.53-.47.83-.76.16-.16.32-.33.49-.52.16-.19.3-.41.46-.63.09-.14.19-.28.28-.43.09-.02.17-.03.25-.05.38-.04.72-.08 1.29-.01.98.15 1.87.46 2.61.74.38.12.7.25.98.29s.5.01.64-.12.17-.34.1-.64a2.6 2.6 0 0 0-.54-1.06c-.3-.4-.74-.81-1.32-1.17s-1.31-.63-2.1-.75c-.26-.03-.48-.05-.68-.07.18-.68.3-1.41.35-2.16.11-1.44-.14-2.8-.47-3.96-.34-1.17-.86-2.12-1.35-2.87-1.02-1.49-2.03-2.09-2.42-1.81-.42.29-.21 1.33.1 2.84s.69 3.5.56 5.6c-.05 1.08-.26 2.08-.52 3-.05.03-.11.06-.17.1l.1.16c-.56 1.84-1.31 3.29-1.47 4.15-2.46-.18-4.9-.45-7.36-.75-1.03-3.37-2.6-6.94-4.34-10.1.4-.38.77-.76 1.1-1.14.79-.88 1.4-1.76 1.91-2.58 1-1.66 1.57-3.16 1.94-4.61.09-.36.15-.73.22-1.09.03-.18.07-.36.1-.54l.05-.55c.03-.35.06-.71.1-1.08.02-.29.05-.58.07-.88.14-1.19.39-2.54 1.03-4.04.15-.31.3-.62.46-.91.18-.27.33-.58.53-.81.36-.52.79-.91 1.19-1.22.41-.32.8-.44 1.11-.49.08-.01.16-.04.23-.02s.15-.02.22.01.15.04.23.05c.06.03.12.04.18.08.26.12.56.42.83.81.27.4.5.88.68 1.38.36 1.01.56 2.08.65 3.07.19 2 0 3.67-.15 4.83-.15 1.17-.27 1.86-.01 2.01.24.14.86-.32 1.54-1.46.6-1.02 1.23-2.6 1.49-4.66.98-.53 1.78-1 2.52-1.45.77-.47 1.45-.9 2.07-1.3 1.23-.81 2.2-1.5 3.1-2.18a34 34 0 0 0 2.65-2.2c.11-.11.23-.21.35-.32l.09-.08.05-.04.09-.08c.05-.06.13-.1.19-.14.06-.05.14-.09.22-.13.3-.16.68-.27 1.08-.26.34.01.64.1.86.23s.39.29.52.53c.27.47.32 1.36.12 2.28-.21.93-.58 1.89-1.02 2.77-.21.44-.46.87-.68 1.28-.25.4-.46.81-.71 1.18-.93 1.51-1.8 2.71-2.32 3.62-.55.89-.77 1.49-.57 1.7s.8.01 1.73-.55c.43-.27.93-.63 1.48-1.07.1-.02.19-.03.29-.05q.39-.075.75-.15c.48-.1.93-.21 1.35-.32.84-.22 1.58-.45 2.25-.67 1.34-.45 2.39-.88 3.37-1.33.24-.11.48-.22.71-.33.09-.03.17-.08.26-.09.17-.04.33-.04.51 0 .34.09.75.37.91 1.08.06.31.06.69-.02 1.09-.06.4-.25.83-.44 1.26-.43.86-1.05 1.68-1.73 2.44-1.39 1.49-2.94 2.72-4.29 3.72-2.7 1.99-4.54 3.21-4.3 3.73.11.25.7.26 1.7.07.99-.21 2.38-.65 4.02-1.41.8-.38 1.67-.83 2.57-1.39l.02.1c1.76-.36 3.11-.65 4.26-.92.57-.13 1.09-.26 1.58-.39.25-.07.49-.13.72-.2.04-.01.05-.01.05-.01h.03c.02 0 .03 0 .05-.01.03-.01.07-.03.08-.01.01 0 .03 0 .04-.01 0 0-.01 0 .05.08.09.24.2.9-.11 1.88-.25.83-.68 1.7-1.19 2.49-.24.43-.52.73-.76 1.1-.14.16-.29.32-.43.48l-.21.24-.23.22c-1.21 1.2-2.6 2.09-3.83 2.77-2.48 1.36-4.24 2-4.16 2.52.04.27.55.47 1.45.5m9.52 84.56c-.04 1.09 0 2.44-.1 3.52-.1.87-.18 2.68-.3 3.53-.09.72-.42 2.79-.51 3.53-.19 1.33-.66 3.36-.9 4.69-2.29 9.47-5.26 18.82-8.53 27.98-.23.62-.46 1.24-.69 1.87 0 0-4.59 11.6-6.8 16.13-2.82 5.76-5.96 11.45-9.94 16.46-2.87 3.55-7.11 8.15-11.74 8.88-4.15.68-4.64-3.37-5.05-6.62-.34-3.19-.35-6.5-.54-9.75-.24-6.69-1.68-13.55-4-19.87-2.22-6.33-4.88-12.45-7.93-18.42-1.73-3.34-3.58-6.73-5.8-9.88-.42-.66-1.13-1.5-1.62-2.14-.11-.15-.34-.4-.46-.53-.32-.33-.94-1-1.28-1.33-.5-.6-.77-1.25-.97-2.1-.69-3.42.19-7.36 1.15-10.77.79-2.47 1.57-4.99 1.89-7.57.25-1.3.53-3.32.88-4.58.7-3.05 1.7-5.87 3-8.71 4.1-8.58 11.24-15.39 20.38-18.23l1.06-.29c3.48-.98 7.27-.65 10.86-.13 9.34 1.5 17.7 6.44 22.66 14.1.02.11.04.22.07.32l.12-.03c1.42 2.25 2.55 4.72 3.33 7.41l.62 2.19c.26 1.36.68 3.15.78 4.53.04.44.22 1.93.22 1.93.01.13.02.26.02.37.01.89.17 2.62.12 3.51" class="st1"/>
  <path d="M118.83 105.05c-1.43 1.94-2.17 3.94-2.62 5.77-.43 1.84-.55 3.52-.48 4.92.15 2.82 1.01 4.43 1.65 4.35.69-.07 1.07-1.66 1.76-3.99.34-1.17.77-2.53 1.34-3.96.57-1.42 1.3-2.93 2.22-4.17.46-.61.94-1.09 1.38-1.4s.8-.43 1.19-.48c.79-.1 1.94.42 2.86 1.04.94.61 1.74 1.26 2.37 1.65.62.41 1.11.57 1.4.39.28-.18.33-.68.15-1.47-.2-.78-.63-1.84-1.53-3.04-.23-.3-.47-.61-.79-.91-.16-.15-.31-.3-.48-.46-.19-.14-.38-.29-.57-.44-.8-.56-1.85-1.11-3.18-1.24-1.31-.14-2.77.21-3.9.89-1.15.69-2.05 1.59-2.77 2.55M157.25 96.58c.47-.99 1.05-2.13 1.78-3.26.37-.55.78-1.11 1.23-1.6.45-.48.94-.91 1.42-1.18.48-.28.88-.37 1.25-.38.37 0 .79.11 1.24.36.91.51 1.8 1.41 2.49 2.23 1.4 1.66 2.37 2.88 2.96 2.65.29-.11.42-.55.41-1.28-.02-.73-.21-1.74-.68-2.95-.49-1.2-1.24-2.66-2.86-3.98-.82-.64-1.94-1.21-3.26-1.33-1.32-.14-2.7.23-3.76.86-1.08.63-1.88 1.42-2.53 2.22-.64.81-1.11 1.63-1.49 2.44-.74 1.61-1.1 3.13-1.23 4.41-.25 2.57.31 4.12.89 4.15.64.03 1.22-1.37 2.14-3.36M151.58 108.3c-.38-.01-.8.02-1.27.12-.23.05-.48.12-.76.23-.27.11-.52.26-.75.42l-.36.28c-2.08 1.63-3.59 3.52-4.81 5.29a29.4 29.4 0 0 0-2.73 4.97c-1.27 2.96-1.5 5.01-1 5.19.51.19 1.61-1.39 3.4-3.84.9-1.22 1.95-2.67 3.2-4.17 1.25-1.49 2.68-3.08 4.34-4.38l.25-.2c-.01.01.01-.01.07-.02.1-.02.25-.05.43-.05.36-.01.79.04 1.22.13.87.18 1.76.49 2.59.84 1.67.71 3.13 1.6 4.35 2.38 2.42 1.59 3.93 2.76 4.35 2.4.2-.17.09-.7-.33-1.49s-1.16-1.84-2.27-3a19 19 0 0 0-4.52-3.49c-.97-.53-2.05-1.02-3.31-1.34-.64-.14-1.31-.27-2.09-.27M119.07 87.53c-4.65 4.11-10.09 8.59-14.5 10.09s-.74 3.9 1.79 3.79c1.36-.06-1.19 2.7 2.28 3.44 2.36.5 8.06-6.49 11.12-11.76 2.99-5.17 2.4-8.29-.69-5.56M92.37 147.73c.3-.12.43-.58.4-1.35-.04-.76-.28-1.82-.8-3.06s-1.34-2.65-2.54-4.01-2.75-2.67-4.6-3.67a17.8 17.8 0 0 0-5.53-1.93c-1.77-.3-3.4-.3-4.74-.09-1.35.19-2.42.59-3.1 1.03-.69.44-.95.91-.82 1.19.29.57 1.66.58 3.89 1.04 2.21.43 5.2 1.22 8.08 2.8.13.07.26.14.38.21-.06.06-.13.11-.18.17-.2.2-.39.4-.59.61-.18.23-.36.46-.55.72-.2.24-.36.55-.55.88-.09.17-.19.34-.29.52-.08.19-.16.39-.25.61-.33.73-.47 1.47-.62 2.18-.06.35-.07.68-.1 1.02-.01.33-.06.66-.03.95.04.59.08 1.16.17 1.66.11.48.23.93.36 1.32.11.4.28.72.44.99s.32.5.47.67c.31.34.6.46.86.36.26-.11.47-.43.63-.91.08-.24.15-.51.2-.81s.09-.64.16-.99c.06-.36.11-.73.14-1.13.07-.39.14-.78.19-1.19.02-.21.09-.39.13-.6.05-.2.08-.41.13-.6.14-.37.21-.77.38-1.11.35-.81.66-1.06 1.04-1.33.18-.15.41-.28.71-.45.08-.04.16-.09.25-.13s.19-.08.29-.13c.1-.04.22-.08.33-.13l.18-.06.08-.02.04-.01h-.02l-.01-.14c2.91 2.65 4.5 5.27 5.39 4.92M197.35 89.29c.37-1.24.81-2.34 1.19-3.3.79-1.88 1.35-3.17.91-3.57-.39-.37-1.76.26-3.34 2.01-.77.88-1.59 2.05-2.26 3.49-.67 1.43-1.18 3.12-1.42 4.93-.46 3.65.29 6.92 1.23 9.03.95 2.14 2.06 3.19 2.56 2.94.51-.25.39-1.61.23-3.68-.07-.86-.14-1.86-.17-2.93l.09.08c.04-.05.15-.16.23-.23.09-.08.17-.16.25-.23.16-.14.31-.26.45-.37.28-.21.51-.36.72-.48.22-.12.42-.22.64-.31.22-.08.47-.17.76-.19.48-.03.84.01 1.25.19.41.17.84.48 1.22.77.76.6 1.38 1.09 1.78.9.38-.17.51-.98.02-2.19-.25-.59-.68-1.3-1.46-1.91-.76-.62-1.98-1.01-3.14-.88-.67.07-1.12.21-1.5.32-.38.12-.68.23-1.02.37-.06.03-.12.06-.19.09.02-.26.05-.52.08-.79.2-1.44.51-2.82.89-4.06" class="st1"/>
</svg>
